G04*
G04 #@! TF.GenerationSoftware,Altium Limited,Altium Designer,23.2.1 (34)*
G04*
G04 Layer_Physical_Order=3*
G04 Layer_Color=128*
%FSAX44Y44*%
%MOMM*%
G71*
G04*
G04 #@! TF.SameCoordinates,82B26229-18A1-4F51-8350-021A8CAF8BEE*
G04*
G04*
G04 #@! TF.FilePolarity,Negative*
G04*
G01*
G75*
%ADD110C,1.0160*%
%ADD111C,2.2160*%
%ADD112O,9.0160X4.5160*%
%ADD113C,2.0160*%
%ADD114R,4.5160X2.0160*%
%ADD115R,4.0160X2.0160*%
%ADD116C,1.3970*%
%ADD117C,1.2160*%
%ADD118C,1.4160*%
%ADD119O,1.5160X2.2160*%
%ADD120R,2.0160X3.8160*%
D110*
X00000000Y00990000D02*
X00970000Y00990000D01*
X00000000Y-00005000D02*
X00970000Y-00005000D01*
Y00990000D01*
X00000000Y00990000D02*
X00000000Y-00005000D01*
D111*
X00912240Y00059410D02*
D03*
Y00024410D02*
D03*
X00059000Y00023140D02*
D03*
Y00058140D02*
D03*
Y00140690D02*
D03*
Y00105690D02*
D03*
Y00188240D02*
D03*
Y00223240D02*
D03*
Y00305790D02*
D03*
Y00270790D02*
D03*
Y00353340D02*
D03*
Y00388340D02*
D03*
Y00470890D02*
D03*
Y00435890D02*
D03*
Y00518440D02*
D03*
Y00553440D02*
D03*
Y00635990D02*
D03*
Y00600990D02*
D03*
Y00683540D02*
D03*
Y00718540D02*
D03*
Y00801090D02*
D03*
Y00766090D02*
D03*
Y00848640D02*
D03*
Y00883640D02*
D03*
Y00966190D02*
D03*
Y00931190D02*
D03*
X00911240Y00967660D02*
D03*
Y00932660D02*
D03*
X00911240Y00848620D02*
D03*
Y00883620D02*
D03*
Y00802351D02*
D03*
Y00767351D02*
D03*
Y00684810D02*
D03*
Y00719810D02*
D03*
Y00637260D02*
D03*
Y00602260D02*
D03*
X00911240Y00519710D02*
D03*
Y00554710D02*
D03*
Y00472160D02*
D03*
Y00437160D02*
D03*
X00911240Y00354610D02*
D03*
Y00389610D02*
D03*
X00911240Y00307060D02*
D03*
Y00272060D02*
D03*
X00912510Y00189510D02*
D03*
Y00224510D02*
D03*
X00912240Y00141960D02*
D03*
Y00106960D02*
D03*
X00346182Y00930910D02*
D03*
X00381182D02*
D03*
X00290504Y00053200D02*
D03*
X00255504D02*
D03*
X00220504D02*
D03*
X00587958D02*
D03*
X00622958D02*
D03*
X00657958D02*
D03*
X00536424D02*
D03*
X00501424D02*
D03*
X00466424D02*
D03*
X00344104D02*
D03*
X00379104D02*
D03*
X00414104D02*
D03*
X00508000Y00434000D02*
D03*
X00482600D02*
D03*
X00457200D02*
D03*
X00431800D02*
D03*
X00355092Y00895350D02*
D03*
X00431292Y00877570D02*
D03*
D112*
X00564957Y00430000D02*
D03*
X00374957Y00430000D02*
D03*
X00564957Y00192000D02*
D03*
X00374957Y00192000D02*
D03*
D113*
X00557559Y00790987D02*
D03*
X00582959D02*
D03*
X00608359D02*
D03*
X00424180Y00937260D02*
D03*
X00449580D02*
D03*
D114*
X00265430Y00878530D02*
D03*
D115*
Y00938530D02*
D03*
D116*
X00428250Y00627310D02*
D03*
X00546100Y00518160D02*
D03*
X00374580Y00532200D02*
D03*
D117*
X00775970Y00951230D02*
D03*
X00321310Y00887730D02*
D03*
X00327660Y00881380D02*
D03*
Y00887730D02*
D03*
Y00875030D02*
D03*
X00321310Y00881380D02*
D03*
X00327660Y00894080D02*
D03*
X00321310Y00875030D02*
D03*
Y00894080D02*
D03*
X00375999Y00914400D02*
D03*
X00387451D02*
D03*
X00401320Y00925830D02*
D03*
Y00937260D02*
D03*
X00387642Y00950949D02*
D03*
X00374722D02*
D03*
X00239949Y00918210D02*
D03*
Y00899160D02*
D03*
X00246299Y00918210D02*
D03*
X00239949Y00905510D02*
D03*
X00246299Y00899160D02*
D03*
Y00911860D02*
D03*
Y00905510D02*
D03*
X00239949Y00911860D02*
D03*
X00304800Y00287020D02*
D03*
X00725103Y00288140D02*
D03*
X00548668Y00099931D02*
D03*
X00154293Y00100295D02*
D03*
X00326528Y00466821D02*
D03*
X00282782Y00551052D02*
D03*
X00426720Y00733136D02*
D03*
X00130810Y00890270D02*
D03*
X00496570Y00924560D02*
D03*
X00692221Y00924729D02*
D03*
X00411444Y00732790D02*
D03*
X00466200Y00504430D02*
D03*
X00413887Y00704284D02*
D03*
X00740890Y00052325D02*
D03*
X00426197Y00099530D02*
D03*
X00347027Y00131478D02*
D03*
Y00104998D02*
D03*
X00328320Y00124738D02*
D03*
Y00118238D02*
D03*
X00328540Y00111738D02*
D03*
X00354027Y00137288D02*
D03*
X00469347Y00131478D02*
D03*
Y00104998D02*
D03*
X00450640Y00124738D02*
D03*
Y00118238D02*
D03*
X00450860Y00111738D02*
D03*
X00476347Y00137288D02*
D03*
X00670051Y00099530D02*
D03*
X00590881Y00131478D02*
D03*
Y00104998D02*
D03*
X00572174Y00124738D02*
D03*
Y00118238D02*
D03*
X00572394Y00111738D02*
D03*
X00597881Y00137288D02*
D03*
X00204720Y00124738D02*
D03*
X00223427Y00131478D02*
D03*
X00230427Y00137288D02*
D03*
X00204720Y00118238D02*
D03*
X00302597Y00099530D02*
D03*
X00204940Y00111738D02*
D03*
X00223427Y00104998D02*
D03*
X00635000Y00320040D02*
D03*
Y00312120D02*
D03*
X00607457D02*
D03*
Y00320040D02*
D03*
X00718464Y00188400D02*
D03*
X00655520Y00204470D02*
D03*
X00718464Y00266400D02*
D03*
X00655520Y00252730D02*
D03*
X00300424Y00266288D02*
D03*
Y00188288D02*
D03*
X00306406Y00343550D02*
D03*
X00411975Y00504430D02*
D03*
X00381000Y00467360D02*
D03*
X00431800Y00467110D02*
D03*
X00436720Y00557949D02*
D03*
X00454740Y00563880D02*
D03*
X00466151Y00557920D02*
D03*
X00487680Y00810260D02*
D03*
X00478790D02*
D03*
X00594360Y00524510D02*
D03*
X00240030Y00786210D02*
D03*
X00232410D02*
D03*
X00247650Y00786250D02*
D03*
X00232410Y00740370D02*
D03*
X00247650Y00740410D02*
D03*
X00240030D02*
D03*
X00169810Y00935330D02*
D03*
X00540260Y00797720D02*
D03*
X00540260Y00670720D02*
D03*
Y00543720D02*
D03*
X00688340Y00543400D02*
D03*
Y00670400D02*
D03*
Y00797400D02*
D03*
X00799679Y00879148D02*
D03*
X00759860Y00048791D02*
D03*
X00695860D02*
D03*
X00798093Y00302939D02*
D03*
X00839740Y00257810D02*
D03*
X00836141Y00331250D02*
D03*
X00840740Y00010160D02*
D03*
X00810960Y00064769D02*
D03*
X00160280Y00843281D02*
D03*
X00809903Y00642678D02*
D03*
X00809960Y00395670D02*
D03*
Y00478220D02*
D03*
X00810236Y00560351D02*
D03*
X00809960Y00725169D02*
D03*
X00809960Y00808331D02*
D03*
X00718464Y00443760D02*
D03*
Y00365760D02*
D03*
X00160280Y00513519D02*
D03*
X00171190Y00440020D02*
D03*
X00223200Y00476360D02*
D03*
Y00495860D02*
D03*
Y00502360D02*
D03*
Y00508860D02*
D03*
X00284480Y00458470D02*
D03*
X00270202Y00365760D02*
D03*
X00411364Y00749610D02*
D03*
X00448310Y00733136D02*
D03*
X00347980Y00656630D02*
D03*
X00426720Y00702310D02*
D03*
X00799093Y00137839D02*
D03*
X00840740Y00092710D02*
D03*
X00799363Y00220389D02*
D03*
X00841010Y00175260D02*
D03*
X00839740Y00340360D02*
D03*
Y00422910D02*
D03*
Y00505460D02*
D03*
Y00588010D02*
D03*
Y00670560D02*
D03*
X00839740Y00753101D02*
D03*
Y00834370D02*
D03*
X00798093Y00963540D02*
D03*
X00839740Y00918410D02*
D03*
X00130500Y00154940D02*
D03*
X00172147Y00109811D02*
D03*
X00130500Y00237490D02*
D03*
X00172147Y00192361D02*
D03*
X00130500Y00320040D02*
D03*
X00172147Y00274911D02*
D03*
X00130500Y00402590D02*
D03*
X00172147Y00357461D02*
D03*
X00130500Y00485140D02*
D03*
Y00567690D02*
D03*
Y00650240D02*
D03*
X00172147Y00605111D02*
D03*
X00130500Y00732790D02*
D03*
X00172147Y00687661D02*
D03*
X00130500Y00815340D02*
D03*
X00172147Y00770211D02*
D03*
X00130500Y00980440D02*
D03*
X00172147Y00027261D02*
D03*
X00130500Y00072390D02*
D03*
D118*
X00862010Y00307165D02*
D03*
Y00299545D02*
D03*
X00869630D02*
D03*
Y00307165D02*
D03*
X00877250Y00299545D02*
D03*
Y00307165D02*
D03*
X00884831Y00307140D02*
D03*
X00884870Y00299545D02*
D03*
X00863010Y00051895D02*
D03*
X00885870D02*
D03*
X00870630D02*
D03*
X00878250D02*
D03*
X00885831Y00059490D02*
D03*
X00863010Y00059515D02*
D03*
X00878250D02*
D03*
X00870630D02*
D03*
X00389380Y00717758D02*
D03*
X00355390Y00767241D02*
D03*
X00363890D02*
D03*
X00372390D02*
D03*
X00363890Y00758741D02*
D03*
X00372390D02*
D03*
X00355390D02*
D03*
X00403400Y00717641D02*
D03*
X00396390Y00717700D02*
D03*
X00884870Y00960145D02*
D03*
X00877250D02*
D03*
X00862010D02*
D03*
X00869630D02*
D03*
X00877250Y00967765D02*
D03*
X00869630D02*
D03*
X00862010D02*
D03*
X00884831Y00967740D02*
D03*
X00884870Y00876105D02*
D03*
X00877250D02*
D03*
X00862010D02*
D03*
X00869630D02*
D03*
X00877250Y00883725D02*
D03*
X00869630D02*
D03*
X00862010D02*
D03*
X00884831Y00883700D02*
D03*
X00884870Y00794836D02*
D03*
X00877250D02*
D03*
X00862010D02*
D03*
X00869630D02*
D03*
X00877250Y00802456D02*
D03*
X00869630D02*
D03*
X00862010D02*
D03*
X00884831Y00802431D02*
D03*
X00884870Y00712295D02*
D03*
X00877250D02*
D03*
X00862010D02*
D03*
X00869630D02*
D03*
X00877250Y00719915D02*
D03*
X00869630D02*
D03*
X00862010D02*
D03*
X00884831Y00719890D02*
D03*
X00884870Y00629745D02*
D03*
X00877250D02*
D03*
X00862010D02*
D03*
X00869630D02*
D03*
X00877250Y00637365D02*
D03*
X00869630D02*
D03*
X00862010D02*
D03*
X00884831Y00637340D02*
D03*
X00884870Y00547195D02*
D03*
X00877250D02*
D03*
X00862010D02*
D03*
X00869630D02*
D03*
X00877250Y00554815D02*
D03*
X00869630D02*
D03*
X00862010D02*
D03*
X00884831Y00554790D02*
D03*
X00884870Y00464645D02*
D03*
X00877250D02*
D03*
X00862010D02*
D03*
X00869630D02*
D03*
X00877250Y00472265D02*
D03*
X00869630D02*
D03*
X00862010D02*
D03*
X00884831Y00472240D02*
D03*
X00884870Y00382095D02*
D03*
X00877250D02*
D03*
X00862010D02*
D03*
X00869630D02*
D03*
X00877250Y00389715D02*
D03*
X00869630D02*
D03*
X00862010D02*
D03*
X00884831Y00389690D02*
D03*
X00886140Y00216995D02*
D03*
X00878520D02*
D03*
X00863280D02*
D03*
X00870900D02*
D03*
X00878520Y00224615D02*
D03*
X00870900D02*
D03*
X00863280D02*
D03*
X00886101Y00224590D02*
D03*
X00885870Y00134445D02*
D03*
X00878250D02*
D03*
X00863010D02*
D03*
X00870630D02*
D03*
X00878250Y00142065D02*
D03*
X00870630D02*
D03*
X00863010D02*
D03*
X00885831Y00142040D02*
D03*
X00085370Y00938705D02*
D03*
X00092990D02*
D03*
X00108230D02*
D03*
X00100610D02*
D03*
X00092990Y00931085D02*
D03*
X00100610D02*
D03*
X00108230D02*
D03*
X00085409Y00931111D02*
D03*
X00085370Y00856155D02*
D03*
X00092990D02*
D03*
X00108230D02*
D03*
X00100610D02*
D03*
X00092990Y00848536D02*
D03*
X00100610D02*
D03*
X00108230D02*
D03*
X00085409Y00848560D02*
D03*
X00085370Y00773605D02*
D03*
X00092990D02*
D03*
X00108230D02*
D03*
X00100610D02*
D03*
X00092990Y00765985D02*
D03*
X00100610D02*
D03*
X00108230D02*
D03*
X00085409Y00766011D02*
D03*
X00085370Y00691055D02*
D03*
X00092990D02*
D03*
X00108230D02*
D03*
X00100610D02*
D03*
X00092990Y00683435D02*
D03*
X00100610D02*
D03*
X00108230D02*
D03*
X00085409Y00683460D02*
D03*
X00085370Y00608505D02*
D03*
X00092990D02*
D03*
X00108230D02*
D03*
X00100610D02*
D03*
X00092990Y00600885D02*
D03*
X00100610D02*
D03*
X00108230D02*
D03*
X00085409Y00600910D02*
D03*
X00085370Y00525955D02*
D03*
X00092990D02*
D03*
X00108230D02*
D03*
X00100610D02*
D03*
X00092990Y00518335D02*
D03*
X00100610D02*
D03*
X00108230D02*
D03*
X00085409Y00518360D02*
D03*
X00085370Y00443405D02*
D03*
X00092990D02*
D03*
X00108230D02*
D03*
X00100610D02*
D03*
X00092990Y00435785D02*
D03*
X00100610D02*
D03*
X00108230D02*
D03*
X00085409Y00435811D02*
D03*
X00085370Y00360855D02*
D03*
X00092990D02*
D03*
X00108230D02*
D03*
X00100610D02*
D03*
X00092990Y00353235D02*
D03*
X00100610D02*
D03*
X00108230D02*
D03*
X00085409Y00353260D02*
D03*
X00085370Y00278305D02*
D03*
X00092990D02*
D03*
X00108230D02*
D03*
X00100610D02*
D03*
X00092990Y00270685D02*
D03*
X00100610D02*
D03*
X00108230D02*
D03*
X00085409Y00270711D02*
D03*
X00085370Y00195755D02*
D03*
X00092990D02*
D03*
X00108230D02*
D03*
X00100610D02*
D03*
X00092990Y00188135D02*
D03*
X00100610D02*
D03*
X00108230D02*
D03*
X00085409Y00188160D02*
D03*
X00085370Y00113205D02*
D03*
X00092990D02*
D03*
X00108230D02*
D03*
X00100610D02*
D03*
X00092990Y00105585D02*
D03*
X00100610D02*
D03*
X00108230D02*
D03*
X00085409Y00105611D02*
D03*
Y00023060D02*
D03*
X00108230Y00023035D02*
D03*
X00100610D02*
D03*
X00092990D02*
D03*
X00100610Y00030655D02*
D03*
X00108230D02*
D03*
X00092990D02*
D03*
X00085370D02*
D03*
D119*
X00694860Y00007540D02*
D03*
X00760860D02*
D03*
D120*
X00218430Y00908530D02*
D03*
M02*
