M48
;Layer_Color=9474304
;FILE_FORMAT=4:4
METRIC
;TYPE=PLATED
T1F00S00C0.2000
T2F00S00C0.3810
T3F00S00C0.4000
T5F00S00C1.0000
T7F00S00C1.2000
%
T01
X00077160Y00035560
Y00118110
X00154293Y00100295
X00172147Y00109811
X00204940Y00111738
X00204720Y00118238
Y00124738
X00223427Y00131478
X00230427Y00137288
X00223427Y00104998
X00275676Y00099894
X00302597Y00099530
X00328540Y00111738
X00328320Y00118238
Y00124738
X00347027Y00131478
X00354027Y00137288
X00347027Y00104998
X00399276Y00099894
X00426197Y00099530
X00450860Y00111738
X00450640Y00118238
Y00124738
X00469347Y00131478
X00476347Y00137288
X00469347Y00104998
X00395025Y00138989
X00271425
X00130500Y00072390
X00172147Y00027261
X00521596Y00099894
X00548668Y00099931
X00572394Y00111738
X00572174Y00118238
Y00124738
X00590881Y00131478
X00597881Y00137288
X00590881Y00104998
X00643130Y00099894
X00670051Y00099530
X00638879Y00138989
X00517345
X00695860Y00048791
X00740890Y00052325
X00759860Y00048791
X00810960Y00064769
X00840740Y00092710
Y00010160
X00894080Y00046990
Y00129540
X00799093Y00137839
X00841010Y00175260
X00839740Y00257810
X00836141Y00331250
X00839740Y00340360
X00798093Y00302939
X00799363Y00220389
X00894350Y00212090
X00893080Y00294640
Y00377190
Y00459740
X00839740Y00422910
X00809960Y00395670
Y00478220
X00839740Y00505460
X00718464Y00443760
Y00365760
X00682742Y00357904
X00635000Y00320040
Y00312120
X00607457
Y00320040
X00655520Y00252730
X00682742Y00270146
X00718464Y00266400
X00725103Y00288140
X00718464Y00188400
X00655520Y00204470
X00594360Y00524510
X00466200Y00504430
X00431800Y00502930
X00411975Y00504430
X00382319Y00501861
X00381000Y00467360
X00356870Y00466090
X00349250Y00466230
X00341630Y00466090
X00326528Y00466821
X00284480Y00458470
X00223200Y00476360
Y00495860
Y00502360
Y00508860
X00160280Y00513519
X00130500Y00485140
Y00402590
X00171190Y00440020
X00172147Y00357461
X00130500Y00320040
Y00237490
X00172147Y00274911
Y00192361
X00130500Y00154940
X00300424Y00188288
Y00266288
X00304800Y00287020
X00264702Y00274391
X00264702Y00357743
X00270202Y00365760
X00306406Y00343550
X00431800Y00467110
X00436720Y00531560
X00077160Y00530860
Y00448310
Y00365760
Y00283210
Y00200660
Y00613410
Y00695960
Y00778510
X00077160Y00861060
X00123260Y00888150
X00130810Y00890270
X00130500Y00815340
X00160280Y00843281
X00172147Y00770211
X00232410Y00786210
X00240030
X00247650Y00786250
Y00740410
X00240030
X00232410Y00740370
X00130500Y00732790
Y00650240
X00172147Y00687661
Y00605111
X00130500Y00567690
X00282782Y00551052
X00295782
X00436720Y00557949
X00454740Y00563880
X00466151Y00557920
X00441148Y00656630
X00426720Y00702310
X00413887Y00704284
X00411444Y00732790
X00426720Y00733136
X00448310
X00411364Y00749610
X00478790Y00810260
X00487680
X00496570Y00924560
X00401320Y00925830
X00387451Y00914400
X00375999
X00327660Y00894080
Y00887730
X00321310
Y00881380
X00327660
Y00875030
X00321310
Y00894080
X00246299Y00899160
X00239949
Y00905510
X00246299
Y00911860
Y00918210
X00239949
Y00911860
X00169810Y00935330
X00347980Y00656630
X00540260Y00670720
Y00543720
X00688340Y00543400
Y00670400
Y00797400
X00692221Y00924729
X00799679Y00879148
X00839740Y00918410
X00839740Y00834370
X00809960Y00808331
X00809960Y00725169
X00839740Y00753101
X00839740Y00670560
X00809903Y00642678
X00810236Y00560351
X00839740Y00588010
X00893080Y00624840
Y00542290
Y00707390
X00893080Y00789931
Y00871200
X00540260Y00797720
X00775970Y00951230
X00773550Y00980440
X00798093Y00963540
X00893080Y00955240
X00387642Y00950949
X00374722
X00401320Y00937260
X00130500Y00980440
T02
X00546100Y00518160
X00374580Y00532200
X00428250Y00627310
T03
X00085409Y00023060
X00092990Y00023035
X00100610
X00108230
Y00030655
X00100610
X00092990
X00085370
X00085409Y00105611
X00092990Y00105585
Y00113205
X00085370
X00100610
X00108230
Y00105585
X00100610
X00863010Y00134445
X00870630
X00878250
X00885870
X00885831Y00142040
X00878250Y00142065
X00870630
X00863010
Y00059515
Y00051895
X00870630
X00878250
X00885870
X00885831Y00059490
X00878250Y00059515
X00870630
X00870900Y00216995
X00878520
X00886140
X00886101Y00224590
X00878520Y00224615
X00870900
X00863280
Y00216995
X00862010Y00299545
Y00307165
X00869630
Y00299545
X00877250
Y00307165
X00884831Y00307140
X00884870Y00299545
Y00382095
X00877250
X00869630
X00862010
Y00389715
X00869630
X00877250
X00884831Y00389690
X00884870Y00464645
X00877250
X00869630
X00862010
Y00472265
X00869630
X00877250
X00884831Y00472240
X00108230Y00443405
X00100610
X00092990
X00085370
X00085409Y00435811
X00092990Y00435785
X00100610
X00108230
Y00360855
X00100610
X00092990
X00085370
X00085409Y00353260
X00092990Y00353235
X00100610
X00108230
Y00278305
X00100610
X00092990
X00085370
X00085409Y00270711
X00092990Y00270685
X00100610
X00108230
Y00195755
X00100610
X00092990
X00085370
X00085409Y00188160
X00092990Y00188135
X00100610
X00108230
Y00518335
Y00525955
X00100610
X00092990
X00085370
X00085409Y00518360
X00092990Y00518335
X00100610
Y00600885
Y00608505
X00092990
X00085370
X00085409Y00600910
X00092990Y00600885
X00108230
Y00608505
Y00683435
Y00691055
X00100610
X00092990
X00085370
X00085409Y00683460
X00092990Y00683435
X00100610
Y00765985
Y00773605
X00092990
X00085370
X00085409Y00766011
X00092990Y00765985
X00108230
Y00773605
Y00848536
Y00856155
X00100610
X00092990
X00085370
X00085409Y00848560
X00092990Y00848536
X00100610
Y00931085
X00092990
X00085409Y00931111
X00108230Y00931085
X00355390Y00767241
X00363890
X00372390
Y00758741
X00363890
X00355390
X00389380Y00717758
X00396390Y00717700
X00403400Y00717641
X00462280Y00752830
X00470000
Y00760550
X00462280
X00862010Y00794836
X00869630
X00877250
X00884870
X00884831Y00802431
X00877250Y00802456
X00869630
X00862010
Y00876105
X00869630
X00877250
X00884870
X00884831Y00883700
X00877250Y00883725
X00869630
X00862010
Y00719915
Y00712295
X00869630
X00877250
X00884870
X00884831Y00719890
X00877250Y00719915
X00869630
X00869630Y00637365
Y00629745
X00877250
X00884870
X00884831Y00637340
X00877250Y00637365
X00862010
Y00629745
Y00554815
Y00547195
X00869630
X00877250
X00884870
X00884831Y00554790
X00877250Y00554815
X00869630
Y00960145
X00877250
X00884870
X00884831Y00967740
X00877250Y00967765
X00869630
X00862010
Y00960145
X00108230Y00938705
X00100610
X00092990
X00085370
T05
X00557559Y00790987
X00582959
X00608359
X00474980Y00937260
X00449580
X00424180
T07
X00059000Y00023140
Y00058140
Y00105690
Y00140690
X00220504Y00053200
X00255504
X00290504
X00344104
X00379104
X00414104
X00466424
X00501424
X00536424
X00587958
X00622958
X00657958
X00912240Y00059410
Y00024410
Y00106960
Y00141960
X00912510Y00189510
Y00224510
X00911240Y00272060
Y00307060
X00911240Y00354610
Y00389610
X00911240Y00437160
Y00472160
Y00519710
X00508000Y00434000
X00482600
X00457200
X00431800
X00059000Y00435890
Y00470890
Y00518440
Y00388340
Y00353340
Y00305790
Y00270790
Y00223240
Y00188240
Y00553440
Y00600990
Y00635990
Y00683540
Y00718540
Y00766090
Y00801090
Y00848640
Y00883640
Y00931190
X00346182Y00930910
X00381182
X00355092Y00895350
X00431292Y00877570
X00911240Y00883620
Y00848620
Y00802351
Y00767351
Y00719810
Y00684810
Y00637260
Y00602260
X00911240Y00554710
Y00932660
Y00967660
X00059000Y00966190
M30
