M48
;Layer_Color=9474304
;FILE_FORMAT=4:4
METRIC
;TYPE=PLATED
T1F00S00C0.2000
T2F00S00C1.2000
T3F00S00C3.2000
%
T01
X00196000Y00069002
X00199000
X00202000Y00069002
X00205000Y00069002
X00208000
X00211000Y00069002
X00214000Y00069002
X00217000
X00220000
X00223000
X00226000Y00069002
X00229000Y00069002
X00232000
X00235000Y00069002
X00238000Y00069002
X00241000Y00069002
X00244000Y00069002
X00516000
X00519000
X00522000Y00069002
X00525000Y00069002
X00528000
X00531000Y00069002
X00534000Y00069002
X00537000
X00540000
X00543000
X00546000Y00069002
X00549000Y00069002
X00552000
X00555000Y00069002
X00558000Y00069002
X00561000Y00069002
X00564000Y00069002
X00836001
X00839001
X00842001Y00069002
X00845001Y00069002
X00848001
X00851001Y00069002
X00854001Y00069002
X00857001
X00860001
X00863001
X00866001Y00069002
X00869001Y00069002
X00872001
X00875001Y00069002
X00878001Y00069002
X00881001Y00069002
X00884001Y00069002
X00925291Y00195116
Y00204006
X00926041Y00211626
X00925343Y00220000
X00926041Y00226866
X00925291Y00234486
X00924021Y00250996
X00934331Y00259087
X00925291Y00270046
Y00280206
Y00290366
X00945181Y00289526
X01010998Y00244000
Y00241000
Y00238000
Y00235000
Y00232000
Y00229000
Y00226000
Y00223000
Y00220000
Y00217000
Y00214000
Y00211000
Y00208000
Y00205000
Y00202000
Y00199000
Y00196000
Y00516000
Y00519000
Y00522000
Y00525000
Y00528000
Y00531000
Y00534000
Y00537000
X00926041Y00531626
X00925291Y00524006
Y00515116
X00896971Y00506396
X00903559Y00494236
Y00487736
Y00481236
X00887735Y00532070
X00868071Y00520266
X00860071
X00852071
X00809721Y00492256
X00770351Y00504956
X00751301Y00507496
Y00520196
X00738601
X00725901
X00709003Y00519000
Y00516000
Y00522000
Y00525000
Y00528000
Y00531000
Y00534000
Y00537000
X00715550Y00531903
X00690998Y00531000
Y00528000
Y00525000
Y00522000
Y00519000
Y00516000
Y00534000
Y00537000
X00606040Y00531626
X00605290Y00524006
Y00515116
X00576970Y00506396
X00583559Y00494236
Y00487736
Y00481236
X00567735Y00532070
X00548070Y00520266
X00540070
X00532070
X00531000Y00389002
X00528000Y00389002
X00525000
X00522000Y00389002
X00519000Y00389002
X00534000
X00537000
X00540000
X00543000
X00546000Y00389002
X00549000Y00389002
X00552000
X00555000Y00389002
X00558000Y00389002
X00561000Y00389002
X00564000Y00389002
X00564000Y00370998
X00561000
X00558000Y00370998
X00555000Y00370998
X00552000
X00549000Y00370998
X00546000Y00370998
X00543000
X00540000
X00537000
X00534000Y00370998
X00531000Y00370998
X00528000
X00525000Y00370998
X00522000Y00370998
X00519000Y00370998
X00523692Y00294339
X00529715Y00294390
X00529090Y00284016
X00548140Y00282746
X00567191Y00290366
X00605290
Y00280206
Y00270046
X00614330Y00259087
X00604021Y00250996
X00605290Y00234486
X00606040Y00226866
X00605343Y00220000
X00606040Y00211626
X00605290Y00204006
Y00195116
X00576970Y00186395
X00583559Y00174235
Y00167736
Y00161235
X00567735Y00212070
Y00220070
Y00228070
X00548140Y00245916
X00540134Y00240431
X00541216Y00257598
X00557744Y00259151
X00517660Y00239566
X00532070Y00200266
X00540070
X00548070
X00690998Y00199000
Y00196000
Y00202000
Y00205000
Y00208000
Y00211000
Y00214000
Y00217000
Y00220000
Y00223000
Y00226000
Y00229000
Y00232000
Y00235000
Y00238000
Y00241000
Y00244000
X00709003
Y00241000
Y00238000
Y00235000
Y00232000
Y00229000
Y00226000
Y00223000
Y00220000
Y00217000
Y00214000
Y00211000
Y00208000
Y00205000
Y00202000
Y00199000
Y00196000
X00725901Y00200196
X00738601
X00751301
Y00187496
Y00174796
Y00162096
Y00149396
X00770351Y00184956
X00809721Y00172256
X00813571Y00234526
X00813531Y00245916
X00800831Y00230676
X00837661Y00239566
X00860135Y00240431
X00868141Y00245916
X00861216Y00257598
X00877744Y00259151
X00868141Y00282746
X00849091Y00284016
X00849715Y00294390
X00843692Y00294339
X00887191Y00290366
X00887735Y00228070
Y00220070
Y00212070
X00868071Y00200266
X00860071
X00852071
X00896971Y00186395
X00903559Y00174235
Y00167736
Y00161235
X00884001Y00370998
X00881001
X00878001Y00370998
X00875001Y00370998
X00872001
X00869001Y00370998
X00866001Y00370998
X00863001
X00860001
X00857001
X00854001Y00370998
X00851001Y00370998
X00848001
X00845001Y00370998
X00842001Y00370998
X00839001Y00370998
X00836001Y00370998
X00836001Y00389002
X00839001
X00842001Y00389002
X00845001Y00389002
X00848001
X00851001Y00389002
X00854001Y00389002
X00857001
X00860001
X00863001
X00866001Y00389002
X00869001Y00389002
X00872001
X00875001Y00389002
X00878001Y00389002
X00881001Y00389002
X00884001Y00389002
X00751301Y00469396
Y00482096
Y00494796
X00758101Y00256526
X00731638Y00224326
X00724979Y00224326
X00718888Y00224326
X00715550Y00211903
X00625181Y00289526
X00493531Y00245916
X00493571Y00234526
X00480830Y00230676
X00489720Y00172256
X00450350Y00184956
X00431301Y00187496
Y00200196
X00418601
X00405900
X00389003Y00199000
Y00196000
Y00202000
Y00205000
Y00208000
Y00211000
Y00214000
Y00217000
Y00220000
Y00223000
Y00226000
Y00229000
Y00232000
Y00235000
Y00238000
Y00241000
Y00244000
X00370998
Y00241000
Y00238000
Y00235000
Y00232000
Y00229000
Y00226000
Y00223000
Y00220000
Y00217000
Y00214000
Y00211000
Y00208000
Y00205000
Y00202000
Y00199000
Y00196000
X00395550Y00211903
X00398888Y00224326
X00404979Y00224326
X00411638Y00224326
X00438101Y00256526
X00431301Y00174796
Y00162096
Y00149396
X00263559Y00161235
Y00167736
Y00174235
X00256970Y00186395
X00247735Y00212070
Y00220070
Y00228070
X00228140Y00245916
X00220134Y00240431
X00221215Y00257598
X00237744Y00259151
X00228140Y00282746
X00209090Y00284016
X00209714Y00294390
X00203691Y00294339
X00247190Y00290366
X00285290
Y00280206
Y00270046
X00294330Y00259087
X00284020Y00250996
X00285290Y00234486
X00286040Y00226866
X00285343Y00220000
X00286040Y00211626
X00285290Y00204006
Y00195116
X00228070Y00200266
X00220070
X00212070
X00197660Y00239566
X00173570Y00234526
X00173530Y00245916
X00160830Y00230676
X00169720Y00172256
X00130350Y00184956
X00196000Y00370998
X00199000Y00370998
X00202000Y00370998
X00205000Y00370998
X00208000Y00370998
X00211000
X00214000Y00370998
X00217000Y00370998
X00220000
X00223000
X00226000
X00229000Y00370998
X00232000Y00370998
X00235000
X00238000Y00370998
X00241000Y00370998
X00244000
X00244000Y00389002
X00241000Y00389002
X00238000Y00389002
X00235000Y00389002
X00232000Y00389002
X00229000
X00226000Y00389002
X00223000Y00389002
X00220000
X00217000
X00214000
X00211000Y00389002
X00208000Y00389002
X00205000
X00202000Y00389002
X00199000Y00389002
X00196000
X00169720Y00492256
X00130350Y00504956
X00212070Y00520266
X00220070
X00228070
X00247735Y00532070
X00256970Y00506396
X00263559Y00494236
Y00487736
Y00481236
X00285290Y00515116
Y00524006
X00286040Y00531626
X00370998Y00531000
Y00528000
Y00525000
Y00522000
Y00519000
Y00516000
Y00534000
Y00537000
X00389003
Y00534000
Y00531000
Y00528000
Y00525000
Y00522000
Y00519000
Y00516000
X00405900Y00520196
X00418601
X00431301
Y00507496
Y00494796
Y00482096
Y00469396
X00450350Y00504956
X00489720Y00492256
X00516000Y00389002
X00516000Y00370998
X00395550Y00531903
X00305180Y00289526
X00118100Y00256526
X00091638Y00224326
X00084979Y00224326
X00078888Y00224326
X00069002Y00223000
Y00220000
Y00217000
Y00214000
Y00211000
Y00208000
Y00205000
Y00202000
Y00199000
Y00196000
X00085900Y00200196
X00098600
X00111300
Y00187496
Y00174796
Y00162096
Y00149396
X00075549Y00211903
X00069002Y00226000
Y00229000
Y00232000
Y00235000
Y00238000
Y00241000
Y00244000
X00111300Y00469396
Y00482096
Y00494796
Y00507496
Y00520196
X00098600
X00085900
X00069002Y00519000
Y00516000
Y00522000
Y00525000
Y00528000
Y00531000
Y00534000
Y00537000
X00075549Y00531903
X00069002Y00540000
Y00543000
Y00546000
Y00549000
Y00552000
Y00555000
Y00558000
Y00561000
Y00564000
X00078888Y00544326
X00084979Y00544326
X00091638Y00544326
X00118100Y00576526
X00111300Y00789396
Y00802096
Y00814796
Y00827496
Y00840196
X00098600
X00085900
X00069002Y00839000
Y00836001
Y00842001
Y00845001
Y00848000
Y00851001
Y00854000
Y00857000
Y00860000
Y00863000
Y00866000
Y00869000
Y00872000
Y00875000
Y00878000
Y00881000
Y00884000
X00078888Y00864326
X00084979Y00864326
X00091638Y00864326
X00075549Y00851903
X00118100Y00896526
X00173530Y00885916
X00173570Y00874526
X00160830Y00870676
X00197660Y00879566
X00220134Y00880431
X00228140Y00885916
X00221215Y00897598
X00237744Y00899151
X00228140Y00922746
X00209090Y00924016
X00209714Y00934390
X00203691Y00934339
X00247190Y00930366
X00285290
Y00920206
Y00910046
X00294330Y00899087
X00284020Y00890996
X00285290Y00874486
X00286040Y00866866
X00285343Y00860001
X00286040Y00851626
X00285290Y00844006
Y00835116
X00256970Y00826396
X00263559Y00814236
Y00807736
Y00801236
X00247735Y00852071
Y00860071
Y00868071
X00228070Y00840266
X00220070
X00212070
X00169720Y00812256
X00130350Y00824956
X00196000Y00709003
X00199000
X00202000Y00709003
X00205000Y00709003
X00208000
X00211000Y00709003
X00214000Y00709003
X00217000
X00220000
X00223000
X00226000Y00709003
X00229000Y00709003
X00232000
X00235000Y00709003
X00238000Y00709003
X00241000Y00709003
X00244000Y00709003
X00244000Y00690998
X00241000
X00238000Y00690998
X00235000Y00690998
X00232000
X00229000Y00690998
X00226000Y00690998
X00223000
X00220000
X00217000
X00214000Y00690998
X00211000Y00690998
X00208000
X00205000Y00690998
X00202000Y00690998
X00199000Y00690998
X00196000Y00690998
X00203691Y00614339
X00209714Y00614390
X00209090Y00604016
X00228140Y00602746
X00247190Y00610366
X00285290
Y00600206
Y00590046
X00294330Y00579087
X00284020Y00570996
X00285290Y00554486
X00286040Y00546866
X00285343Y00540000
X00247735Y00540070
Y00548070
X00228140Y00565916
X00220134Y00560431
X00221215Y00577598
X00237744Y00579151
X00197660Y00559566
X00173570Y00554526
X00173530Y00565916
X00160830Y00550676
X00305180Y00609526
X00370998Y00564000
Y00561000
Y00558000
Y00555000
Y00552000
Y00549000
Y00546000
Y00543000
Y00540000
X00389003
Y00543000
Y00546000
Y00549000
Y00552000
Y00555000
Y00558000
Y00561000
Y00564000
X00398888Y00544326
X00404979Y00544326
X00411638Y00544326
X00438101Y00576526
X00493531Y00565916
X00493571Y00554526
X00480830Y00550676
X00516000Y00690998
X00516000Y00709003
X00489720Y00812256
X00450350Y00824956
X00431301Y00827496
Y00840196
X00418601
X00405900
X00389003Y00839000
Y00836001
Y00842001
Y00845001
Y00848000
Y00851001
Y00854000
Y00857000
Y00860000
Y00863000
Y00866000
Y00869000
Y00872000
Y00875000
Y00878000
Y00881000
Y00884000
X00370998
Y00881000
Y00878000
Y00875000
Y00872000
Y00869000
Y00866000
Y00863000
Y00860000
Y00857000
Y00854000
Y00851001
Y00848000
Y00845001
Y00842001
Y00839000
Y00836001
X00395550Y00851903
X00398888Y00864326
X00404979Y00864326
X00411638Y00864326
X00438101Y00896526
X00493531Y00885916
X00493571Y00874526
X00480830Y00870676
X00431301Y00814796
Y00802096
Y00789396
X00305180Y00929526
X00523692Y00934339
X00529715Y00934390
X00529090Y00924016
X00548140Y00922746
X00567191Y00930366
X00605290
Y00920206
Y00910046
X00614330Y00899087
X00604021Y00890996
X00605290Y00874486
X00606040Y00866866
X00605343Y00860001
X00606040Y00851626
X00605290Y00844006
Y00835116
X00576970Y00826396
X00583559Y00814236
Y00807736
Y00801236
X00567735Y00852071
Y00860071
Y00868071
X00548140Y00885916
X00540134Y00880431
X00541216Y00897598
X00557744Y00899151
X00517660Y00879566
X00532070Y00840266
X00540070
X00548070
X00549000Y00709003
X00552000
X00555000Y00709003
X00558000Y00709003
X00561000Y00709003
X00564000Y00709003
X00546000Y00709003
X00543000Y00709003
X00540000
X00537000
X00534000
X00531000Y00709003
X00528000Y00709003
X00525000
X00522000Y00709003
X00519000Y00709003
X00519000Y00690998
X00522000Y00690998
X00525000Y00690998
X00528000Y00690998
X00531000
X00534000Y00690998
X00537000Y00690998
X00540000
X00543000
X00546000
X00549000Y00690998
X00552000Y00690998
X00555000
X00558000Y00690998
X00561000Y00690998
X00564000
X00567191Y00610366
X00548140Y00602746
X00529090Y00604016
X00529715Y00614390
X00523692Y00614339
X00541216Y00577598
X00557744Y00579151
X00548140Y00565916
X00540134Y00560431
X00517660Y00559566
X00567735Y00548070
Y00540070
X00605343Y00540000
X00606040Y00546866
X00605290Y00554486
X00604021Y00570996
X00614330Y00579087
X00605290Y00590046
Y00600206
Y00610366
X00625181Y00609526
X00690998Y00564000
Y00561000
Y00558000
Y00555000
Y00552000
Y00549000
Y00546000
Y00543000
Y00540000
X00709003
Y00543000
Y00546000
Y00549000
Y00552000
Y00555000
Y00558000
Y00561000
Y00564000
X00718888Y00544326
X00724979Y00544326
X00731638Y00544326
X00758101Y00576526
X00813531Y00565916
X00813571Y00554526
X00800831Y00550676
X00837661Y00559566
X00860135Y00560431
X00868141Y00565916
X00861216Y00577598
X00877744Y00579151
X00868141Y00602746
X00849091Y00604016
X00849715Y00614390
X00843692Y00614339
X00887191Y00610366
X00887735Y00548070
Y00540070
X00884001Y00690998
X00881001
X00878001Y00690998
X00875001Y00690998
X00872001
X00869001Y00690998
X00866001Y00690998
X00863001
X00860001
X00857001
X00854001Y00690998
X00851001Y00690998
X00848001
X00845001Y00690998
X00842001Y00690998
X00839001Y00690998
X00836001Y00690998
X00836001Y00709003
X00839001
X00842001Y00709003
X00845001Y00709003
X00848001
X00851001Y00709003
X00854001Y00709003
X00857001
X00860001
X00863001
X00866001Y00709003
X00869001Y00709003
X00872001
X00875001Y00709003
X00878001Y00709003
X00881001Y00709003
X00884001Y00709003
X00903559Y00801236
Y00807736
Y00814236
X00896971Y00826396
X00887735Y00852071
Y00860071
Y00868071
X00868141Y00885916
X00860135Y00880431
X00861216Y00897598
X00877744Y00899151
X00868141Y00922746
X00849091Y00924016
X00849715Y00934390
X00843692Y00934339
X00887191Y00930366
X00837661Y00879566
X00813571Y00874526
X00813531Y00885916
X00800831Y00870676
X00809721Y00812256
X00770351Y00824956
X00751301Y00827496
Y00840196
X00738601
X00725901
X00709003Y00839000
Y00836001
Y00842001
Y00845001
Y00848000
Y00851001
Y00854000
Y00857000
Y00860000
Y00863000
Y00866000
Y00869000
Y00872000
Y00875000
Y00878000
Y00881000
Y00884000
X00690998
Y00881000
Y00878000
Y00875000
Y00872000
Y00869000
Y00866000
Y00863000
Y00860000
Y00857000
Y00854000
Y00851001
Y00848000
Y00845001
Y00842001
Y00839000
Y00836001
X00715550Y00851903
X00718888Y00864326
X00724979Y00864326
X00731638Y00864326
X00758101Y00896526
X00751301Y00814796
Y00802096
Y00789396
X00852071Y00840266
X00860071
X00868071
X00625181Y00929526
X00925291Y00930366
Y00920206
Y00910046
X00934331Y00899087
X00924021Y00890996
X00925291Y00874486
X00926041Y00866866
X00925343Y00860001
X00926041Y00851626
X00925291Y00844006
Y00835116
X01010998Y00836001
Y00839000
Y00842001
Y00845001
Y00848000
Y00851001
Y00854000
Y00857000
Y00860000
Y00863000
Y00866000
Y00869000
Y00872000
Y00875000
Y00878000
Y00881000
Y00884000
X00945181Y00929526
Y00609526
X00925291Y00610366
Y00600206
Y00590046
X00934331Y00579087
X00924021Y00570996
X00925291Y00554486
X00926041Y00546866
X00925343Y00540000
X01010998Y00540000
Y00543000
Y00546000
Y00549000
Y00552000
Y00555000
Y00558000
Y00561000
Y00564000
X00884001Y01010998
X00881001
X00878001Y01010998
X00875001Y01010998
X00872001
X00869001Y01010998
X00866001Y01010998
X00863001
X00860001
X00857001
X00854001Y01010998
X00851001Y01010998
X00848001
X00845001Y01010998
X00842001Y01010998
X00839001Y01010998
X00836001Y01010998
X00564000
X00561000
X00558000Y01010998
X00555000Y01010998
X00552000
X00549000Y01010998
X00546000Y01010998
X00543000
X00540000
X00537000
X00534000Y01010998
X00531000Y01010998
X00528000
X00525000Y01010998
X00522000Y01010998
X00519000Y01010998
X00516000Y01010998
X00244000
X00241000
X00238000Y01010998
X00235000Y01010998
X00232000
X00229000Y01010998
X00226000Y01010998
X00223000
X00220000
X00217000
X00214000Y01010998
X00211000Y01010998
X00208000
X00205000Y01010998
X00202000Y01010998
X00199000Y01010998
X00196000Y01010998
T02
X00185000Y00117164
X00220000
X00255000
X00505000
X00540000
X00575000
X00825001
X00860001
X00895001
Y00437164
X00860001
X00825001
X00575000
X00540000
X00505000
X00255000
X00220000
X00185000
Y00757164
X00220000
X00255000
X00505000
X00540000
X00575000
X00825001
X00860001
X00895001
T03
X00100000Y00100000
X00420000
X00740001
X00980001Y00340000
X00740001Y00420000
X00660001Y00340000
X00420000Y00420000
X00340000Y00340000
X00100000Y00420000
Y00740000
X00340000Y00660001
X00420000Y00740000
X00660001Y00660001
X00740001Y00740000
X00980001Y00660001
Y00980001
X00660001
X00340000
M30
