G04*
G04 #@! TF.GenerationSoftware,Altium Limited,Altium Designer,23.2.1 (34)*
G04*
G04 Layer_Color=16711935*
%FSAX44Y44*%
%MOMM*%
G71*
G04*
G04 #@! TF.SameCoordinates,AAD7112A-FC18-4F3B-BB33-003CACF6D59D*
G04*
G04*
G04 #@! TF.FilePolarity,Negative*
G04*
G01*
G75*
%ADD31R,1.1000X1.7000*%
%ADD32R,0.5561X0.2925*%
G04:AMPARAMS|DCode=33|XSize=0.5561mm|YSize=0.2925mm|CornerRadius=0.1462mm|HoleSize=0mm|Usage=FLASHONLY|Rotation=180.000|XOffset=0mm|YOffset=0mm|HoleType=Round|Shape=RoundedRectangle|*
%AMROUNDEDRECTD33*
21,1,0.5561,0.0000,0,0,180.0*
21,1,0.2636,0.2925,0,0,180.0*
1,1,0.2925,-0.1318,0.0000*
1,1,0.2925,0.1318,0.0000*
1,1,0.2925,0.1318,0.0000*
1,1,0.2925,-0.1318,0.0000*
%
%ADD33ROUNDEDRECTD33*%
%ADD41C,1.7272*%
%ADD42O,2.7032X5.2032*%
%ADD43R,2.7032X5.2032*%
%ADD44C,3.0032*%
%ADD45R,1.3462X1.4732*%
%ADD46R,1.0032X1.2032*%
%ADD47R,1.0032X1.1682*%
%ADD48R,1.0032X1.3032*%
%ADD49R,1.3032X1.0032*%
%ADD50R,1.7032X0.9032*%
%ADD51R,3.2032X1.7032*%
%ADD52O,3.2032X1.7032*%
%ADD53R,0.8532X1.3032*%
%ADD54R,1.2192X1.9812*%
D31*
X00206608Y00127085D02*
D03*
X00526609D02*
D03*
X00846609D02*
D03*
X00206608Y00447085D02*
D03*
X00526609D02*
D03*
X00846609D02*
D03*
X00206608Y00767086D02*
D03*
X00526609D02*
D03*
X00846609D02*
D03*
D32*
X00216388Y00133585D02*
D03*
X00536389D02*
D03*
X00856389D02*
D03*
X00216388Y00453586D02*
D03*
X00536389D02*
D03*
X00856389D02*
D03*
X00216388Y00773586D02*
D03*
X00536389D02*
D03*
X00856389D02*
D03*
D33*
X00216388Y00127085D02*
D03*
Y00120585D02*
D03*
X00196828D02*
D03*
Y00127085D02*
D03*
Y00133585D02*
D03*
X00536389Y00127085D02*
D03*
Y00120585D02*
D03*
X00516828D02*
D03*
Y00127085D02*
D03*
Y00133585D02*
D03*
X00856389Y00127085D02*
D03*
Y00120585D02*
D03*
X00836829D02*
D03*
Y00127085D02*
D03*
Y00133585D02*
D03*
X00216388Y00447085D02*
D03*
Y00440586D02*
D03*
X00196828D02*
D03*
Y00447085D02*
D03*
Y00453586D02*
D03*
X00536389Y00447085D02*
D03*
Y00440586D02*
D03*
X00516828D02*
D03*
Y00447085D02*
D03*
Y00453586D02*
D03*
X00856389Y00447085D02*
D03*
Y00440586D02*
D03*
X00836829D02*
D03*
Y00447085D02*
D03*
Y00453586D02*
D03*
X00216388Y00767086D02*
D03*
Y00760586D02*
D03*
X00196828D02*
D03*
Y00767086D02*
D03*
Y00773586D02*
D03*
X00536389Y00767086D02*
D03*
Y00760586D02*
D03*
X00516828D02*
D03*
Y00767086D02*
D03*
Y00773586D02*
D03*
X00856389Y00767086D02*
D03*
Y00760586D02*
D03*
X00836829D02*
D03*
Y00767086D02*
D03*
Y00773586D02*
D03*
D41*
X00061110Y00059350D02*
D03*
X00301110Y00299350D02*
D03*
X00381110Y00059350D02*
D03*
X00621111Y00299350D02*
D03*
X00701111Y00059350D02*
D03*
X00941111Y00299350D02*
D03*
X00061110Y00379350D02*
D03*
X00301110Y00619350D02*
D03*
X00381110Y00379350D02*
D03*
X00621111Y00619350D02*
D03*
X00701111Y00379350D02*
D03*
X00941111Y00619350D02*
D03*
X00061110Y00699350D02*
D03*
X00301110Y00939351D02*
D03*
X00381110Y00699350D02*
D03*
X00621111Y00939351D02*
D03*
X00701111Y00699350D02*
D03*
X00941111Y00939351D02*
D03*
D42*
X00216110Y00061514D02*
D03*
X00181110D02*
D03*
X00536110D02*
D03*
X00501110D02*
D03*
X00856111D02*
D03*
X00821111D02*
D03*
X00216110Y00381514D02*
D03*
X00181110D02*
D03*
X00536110D02*
D03*
X00501110D02*
D03*
X00856111D02*
D03*
X00821111D02*
D03*
X00216110Y00701514D02*
D03*
X00181110D02*
D03*
X00536110D02*
D03*
X00501110D02*
D03*
X00856111D02*
D03*
X00821111D02*
D03*
D43*
X00146110Y00061514D02*
D03*
X00466110D02*
D03*
X00786111D02*
D03*
X00146110Y00381514D02*
D03*
X00466110D02*
D03*
X00786111D02*
D03*
X00146110Y00701514D02*
D03*
X00466110D02*
D03*
X00786111D02*
D03*
D44*
X00181110Y00199350D02*
D03*
X00501110D02*
D03*
X00821111D02*
D03*
X00181110Y00519350D02*
D03*
X00501110D02*
D03*
X00821111D02*
D03*
X00181110Y00839350D02*
D03*
X00501110D02*
D03*
X00821111D02*
D03*
D45*
X00062185Y00096931D02*
D03*
X00082185D02*
D03*
X00382186D02*
D03*
X00402186D02*
D03*
X00702186D02*
D03*
X00722186D02*
D03*
X00062185Y00416931D02*
D03*
X00082185D02*
D03*
X00382186D02*
D03*
X00402186D02*
D03*
X00702186D02*
D03*
X00722186D02*
D03*
X00062185Y00736931D02*
D03*
X00082185D02*
D03*
X00382186D02*
D03*
X00402186D02*
D03*
X00702186D02*
D03*
X00722186D02*
D03*
D46*
X00110510Y00076775D02*
D03*
Y00112775D02*
D03*
X00430510Y00076775D02*
D03*
Y00112775D02*
D03*
X00750511Y00076775D02*
D03*
Y00112775D02*
D03*
X00110510Y00396776D02*
D03*
Y00432776D02*
D03*
X00430510Y00396776D02*
D03*
Y00432776D02*
D03*
X00750511Y00396776D02*
D03*
Y00432776D02*
D03*
X00110510Y00716776D02*
D03*
Y00752776D02*
D03*
X00430510Y00716776D02*
D03*
Y00752776D02*
D03*
X00750511Y00716776D02*
D03*
Y00752776D02*
D03*
D47*
X00210996Y00151387D02*
D03*
X00228496D02*
D03*
X00064705Y00150271D02*
D03*
X00082205Y00150271D02*
D03*
X00049690Y00169705D02*
D03*
X00067190D02*
D03*
X00228480Y00167166D02*
D03*
X00210980D02*
D03*
X00530997Y00151387D02*
D03*
X00548497D02*
D03*
X00384706Y00150271D02*
D03*
X00402206Y00150271D02*
D03*
X00369691Y00169705D02*
D03*
X00387191D02*
D03*
X00548480Y00167166D02*
D03*
X00530980D02*
D03*
X00850997Y00151387D02*
D03*
X00868497D02*
D03*
X00704706Y00150271D02*
D03*
X00722206Y00150271D02*
D03*
X00689691Y00169705D02*
D03*
X00707191D02*
D03*
X00868481Y00167166D02*
D03*
X00850981D02*
D03*
X00210996Y00471387D02*
D03*
X00228496D02*
D03*
X00064705Y00470271D02*
D03*
X00082205Y00470271D02*
D03*
X00049690Y00489706D02*
D03*
X00067190D02*
D03*
X00228480Y00487166D02*
D03*
X00210980D02*
D03*
X00530997Y00471387D02*
D03*
X00548497D02*
D03*
X00384706Y00470271D02*
D03*
X00402206Y00470271D02*
D03*
X00369691Y00489706D02*
D03*
X00387191D02*
D03*
X00548480Y00487166D02*
D03*
X00530980D02*
D03*
X00850997Y00471387D02*
D03*
X00868497D02*
D03*
X00704706Y00470271D02*
D03*
X00722206Y00470271D02*
D03*
X00689691Y00489706D02*
D03*
X00707191D02*
D03*
X00868481Y00487166D02*
D03*
X00850981D02*
D03*
X00210996Y00791387D02*
D03*
X00228496D02*
D03*
X00064705Y00790271D02*
D03*
X00082205Y00790271D02*
D03*
X00049690Y00809706D02*
D03*
X00067190D02*
D03*
X00228480Y00807166D02*
D03*
X00210980D02*
D03*
X00530997Y00791387D02*
D03*
X00548497D02*
D03*
X00384706Y00790271D02*
D03*
X00402206Y00790271D02*
D03*
X00369691Y00809706D02*
D03*
X00387191D02*
D03*
X00548480Y00807166D02*
D03*
X00530980D02*
D03*
X00850997Y00791387D02*
D03*
X00868497D02*
D03*
X00704706Y00790271D02*
D03*
X00722206Y00790271D02*
D03*
X00689691Y00809706D02*
D03*
X00707191D02*
D03*
X00868481Y00807166D02*
D03*
X00850981D02*
D03*
D48*
X00229000Y00183675D02*
D03*
X00213000D02*
D03*
X00229051Y00199785D02*
D03*
X00213051D02*
D03*
X00549001Y00183675D02*
D03*
X00533000D02*
D03*
X00549051Y00199785D02*
D03*
X00533051D02*
D03*
X00869001Y00183675D02*
D03*
X00853001D02*
D03*
X00869051Y00199785D02*
D03*
X00853051D02*
D03*
X00229000Y00503676D02*
D03*
X00213000D02*
D03*
X00229051Y00519785D02*
D03*
X00213051D02*
D03*
X00549001Y00503676D02*
D03*
X00533000D02*
D03*
X00549051Y00519785D02*
D03*
X00533051D02*
D03*
X00869001Y00503676D02*
D03*
X00853001D02*
D03*
X00869051Y00519785D02*
D03*
X00853051D02*
D03*
X00229000Y00823676D02*
D03*
X00213000D02*
D03*
X00229051Y00839785D02*
D03*
X00213051D02*
D03*
X00549001Y00823676D02*
D03*
X00533000D02*
D03*
X00549051Y00839785D02*
D03*
X00533051D02*
D03*
X00869001Y00823676D02*
D03*
X00853001D02*
D03*
X00869051Y00839785D02*
D03*
X00853051D02*
D03*
D49*
X00147340Y00166276D02*
D03*
Y00150275D02*
D03*
X00100350Y00149005D02*
D03*
Y00165005D02*
D03*
X00118130Y00149005D02*
D03*
Y00165005D02*
D03*
X00181110Y00115048D02*
D03*
Y00131048D02*
D03*
X00467341Y00166276D02*
D03*
Y00150275D02*
D03*
X00420350Y00149005D02*
D03*
Y00165005D02*
D03*
X00438130Y00149005D02*
D03*
Y00165005D02*
D03*
X00501110Y00115048D02*
D03*
Y00131048D02*
D03*
X00787341Y00166276D02*
D03*
Y00150275D02*
D03*
X00740351Y00149005D02*
D03*
Y00165005D02*
D03*
X00758131Y00149005D02*
D03*
Y00165005D02*
D03*
X00821111Y00115048D02*
D03*
Y00131048D02*
D03*
X00147340Y00486276D02*
D03*
Y00470276D02*
D03*
X00100350Y00469006D02*
D03*
Y00485006D02*
D03*
X00118130Y00469006D02*
D03*
Y00485006D02*
D03*
X00181110Y00435048D02*
D03*
Y00451048D02*
D03*
X00467341Y00486276D02*
D03*
Y00470276D02*
D03*
X00420350Y00469006D02*
D03*
Y00485006D02*
D03*
X00438130Y00469006D02*
D03*
Y00485006D02*
D03*
X00501110Y00435048D02*
D03*
Y00451048D02*
D03*
X00787341Y00486276D02*
D03*
Y00470276D02*
D03*
X00740351Y00469006D02*
D03*
Y00485006D02*
D03*
X00758131Y00469006D02*
D03*
Y00485006D02*
D03*
X00821111Y00435048D02*
D03*
Y00451048D02*
D03*
X00147340Y00806276D02*
D03*
Y00790276D02*
D03*
X00100350Y00789006D02*
D03*
Y00805006D02*
D03*
X00118130Y00789006D02*
D03*
Y00805006D02*
D03*
X00181110Y00755048D02*
D03*
Y00771048D02*
D03*
X00467341Y00806276D02*
D03*
Y00790276D02*
D03*
X00420350Y00789006D02*
D03*
Y00805006D02*
D03*
X00438130Y00789006D02*
D03*
Y00805006D02*
D03*
X00501110Y00755048D02*
D03*
Y00771048D02*
D03*
X00787341Y00806276D02*
D03*
Y00790276D02*
D03*
X00740351Y00789006D02*
D03*
Y00805006D02*
D03*
X00758131Y00789006D02*
D03*
Y00805006D02*
D03*
X00821111Y00755048D02*
D03*
Y00771048D02*
D03*
D50*
X00147340Y00259876D02*
D03*
Y00248876D02*
D03*
Y00237875D02*
D03*
Y00226875D02*
D03*
Y00215875D02*
D03*
Y00204876D02*
D03*
Y00193876D02*
D03*
X00045340D02*
D03*
Y00204876D02*
D03*
Y00215875D02*
D03*
Y00226875D02*
D03*
Y00237875D02*
D03*
Y00248876D02*
D03*
Y00259876D02*
D03*
X00467341D02*
D03*
Y00248876D02*
D03*
Y00237875D02*
D03*
Y00226875D02*
D03*
Y00215875D02*
D03*
Y00204876D02*
D03*
Y00193876D02*
D03*
X00365340D02*
D03*
Y00204876D02*
D03*
Y00215875D02*
D03*
Y00226875D02*
D03*
Y00237875D02*
D03*
Y00248876D02*
D03*
Y00259876D02*
D03*
X00787341D02*
D03*
Y00248876D02*
D03*
Y00237875D02*
D03*
Y00226875D02*
D03*
Y00215875D02*
D03*
Y00204876D02*
D03*
Y00193876D02*
D03*
X00685341D02*
D03*
Y00204876D02*
D03*
Y00215875D02*
D03*
Y00226875D02*
D03*
Y00237875D02*
D03*
Y00248876D02*
D03*
Y00259876D02*
D03*
X00147340Y00579876D02*
D03*
Y00568876D02*
D03*
Y00557876D02*
D03*
Y00546876D02*
D03*
Y00535876D02*
D03*
Y00524876D02*
D03*
Y00513876D02*
D03*
X00045340D02*
D03*
Y00524876D02*
D03*
Y00535876D02*
D03*
Y00546876D02*
D03*
Y00557876D02*
D03*
Y00568876D02*
D03*
Y00579876D02*
D03*
X00467341D02*
D03*
Y00568876D02*
D03*
Y00557876D02*
D03*
Y00546876D02*
D03*
Y00535876D02*
D03*
Y00524876D02*
D03*
Y00513876D02*
D03*
X00365340D02*
D03*
Y00524876D02*
D03*
Y00535876D02*
D03*
Y00546876D02*
D03*
Y00557876D02*
D03*
Y00568876D02*
D03*
Y00579876D02*
D03*
X00787341D02*
D03*
Y00568876D02*
D03*
Y00557876D02*
D03*
Y00546876D02*
D03*
Y00535876D02*
D03*
Y00524876D02*
D03*
Y00513876D02*
D03*
X00685341D02*
D03*
Y00524876D02*
D03*
Y00535876D02*
D03*
Y00546876D02*
D03*
Y00557876D02*
D03*
Y00568876D02*
D03*
Y00579876D02*
D03*
X00147340Y00899876D02*
D03*
Y00888876D02*
D03*
Y00877876D02*
D03*
Y00866876D02*
D03*
Y00855876D02*
D03*
Y00844876D02*
D03*
Y00833876D02*
D03*
X00045340D02*
D03*
Y00844876D02*
D03*
Y00855876D02*
D03*
Y00866876D02*
D03*
Y00877876D02*
D03*
Y00888876D02*
D03*
Y00899876D02*
D03*
X00467341D02*
D03*
Y00888876D02*
D03*
Y00877876D02*
D03*
Y00866876D02*
D03*
Y00855876D02*
D03*
Y00844876D02*
D03*
Y00833876D02*
D03*
X00365340D02*
D03*
Y00844876D02*
D03*
Y00855876D02*
D03*
Y00866876D02*
D03*
Y00877876D02*
D03*
Y00888876D02*
D03*
Y00899876D02*
D03*
X00787341D02*
D03*
Y00888876D02*
D03*
Y00877876D02*
D03*
Y00866876D02*
D03*
Y00855876D02*
D03*
Y00844876D02*
D03*
Y00833876D02*
D03*
X00685341D02*
D03*
Y00844876D02*
D03*
Y00855876D02*
D03*
Y00866876D02*
D03*
Y00877876D02*
D03*
Y00888876D02*
D03*
Y00899876D02*
D03*
D51*
X00273070Y00050325D02*
D03*
X00593070D02*
D03*
X00913071D02*
D03*
X00273070Y00370326D02*
D03*
X00593070D02*
D03*
X00913071D02*
D03*
X00273070Y00690326D02*
D03*
X00593070D02*
D03*
X00913071D02*
D03*
D52*
X00273070Y00075725D02*
D03*
Y00101125D02*
D03*
Y00126525D02*
D03*
X00593070Y00075725D02*
D03*
Y00101125D02*
D03*
Y00126525D02*
D03*
X00913071Y00075725D02*
D03*
Y00101125D02*
D03*
Y00126525D02*
D03*
X00273070Y00395726D02*
D03*
Y00421126D02*
D03*
Y00446526D02*
D03*
X00593070Y00395726D02*
D03*
Y00421126D02*
D03*
Y00446526D02*
D03*
X00913071Y00395726D02*
D03*
Y00421126D02*
D03*
Y00446526D02*
D03*
X00273070Y00715726D02*
D03*
Y00741126D02*
D03*
Y00766526D02*
D03*
X00593070Y00715726D02*
D03*
Y00741126D02*
D03*
Y00766526D02*
D03*
X00913071Y00715726D02*
D03*
Y00741126D02*
D03*
Y00766526D02*
D03*
D53*
X00082955Y00136171D02*
D03*
X00063955Y00136170D02*
D03*
Y00112170D02*
D03*
X00073455Y00112170D02*
D03*
X00082955Y00112170D02*
D03*
X00402956Y00136171D02*
D03*
X00383955Y00136170D02*
D03*
Y00112170D02*
D03*
X00393456Y00112170D02*
D03*
X00402956Y00112170D02*
D03*
X00722956Y00136171D02*
D03*
X00703956Y00136170D02*
D03*
Y00112170D02*
D03*
X00713456Y00112170D02*
D03*
X00722956Y00112170D02*
D03*
X00082955Y00456171D02*
D03*
X00063955Y00456171D02*
D03*
Y00432171D02*
D03*
X00073455Y00432171D02*
D03*
X00082955Y00432171D02*
D03*
X00402956Y00456171D02*
D03*
X00383955Y00456171D02*
D03*
Y00432171D02*
D03*
X00393456Y00432171D02*
D03*
X00402956Y00432171D02*
D03*
X00722956Y00456171D02*
D03*
X00703956Y00456171D02*
D03*
Y00432171D02*
D03*
X00713456Y00432171D02*
D03*
X00722956Y00432171D02*
D03*
X00082955Y00776171D02*
D03*
X00063955Y00776171D02*
D03*
Y00752171D02*
D03*
X00073455Y00752171D02*
D03*
X00082955Y00752171D02*
D03*
X00402956Y00776171D02*
D03*
X00383955Y00776171D02*
D03*
Y00752171D02*
D03*
X00393456Y00752171D02*
D03*
X00402956Y00752171D02*
D03*
X00722956Y00776171D02*
D03*
X00703956Y00776171D02*
D03*
Y00752171D02*
D03*
X00713456Y00752171D02*
D03*
X00722956Y00752171D02*
D03*
D54*
X00165870Y00199350D02*
D03*
X00196350D02*
D03*
X00485871D02*
D03*
X00516351D02*
D03*
X00805871D02*
D03*
X00836351D02*
D03*
X00165870Y00519350D02*
D03*
X00196350D02*
D03*
X00485871D02*
D03*
X00516351D02*
D03*
X00805871D02*
D03*
X00836351D02*
D03*
X00165870Y00839350D02*
D03*
X00196350D02*
D03*
X00485871D02*
D03*
X00516351D02*
D03*
X00805871D02*
D03*
X00836351D02*
D03*
M02*
