M48
;Layer_Color=9474304
;FILE_FORMAT=4:4
METRIC
;TYPE=PLATED
T1F00S00C0.2000
T2F00S00C1.2000
T3F00S00C3.2000
;TYPE=NON_PLATED
%
T01
X00050185Y00096931
X00069241Y00121671
X00138612Y00133631
X00224669Y00133585
Y00127085
Y00120585
X00389241Y00121671
X00370186Y00096931
X00458613Y00133631
X00544669Y00133585
Y00127085
Y00120585
X00709242Y00121671
X00690186Y00096931
X00778613Y00133631
X00864669Y00133585
Y00127085
Y00120585
X00876777Y00151387
X00876761Y00167166
X00877511Y00183675
X00877332Y00199785
X00843221Y00167166
Y00159545
X00843129Y00151258
X00829032Y00146624
X00821032
X00813032
X00796334Y00151579
X00796212Y00159350
X00767021Y00164625
X00761941Y00190026
X00750514Y00181043
X00768291Y00205266
X00774794Y00215880
X00821156Y00174100
X00829134Y00174077
X00685341Y00182971
X00678787Y00169705
X00696946Y00150271
X00556777Y00151387
X00556761Y00167166
X00557510Y00183675
X00557331Y00199785
X00523220Y00167166
Y00159545
X00523128Y00151258
X00544669Y00440586
Y00447085
Y00453586
X00556777Y00471387
X00556761Y00487166
X00557510Y00503676
X00557331Y00519785
X00523220Y00487166
Y00479546
X00523128Y00471258
X00678787Y00489706
X00685341Y00502972
X00696946Y00470271
X00709242Y00441671
X00690186Y00416931
X00778613Y00453632
X00796334Y00471579
X00796212Y00479350
X00813032Y00466625
X00821032
X00829032
X00843129Y00471258
X00843221Y00479546
Y00487166
X00829134Y00494077
X00821156Y00494100
X00876761Y00487166
X00876777Y00471387
X00864669Y00453586
Y00447085
Y00440586
X00877511Y00503676
X00877332Y00519785
X00768291Y00525266
X00774794Y00535880
X00761941Y00510026
X00750514Y00501043
X00767021Y00484626
X00509133Y00494077
X00501156Y00494100
X00501032Y00466625
X00509032
X00493032
X00476333Y00471579
X00476212Y00479350
X00447020Y00484626
X00441940Y00510026
X00430514Y00501043
X00448290Y00525266
X00454793Y00535880
X00458613Y00453632
X00389241Y00441671
X00376946Y00470271
X00358787Y00489706
X00365340Y00502972
X00370186Y00416931
X00224669Y00440586
Y00447085
Y00453586
X00236777Y00471387
X00236761Y00487166
X00237510Y00503676
X00237331Y00519785
X00203220Y00487166
Y00479546
X00203128Y00471258
X00189032Y00466625
X00181031
X00173032
X00156333Y00471579
X00156212Y00479350
X00127020Y00484626
X00121940Y00510026
X00128290Y00525266
X00134793Y00535880
X00138612Y00453632
X00181155Y00494100
X00189133Y00494077
Y00174077
X00181155Y00174100
X00181031Y00146624
X00189032
X00173032
X00156333Y00151579
X00156212Y00159350
X00127020Y00164625
X00121940Y00190026
X00128290Y00205266
X00134793Y00215880
X00203220Y00167166
Y00159545
X00203128Y00151258
X00236777Y00151387
X00236761Y00167166
X00237510Y00183675
X00237331Y00199785
X00365340Y00182971
X00358787Y00169705
X00376946Y00150271
X00430514Y00181043
X00441940Y00190026
X00448290Y00205266
X00454793Y00215880
X00447020Y00164625
X00476212Y00159350
X00476333Y00151579
X00493032Y00146624
X00501032
X00509032
X00509133Y00174077
X00501156Y00174100
X00110514Y00181043
X00045340Y00182971
X00038786Y00169705
X00056945Y00150271
X00050185Y00416931
X00069241Y00441671
X00056945Y00470271
X00038786Y00489706
X00045340Y00502972
X00110514Y00501043
X00050185Y00736931
X00069241Y00761671
X00056945Y00790271
X00038786Y00809706
X00045340Y00822972
X00110514Y00821044
X00121940Y00830026
X00128290Y00845266
X00134793Y00855881
X00127020Y00804626
X00156212Y00799350
X00156333Y00791579
X00173032Y00786625
X00181031
X00189032
X00203128Y00791258
X00203220Y00799546
Y00807166
X00189133Y00814077
X00181155Y00814100
X00236761Y00807166
X00236777Y00791387
X00224669Y00773586
Y00767086
Y00760586
X00237510Y00823676
X00237331Y00839785
X00365340Y00822972
X00358787Y00809706
X00376946Y00790271
X00389241Y00761671
X00370186Y00736931
X00458613Y00773632
X00476333Y00791579
X00476212Y00799350
X00493032Y00786625
X00501032
X00509032
X00509133Y00814077
X00501156Y00814100
X00447020Y00804626
X00441940Y00830026
X00430514Y00821044
X00448290Y00845266
X00454793Y00855881
X00138612Y00773632
X00523128Y00791258
X00523220Y00799546
Y00807166
X00556761
X00556777Y00791387
X00544669Y00773586
Y00767086
Y00760586
X00557510Y00823676
X00557331Y00839785
X00685341Y00822972
X00678787Y00809706
X00696946Y00790271
X00709242Y00761671
X00690186Y00736931
X00778613Y00773632
X00796334Y00791579
X00796212Y00799350
X00813032Y00786625
X00821032
X00829032
X00843129Y00791258
X00843221Y00799546
Y00807166
X00829134Y00814077
X00821156Y00814100
X00876761Y00807166
X00876777Y00791387
X00864669Y00773586
Y00767086
Y00760586
X00877511Y00823676
X00877332Y00839785
X00768291Y00845266
X00774794Y00855881
X00761941Y00830026
X00750514Y00821044
X00767021Y00804626
T02
X00146110Y00076514
X00181110
X00216110
X00466110
X00501110
X00536110
X00786111
X00821111
X00856111
Y00396514
X00821111
X00786111
X00536110
X00501110
X00466110
X00216110
X00181110
X00146110
Y00716514
X00181110
X00216110
X00466110
X00501110
X00536110
X00786111
X00821111
X00856111
T03
X00061110Y00059350
X00381110
X00701111
X00941111Y00299350
X00701111Y00379350
X00621111Y00299350
X00381110Y00379350
X00301110Y00299350
X00061110Y00379350
Y00699350
X00301110Y00619350
X00381110Y00699350
X00621111Y00619350
X00701111Y00699350
X00941111Y00619350
Y00939351
X00621111
X00301110
M30
