G04*
G04 #@! TF.GenerationSoftware,Altium Limited,Altium Designer,23.5.1 (21)*
G04*
G04 Layer_Physical_Order=1*
G04 Layer_Color=255*
%FSAX44Y44*%
%MOMM*%
G71*
G04*
G04 #@! TF.SameCoordinates,899CF12F-B0FD-4176-B9D3-CD2A61966E73*
G04*
G04*
G04 #@! TF.FilePolarity,Positive*
G04*
G01*
G75*
%ADD10P,2.8284X4X270.0*%
%ADD11C,2.0000*%
%ADD12R,1.1000X1.0000*%
%ADD13R,1.1000X0.8000*%
%ADD14R,1.0160X1.7780*%
%ADD15R,0.5000X0.5000*%
%ADD16C,0.4500*%
%ADD17C,0.4064*%
%ADD18C,0.2540*%
%ADD19C,0.2000*%
%ADD20C,1.5240*%
%ADD21O,2.5000X5.0000*%
%ADD22R,2.5000X5.0000*%
%ADD23C,0.4000*%
G36*
X01007419Y00724485D02*
X01007434Y00724410D01*
X01007038Y00721398D01*
X01005846Y00718521D01*
X01003950Y00716051D01*
X01001480Y00714155D01*
X00998603Y00712964D01*
X00996730Y00712717D01*
X00995516Y00712582D01*
D01*
X00994255Y00712582D01*
X00903030D01*
X00902712Y00713852D01*
X00904815Y00714976D01*
X00907492Y00717173D01*
X00909689Y00719850D01*
X00911321Y00722904D01*
X00912326Y00726218D01*
X00912666Y00729664D01*
Y00739624D01*
X00877336D01*
Y00729664D01*
X00877675Y00726218D01*
X00878680Y00722904D01*
X00880313Y00719850D01*
X00882510Y00717173D01*
X00885186Y00714976D01*
X00887290Y00713852D01*
X00886972Y00712582D01*
X00724485D01*
X00724411Y00712567D01*
X00721398Y00712964D01*
X00718521Y00714155D01*
X00716051Y00716051D01*
X00714156Y00718521D01*
X00712964Y00721398D01*
X00712567Y00724410D01*
X00712582Y00724485D01*
Y00944026D01*
X00861445D01*
X00861971Y00942756D01*
X00846161Y00926946D01*
X00845843Y00926470D01*
X00845673Y00926300D01*
X00845581Y00926077D01*
X00845263Y00925602D01*
X00845151Y00925040D01*
X00845059Y00924818D01*
Y00924577D01*
X00844947Y00924016D01*
X00845059Y00923455D01*
Y00923214D01*
X00845151Y00922991D01*
X00845189Y00922803D01*
X00844600Y00921789D01*
X00844335Y00921533D01*
X00834719D01*
Y00909469D01*
Y00900463D01*
X00759703D01*
X00759318Y00900386D01*
X00758903Y00900558D01*
X00757299D01*
X00755817Y00899944D01*
X00754683Y00898810D01*
X00754069Y00897328D01*
Y00895724D01*
X00754683Y00894242D01*
X00755817Y00893108D01*
X00757299Y00892494D01*
X00758903D01*
X00760385Y00893108D01*
X00761006Y00893729D01*
X00850926D01*
X00851412Y00892556D01*
X00841620Y00882764D01*
X00840890Y00881671D01*
X00840634Y00880383D01*
Y00872533D01*
X00839469D01*
Y00865041D01*
X00838961D01*
Y00862032D01*
X00844001D01*
Y00857969D01*
X00838961D01*
Y00855482D01*
X00831314D01*
X00827995Y00858800D01*
Y00874818D01*
X00827739Y00876106D01*
X00827009Y00877199D01*
X00817563Y00886645D01*
Y00886718D01*
X00816949Y00888200D01*
X00815815Y00889334D01*
X00814333Y00889948D01*
X00812729D01*
X00811247Y00889334D01*
X00810113Y00888200D01*
X00809499Y00886718D01*
Y00885114D01*
X00810113Y00883632D01*
X00811247Y00882498D01*
X00812729Y00881884D01*
X00812802D01*
X00815022Y00879664D01*
X00814442Y00878676D01*
X00814332Y00878558D01*
X00812769D01*
X00811287Y00877944D01*
X00810153Y00876810D01*
X00809539Y00875328D01*
Y00873724D01*
X00810153Y00872242D01*
X00810204Y00872190D01*
Y00855396D01*
X00810460Y00854108D01*
X00811190Y00853015D01*
X00841394Y00822812D01*
Y00820922D01*
X00837649D01*
Y00799078D01*
X00851873D01*
Y00820922D01*
X00848127D01*
Y00824206D01*
X00847871Y00825494D01*
X00847141Y00826587D01*
X00816937Y00856790D01*
Y00872190D01*
X00816989Y00872242D01*
X00817603Y00873724D01*
Y00875287D01*
X00817721Y00875397D01*
X00818709Y00875977D01*
X00821262Y00873424D01*
Y00857406D01*
X00821518Y00856117D01*
X00822248Y00855025D01*
X00827539Y00849734D01*
X00828631Y00849004D01*
X00829919Y00848748D01*
X00839469D01*
Y00847468D01*
X00846961D01*
Y00846961D01*
X00849969D01*
Y00852001D01*
X00854033D01*
Y00846961D01*
X00857969D01*
Y00852001D01*
X00862033D01*
Y00846961D01*
X00865969D01*
Y00852001D01*
X00870033D01*
Y00846961D01*
X00873041D01*
Y00847051D01*
X00873501Y00847429D01*
X00878501D01*
X00879294Y00847586D01*
X00879966Y00848036D01*
X00880365Y00848634D01*
X00885496D01*
X00886933Y00848039D01*
X00888537D01*
X00890019Y00848652D01*
X00891153Y00849787D01*
X00891767Y00851269D01*
Y00852873D01*
X00891153Y00854354D01*
X00890019Y00855489D01*
X00888537Y00856103D01*
X00886933D01*
X00885451Y00855489D01*
X00885330Y00855367D01*
X00881165D01*
X00881041Y00855554D01*
Y00857969D01*
X00876001D01*
Y00862032D01*
X00881041D01*
Y00864634D01*
X00885496D01*
X00886933Y00864039D01*
X00888537D01*
X00890019Y00864652D01*
X00891153Y00865787D01*
X00891767Y00867269D01*
Y00868873D01*
X00891153Y00870355D01*
X00890019Y00871489D01*
X00888537Y00872103D01*
X00886933D01*
X00885451Y00871489D01*
X00885330Y00871367D01*
X00880533D01*
Y00872533D01*
X00871437D01*
Y00883510D01*
X00871559Y00883632D01*
X00872173Y00885114D01*
Y00886718D01*
X00871559Y00888200D01*
X00870425Y00889334D01*
X00868943Y00889948D01*
X00867339D01*
X00865857Y00889334D01*
X00864723Y00888200D01*
X00864109Y00886718D01*
Y00885114D01*
X00864586Y00883962D01*
X00864367Y00883649D01*
X00862768Y00883500D01*
X00862419Y00883849D01*
X00860937Y00884463D01*
X00859333D01*
X00857851Y00883849D01*
X00856717Y00882715D01*
X00856103Y00881233D01*
Y00879629D01*
X00856701Y00878185D01*
Y00872533D01*
X00847367D01*
Y00878988D01*
X00861945Y00893566D01*
X00862018D01*
X00863500Y00894180D01*
X00864634Y00895314D01*
X00865248Y00896796D01*
Y00898400D01*
X00864634Y00899882D01*
X00863500Y00901017D01*
X00863238Y00901125D01*
X00862940Y00902623D01*
X00869045Y00908729D01*
X00870219Y00908243D01*
Y00902969D01*
X00873607D01*
Y00899183D01*
X00873601Y00899151D01*
X00873712Y00898590D01*
Y00898349D01*
X00873804Y00898126D01*
X00873916Y00897565D01*
X00874234Y00897089D01*
X00874326Y00896867D01*
X00874496Y00896697D01*
X00874814Y00896221D01*
X00874878Y00896157D01*
X00875354Y00895839D01*
X00875460Y00895733D01*
X00875599Y00895675D01*
X00876222Y00895259D01*
X00877808Y00894943D01*
X00877808Y00894943D01*
X00934331D01*
X00934892Y00895055D01*
X00935133D01*
X00935355Y00895147D01*
X00935916Y00895259D01*
X00936392Y00895577D01*
X00936615Y00895669D01*
X00936785Y00895839D01*
X00937261Y00896157D01*
X00937579Y00896633D01*
X00937749Y00896803D01*
X00937841Y00897026D01*
X00938159Y00897501D01*
X00938270Y00898063D01*
X00938363Y00898285D01*
Y00898526D01*
X00938474Y00899087D01*
X00938363Y00899648D01*
Y00899889D01*
X00938270Y00900111D01*
X00938159Y00900673D01*
X00937841Y00901149D01*
X00937749Y00901371D01*
X00937579Y00901541D01*
X00937261Y00902017D01*
X00936785Y00902335D01*
X00936615Y00902505D01*
X00936392Y00902597D01*
X00935916Y00902915D01*
X00935355Y00903027D01*
X00935133Y00903119D01*
X00934892D01*
X00934331Y00903231D01*
X00885283D01*
Y00917032D01*
X00871507D01*
Y00920411D01*
X00871559Y00920462D01*
X00872173Y00921944D01*
Y00923548D01*
X00871559Y00925030D01*
X00872163Y00926222D01*
X00887191D01*
X00887752Y00926334D01*
X00887993D01*
X00888215Y00926426D01*
X00888776Y00926538D01*
X00889252Y00926856D01*
X00889475Y00926948D01*
X00889645Y00927118D01*
X00890121Y00927436D01*
X00890439Y00927912D01*
X00890609Y00928082D01*
X00890701Y00928304D01*
X00891019Y00928780D01*
X00891131Y00929341D01*
X00891223Y00929564D01*
Y00929805D01*
X00891334Y00930366D01*
X00891223Y00930927D01*
Y00931168D01*
X00891131Y00931390D01*
X00891019Y00931952D01*
X00890701Y00932427D01*
X00890609Y00932650D01*
X00890439Y00932820D01*
X00890121Y00933296D01*
X00889645Y00933614D01*
X00889475Y00933784D01*
X00889252Y00933876D01*
X00888776Y00934194D01*
X00888215Y00934306D01*
X00887993Y00934398D01*
X00887752D01*
X00887191Y00934510D01*
X00867964D01*
X00867336Y00935779D01*
X00867785Y00936368D01*
X00932478D01*
X00942251Y00926596D01*
X00942727Y00926278D01*
X00942897Y00926108D01*
X00943119Y00926016D01*
X00943595Y00925698D01*
X00944156Y00925586D01*
X00944379Y00925494D01*
X00944620D01*
X00945181Y00925382D01*
X00945742Y00925494D01*
X00945983D01*
X00946205Y00925586D01*
X00946767Y00925698D01*
X00947242Y00926016D01*
X00947465Y00926108D01*
X00947635Y00926278D01*
X00948111Y00926596D01*
X00948429Y00927072D01*
X00948599Y00927242D01*
X00948691Y00927464D01*
X00949009Y00927940D01*
X00949121Y00928502D01*
X00949213Y00928724D01*
Y00928965D01*
X00949324Y00929526D01*
X00949213Y00930087D01*
Y00930328D01*
X00949121Y00930550D01*
X00949009Y00931112D01*
X00948691Y00931587D01*
X00948599Y00931810D01*
X00948429Y00931980D01*
X00948111Y00932456D01*
X00937811Y00942756D01*
X00938337Y00944026D01*
X01007419D01*
Y00724485D01*
D02*
G37*
G36*
X00687419D02*
X00687434Y00724410D01*
X00687037Y00721398D01*
X00685846Y00718521D01*
X00683950Y00716051D01*
X00681480Y00714155D01*
X00678603Y00712964D01*
X00676730Y00712717D01*
X00675516Y00712582D01*
D01*
X00674254Y00712582D01*
X00583030D01*
X00582711Y00713852D01*
X00584815Y00714976D01*
X00587491Y00717173D01*
X00589688Y00719850D01*
X00591321Y00722904D01*
X00592326Y00726218D01*
X00592665Y00729664D01*
Y00739624D01*
X00557335D01*
Y00729664D01*
X00557675Y00726218D01*
X00558680Y00722904D01*
X00560312Y00719850D01*
X00562509Y00717173D01*
X00565186Y00714976D01*
X00567289Y00713852D01*
X00566971Y00712582D01*
X00404485D01*
X00404410Y00712567D01*
X00401398Y00712964D01*
X00398521Y00714155D01*
X00396051Y00716051D01*
X00394155Y00718521D01*
X00392964Y00721398D01*
X00392567Y00724410D01*
X00392582Y00724485D01*
Y00944026D01*
X00541445D01*
X00541970Y00942756D01*
X00526161Y00926946D01*
X00525843Y00926470D01*
X00525672Y00926300D01*
X00525580Y00926077D01*
X00525262Y00925602D01*
X00525151Y00925040D01*
X00525059Y00924818D01*
Y00924577D01*
X00524947Y00924016D01*
X00525059Y00923455D01*
Y00923214D01*
X00525151Y00922991D01*
X00525188Y00922803D01*
X00524600Y00921789D01*
X00524335Y00921533D01*
X00514718D01*
Y00909469D01*
Y00900463D01*
X00439703D01*
X00439318Y00900386D01*
X00438903Y00900558D01*
X00437299D01*
X00435817Y00899944D01*
X00434682Y00898810D01*
X00434068Y00897328D01*
Y00895724D01*
X00434682Y00894242D01*
X00435817Y00893108D01*
X00437299Y00892494D01*
X00438903D01*
X00440384Y00893108D01*
X00441006Y00893729D01*
X00530926D01*
X00531412Y00892556D01*
X00521620Y00882764D01*
X00520890Y00881671D01*
X00520634Y00880383D01*
Y00872533D01*
X00519468D01*
Y00865041D01*
X00518960D01*
Y00862032D01*
X00524000D01*
Y00857969D01*
X00518960D01*
Y00855482D01*
X00511314D01*
X00507995Y00858800D01*
Y00874818D01*
X00507739Y00876106D01*
X00507009Y00877199D01*
X00497562Y00886645D01*
Y00886718D01*
X00496949Y00888200D01*
X00495814Y00889334D01*
X00494333Y00889948D01*
X00492729D01*
X00491246Y00889334D01*
X00490112Y00888200D01*
X00489498Y00886718D01*
Y00885114D01*
X00490112Y00883632D01*
X00491246Y00882498D01*
X00492729Y00881884D01*
X00492801D01*
X00495021Y00879664D01*
X00494442Y00878676D01*
X00494331Y00878558D01*
X00492769D01*
X00491287Y00877944D01*
X00490152Y00876810D01*
X00489538Y00875328D01*
Y00873724D01*
X00490152Y00872242D01*
X00490204Y00872190D01*
Y00855396D01*
X00490460Y00854108D01*
X00491190Y00853015D01*
X00521394Y00822812D01*
Y00820922D01*
X00517648D01*
Y00799078D01*
X00531872D01*
Y00820922D01*
X00528127D01*
Y00824206D01*
X00527871Y00825494D01*
X00527141Y00826587D01*
X00496937Y00856790D01*
Y00872190D01*
X00496989Y00872242D01*
X00497603Y00873724D01*
Y00875287D01*
X00497720Y00875397D01*
X00498708Y00875977D01*
X00501262Y00873424D01*
Y00857406D01*
X00501518Y00856117D01*
X00502248Y00855025D01*
X00507538Y00849734D01*
X00508631Y00849004D01*
X00509919Y00848748D01*
X00519468D01*
Y00847468D01*
X00526960D01*
Y00846961D01*
X00529968D01*
Y00852001D01*
X00534032D01*
Y00846961D01*
X00537968D01*
Y00852001D01*
X00542032D01*
Y00846961D01*
X00545968D01*
Y00852001D01*
X00550032D01*
Y00846961D01*
X00553040D01*
Y00847051D01*
X00553500Y00847429D01*
X00558500D01*
X00559293Y00847586D01*
X00559965Y00848036D01*
X00560365Y00848634D01*
X00565496D01*
X00566933Y00848039D01*
X00568537D01*
X00570019Y00848652D01*
X00571153Y00849787D01*
X00571767Y00851269D01*
Y00852873D01*
X00571153Y00854354D01*
X00570019Y00855489D01*
X00568537Y00856103D01*
X00566933D01*
X00565451Y00855489D01*
X00565329Y00855367D01*
X00561165D01*
X00561040Y00855554D01*
Y00857969D01*
X00556000D01*
Y00862032D01*
X00561040D01*
Y00864634D01*
X00565496D01*
X00566933Y00864039D01*
X00568537D01*
X00570019Y00864652D01*
X00571153Y00865787D01*
X00571767Y00867269D01*
Y00868873D01*
X00571153Y00870355D01*
X00570019Y00871489D01*
X00568537Y00872103D01*
X00566933D01*
X00565451Y00871489D01*
X00565329Y00871367D01*
X00560532D01*
Y00872533D01*
X00551437D01*
Y00883510D01*
X00551559Y00883632D01*
X00552173Y00885114D01*
Y00886718D01*
X00551559Y00888200D01*
X00550424Y00889334D01*
X00548942Y00889948D01*
X00547338D01*
X00545857Y00889334D01*
X00544722Y00888200D01*
X00544109Y00886718D01*
Y00885114D01*
X00544585Y00883962D01*
X00544366Y00883649D01*
X00542768Y00883500D01*
X00542418Y00883849D01*
X00540936Y00884463D01*
X00539332D01*
X00537850Y00883849D01*
X00536716Y00882715D01*
X00536102Y00881233D01*
Y00879629D01*
X00536701Y00878185D01*
Y00872533D01*
X00527367D01*
Y00878988D01*
X00541945Y00893566D01*
X00542018D01*
X00543500Y00894180D01*
X00544634Y00895314D01*
X00545248Y00896796D01*
Y00898400D01*
X00544634Y00899882D01*
X00543500Y00901017D01*
X00543237Y00901125D01*
X00542939Y00902623D01*
X00549045Y00908729D01*
X00550218Y00908243D01*
Y00902969D01*
X00553607D01*
Y00899183D01*
X00553600Y00899151D01*
X00553712Y00898590D01*
Y00898349D01*
X00553804Y00898126D01*
X00553916Y00897565D01*
X00554234Y00897089D01*
X00554326Y00896867D01*
X00554496Y00896697D01*
X00554814Y00896221D01*
X00554878Y00896157D01*
X00555354Y00895839D01*
X00555460Y00895733D01*
X00555599Y00895675D01*
X00556222Y00895259D01*
X00557808Y00894943D01*
X00557808Y00894943D01*
X00614330D01*
X00614892Y00895055D01*
X00615132D01*
X00615355Y00895147D01*
X00615916Y00895259D01*
X00616392Y00895577D01*
X00616614Y00895669D01*
X00616785Y00895839D01*
X00617260Y00896157D01*
X00617578Y00896633D01*
X00617748Y00896803D01*
X00617841Y00897026D01*
X00618159Y00897501D01*
X00618270Y00898063D01*
X00618362Y00898285D01*
Y00898526D01*
X00618474Y00899087D01*
X00618362Y00899648D01*
Y00899889D01*
X00618270Y00900111D01*
X00618159Y00900673D01*
X00617841Y00901149D01*
X00617748Y00901371D01*
X00617578Y00901541D01*
X00617260Y00902017D01*
X00616785Y00902335D01*
X00616614Y00902505D01*
X00616392Y00902597D01*
X00615916Y00902915D01*
X00615355Y00903027D01*
X00615132Y00903119D01*
X00614892D01*
X00614330Y00903231D01*
X00565282D01*
Y00917032D01*
X00551507D01*
Y00920411D01*
X00551559Y00920462D01*
X00552173Y00921944D01*
Y00923548D01*
X00551559Y00925030D01*
X00552162Y00926222D01*
X00567191D01*
X00567752Y00926334D01*
X00567993D01*
X00568215Y00926426D01*
X00568776Y00926538D01*
X00569252Y00926856D01*
X00569474Y00926948D01*
X00569645Y00927118D01*
X00570121Y00927436D01*
X00570438Y00927912D01*
X00570609Y00928082D01*
X00570701Y00928304D01*
X00571019Y00928780D01*
X00571130Y00929341D01*
X00571222Y00929564D01*
Y00929805D01*
X00571334Y00930366D01*
X00571222Y00930927D01*
Y00931168D01*
X00571130Y00931390D01*
X00571019Y00931952D01*
X00570701Y00932427D01*
X00570609Y00932650D01*
X00570438Y00932820D01*
X00570121Y00933296D01*
X00569645Y00933614D01*
X00569474Y00933784D01*
X00569252Y00933876D01*
X00568776Y00934194D01*
X00568215Y00934306D01*
X00567993Y00934398D01*
X00567752D01*
X00567191Y00934510D01*
X00547964D01*
X00547335Y00935779D01*
X00547785Y00936368D01*
X00612478D01*
X00622251Y00926596D01*
X00622726Y00926278D01*
X00622896Y00926108D01*
X00623119Y00926016D01*
X00623595Y00925698D01*
X00624156Y00925586D01*
X00624379Y00925494D01*
X00624619D01*
X00625181Y00925382D01*
X00625742Y00925494D01*
X00625983D01*
X00626205Y00925586D01*
X00626766Y00925698D01*
X00627242Y00926016D01*
X00627464Y00926108D01*
X00627635Y00926278D01*
X00628111Y00926596D01*
X00628428Y00927072D01*
X00628599Y00927242D01*
X00628691Y00927464D01*
X00629009Y00927940D01*
X00629120Y00928502D01*
X00629212Y00928724D01*
Y00928965D01*
X00629324Y00929526D01*
X00629212Y00930087D01*
Y00930328D01*
X00629120Y00930550D01*
X00629009Y00931112D01*
X00628691Y00931587D01*
X00628599Y00931810D01*
X00628428Y00931980D01*
X00628111Y00932456D01*
X00617810Y00942756D01*
X00618336Y00944026D01*
X00687419D01*
Y00724485D01*
D02*
G37*
G36*
X00367419D02*
X00367434Y00724410D01*
X00367037Y00721398D01*
X00365845Y00718521D01*
X00363950Y00716051D01*
X00361479Y00714155D01*
X00358603Y00712964D01*
X00356730Y00712717D01*
X00355516Y00712582D01*
D01*
X00354254Y00712582D01*
X00263029D01*
X00262711Y00713852D01*
X00264814Y00714976D01*
X00267491Y00717173D01*
X00269688Y00719850D01*
X00271320Y00722904D01*
X00272326Y00726218D01*
X00272665Y00729664D01*
Y00739624D01*
X00237335D01*
Y00729664D01*
X00237675Y00726218D01*
X00238680Y00722904D01*
X00240312Y00719850D01*
X00242509Y00717173D01*
X00245186Y00714976D01*
X00247289Y00713852D01*
X00246971Y00712582D01*
X00084485D01*
X00084410Y00712567D01*
X00081397Y00712964D01*
X00078521Y00714155D01*
X00076051Y00716051D01*
X00074155Y00718521D01*
X00072963Y00721398D01*
X00072567Y00724410D01*
X00072582Y00724485D01*
Y00944026D01*
X00221444D01*
X00221970Y00942756D01*
X00206160Y00926946D01*
X00205842Y00926470D01*
X00205672Y00926300D01*
X00205580Y00926077D01*
X00205262Y00925602D01*
X00205150Y00925040D01*
X00205058Y00924818D01*
Y00924577D01*
X00204947Y00924016D01*
X00205058Y00923455D01*
Y00923214D01*
X00205150Y00922991D01*
X00205188Y00922803D01*
X00204600Y00921789D01*
X00204334Y00921533D01*
X00194718D01*
Y00909469D01*
Y00900463D01*
X00119703D01*
X00119317Y00900386D01*
X00118902Y00900558D01*
X00117298D01*
X00115816Y00899944D01*
X00114682Y00898810D01*
X00114068Y00897328D01*
Y00895724D01*
X00114682Y00894242D01*
X00115816Y00893108D01*
X00117298Y00892494D01*
X00118902D01*
X00120384Y00893108D01*
X00121006Y00893729D01*
X00210926D01*
X00211412Y00892556D01*
X00201619Y00882764D01*
X00200890Y00881671D01*
X00200633Y00880383D01*
Y00872533D01*
X00199468D01*
Y00865041D01*
X00198960D01*
Y00862032D01*
X00204000D01*
Y00857969D01*
X00198960D01*
Y00855482D01*
X00191313D01*
X00187995Y00858800D01*
Y00874818D01*
X00187738Y00876106D01*
X00187009Y00877199D01*
X00177562Y00886645D01*
Y00886718D01*
X00176948Y00888200D01*
X00175814Y00889334D01*
X00174332Y00889948D01*
X00172728D01*
X00171246Y00889334D01*
X00170112Y00888200D01*
X00169498Y00886718D01*
Y00885114D01*
X00170112Y00883632D01*
X00171246Y00882498D01*
X00172728Y00881884D01*
X00172801D01*
X00175021Y00879664D01*
X00174441Y00878676D01*
X00174331Y00878558D01*
X00172768D01*
X00171286Y00877944D01*
X00170152Y00876810D01*
X00169538Y00875328D01*
Y00873724D01*
X00170152Y00872242D01*
X00170203Y00872190D01*
Y00855396D01*
X00170460Y00854108D01*
X00171190Y00853015D01*
X00201393Y00822812D01*
Y00820922D01*
X00197648D01*
Y00799078D01*
X00211872D01*
Y00820922D01*
X00208127D01*
Y00824206D01*
X00207871Y00825494D01*
X00207141Y00826587D01*
X00176937Y00856790D01*
Y00872190D01*
X00176988Y00872242D01*
X00177602Y00873724D01*
Y00875287D01*
X00177720Y00875397D01*
X00178708Y00875977D01*
X00181261Y00873424D01*
Y00857406D01*
X00181518Y00856117D01*
X00182247Y00855025D01*
X00187538Y00849734D01*
X00188630Y00849004D01*
X00189919Y00848748D01*
X00199468D01*
Y00847468D01*
X00206960D01*
Y00846961D01*
X00209968D01*
Y00852001D01*
X00214032D01*
Y00846961D01*
X00217968D01*
Y00852001D01*
X00222032D01*
Y00846961D01*
X00225968D01*
Y00852001D01*
X00230032D01*
Y00846961D01*
X00233040D01*
Y00847051D01*
X00233500Y00847429D01*
X00238500D01*
X00239293Y00847586D01*
X00239965Y00848036D01*
X00240365Y00848634D01*
X00245496D01*
X00246933Y00848039D01*
X00248537D01*
X00250019Y00848652D01*
X00251153Y00849787D01*
X00251767Y00851269D01*
Y00852873D01*
X00251153Y00854354D01*
X00250019Y00855489D01*
X00248537Y00856103D01*
X00246933D01*
X00245451Y00855489D01*
X00245329Y00855367D01*
X00241165D01*
X00241040Y00855554D01*
Y00857969D01*
X00236000D01*
Y00862032D01*
X00241040D01*
Y00864634D01*
X00245496D01*
X00246933Y00864039D01*
X00248537D01*
X00250019Y00864652D01*
X00251153Y00865787D01*
X00251767Y00867269D01*
Y00868873D01*
X00251153Y00870355D01*
X00250019Y00871489D01*
X00248537Y00872103D01*
X00246933D01*
X00245451Y00871489D01*
X00245329Y00871367D01*
X00240532D01*
Y00872533D01*
X00231437D01*
Y00883510D01*
X00231558Y00883632D01*
X00232172Y00885114D01*
Y00886718D01*
X00231558Y00888200D01*
X00230424Y00889334D01*
X00228942Y00889948D01*
X00227338D01*
X00225856Y00889334D01*
X00224722Y00888200D01*
X00224108Y00886718D01*
Y00885114D01*
X00224585Y00883962D01*
X00224366Y00883649D01*
X00222768Y00883500D01*
X00222418Y00883849D01*
X00220936Y00884463D01*
X00219332D01*
X00217850Y00883849D01*
X00216716Y00882715D01*
X00216102Y00881233D01*
Y00879629D01*
X00216700Y00878185D01*
Y00872533D01*
X00207367D01*
Y00878988D01*
X00221945Y00893566D01*
X00222017D01*
X00223499Y00894180D01*
X00224634Y00895314D01*
X00225247Y00896796D01*
Y00898400D01*
X00224634Y00899882D01*
X00223499Y00901017D01*
X00223237Y00901125D01*
X00222939Y00902623D01*
X00229045Y00908729D01*
X00230218Y00908243D01*
Y00902969D01*
X00233606D01*
Y00899183D01*
X00233600Y00899151D01*
X00233712Y00898590D01*
Y00898349D01*
X00233804Y00898126D01*
X00233916Y00897565D01*
X00234233Y00897089D01*
X00234326Y00896867D01*
X00234496Y00896697D01*
X00234814Y00896221D01*
X00234877Y00896157D01*
X00235353Y00895839D01*
X00235460Y00895733D01*
X00235599Y00895675D01*
X00236222Y00895259D01*
X00237808Y00894943D01*
X00237808Y00894943D01*
X00294330D01*
X00294891Y00895055D01*
X00295132D01*
X00295354Y00895147D01*
X00295916Y00895259D01*
X00296392Y00895577D01*
X00296614Y00895669D01*
X00296784Y00895839D01*
X00297260Y00896157D01*
X00297578Y00896633D01*
X00297748Y00896803D01*
X00297840Y00897026D01*
X00298158Y00897501D01*
X00298270Y00898063D01*
X00298362Y00898285D01*
Y00898526D01*
X00298474Y00899087D01*
X00298362Y00899648D01*
Y00899889D01*
X00298270Y00900111D01*
X00298158Y00900673D01*
X00297840Y00901149D01*
X00297748Y00901371D01*
X00297578Y00901541D01*
X00297260Y00902017D01*
X00296784Y00902335D01*
X00296614Y00902505D01*
X00296392Y00902597D01*
X00295916Y00902915D01*
X00295354Y00903027D01*
X00295132Y00903119D01*
X00294891D01*
X00294330Y00903231D01*
X00245282D01*
Y00917032D01*
X00231507D01*
Y00920411D01*
X00231558Y00920462D01*
X00232172Y00921944D01*
Y00923548D01*
X00231558Y00925030D01*
X00232162Y00926222D01*
X00247190D01*
X00247751Y00926334D01*
X00247992D01*
X00248215Y00926426D01*
X00248776Y00926538D01*
X00249252Y00926856D01*
X00249474Y00926948D01*
X00249644Y00927118D01*
X00250120Y00927436D01*
X00250438Y00927912D01*
X00250608Y00928082D01*
X00250700Y00928304D01*
X00251018Y00928780D01*
X00251130Y00929341D01*
X00251222Y00929564D01*
Y00929805D01*
X00251334Y00930366D01*
X00251222Y00930927D01*
Y00931168D01*
X00251130Y00931390D01*
X00251018Y00931952D01*
X00250700Y00932427D01*
X00250608Y00932650D01*
X00250438Y00932820D01*
X00250120Y00933296D01*
X00249644Y00933614D01*
X00249474Y00933784D01*
X00249252Y00933876D01*
X00248776Y00934194D01*
X00248215Y00934306D01*
X00247992Y00934398D01*
X00247751D01*
X00247190Y00934510D01*
X00227964D01*
X00227335Y00935779D01*
X00227784Y00936368D01*
X00292478D01*
X00302250Y00926596D01*
X00302726Y00926278D01*
X00302896Y00926108D01*
X00303119Y00926016D01*
X00303594Y00925698D01*
X00304156Y00925586D01*
X00304378Y00925494D01*
X00304619D01*
X00305180Y00925382D01*
X00305741Y00925494D01*
X00305982D01*
X00306205Y00925586D01*
X00306766Y00925698D01*
X00307242Y00926016D01*
X00307464Y00926108D01*
X00307634Y00926278D01*
X00308110Y00926596D01*
X00308428Y00927072D01*
X00308598Y00927242D01*
X00308690Y00927464D01*
X00309008Y00927940D01*
X00309120Y00928502D01*
X00309212Y00928724D01*
Y00928965D01*
X00309324Y00929526D01*
X00309212Y00930087D01*
Y00930328D01*
X00309120Y00930550D01*
X00309008Y00931112D01*
X00308690Y00931587D01*
X00308598Y00931810D01*
X00308428Y00931980D01*
X00308110Y00932456D01*
X00297810Y00942756D01*
X00298336Y00944026D01*
X00367419D01*
Y00724485D01*
D02*
G37*
G36*
X00879301Y00852001D02*
X00878501D01*
Y00849501D01*
X00873501D01*
Y00854501D01*
X00879301D01*
Y00852001D01*
D02*
G37*
G36*
X00559300D02*
X00558500D01*
Y00849501D01*
X00553500D01*
Y00854501D01*
X00559300D01*
Y00852001D01*
D02*
G37*
G36*
X00239300D02*
X00238500D01*
Y00849501D01*
X00233500D01*
Y00854501D01*
X00239300D01*
Y00852001D01*
D02*
G37*
G36*
X01007419Y00404485D02*
X01007434Y00404410D01*
X01007038Y00401398D01*
X01005846Y00398521D01*
X01003950Y00396051D01*
X01001480Y00394155D01*
X00998603Y00392964D01*
X00996730Y00392717D01*
X00995516Y00392582D01*
D01*
X00994255Y00392582D01*
X00903030D01*
X00902712Y00393852D01*
X00904815Y00394976D01*
X00907492Y00397173D01*
X00909689Y00399850D01*
X00911321Y00402904D01*
X00912326Y00406218D01*
X00912666Y00409664D01*
Y00419624D01*
X00877336D01*
Y00409664D01*
X00877675Y00406218D01*
X00878680Y00402904D01*
X00880313Y00399850D01*
X00882510Y00397173D01*
X00885186Y00394976D01*
X00887290Y00393852D01*
X00886972Y00392582D01*
X00724485D01*
X00724411Y00392567D01*
X00721398Y00392964D01*
X00718521Y00394155D01*
X00716051Y00396051D01*
X00714156Y00398521D01*
X00712964Y00401398D01*
X00712567Y00404410D01*
X00712582Y00404485D01*
Y00624026D01*
X00861445D01*
X00861971Y00622756D01*
X00846161Y00606946D01*
X00845843Y00606470D01*
X00845673Y00606300D01*
X00845581Y00606077D01*
X00845263Y00605601D01*
X00845151Y00605040D01*
X00845059Y00604818D01*
Y00604577D01*
X00844947Y00604016D01*
X00845059Y00603455D01*
Y00603214D01*
X00845151Y00602991D01*
X00845189Y00602802D01*
X00844600Y00601789D01*
X00844335Y00601532D01*
X00834719D01*
Y00589468D01*
Y00580462D01*
X00759703D01*
X00759318Y00580386D01*
X00758903Y00580558D01*
X00757299D01*
X00755817Y00579944D01*
X00754683Y00578810D01*
X00754069Y00577328D01*
Y00575724D01*
X00754683Y00574242D01*
X00755817Y00573108D01*
X00757299Y00572494D01*
X00758903D01*
X00760385Y00573108D01*
X00761006Y00573729D01*
X00850926D01*
X00851412Y00572556D01*
X00841620Y00562763D01*
X00840890Y00561671D01*
X00840634Y00560383D01*
Y00552532D01*
X00839469D01*
Y00545040D01*
X00838961D01*
Y00542032D01*
X00844001D01*
Y00537968D01*
X00838961D01*
Y00535481D01*
X00831314D01*
X00827995Y00538800D01*
Y00554818D01*
X00827739Y00556106D01*
X00827009Y00557198D01*
X00817563Y00566645D01*
Y00566718D01*
X00816949Y00568200D01*
X00815815Y00569334D01*
X00814333Y00569948D01*
X00812729D01*
X00811247Y00569334D01*
X00810113Y00568200D01*
X00809499Y00566718D01*
Y00565114D01*
X00810113Y00563632D01*
X00811247Y00562498D01*
X00812729Y00561884D01*
X00812802D01*
X00815022Y00559664D01*
X00814442Y00558676D01*
X00814332Y00558558D01*
X00812769D01*
X00811287Y00557944D01*
X00810153Y00556810D01*
X00809539Y00555328D01*
Y00553724D01*
X00810153Y00552242D01*
X00810204Y00552190D01*
Y00535396D01*
X00810460Y00534107D01*
X00811190Y00533015D01*
X00841394Y00502811D01*
Y00500922D01*
X00837649D01*
Y00479078D01*
X00851873D01*
Y00500922D01*
X00848127D01*
Y00504206D01*
X00847871Y00505494D01*
X00847141Y00506586D01*
X00816937Y00536790D01*
Y00552190D01*
X00816989Y00552242D01*
X00817603Y00553724D01*
Y00555286D01*
X00817721Y00555397D01*
X00818709Y00555977D01*
X00821262Y00553423D01*
Y00537406D01*
X00821518Y00536117D01*
X00822248Y00535025D01*
X00827539Y00529734D01*
X00828631Y00529004D01*
X00829919Y00528748D01*
X00839469D01*
Y00527468D01*
X00846961D01*
Y00526960D01*
X00849969D01*
Y00532000D01*
X00854033D01*
Y00526960D01*
X00857969D01*
Y00532000D01*
X00862033D01*
Y00526960D01*
X00865969D01*
Y00532000D01*
X00870033D01*
Y00526960D01*
X00873041D01*
Y00527051D01*
X00873501Y00527429D01*
X00878501D01*
X00879294Y00527586D01*
X00879966Y00528035D01*
X00880365Y00528634D01*
X00885496D01*
X00886933Y00528038D01*
X00888537D01*
X00890019Y00528652D01*
X00891153Y00529786D01*
X00891767Y00531268D01*
Y00532872D01*
X00891153Y00534354D01*
X00890019Y00535489D01*
X00888537Y00536102D01*
X00886933D01*
X00885451Y00535489D01*
X00885330Y00535367D01*
X00881165D01*
X00881041Y00535554D01*
Y00537968D01*
X00876001D01*
Y00542032D01*
X00881041D01*
Y00544634D01*
X00885496D01*
X00886933Y00544038D01*
X00888537D01*
X00890019Y00544652D01*
X00891153Y00545787D01*
X00891767Y00547268D01*
Y00548872D01*
X00891153Y00550354D01*
X00890019Y00551489D01*
X00888537Y00552102D01*
X00886933D01*
X00885451Y00551489D01*
X00885330Y00551367D01*
X00880533D01*
Y00552532D01*
X00871437D01*
Y00563510D01*
X00871559Y00563632D01*
X00872173Y00565114D01*
Y00566718D01*
X00871559Y00568200D01*
X00870425Y00569334D01*
X00868943Y00569948D01*
X00867339D01*
X00865857Y00569334D01*
X00864723Y00568200D01*
X00864109Y00566718D01*
Y00565114D01*
X00864586Y00563962D01*
X00864367Y00563649D01*
X00862768Y00563500D01*
X00862419Y00563849D01*
X00860937Y00564463D01*
X00859333D01*
X00857851Y00563849D01*
X00856717Y00562715D01*
X00856103Y00561233D01*
Y00559629D01*
X00856701Y00558185D01*
Y00552532D01*
X00847367D01*
Y00558988D01*
X00861945Y00573566D01*
X00862018D01*
X00863500Y00574180D01*
X00864634Y00575314D01*
X00865248Y00576796D01*
Y00578400D01*
X00864634Y00579882D01*
X00863500Y00581016D01*
X00863238Y00581125D01*
X00862940Y00582623D01*
X00869045Y00588729D01*
X00870219Y00588243D01*
Y00582968D01*
X00873607D01*
Y00579183D01*
X00873601Y00579151D01*
X00873712Y00578589D01*
Y00578349D01*
X00873804Y00578126D01*
X00873916Y00577565D01*
X00874234Y00577089D01*
X00874326Y00576867D01*
X00874496Y00576697D01*
X00874814Y00576221D01*
X00874878Y00576157D01*
X00875354Y00575839D01*
X00875460Y00575732D01*
X00875599Y00575675D01*
X00876222Y00575259D01*
X00877808Y00574943D01*
X00877808Y00574943D01*
X00934331D01*
X00934892Y00575055D01*
X00935133D01*
X00935355Y00575147D01*
X00935916Y00575259D01*
X00936392Y00575577D01*
X00936615Y00575669D01*
X00936785Y00575839D01*
X00937261Y00576157D01*
X00937579Y00576633D01*
X00937749Y00576803D01*
X00937841Y00577025D01*
X00938159Y00577501D01*
X00938270Y00578062D01*
X00938363Y00578285D01*
Y00578526D01*
X00938474Y00579087D01*
X00938363Y00579648D01*
Y00579889D01*
X00938270Y00580111D01*
X00938159Y00580672D01*
X00937841Y00581148D01*
X00937749Y00581371D01*
X00937579Y00581541D01*
X00937261Y00582017D01*
X00936785Y00582335D01*
X00936615Y00582505D01*
X00936392Y00582597D01*
X00935916Y00582915D01*
X00935355Y00583027D01*
X00935133Y00583119D01*
X00934892D01*
X00934331Y00583231D01*
X00885283D01*
Y00597032D01*
X00871507D01*
Y00600410D01*
X00871559Y00600462D01*
X00872173Y00601944D01*
Y00603548D01*
X00871559Y00605030D01*
X00872163Y00606222D01*
X00887191D01*
X00887752Y00606334D01*
X00887993D01*
X00888215Y00606426D01*
X00888776Y00606538D01*
X00889252Y00606855D01*
X00889475Y00606948D01*
X00889645Y00607118D01*
X00890121Y00607436D01*
X00890439Y00607912D01*
X00890609Y00608082D01*
X00890701Y00608304D01*
X00891019Y00608780D01*
X00891131Y00609341D01*
X00891223Y00609564D01*
Y00609804D01*
X00891334Y00610366D01*
X00891223Y00610927D01*
Y00611168D01*
X00891131Y00611390D01*
X00891019Y00611951D01*
X00890701Y00612427D01*
X00890609Y00612650D01*
X00890439Y00612820D01*
X00890121Y00613296D01*
X00889645Y00613614D01*
X00889475Y00613784D01*
X00889252Y00613876D01*
X00888776Y00614194D01*
X00888215Y00614306D01*
X00887993Y00614398D01*
X00887752D01*
X00887191Y00614509D01*
X00867964D01*
X00867336Y00615779D01*
X00867785Y00616368D01*
X00932478D01*
X00942251Y00606596D01*
X00942727Y00606278D01*
X00942897Y00606108D01*
X00943119Y00606016D01*
X00943595Y00605698D01*
X00944156Y00605586D01*
X00944379Y00605494D01*
X00944620D01*
X00945181Y00605382D01*
X00945742Y00605494D01*
X00945983D01*
X00946205Y00605586D01*
X00946767Y00605698D01*
X00947242Y00606016D01*
X00947465Y00606108D01*
X00947635Y00606278D01*
X00948111Y00606596D01*
X00948429Y00607072D01*
X00948599Y00607242D01*
X00948691Y00607464D01*
X00949009Y00607940D01*
X00949121Y00608501D01*
X00949213Y00608724D01*
Y00608965D01*
X00949324Y00609526D01*
X00949213Y00610087D01*
Y00610328D01*
X00949121Y00610550D01*
X00949009Y00611111D01*
X00948691Y00611587D01*
X00948599Y00611810D01*
X00948429Y00611980D01*
X00948111Y00612456D01*
X00937811Y00622756D01*
X00938337Y00624026D01*
X01007419D01*
Y00404485D01*
D02*
G37*
G36*
X00687419D02*
X00687434Y00404410D01*
X00687037Y00401398D01*
X00685846Y00398521D01*
X00683950Y00396051D01*
X00681480Y00394155D01*
X00678603Y00392964D01*
X00676730Y00392717D01*
X00675516Y00392582D01*
D01*
X00674254Y00392582D01*
X00583030D01*
X00582711Y00393852D01*
X00584815Y00394976D01*
X00587491Y00397173D01*
X00589688Y00399850D01*
X00591321Y00402904D01*
X00592326Y00406218D01*
X00592665Y00409664D01*
Y00419624D01*
X00557335D01*
Y00409664D01*
X00557675Y00406218D01*
X00558680Y00402904D01*
X00560312Y00399850D01*
X00562509Y00397173D01*
X00565186Y00394976D01*
X00567289Y00393852D01*
X00566971Y00392582D01*
X00404485D01*
X00404410Y00392567D01*
X00401398Y00392964D01*
X00398521Y00394155D01*
X00396051Y00396051D01*
X00394155Y00398521D01*
X00392964Y00401398D01*
X00392567Y00404410D01*
X00392582Y00404485D01*
Y00624026D01*
X00541445D01*
X00541970Y00622756D01*
X00526161Y00606946D01*
X00525843Y00606470D01*
X00525672Y00606300D01*
X00525580Y00606077D01*
X00525262Y00605601D01*
X00525151Y00605040D01*
X00525059Y00604818D01*
Y00604577D01*
X00524947Y00604016D01*
X00525059Y00603455D01*
Y00603214D01*
X00525151Y00602991D01*
X00525188Y00602802D01*
X00524600Y00601789D01*
X00524335Y00601532D01*
X00514718D01*
Y00589468D01*
Y00580462D01*
X00439703D01*
X00439318Y00580386D01*
X00438903Y00580558D01*
X00437299D01*
X00435817Y00579944D01*
X00434682Y00578810D01*
X00434068Y00577328D01*
Y00575724D01*
X00434682Y00574242D01*
X00435817Y00573108D01*
X00437299Y00572494D01*
X00438903D01*
X00440384Y00573108D01*
X00441006Y00573729D01*
X00530926D01*
X00531412Y00572556D01*
X00521620Y00562763D01*
X00520890Y00561671D01*
X00520634Y00560383D01*
Y00552532D01*
X00519468D01*
Y00545040D01*
X00518960D01*
Y00542032D01*
X00524000D01*
Y00537968D01*
X00518960D01*
Y00535481D01*
X00511314D01*
X00507995Y00538800D01*
Y00554818D01*
X00507739Y00556106D01*
X00507009Y00557198D01*
X00497562Y00566645D01*
Y00566718D01*
X00496949Y00568200D01*
X00495814Y00569334D01*
X00494333Y00569948D01*
X00492729D01*
X00491246Y00569334D01*
X00490112Y00568200D01*
X00489498Y00566718D01*
Y00565114D01*
X00490112Y00563632D01*
X00491246Y00562498D01*
X00492729Y00561884D01*
X00492801D01*
X00495021Y00559664D01*
X00494442Y00558676D01*
X00494331Y00558558D01*
X00492769D01*
X00491287Y00557944D01*
X00490152Y00556810D01*
X00489538Y00555328D01*
Y00553724D01*
X00490152Y00552242D01*
X00490204Y00552190D01*
Y00535396D01*
X00490460Y00534107D01*
X00491190Y00533015D01*
X00521394Y00502811D01*
Y00500922D01*
X00517648D01*
Y00479078D01*
X00531872D01*
Y00500922D01*
X00528127D01*
Y00504206D01*
X00527871Y00505494D01*
X00527141Y00506586D01*
X00496937Y00536790D01*
Y00552190D01*
X00496989Y00552242D01*
X00497603Y00553724D01*
Y00555286D01*
X00497720Y00555397D01*
X00498708Y00555977D01*
X00501262Y00553423D01*
Y00537406D01*
X00501518Y00536117D01*
X00502248Y00535025D01*
X00507538Y00529734D01*
X00508631Y00529004D01*
X00509919Y00528748D01*
X00519468D01*
Y00527468D01*
X00526960D01*
Y00526960D01*
X00529968D01*
Y00532000D01*
X00534032D01*
Y00526960D01*
X00537968D01*
Y00532000D01*
X00542032D01*
Y00526960D01*
X00545968D01*
Y00532000D01*
X00550032D01*
Y00526960D01*
X00553040D01*
Y00527051D01*
X00553500Y00527429D01*
X00558500D01*
X00559293Y00527586D01*
X00559965Y00528035D01*
X00560365Y00528634D01*
X00565496D01*
X00566933Y00528038D01*
X00568537D01*
X00570019Y00528652D01*
X00571153Y00529786D01*
X00571767Y00531268D01*
Y00532872D01*
X00571153Y00534354D01*
X00570019Y00535489D01*
X00568537Y00536102D01*
X00566933D01*
X00565451Y00535489D01*
X00565329Y00535367D01*
X00561165D01*
X00561040Y00535554D01*
Y00537968D01*
X00556000D01*
Y00542032D01*
X00561040D01*
Y00544634D01*
X00565496D01*
X00566933Y00544038D01*
X00568537D01*
X00570019Y00544652D01*
X00571153Y00545787D01*
X00571767Y00547268D01*
Y00548872D01*
X00571153Y00550354D01*
X00570019Y00551489D01*
X00568537Y00552102D01*
X00566933D01*
X00565451Y00551489D01*
X00565329Y00551367D01*
X00560532D01*
Y00552532D01*
X00551437D01*
Y00563510D01*
X00551559Y00563632D01*
X00552173Y00565114D01*
Y00566718D01*
X00551559Y00568200D01*
X00550424Y00569334D01*
X00548942Y00569948D01*
X00547338D01*
X00545857Y00569334D01*
X00544722Y00568200D01*
X00544109Y00566718D01*
Y00565114D01*
X00544585Y00563962D01*
X00544366Y00563649D01*
X00542768Y00563500D01*
X00542418Y00563849D01*
X00540936Y00564463D01*
X00539332D01*
X00537850Y00563849D01*
X00536716Y00562715D01*
X00536102Y00561233D01*
Y00559629D01*
X00536701Y00558185D01*
Y00552532D01*
X00527367D01*
Y00558988D01*
X00541945Y00573566D01*
X00542018D01*
X00543500Y00574180D01*
X00544634Y00575314D01*
X00545248Y00576796D01*
Y00578400D01*
X00544634Y00579882D01*
X00543500Y00581016D01*
X00543237Y00581125D01*
X00542939Y00582623D01*
X00549045Y00588729D01*
X00550218Y00588243D01*
Y00582968D01*
X00553607D01*
Y00579183D01*
X00553600Y00579151D01*
X00553712Y00578589D01*
Y00578349D01*
X00553804Y00578126D01*
X00553916Y00577565D01*
X00554234Y00577089D01*
X00554326Y00576867D01*
X00554496Y00576697D01*
X00554814Y00576221D01*
X00554878Y00576157D01*
X00555354Y00575839D01*
X00555460Y00575732D01*
X00555599Y00575675D01*
X00556222Y00575259D01*
X00557808Y00574943D01*
X00557808Y00574943D01*
X00614330D01*
X00614892Y00575055D01*
X00615132D01*
X00615355Y00575147D01*
X00615916Y00575259D01*
X00616392Y00575577D01*
X00616614Y00575669D01*
X00616785Y00575839D01*
X00617260Y00576157D01*
X00617578Y00576633D01*
X00617748Y00576803D01*
X00617841Y00577025D01*
X00618159Y00577501D01*
X00618270Y00578062D01*
X00618362Y00578285D01*
Y00578526D01*
X00618474Y00579087D01*
X00618362Y00579648D01*
Y00579889D01*
X00618270Y00580111D01*
X00618159Y00580672D01*
X00617841Y00581148D01*
X00617748Y00581371D01*
X00617578Y00581541D01*
X00617260Y00582017D01*
X00616785Y00582335D01*
X00616614Y00582505D01*
X00616392Y00582597D01*
X00615916Y00582915D01*
X00615355Y00583027D01*
X00615132Y00583119D01*
X00614892D01*
X00614330Y00583231D01*
X00565282D01*
Y00597032D01*
X00551507D01*
Y00600410D01*
X00551559Y00600462D01*
X00552173Y00601944D01*
Y00603548D01*
X00551559Y00605030D01*
X00552162Y00606222D01*
X00567191D01*
X00567752Y00606334D01*
X00567993D01*
X00568215Y00606426D01*
X00568776Y00606538D01*
X00569252Y00606855D01*
X00569474Y00606948D01*
X00569645Y00607118D01*
X00570121Y00607436D01*
X00570438Y00607912D01*
X00570609Y00608082D01*
X00570701Y00608304D01*
X00571019Y00608780D01*
X00571130Y00609341D01*
X00571222Y00609564D01*
Y00609804D01*
X00571334Y00610366D01*
X00571222Y00610927D01*
Y00611168D01*
X00571130Y00611390D01*
X00571019Y00611951D01*
X00570701Y00612427D01*
X00570609Y00612650D01*
X00570438Y00612820D01*
X00570121Y00613296D01*
X00569645Y00613614D01*
X00569474Y00613784D01*
X00569252Y00613876D01*
X00568776Y00614194D01*
X00568215Y00614306D01*
X00567993Y00614398D01*
X00567752D01*
X00567191Y00614509D01*
X00547964D01*
X00547335Y00615779D01*
X00547785Y00616368D01*
X00612478D01*
X00622251Y00606596D01*
X00622726Y00606278D01*
X00622896Y00606108D01*
X00623119Y00606016D01*
X00623595Y00605698D01*
X00624156Y00605586D01*
X00624379Y00605494D01*
X00624619D01*
X00625181Y00605382D01*
X00625742Y00605494D01*
X00625983D01*
X00626205Y00605586D01*
X00626766Y00605698D01*
X00627242Y00606016D01*
X00627464Y00606108D01*
X00627635Y00606278D01*
X00628111Y00606596D01*
X00628428Y00607072D01*
X00628599Y00607242D01*
X00628691Y00607464D01*
X00629009Y00607940D01*
X00629120Y00608501D01*
X00629212Y00608724D01*
Y00608965D01*
X00629324Y00609526D01*
X00629212Y00610087D01*
Y00610328D01*
X00629120Y00610550D01*
X00629009Y00611111D01*
X00628691Y00611587D01*
X00628599Y00611810D01*
X00628428Y00611980D01*
X00628111Y00612456D01*
X00617810Y00622756D01*
X00618336Y00624026D01*
X00687419D01*
Y00404485D01*
D02*
G37*
G36*
X00367419D02*
X00367434Y00404410D01*
X00367037Y00401398D01*
X00365845Y00398521D01*
X00363950Y00396051D01*
X00361479Y00394155D01*
X00358603Y00392964D01*
X00356730Y00392717D01*
X00355516Y00392582D01*
D01*
X00354254Y00392582D01*
X00263029D01*
X00262711Y00393852D01*
X00264814Y00394976D01*
X00267491Y00397173D01*
X00269688Y00399850D01*
X00271320Y00402904D01*
X00272326Y00406218D01*
X00272665Y00409664D01*
Y00419624D01*
X00237335D01*
Y00409664D01*
X00237675Y00406218D01*
X00238680Y00402904D01*
X00240312Y00399850D01*
X00242509Y00397173D01*
X00245186Y00394976D01*
X00247289Y00393852D01*
X00246971Y00392582D01*
X00084485D01*
X00084410Y00392567D01*
X00081397Y00392964D01*
X00078521Y00394155D01*
X00076051Y00396051D01*
X00074155Y00398521D01*
X00072963Y00401398D01*
X00072567Y00404410D01*
X00072582Y00404485D01*
Y00624026D01*
X00221444D01*
X00221970Y00622756D01*
X00206160Y00606946D01*
X00205842Y00606470D01*
X00205672Y00606300D01*
X00205580Y00606077D01*
X00205262Y00605601D01*
X00205150Y00605040D01*
X00205058Y00604818D01*
Y00604577D01*
X00204947Y00604016D01*
X00205058Y00603455D01*
Y00603214D01*
X00205150Y00602991D01*
X00205188Y00602802D01*
X00204600Y00601789D01*
X00204334Y00601532D01*
X00194718D01*
Y00589468D01*
Y00580462D01*
X00119703D01*
X00119317Y00580386D01*
X00118902Y00580558D01*
X00117298D01*
X00115816Y00579944D01*
X00114682Y00578810D01*
X00114068Y00577328D01*
Y00575724D01*
X00114682Y00574242D01*
X00115816Y00573108D01*
X00117298Y00572494D01*
X00118902D01*
X00120384Y00573108D01*
X00121006Y00573729D01*
X00210926D01*
X00211412Y00572556D01*
X00201619Y00562763D01*
X00200890Y00561671D01*
X00200633Y00560383D01*
Y00552532D01*
X00199468D01*
Y00545040D01*
X00198960D01*
Y00542032D01*
X00204000D01*
Y00537968D01*
X00198960D01*
Y00535481D01*
X00191313D01*
X00187995Y00538800D01*
Y00554818D01*
X00187738Y00556106D01*
X00187009Y00557198D01*
X00177562Y00566645D01*
Y00566718D01*
X00176948Y00568200D01*
X00175814Y00569334D01*
X00174332Y00569948D01*
X00172728D01*
X00171246Y00569334D01*
X00170112Y00568200D01*
X00169498Y00566718D01*
Y00565114D01*
X00170112Y00563632D01*
X00171246Y00562498D01*
X00172728Y00561884D01*
X00172801D01*
X00175021Y00559664D01*
X00174441Y00558676D01*
X00174331Y00558558D01*
X00172768D01*
X00171286Y00557944D01*
X00170152Y00556810D01*
X00169538Y00555328D01*
Y00553724D01*
X00170152Y00552242D01*
X00170203Y00552190D01*
Y00535396D01*
X00170460Y00534107D01*
X00171190Y00533015D01*
X00201393Y00502811D01*
Y00500922D01*
X00197648D01*
Y00479078D01*
X00211872D01*
Y00500922D01*
X00208127D01*
Y00504206D01*
X00207871Y00505494D01*
X00207141Y00506586D01*
X00176937Y00536790D01*
Y00552190D01*
X00176988Y00552242D01*
X00177602Y00553724D01*
Y00555286D01*
X00177720Y00555397D01*
X00178708Y00555977D01*
X00181261Y00553423D01*
Y00537406D01*
X00181518Y00536117D01*
X00182247Y00535025D01*
X00187538Y00529734D01*
X00188630Y00529004D01*
X00189919Y00528748D01*
X00199468D01*
Y00527468D01*
X00206960D01*
Y00526960D01*
X00209968D01*
Y00532000D01*
X00214032D01*
Y00526960D01*
X00217968D01*
Y00532000D01*
X00222032D01*
Y00526960D01*
X00225968D01*
Y00532000D01*
X00230032D01*
Y00526960D01*
X00233040D01*
Y00527051D01*
X00233500Y00527429D01*
X00238500D01*
X00239293Y00527586D01*
X00239965Y00528035D01*
X00240365Y00528634D01*
X00245496D01*
X00246933Y00528038D01*
X00248537D01*
X00250019Y00528652D01*
X00251153Y00529786D01*
X00251767Y00531268D01*
Y00532872D01*
X00251153Y00534354D01*
X00250019Y00535489D01*
X00248537Y00536102D01*
X00246933D01*
X00245451Y00535489D01*
X00245329Y00535367D01*
X00241165D01*
X00241040Y00535554D01*
Y00537968D01*
X00236000D01*
Y00542032D01*
X00241040D01*
Y00544634D01*
X00245496D01*
X00246933Y00544038D01*
X00248537D01*
X00250019Y00544652D01*
X00251153Y00545787D01*
X00251767Y00547268D01*
Y00548872D01*
X00251153Y00550354D01*
X00250019Y00551489D01*
X00248537Y00552102D01*
X00246933D01*
X00245451Y00551489D01*
X00245329Y00551367D01*
X00240532D01*
Y00552532D01*
X00231437D01*
Y00563510D01*
X00231558Y00563632D01*
X00232172Y00565114D01*
Y00566718D01*
X00231558Y00568200D01*
X00230424Y00569334D01*
X00228942Y00569948D01*
X00227338D01*
X00225856Y00569334D01*
X00224722Y00568200D01*
X00224108Y00566718D01*
Y00565114D01*
X00224585Y00563962D01*
X00224366Y00563649D01*
X00222768Y00563500D01*
X00222418Y00563849D01*
X00220936Y00564463D01*
X00219332D01*
X00217850Y00563849D01*
X00216716Y00562715D01*
X00216102Y00561233D01*
Y00559629D01*
X00216700Y00558185D01*
Y00552532D01*
X00207367D01*
Y00558988D01*
X00221945Y00573566D01*
X00222017D01*
X00223499Y00574180D01*
X00224634Y00575314D01*
X00225247Y00576796D01*
Y00578400D01*
X00224634Y00579882D01*
X00223499Y00581016D01*
X00223237Y00581125D01*
X00222939Y00582623D01*
X00229045Y00588729D01*
X00230218Y00588243D01*
Y00582968D01*
X00233606D01*
Y00579183D01*
X00233600Y00579151D01*
X00233712Y00578589D01*
Y00578349D01*
X00233804Y00578126D01*
X00233916Y00577565D01*
X00234233Y00577089D01*
X00234326Y00576867D01*
X00234496Y00576697D01*
X00234814Y00576221D01*
X00234877Y00576157D01*
X00235353Y00575839D01*
X00235460Y00575732D01*
X00235599Y00575675D01*
X00236222Y00575259D01*
X00237808Y00574943D01*
X00237808Y00574943D01*
X00294330D01*
X00294891Y00575055D01*
X00295132D01*
X00295354Y00575147D01*
X00295916Y00575259D01*
X00296392Y00575577D01*
X00296614Y00575669D01*
X00296784Y00575839D01*
X00297260Y00576157D01*
X00297578Y00576633D01*
X00297748Y00576803D01*
X00297840Y00577025D01*
X00298158Y00577501D01*
X00298270Y00578062D01*
X00298362Y00578285D01*
Y00578526D01*
X00298474Y00579087D01*
X00298362Y00579648D01*
Y00579889D01*
X00298270Y00580111D01*
X00298158Y00580672D01*
X00297840Y00581148D01*
X00297748Y00581371D01*
X00297578Y00581541D01*
X00297260Y00582017D01*
X00296784Y00582335D01*
X00296614Y00582505D01*
X00296392Y00582597D01*
X00295916Y00582915D01*
X00295354Y00583027D01*
X00295132Y00583119D01*
X00294891D01*
X00294330Y00583231D01*
X00245282D01*
Y00597032D01*
X00231507D01*
Y00600410D01*
X00231558Y00600462D01*
X00232172Y00601944D01*
Y00603548D01*
X00231558Y00605030D01*
X00232162Y00606222D01*
X00247190D01*
X00247751Y00606334D01*
X00247992D01*
X00248215Y00606426D01*
X00248776Y00606538D01*
X00249252Y00606855D01*
X00249474Y00606948D01*
X00249644Y00607118D01*
X00250120Y00607436D01*
X00250438Y00607912D01*
X00250608Y00608082D01*
X00250700Y00608304D01*
X00251018Y00608780D01*
X00251130Y00609341D01*
X00251222Y00609564D01*
Y00609804D01*
X00251334Y00610366D01*
X00251222Y00610927D01*
Y00611168D01*
X00251130Y00611390D01*
X00251018Y00611951D01*
X00250700Y00612427D01*
X00250608Y00612650D01*
X00250438Y00612820D01*
X00250120Y00613296D01*
X00249644Y00613614D01*
X00249474Y00613784D01*
X00249252Y00613876D01*
X00248776Y00614194D01*
X00248215Y00614306D01*
X00247992Y00614398D01*
X00247751D01*
X00247190Y00614509D01*
X00227964D01*
X00227335Y00615779D01*
X00227784Y00616368D01*
X00292478D01*
X00302250Y00606596D01*
X00302726Y00606278D01*
X00302896Y00606108D01*
X00303119Y00606016D01*
X00303594Y00605698D01*
X00304156Y00605586D01*
X00304378Y00605494D01*
X00304619D01*
X00305180Y00605382D01*
X00305741Y00605494D01*
X00305982D01*
X00306205Y00605586D01*
X00306766Y00605698D01*
X00307242Y00606016D01*
X00307464Y00606108D01*
X00307634Y00606278D01*
X00308110Y00606596D01*
X00308428Y00607072D01*
X00308598Y00607242D01*
X00308690Y00607464D01*
X00309008Y00607940D01*
X00309120Y00608501D01*
X00309212Y00608724D01*
Y00608965D01*
X00309324Y00609526D01*
X00309212Y00610087D01*
Y00610328D01*
X00309120Y00610550D01*
X00309008Y00611111D01*
X00308690Y00611587D01*
X00308598Y00611810D01*
X00308428Y00611980D01*
X00308110Y00612456D01*
X00297810Y00622756D01*
X00298336Y00624026D01*
X00367419D01*
Y00404485D01*
D02*
G37*
G36*
X00879301Y00532000D02*
X00878501D01*
Y00529500D01*
X00873501D01*
Y00534500D01*
X00879301D01*
Y00532000D01*
D02*
G37*
G36*
X00559300D02*
X00558500D01*
Y00529500D01*
X00553500D01*
Y00534500D01*
X00559300D01*
Y00532000D01*
D02*
G37*
G36*
X00239300D02*
X00238500D01*
Y00529500D01*
X00233500D01*
Y00534500D01*
X00239300D01*
Y00532000D01*
D02*
G37*
G36*
X01007419Y00084485D02*
X01007434Y00084410D01*
X01007038Y00081397D01*
X01005846Y00078521D01*
X01003950Y00076051D01*
X01001480Y00074155D01*
X00998603Y00072963D01*
X00996730Y00072717D01*
X00995516Y00072582D01*
D01*
X00994255Y00072582D01*
X00903030D01*
X00902712Y00073852D01*
X00904815Y00074976D01*
X00907492Y00077173D01*
X00909689Y00079850D01*
X00911321Y00082904D01*
X00912326Y00086217D01*
X00912666Y00089664D01*
Y00099624D01*
X00877336D01*
Y00089664D01*
X00877675Y00086217D01*
X00878680Y00082904D01*
X00880313Y00079850D01*
X00882510Y00077173D01*
X00885186Y00074976D01*
X00887290Y00073852D01*
X00886972Y00072582D01*
X00724485D01*
X00724411Y00072567D01*
X00721398Y00072963D01*
X00718521Y00074155D01*
X00716051Y00076051D01*
X00714156Y00078521D01*
X00712964Y00081397D01*
X00712567Y00084410D01*
X00712582Y00084485D01*
Y00304026D01*
X00861445D01*
X00861971Y00302756D01*
X00846161Y00286946D01*
X00845843Y00286470D01*
X00845673Y00286299D01*
X00845581Y00286077D01*
X00845263Y00285601D01*
X00845151Y00285040D01*
X00845059Y00284818D01*
Y00284577D01*
X00844947Y00284016D01*
X00845059Y00283454D01*
Y00283214D01*
X00845151Y00282991D01*
X00845189Y00282802D01*
X00844600Y00281789D01*
X00844335Y00281532D01*
X00834719D01*
Y00269468D01*
Y00260462D01*
X00759703D01*
X00759318Y00260386D01*
X00758903Y00260558D01*
X00757299D01*
X00755817Y00259944D01*
X00754683Y00258810D01*
X00754069Y00257328D01*
Y00255724D01*
X00754683Y00254242D01*
X00755817Y00253107D01*
X00757299Y00252494D01*
X00758903D01*
X00760385Y00253107D01*
X00761006Y00253729D01*
X00850926D01*
X00851412Y00252556D01*
X00841620Y00242763D01*
X00840890Y00241671D01*
X00840634Y00240383D01*
Y00232532D01*
X00839469D01*
Y00225040D01*
X00838961D01*
Y00222032D01*
X00844001D01*
Y00217968D01*
X00838961D01*
Y00215481D01*
X00831314D01*
X00827995Y00218800D01*
Y00234818D01*
X00827739Y00236106D01*
X00827009Y00237198D01*
X00817563Y00246645D01*
Y00246718D01*
X00816949Y00248200D01*
X00815815Y00249334D01*
X00814333Y00249948D01*
X00812729D01*
X00811247Y00249334D01*
X00810113Y00248200D01*
X00809499Y00246718D01*
Y00245114D01*
X00810113Y00243632D01*
X00811247Y00242497D01*
X00812729Y00241884D01*
X00812802D01*
X00815022Y00239664D01*
X00814442Y00238675D01*
X00814332Y00238558D01*
X00812769D01*
X00811287Y00237944D01*
X00810153Y00236810D01*
X00809539Y00235328D01*
Y00233724D01*
X00810153Y00232242D01*
X00810204Y00232190D01*
Y00215396D01*
X00810460Y00214107D01*
X00811190Y00213015D01*
X00841394Y00182811D01*
Y00180922D01*
X00837649D01*
Y00159078D01*
X00851873D01*
Y00180922D01*
X00848127D01*
Y00184206D01*
X00847871Y00185494D01*
X00847141Y00186586D01*
X00816937Y00216790D01*
Y00232190D01*
X00816989Y00232242D01*
X00817603Y00233724D01*
Y00235286D01*
X00817721Y00235397D01*
X00818709Y00235976D01*
X00821262Y00233423D01*
Y00217405D01*
X00821518Y00216117D01*
X00822248Y00215025D01*
X00827539Y00209734D01*
X00828631Y00209004D01*
X00829919Y00208748D01*
X00839469D01*
Y00207468D01*
X00846961D01*
Y00206960D01*
X00849969D01*
Y00212000D01*
X00854033D01*
Y00206960D01*
X00857969D01*
Y00212000D01*
X00862033D01*
Y00206960D01*
X00865969D01*
Y00212000D01*
X00870033D01*
Y00206960D01*
X00873041D01*
Y00207051D01*
X00873501Y00207428D01*
X00878501D01*
X00879294Y00207586D01*
X00879966Y00208035D01*
X00880365Y00208633D01*
X00885496D01*
X00886933Y00208038D01*
X00888537D01*
X00890019Y00208652D01*
X00891153Y00209786D01*
X00891767Y00211268D01*
Y00212872D01*
X00891153Y00214354D01*
X00890019Y00215488D01*
X00888537Y00216102D01*
X00886933D01*
X00885451Y00215488D01*
X00885330Y00215367D01*
X00881165D01*
X00881041Y00215554D01*
Y00217968D01*
X00876001D01*
Y00222032D01*
X00881041D01*
Y00224634D01*
X00885496D01*
X00886933Y00224038D01*
X00888537D01*
X00890019Y00224652D01*
X00891153Y00225786D01*
X00891767Y00227268D01*
Y00228872D01*
X00891153Y00230354D01*
X00890019Y00231488D01*
X00888537Y00232102D01*
X00886933D01*
X00885451Y00231488D01*
X00885330Y00231367D01*
X00880533D01*
Y00232532D01*
X00871437D01*
Y00243510D01*
X00871559Y00243632D01*
X00872173Y00245114D01*
Y00246718D01*
X00871559Y00248200D01*
X00870425Y00249334D01*
X00868943Y00249948D01*
X00867339D01*
X00865857Y00249334D01*
X00864723Y00248200D01*
X00864109Y00246718D01*
Y00245114D01*
X00864586Y00243962D01*
X00864367Y00243648D01*
X00862768Y00243500D01*
X00862419Y00243849D01*
X00860937Y00244463D01*
X00859333D01*
X00857851Y00243849D01*
X00856717Y00242715D01*
X00856103Y00241233D01*
Y00239629D01*
X00856701Y00238185D01*
Y00232532D01*
X00847367D01*
Y00238988D01*
X00861945Y00253566D01*
X00862018D01*
X00863500Y00254180D01*
X00864634Y00255314D01*
X00865248Y00256796D01*
Y00258400D01*
X00864634Y00259882D01*
X00863500Y00261016D01*
X00863238Y00261125D01*
X00862940Y00262623D01*
X00869045Y00268729D01*
X00870219Y00268243D01*
Y00262968D01*
X00873607D01*
Y00259182D01*
X00873601Y00259151D01*
X00873712Y00258589D01*
Y00258349D01*
X00873804Y00258126D01*
X00873916Y00257565D01*
X00874234Y00257089D01*
X00874326Y00256866D01*
X00874496Y00256696D01*
X00874814Y00256220D01*
X00874878Y00256157D01*
X00875354Y00255839D01*
X00875460Y00255732D01*
X00875599Y00255675D01*
X00876222Y00255258D01*
X00877808Y00254943D01*
X00877808Y00254943D01*
X00934331D01*
X00934892Y00255055D01*
X00935133D01*
X00935355Y00255147D01*
X00935916Y00255258D01*
X00936392Y00255576D01*
X00936615Y00255669D01*
X00936785Y00255839D01*
X00937261Y00256157D01*
X00937579Y00256632D01*
X00937749Y00256803D01*
X00937841Y00257025D01*
X00938159Y00257501D01*
X00938270Y00258062D01*
X00938363Y00258285D01*
Y00258525D01*
X00938474Y00259087D01*
X00938363Y00259648D01*
Y00259889D01*
X00938270Y00260111D01*
X00938159Y00260672D01*
X00937841Y00261148D01*
X00937749Y00261371D01*
X00937579Y00261541D01*
X00937261Y00262017D01*
X00936785Y00262335D01*
X00936615Y00262505D01*
X00936392Y00262597D01*
X00935916Y00262915D01*
X00935355Y00263027D01*
X00935133Y00263119D01*
X00934892D01*
X00934331Y00263230D01*
X00885283D01*
Y00277032D01*
X00871507D01*
Y00280410D01*
X00871559Y00280462D01*
X00872173Y00281944D01*
Y00283548D01*
X00871559Y00285030D01*
X00872163Y00286222D01*
X00887191D01*
X00887752Y00286334D01*
X00887993D01*
X00888215Y00286426D01*
X00888776Y00286537D01*
X00889252Y00286855D01*
X00889475Y00286947D01*
X00889645Y00287118D01*
X00890121Y00287436D01*
X00890439Y00287911D01*
X00890609Y00288082D01*
X00890701Y00288304D01*
X00891019Y00288780D01*
X00891131Y00289341D01*
X00891223Y00289564D01*
Y00289804D01*
X00891334Y00290366D01*
X00891223Y00290927D01*
Y00291168D01*
X00891131Y00291390D01*
X00891019Y00291951D01*
X00890701Y00292427D01*
X00890609Y00292649D01*
X00890439Y00292820D01*
X00890121Y00293296D01*
X00889645Y00293613D01*
X00889475Y00293784D01*
X00889252Y00293876D01*
X00888776Y00294194D01*
X00888215Y00294305D01*
X00887993Y00294398D01*
X00887752D01*
X00887191Y00294509D01*
X00867964D01*
X00867336Y00295779D01*
X00867785Y00296368D01*
X00932478D01*
X00942251Y00286596D01*
X00942727Y00286278D01*
X00942897Y00286107D01*
X00943119Y00286015D01*
X00943595Y00285697D01*
X00944156Y00285586D01*
X00944379Y00285494D01*
X00944620D01*
X00945181Y00285382D01*
X00945742Y00285494D01*
X00945983D01*
X00946205Y00285586D01*
X00946767Y00285697D01*
X00947242Y00286015D01*
X00947465Y00286107D01*
X00947635Y00286278D01*
X00948111Y00286596D01*
X00948429Y00287071D01*
X00948599Y00287242D01*
X00948691Y00287464D01*
X00949009Y00287940D01*
X00949121Y00288501D01*
X00949213Y00288724D01*
Y00288964D01*
X00949324Y00289526D01*
X00949213Y00290087D01*
Y00290328D01*
X00949121Y00290550D01*
X00949009Y00291111D01*
X00948691Y00291587D01*
X00948599Y00291810D01*
X00948429Y00291980D01*
X00948111Y00292456D01*
X00937811Y00302756D01*
X00938337Y00304026D01*
X01007419D01*
Y00084485D01*
D02*
G37*
G36*
X00687419D02*
X00687434Y00084410D01*
X00687037Y00081397D01*
X00685846Y00078521D01*
X00683950Y00076051D01*
X00681480Y00074155D01*
X00678603Y00072963D01*
X00676730Y00072717D01*
X00675516Y00072582D01*
D01*
X00674254Y00072582D01*
X00583030D01*
X00582711Y00073852D01*
X00584815Y00074976D01*
X00587491Y00077173D01*
X00589688Y00079850D01*
X00591321Y00082904D01*
X00592326Y00086217D01*
X00592665Y00089664D01*
Y00099624D01*
X00557335D01*
Y00089664D01*
X00557675Y00086217D01*
X00558680Y00082904D01*
X00560312Y00079850D01*
X00562509Y00077173D01*
X00565186Y00074976D01*
X00567289Y00073852D01*
X00566971Y00072582D01*
X00404485D01*
X00404410Y00072567D01*
X00401398Y00072963D01*
X00398521Y00074155D01*
X00396051Y00076051D01*
X00394155Y00078521D01*
X00392964Y00081397D01*
X00392567Y00084410D01*
X00392582Y00084485D01*
Y00304026D01*
X00541445D01*
X00541970Y00302756D01*
X00526161Y00286946D01*
X00525843Y00286470D01*
X00525672Y00286299D01*
X00525580Y00286077D01*
X00525262Y00285601D01*
X00525151Y00285040D01*
X00525059Y00284818D01*
Y00284577D01*
X00524947Y00284016D01*
X00525059Y00283454D01*
Y00283214D01*
X00525151Y00282991D01*
X00525188Y00282802D01*
X00524600Y00281789D01*
X00524335Y00281532D01*
X00514718D01*
Y00269468D01*
Y00260462D01*
X00439703D01*
X00439318Y00260386D01*
X00438903Y00260558D01*
X00437299D01*
X00435817Y00259944D01*
X00434682Y00258810D01*
X00434068Y00257328D01*
Y00255724D01*
X00434682Y00254242D01*
X00435817Y00253107D01*
X00437299Y00252494D01*
X00438903D01*
X00440384Y00253107D01*
X00441006Y00253729D01*
X00530926D01*
X00531412Y00252556D01*
X00521620Y00242763D01*
X00520890Y00241671D01*
X00520634Y00240383D01*
Y00232532D01*
X00519468D01*
Y00225040D01*
X00518960D01*
Y00222032D01*
X00524000D01*
Y00217968D01*
X00518960D01*
Y00215481D01*
X00511314D01*
X00507995Y00218800D01*
Y00234818D01*
X00507739Y00236106D01*
X00507009Y00237198D01*
X00497562Y00246645D01*
Y00246718D01*
X00496949Y00248200D01*
X00495814Y00249334D01*
X00494333Y00249948D01*
X00492729D01*
X00491246Y00249334D01*
X00490112Y00248200D01*
X00489498Y00246718D01*
Y00245114D01*
X00490112Y00243632D01*
X00491246Y00242497D01*
X00492729Y00241884D01*
X00492801D01*
X00495021Y00239664D01*
X00494442Y00238675D01*
X00494331Y00238558D01*
X00492769D01*
X00491287Y00237944D01*
X00490152Y00236810D01*
X00489538Y00235328D01*
Y00233724D01*
X00490152Y00232242D01*
X00490204Y00232190D01*
Y00215396D01*
X00490460Y00214107D01*
X00491190Y00213015D01*
X00521394Y00182811D01*
Y00180922D01*
X00517648D01*
Y00159078D01*
X00531872D01*
Y00180922D01*
X00528127D01*
Y00184206D01*
X00527871Y00185494D01*
X00527141Y00186586D01*
X00496937Y00216790D01*
Y00232190D01*
X00496989Y00232242D01*
X00497603Y00233724D01*
Y00235286D01*
X00497720Y00235397D01*
X00498708Y00235976D01*
X00501262Y00233423D01*
Y00217405D01*
X00501518Y00216117D01*
X00502248Y00215025D01*
X00507538Y00209734D01*
X00508631Y00209004D01*
X00509919Y00208748D01*
X00519468D01*
Y00207468D01*
X00526960D01*
Y00206960D01*
X00529968D01*
Y00212000D01*
X00534032D01*
Y00206960D01*
X00537968D01*
Y00212000D01*
X00542032D01*
Y00206960D01*
X00545968D01*
Y00212000D01*
X00550032D01*
Y00206960D01*
X00553040D01*
Y00207051D01*
X00553500Y00207428D01*
X00558500D01*
X00559293Y00207586D01*
X00559965Y00208035D01*
X00560365Y00208633D01*
X00565496D01*
X00566933Y00208038D01*
X00568537D01*
X00570019Y00208652D01*
X00571153Y00209786D01*
X00571767Y00211268D01*
Y00212872D01*
X00571153Y00214354D01*
X00570019Y00215488D01*
X00568537Y00216102D01*
X00566933D01*
X00565451Y00215488D01*
X00565329Y00215367D01*
X00561165D01*
X00561040Y00215554D01*
Y00217968D01*
X00556000D01*
Y00222032D01*
X00561040D01*
Y00224634D01*
X00565496D01*
X00566933Y00224038D01*
X00568537D01*
X00570019Y00224652D01*
X00571153Y00225786D01*
X00571767Y00227268D01*
Y00228872D01*
X00571153Y00230354D01*
X00570019Y00231488D01*
X00568537Y00232102D01*
X00566933D01*
X00565451Y00231488D01*
X00565329Y00231367D01*
X00560532D01*
Y00232532D01*
X00551437D01*
Y00243510D01*
X00551559Y00243632D01*
X00552173Y00245114D01*
Y00246718D01*
X00551559Y00248200D01*
X00550424Y00249334D01*
X00548942Y00249948D01*
X00547338D01*
X00545857Y00249334D01*
X00544722Y00248200D01*
X00544109Y00246718D01*
Y00245114D01*
X00544585Y00243962D01*
X00544366Y00243648D01*
X00542768Y00243500D01*
X00542418Y00243849D01*
X00540936Y00244463D01*
X00539332D01*
X00537850Y00243849D01*
X00536716Y00242715D01*
X00536102Y00241233D01*
Y00239629D01*
X00536701Y00238185D01*
Y00232532D01*
X00527367D01*
Y00238988D01*
X00541945Y00253566D01*
X00542018D01*
X00543500Y00254180D01*
X00544634Y00255314D01*
X00545248Y00256796D01*
Y00258400D01*
X00544634Y00259882D01*
X00543500Y00261016D01*
X00543237Y00261125D01*
X00542939Y00262623D01*
X00549045Y00268729D01*
X00550218Y00268243D01*
Y00262968D01*
X00553607D01*
Y00259182D01*
X00553600Y00259151D01*
X00553712Y00258589D01*
Y00258349D01*
X00553804Y00258126D01*
X00553916Y00257565D01*
X00554234Y00257089D01*
X00554326Y00256866D01*
X00554496Y00256696D01*
X00554814Y00256220D01*
X00554878Y00256157D01*
X00555354Y00255839D01*
X00555460Y00255732D01*
X00555599Y00255675D01*
X00556222Y00255258D01*
X00557808Y00254943D01*
X00557808Y00254943D01*
X00614330D01*
X00614892Y00255055D01*
X00615132D01*
X00615355Y00255147D01*
X00615916Y00255258D01*
X00616392Y00255576D01*
X00616614Y00255669D01*
X00616785Y00255839D01*
X00617260Y00256157D01*
X00617578Y00256632D01*
X00617748Y00256803D01*
X00617841Y00257025D01*
X00618159Y00257501D01*
X00618270Y00258062D01*
X00618362Y00258285D01*
Y00258525D01*
X00618474Y00259087D01*
X00618362Y00259648D01*
Y00259889D01*
X00618270Y00260111D01*
X00618159Y00260672D01*
X00617841Y00261148D01*
X00617748Y00261371D01*
X00617578Y00261541D01*
X00617260Y00262017D01*
X00616785Y00262335D01*
X00616614Y00262505D01*
X00616392Y00262597D01*
X00615916Y00262915D01*
X00615355Y00263027D01*
X00615132Y00263119D01*
X00614892D01*
X00614330Y00263230D01*
X00565282D01*
Y00277032D01*
X00551507D01*
Y00280410D01*
X00551559Y00280462D01*
X00552173Y00281944D01*
Y00283548D01*
X00551559Y00285030D01*
X00552162Y00286222D01*
X00567191D01*
X00567752Y00286334D01*
X00567993D01*
X00568215Y00286426D01*
X00568776Y00286537D01*
X00569252Y00286855D01*
X00569474Y00286947D01*
X00569645Y00287118D01*
X00570121Y00287436D01*
X00570438Y00287911D01*
X00570609Y00288082D01*
X00570701Y00288304D01*
X00571019Y00288780D01*
X00571130Y00289341D01*
X00571222Y00289564D01*
Y00289804D01*
X00571334Y00290366D01*
X00571222Y00290927D01*
Y00291168D01*
X00571130Y00291390D01*
X00571019Y00291951D01*
X00570701Y00292427D01*
X00570609Y00292649D01*
X00570438Y00292820D01*
X00570121Y00293296D01*
X00569645Y00293613D01*
X00569474Y00293784D01*
X00569252Y00293876D01*
X00568776Y00294194D01*
X00568215Y00294305D01*
X00567993Y00294398D01*
X00567752D01*
X00567191Y00294509D01*
X00547964D01*
X00547335Y00295779D01*
X00547785Y00296368D01*
X00612478D01*
X00622251Y00286596D01*
X00622726Y00286278D01*
X00622896Y00286107D01*
X00623119Y00286015D01*
X00623595Y00285697D01*
X00624156Y00285586D01*
X00624379Y00285494D01*
X00624619D01*
X00625181Y00285382D01*
X00625742Y00285494D01*
X00625983D01*
X00626205Y00285586D01*
X00626766Y00285697D01*
X00627242Y00286015D01*
X00627464Y00286107D01*
X00627635Y00286278D01*
X00628111Y00286596D01*
X00628428Y00287071D01*
X00628599Y00287242D01*
X00628691Y00287464D01*
X00629009Y00287940D01*
X00629120Y00288501D01*
X00629212Y00288724D01*
Y00288964D01*
X00629324Y00289526D01*
X00629212Y00290087D01*
Y00290328D01*
X00629120Y00290550D01*
X00629009Y00291111D01*
X00628691Y00291587D01*
X00628599Y00291810D01*
X00628428Y00291980D01*
X00628111Y00292456D01*
X00617810Y00302756D01*
X00618336Y00304026D01*
X00687419D01*
Y00084485D01*
D02*
G37*
G36*
X00367419D02*
X00367434Y00084410D01*
X00367037Y00081397D01*
X00365845Y00078521D01*
X00363950Y00076051D01*
X00361479Y00074155D01*
X00358603Y00072963D01*
X00356730Y00072717D01*
X00355516Y00072582D01*
D01*
X00354254Y00072582D01*
X00263029D01*
X00262711Y00073852D01*
X00264814Y00074976D01*
X00267491Y00077173D01*
X00269688Y00079850D01*
X00271320Y00082904D01*
X00272326Y00086217D01*
X00272665Y00089664D01*
Y00099624D01*
X00237335D01*
Y00089664D01*
X00237675Y00086217D01*
X00238680Y00082904D01*
X00240312Y00079850D01*
X00242509Y00077173D01*
X00245186Y00074976D01*
X00247289Y00073852D01*
X00246971Y00072582D01*
X00084485D01*
X00084410Y00072567D01*
X00081397Y00072963D01*
X00078521Y00074155D01*
X00076051Y00076051D01*
X00074155Y00078521D01*
X00072963Y00081397D01*
X00072567Y00084410D01*
X00072582Y00084485D01*
Y00304026D01*
X00221444D01*
X00221970Y00302756D01*
X00206160Y00286946D01*
X00205842Y00286470D01*
X00205672Y00286299D01*
X00205580Y00286077D01*
X00205262Y00285601D01*
X00205150Y00285040D01*
X00205058Y00284818D01*
Y00284577D01*
X00204947Y00284016D01*
X00205058Y00283454D01*
Y00283214D01*
X00205150Y00282991D01*
X00205188Y00282802D01*
X00204600Y00281789D01*
X00204334Y00281532D01*
X00194718D01*
Y00269468D01*
Y00260462D01*
X00119703D01*
X00119317Y00260386D01*
X00118902Y00260558D01*
X00117298D01*
X00115816Y00259944D01*
X00114682Y00258810D01*
X00114068Y00257328D01*
Y00255724D01*
X00114682Y00254242D01*
X00115816Y00253107D01*
X00117298Y00252494D01*
X00118902D01*
X00120384Y00253107D01*
X00121006Y00253729D01*
X00210926D01*
X00211412Y00252556D01*
X00201619Y00242763D01*
X00200890Y00241671D01*
X00200633Y00240383D01*
Y00232532D01*
X00199468D01*
Y00225040D01*
X00198960D01*
Y00222032D01*
X00204000D01*
Y00217968D01*
X00198960D01*
Y00215481D01*
X00191313D01*
X00187995Y00218800D01*
Y00234818D01*
X00187738Y00236106D01*
X00187009Y00237198D01*
X00177562Y00246645D01*
Y00246718D01*
X00176948Y00248200D01*
X00175814Y00249334D01*
X00174332Y00249948D01*
X00172728D01*
X00171246Y00249334D01*
X00170112Y00248200D01*
X00169498Y00246718D01*
Y00245114D01*
X00170112Y00243632D01*
X00171246Y00242497D01*
X00172728Y00241884D01*
X00172801D01*
X00175021Y00239664D01*
X00174441Y00238675D01*
X00174331Y00238558D01*
X00172768D01*
X00171286Y00237944D01*
X00170152Y00236810D01*
X00169538Y00235328D01*
Y00233724D01*
X00170152Y00232242D01*
X00170203Y00232190D01*
Y00215396D01*
X00170460Y00214107D01*
X00171190Y00213015D01*
X00201393Y00182811D01*
Y00180922D01*
X00197648D01*
Y00159078D01*
X00211872D01*
Y00180922D01*
X00208127D01*
Y00184206D01*
X00207871Y00185494D01*
X00207141Y00186586D01*
X00176937Y00216790D01*
Y00232190D01*
X00176988Y00232242D01*
X00177602Y00233724D01*
Y00235286D01*
X00177720Y00235397D01*
X00178708Y00235976D01*
X00181261Y00233423D01*
Y00217405D01*
X00181518Y00216117D01*
X00182247Y00215025D01*
X00187538Y00209734D01*
X00188630Y00209004D01*
X00189919Y00208748D01*
X00199468D01*
Y00207468D01*
X00206960D01*
Y00206960D01*
X00209968D01*
Y00212000D01*
X00214032D01*
Y00206960D01*
X00217968D01*
Y00212000D01*
X00222032D01*
Y00206960D01*
X00225968D01*
Y00212000D01*
X00230032D01*
Y00206960D01*
X00233040D01*
Y00207051D01*
X00233500Y00207428D01*
X00238500D01*
X00239293Y00207586D01*
X00239965Y00208035D01*
X00240365Y00208633D01*
X00245496D01*
X00246933Y00208038D01*
X00248537D01*
X00250019Y00208652D01*
X00251153Y00209786D01*
X00251767Y00211268D01*
Y00212872D01*
X00251153Y00214354D01*
X00250019Y00215488D01*
X00248537Y00216102D01*
X00246933D01*
X00245451Y00215488D01*
X00245329Y00215367D01*
X00241165D01*
X00241040Y00215554D01*
Y00217968D01*
X00236000D01*
Y00222032D01*
X00241040D01*
Y00224634D01*
X00245496D01*
X00246933Y00224038D01*
X00248537D01*
X00250019Y00224652D01*
X00251153Y00225786D01*
X00251767Y00227268D01*
Y00228872D01*
X00251153Y00230354D01*
X00250019Y00231488D01*
X00248537Y00232102D01*
X00246933D01*
X00245451Y00231488D01*
X00245329Y00231367D01*
X00240532D01*
Y00232532D01*
X00231437D01*
Y00243510D01*
X00231558Y00243632D01*
X00232172Y00245114D01*
Y00246718D01*
X00231558Y00248200D01*
X00230424Y00249334D01*
X00228942Y00249948D01*
X00227338D01*
X00225856Y00249334D01*
X00224722Y00248200D01*
X00224108Y00246718D01*
Y00245114D01*
X00224585Y00243962D01*
X00224366Y00243648D01*
X00222768Y00243500D01*
X00222418Y00243849D01*
X00220936Y00244463D01*
X00219332D01*
X00217850Y00243849D01*
X00216716Y00242715D01*
X00216102Y00241233D01*
Y00239629D01*
X00216700Y00238185D01*
Y00232532D01*
X00207367D01*
Y00238988D01*
X00221945Y00253566D01*
X00222017D01*
X00223499Y00254180D01*
X00224634Y00255314D01*
X00225247Y00256796D01*
Y00258400D01*
X00224634Y00259882D01*
X00223499Y00261016D01*
X00223237Y00261125D01*
X00222939Y00262623D01*
X00229045Y00268729D01*
X00230218Y00268243D01*
Y00262968D01*
X00233606D01*
Y00259182D01*
X00233600Y00259151D01*
X00233712Y00258589D01*
Y00258349D01*
X00233804Y00258126D01*
X00233916Y00257565D01*
X00234233Y00257089D01*
X00234326Y00256866D01*
X00234496Y00256696D01*
X00234814Y00256220D01*
X00234877Y00256157D01*
X00235353Y00255839D01*
X00235460Y00255732D01*
X00235599Y00255675D01*
X00236222Y00255258D01*
X00237808Y00254943D01*
X00237808Y00254943D01*
X00294330D01*
X00294891Y00255055D01*
X00295132D01*
X00295354Y00255147D01*
X00295916Y00255258D01*
X00296392Y00255576D01*
X00296614Y00255669D01*
X00296784Y00255839D01*
X00297260Y00256157D01*
X00297578Y00256632D01*
X00297748Y00256803D01*
X00297840Y00257025D01*
X00298158Y00257501D01*
X00298270Y00258062D01*
X00298362Y00258285D01*
Y00258525D01*
X00298474Y00259087D01*
X00298362Y00259648D01*
Y00259889D01*
X00298270Y00260111D01*
X00298158Y00260672D01*
X00297840Y00261148D01*
X00297748Y00261371D01*
X00297578Y00261541D01*
X00297260Y00262017D01*
X00296784Y00262335D01*
X00296614Y00262505D01*
X00296392Y00262597D01*
X00295916Y00262915D01*
X00295354Y00263027D01*
X00295132Y00263119D01*
X00294891D01*
X00294330Y00263230D01*
X00245282D01*
Y00277032D01*
X00231507D01*
Y00280410D01*
X00231558Y00280462D01*
X00232172Y00281944D01*
Y00283548D01*
X00231558Y00285030D01*
X00232162Y00286222D01*
X00247190D01*
X00247751Y00286334D01*
X00247992D01*
X00248215Y00286426D01*
X00248776Y00286537D01*
X00249252Y00286855D01*
X00249474Y00286947D01*
X00249644Y00287118D01*
X00250120Y00287436D01*
X00250438Y00287911D01*
X00250608Y00288082D01*
X00250700Y00288304D01*
X00251018Y00288780D01*
X00251130Y00289341D01*
X00251222Y00289564D01*
Y00289804D01*
X00251334Y00290366D01*
X00251222Y00290927D01*
Y00291168D01*
X00251130Y00291390D01*
X00251018Y00291951D01*
X00250700Y00292427D01*
X00250608Y00292649D01*
X00250438Y00292820D01*
X00250120Y00293296D01*
X00249644Y00293613D01*
X00249474Y00293784D01*
X00249252Y00293876D01*
X00248776Y00294194D01*
X00248215Y00294305D01*
X00247992Y00294398D01*
X00247751D01*
X00247190Y00294509D01*
X00227964D01*
X00227335Y00295779D01*
X00227784Y00296368D01*
X00292478D01*
X00302250Y00286596D01*
X00302726Y00286278D01*
X00302896Y00286107D01*
X00303119Y00286015D01*
X00303594Y00285697D01*
X00304156Y00285586D01*
X00304378Y00285494D01*
X00304619D01*
X00305180Y00285382D01*
X00305741Y00285494D01*
X00305982D01*
X00306205Y00285586D01*
X00306766Y00285697D01*
X00307242Y00286015D01*
X00307464Y00286107D01*
X00307634Y00286278D01*
X00308110Y00286596D01*
X00308428Y00287071D01*
X00308598Y00287242D01*
X00308690Y00287464D01*
X00309008Y00287940D01*
X00309120Y00288501D01*
X00309212Y00288724D01*
Y00288964D01*
X00309324Y00289526D01*
X00309212Y00290087D01*
Y00290328D01*
X00309120Y00290550D01*
X00309008Y00291111D01*
X00308690Y00291587D01*
X00308598Y00291810D01*
X00308428Y00291980D01*
X00308110Y00292456D01*
X00297810Y00302756D01*
X00298336Y00304026D01*
X00367419D01*
Y00084485D01*
D02*
G37*
G36*
X00879301Y00212000D02*
X00878501D01*
Y00209500D01*
X00873501D01*
Y00214500D01*
X00879301D01*
Y00212000D01*
D02*
G37*
G36*
X00559300D02*
X00558500D01*
Y00209500D01*
X00553500D01*
Y00214500D01*
X00559300D01*
Y00212000D01*
D02*
G37*
G36*
X00239300D02*
X00238500D01*
Y00209500D01*
X00233500D01*
Y00214500D01*
X00239300D01*
Y00212000D01*
D02*
G37*
%LPC*%
G36*
X00896971Y00830539D02*
X00896410Y00830428D01*
X00896169D01*
X00896028Y00830369D01*
X00877621D01*
X00876036Y00830054D01*
X00874691Y00829156D01*
X00872311Y00826775D01*
X00871412Y00825431D01*
X00871097Y00823845D01*
Y00820922D01*
X00868129D01*
Y00799078D01*
X00882353D01*
Y00820922D01*
X00882353D01*
X00882618Y00822082D01*
X00896801D01*
X00898387Y00822398D01*
X00899254Y00822978D01*
X00899255Y00822978D01*
X00899255Y00822978D01*
X00899731Y00823296D01*
X00899901Y00823466D01*
X00900219Y00823942D01*
X00900389Y00824112D01*
X00900481Y00824334D01*
X00900799Y00824810D01*
X00900911Y00825371D01*
X00901003Y00825594D01*
Y00825835D01*
X00901114Y00826396D01*
X00901003Y00826957D01*
Y00827198D01*
X00900911Y00827420D01*
X00900799Y00827981D01*
X00900481Y00828457D01*
X00900389Y00828680D01*
X00900219Y00828850D01*
X00899901Y00829326D01*
X00899425Y00829644D01*
X00899255Y00829814D01*
X00899032Y00829906D01*
X00898557Y00830224D01*
X00897995Y00830336D01*
X00897773Y00830428D01*
X00897532D01*
X00896971Y00830539D01*
D02*
G37*
G36*
X00800831Y00874819D02*
X00800270Y00874708D01*
X00800029D01*
X00799806Y00874616D01*
X00799245Y00874504D01*
X00798769Y00874186D01*
X00798547Y00874094D01*
X00798377Y00873924D01*
X00797901Y00873606D01*
X00797583Y00873130D01*
X00797413Y00872960D01*
X00797320Y00872737D01*
X00797003Y00872262D01*
X00796891Y00871700D01*
X00796799Y00871478D01*
Y00871237D01*
X00796687Y00870676D01*
Y00821146D01*
X00797003Y00819560D01*
X00797901Y00818216D01*
X00806791Y00809326D01*
X00807267Y00809008D01*
X00807437Y00808838D01*
X00807659Y00808746D01*
X00808135Y00808428D01*
X00808696Y00808316D01*
X00808919Y00808224D01*
X00809160D01*
X00809721Y00808112D01*
X00810282Y00808224D01*
X00810523D01*
X00810745Y00808316D01*
X00811307Y00808428D01*
X00811782Y00808746D01*
X00812005Y00808838D01*
X00812175Y00809008D01*
X00812651Y00809326D01*
X00812969Y00809802D01*
X00813139Y00809972D01*
X00813231Y00810194D01*
X00813549Y00810670D01*
X00813661Y00811231D01*
X00813753Y00811454D01*
Y00811695D01*
X00813864Y00812256D01*
X00813753Y00812817D01*
Y00813058D01*
X00813661Y00813280D01*
X00813549Y00813842D01*
X00813231Y00814317D01*
X00813139Y00814540D01*
X00812969Y00814710D01*
X00812651Y00815186D01*
X00804974Y00822862D01*
Y00870676D01*
X00804863Y00871237D01*
Y00871478D01*
X00804771Y00871700D01*
X00804659Y00872262D01*
X00804341Y00872737D01*
X00804249Y00872960D01*
X00804079Y00873130D01*
X00803761Y00873606D01*
X00803285Y00873924D01*
X00803115Y00874094D01*
X00802892Y00874186D01*
X00802417Y00874504D01*
X00801855Y00874616D01*
X00801633Y00874708D01*
X00801392D01*
X00800831Y00874819D01*
D02*
G37*
G36*
X00897541Y00772079D02*
Y00744704D01*
X00912666D01*
Y00754664D01*
X00912326Y00758110D01*
X00911321Y00761424D01*
X00909689Y00764478D01*
X00907492Y00767155D01*
X00904815Y00769352D01*
X00901761Y00770984D01*
X00898447Y00771990D01*
X00897541Y00772079D01*
D02*
G37*
G36*
X00892461D02*
X00891554Y00771990D01*
X00888241Y00770984D01*
X00885186Y00769352D01*
X00882510Y00767155D01*
X00880313Y00764478D01*
X00878680Y00761424D01*
X00877675Y00758110D01*
X00877336Y00754664D01*
Y00744704D01*
X00892461D01*
Y00772079D01*
D02*
G37*
G36*
X00741777Y00758032D02*
X00738224D01*
X00734741Y00757339D01*
X00731459Y00755980D01*
X00728506Y00754006D01*
X00725994Y00751495D01*
X00724021Y00748541D01*
X00722661Y00745260D01*
X00721969Y00741776D01*
Y00738224D01*
X00722661Y00734740D01*
X00724021Y00731459D01*
X00725994Y00728505D01*
X00728506Y00725994D01*
X00731459Y00724020D01*
X00734741Y00722661D01*
X00738224Y00721968D01*
X00741777D01*
X00745260Y00722661D01*
X00748542Y00724020D01*
X00751495Y00725994D01*
X00754007Y00728505D01*
X00755980Y00731459D01*
X00757339Y00734740D01*
X00758033Y00738224D01*
Y00741776D01*
X00757339Y00745260D01*
X00755980Y00748541D01*
X00754007Y00751495D01*
X00751495Y00754006D01*
X00748542Y00755980D01*
X00745260Y00757339D01*
X00741777Y00758032D01*
D02*
G37*
G36*
X00839533Y00769196D02*
X00810469D01*
Y00715132D01*
X00839533D01*
Y00769196D01*
D02*
G37*
G36*
X00860001Y00769321D02*
X00856207Y00768822D01*
X00852672Y00767358D01*
X00849636Y00765028D01*
X00847307Y00761993D01*
X00845843Y00758458D01*
X00845343Y00754664D01*
Y00729664D01*
X00845843Y00725870D01*
X00847307Y00722335D01*
X00849636Y00719300D01*
X00852672Y00716970D01*
X00856207Y00715506D01*
X00860001Y00715007D01*
X00863794Y00715506D01*
X00867329Y00716970D01*
X00870365Y00719300D01*
X00872694Y00722335D01*
X00874159Y00725870D01*
X00874658Y00729664D01*
Y00754664D01*
X00874159Y00758458D01*
X00872694Y00761993D01*
X00870365Y00765028D01*
X00867329Y00767358D01*
X00863794Y00768822D01*
X00860001Y00769321D01*
D02*
G37*
G36*
X00576970Y00830539D02*
X00576409Y00830428D01*
X00576169D01*
X00576028Y00830369D01*
X00557621D01*
X00556035Y00830054D01*
X00554691Y00829156D01*
X00552310Y00826775D01*
X00551412Y00825431D01*
X00551097Y00823845D01*
Y00820922D01*
X00548128D01*
Y00799078D01*
X00562352D01*
Y00820922D01*
X00562352D01*
X00562618Y00822082D01*
X00576801D01*
X00578386Y00822398D01*
X00579254Y00822978D01*
X00579254Y00822978D01*
X00579255Y00822978D01*
X00579731Y00823296D01*
X00579901Y00823466D01*
X00580218Y00823942D01*
X00580389Y00824112D01*
X00580481Y00824334D01*
X00580799Y00824810D01*
X00580910Y00825371D01*
X00581003Y00825594D01*
Y00825835D01*
X00581114Y00826396D01*
X00581003Y00826957D01*
Y00827198D01*
X00580910Y00827420D01*
X00580799Y00827981D01*
X00580481Y00828457D01*
X00580389Y00828680D01*
X00580218Y00828850D01*
X00579901Y00829326D01*
X00579425Y00829644D01*
X00579254Y00829814D01*
X00579032Y00829906D01*
X00578556Y00830224D01*
X00577995Y00830336D01*
X00577772Y00830428D01*
X00577532D01*
X00576970Y00830539D01*
D02*
G37*
G36*
X00480830Y00874819D02*
X00480269Y00874708D01*
X00480028D01*
X00479806Y00874616D01*
X00479245Y00874504D01*
X00478769Y00874186D01*
X00478546Y00874094D01*
X00478376Y00873924D01*
X00477901Y00873606D01*
X00477583Y00873130D01*
X00477412Y00872960D01*
X00477320Y00872737D01*
X00477002Y00872262D01*
X00476891Y00871700D01*
X00476799Y00871478D01*
Y00871237D01*
X00476687Y00870676D01*
Y00821146D01*
X00477002Y00819560D01*
X00477901Y00818216D01*
X00486791Y00809326D01*
X00487266Y00809008D01*
X00487436Y00808838D01*
X00487659Y00808746D01*
X00488135Y00808428D01*
X00488696Y00808316D01*
X00488918Y00808224D01*
X00489159D01*
X00489720Y00808112D01*
X00490282Y00808224D01*
X00490522D01*
X00490745Y00808316D01*
X00491306Y00808428D01*
X00491782Y00808746D01*
X00492004Y00808838D01*
X00492175Y00809008D01*
X00492650Y00809326D01*
X00492968Y00809802D01*
X00493139Y00809972D01*
X00493231Y00810194D01*
X00493549Y00810670D01*
X00493660Y00811231D01*
X00493753Y00811454D01*
Y00811695D01*
X00493864Y00812256D01*
X00493753Y00812817D01*
Y00813058D01*
X00493660Y00813280D01*
X00493549Y00813842D01*
X00493231Y00814317D01*
X00493139Y00814540D01*
X00492968Y00814710D01*
X00492650Y00815186D01*
X00484974Y00822862D01*
Y00870676D01*
X00484863Y00871237D01*
Y00871478D01*
X00484770Y00871700D01*
X00484659Y00872262D01*
X00484341Y00872737D01*
X00484249Y00872960D01*
X00484078Y00873130D01*
X00483760Y00873606D01*
X00483285Y00873924D01*
X00483114Y00874094D01*
X00482892Y00874186D01*
X00482416Y00874504D01*
X00481855Y00874616D01*
X00481632Y00874708D01*
X00481392D01*
X00480830Y00874819D01*
D02*
G37*
G36*
X00577540Y00772079D02*
Y00744704D01*
X00592665D01*
Y00754664D01*
X00592326Y00758110D01*
X00591321Y00761424D01*
X00589688Y00764478D01*
X00587491Y00767155D01*
X00584815Y00769352D01*
X00581761Y00770984D01*
X00578447Y00771990D01*
X00577540Y00772079D01*
D02*
G37*
G36*
X00572460D02*
X00571554Y00771990D01*
X00568240Y00770984D01*
X00565186Y00769352D01*
X00562509Y00767155D01*
X00560312Y00764478D01*
X00558680Y00761424D01*
X00557675Y00758110D01*
X00557335Y00754664D01*
Y00744704D01*
X00572460D01*
Y00772079D01*
D02*
G37*
G36*
X00421776Y00758032D02*
X00418224D01*
X00414740Y00757339D01*
X00411459Y00755980D01*
X00408506Y00754006D01*
X00405994Y00751495D01*
X00404020Y00748541D01*
X00402661Y00745260D01*
X00401968Y00741776D01*
Y00738224D01*
X00402661Y00734740D01*
X00404020Y00731459D01*
X00405994Y00728505D01*
X00408506Y00725994D01*
X00411459Y00724020D01*
X00414740Y00722661D01*
X00418224Y00721968D01*
X00421776D01*
X00425260Y00722661D01*
X00428541Y00724020D01*
X00431495Y00725994D01*
X00434007Y00728505D01*
X00435980Y00731459D01*
X00437339Y00734740D01*
X00438032Y00738224D01*
Y00741776D01*
X00437339Y00745260D01*
X00435980Y00748541D01*
X00434007Y00751495D01*
X00431495Y00754006D01*
X00428541Y00755980D01*
X00425260Y00757339D01*
X00421776Y00758032D01*
D02*
G37*
G36*
X00519532Y00769196D02*
X00490468D01*
Y00715132D01*
X00519532D01*
Y00769196D01*
D02*
G37*
G36*
X00540000Y00769321D02*
X00536207Y00768822D01*
X00532672Y00767358D01*
X00529636Y00765028D01*
X00527307Y00761993D01*
X00525843Y00758458D01*
X00525343Y00754664D01*
Y00729664D01*
X00525843Y00725870D01*
X00527307Y00722335D01*
X00529636Y00719300D01*
X00532672Y00716970D01*
X00536207Y00715506D01*
X00540000Y00715007D01*
X00543794Y00715506D01*
X00547329Y00716970D01*
X00550365Y00719300D01*
X00552694Y00722335D01*
X00554158Y00725870D01*
X00554658Y00729664D01*
Y00754664D01*
X00554158Y00758458D01*
X00552694Y00761993D01*
X00550365Y00765028D01*
X00547329Y00767358D01*
X00543794Y00768822D01*
X00540000Y00769321D01*
D02*
G37*
G36*
X00256970Y00830539D02*
X00256409Y00830428D01*
X00256168D01*
X00256028Y00830369D01*
X00237621D01*
X00236035Y00830054D01*
X00234691Y00829156D01*
X00232310Y00826775D01*
X00231412Y00825431D01*
X00231096Y00823845D01*
Y00820922D01*
X00228128D01*
Y00799078D01*
X00242352D01*
Y00820922D01*
X00242352D01*
X00242618Y00822082D01*
X00256800D01*
X00258386Y00822398D01*
X00259254Y00822978D01*
X00259254Y00822978D01*
X00259254Y00822978D01*
X00259730Y00823296D01*
X00259900Y00823466D01*
X00260218Y00823942D01*
X00260388Y00824112D01*
X00260480Y00824334D01*
X00260798Y00824810D01*
X00260910Y00825371D01*
X00261002Y00825594D01*
Y00825835D01*
X00261114Y00826396D01*
X00261002Y00826957D01*
Y00827198D01*
X00260910Y00827420D01*
X00260798Y00827981D01*
X00260480Y00828457D01*
X00260388Y00828680D01*
X00260218Y00828850D01*
X00259900Y00829326D01*
X00259424Y00829644D01*
X00259254Y00829814D01*
X00259032Y00829906D01*
X00258556Y00830224D01*
X00257995Y00830336D01*
X00257772Y00830428D01*
X00257531D01*
X00256970Y00830539D01*
D02*
G37*
G36*
X00160830Y00874819D02*
X00160269Y00874708D01*
X00160028D01*
X00159806Y00874616D01*
X00159244Y00874504D01*
X00158769Y00874186D01*
X00158546Y00874094D01*
X00158376Y00873924D01*
X00157900Y00873606D01*
X00157582Y00873130D01*
X00157412Y00872960D01*
X00157320Y00872737D01*
X00157002Y00872262D01*
X00156890Y00871700D01*
X00156798Y00871478D01*
Y00871237D01*
X00156687Y00870676D01*
Y00821146D01*
X00157002Y00819560D01*
X00157900Y00818216D01*
X00166790Y00809326D01*
X00167266Y00809008D01*
X00167436Y00808838D01*
X00167659Y00808746D01*
X00168134Y00808428D01*
X00168696Y00808316D01*
X00168918Y00808224D01*
X00169159D01*
X00169720Y00808112D01*
X00170281Y00808224D01*
X00170522D01*
X00170745Y00808316D01*
X00171306Y00808428D01*
X00171782Y00808746D01*
X00172004Y00808838D01*
X00172174Y00809008D01*
X00172650Y00809326D01*
X00172968Y00809802D01*
X00173138Y00809972D01*
X00173230Y00810194D01*
X00173548Y00810670D01*
X00173660Y00811231D01*
X00173752Y00811454D01*
Y00811695D01*
X00173864Y00812256D01*
X00173752Y00812817D01*
Y00813058D01*
X00173660Y00813280D01*
X00173548Y00813842D01*
X00173230Y00814317D01*
X00173138Y00814540D01*
X00172968Y00814710D01*
X00172650Y00815186D01*
X00164974Y00822862D01*
Y00870676D01*
X00164862Y00871237D01*
Y00871478D01*
X00164770Y00871700D01*
X00164658Y00872262D01*
X00164340Y00872737D01*
X00164248Y00872960D01*
X00164078Y00873130D01*
X00163760Y00873606D01*
X00163284Y00873924D01*
X00163114Y00874094D01*
X00162892Y00874186D01*
X00162416Y00874504D01*
X00161855Y00874616D01*
X00161632Y00874708D01*
X00161391D01*
X00160830Y00874819D01*
D02*
G37*
G36*
X00257540Y00772079D02*
Y00744704D01*
X00272665D01*
Y00754664D01*
X00272326Y00758110D01*
X00271320Y00761424D01*
X00269688Y00764478D01*
X00267491Y00767155D01*
X00264814Y00769352D01*
X00261760Y00770984D01*
X00258446Y00771990D01*
X00257540Y00772079D01*
D02*
G37*
G36*
X00252460D02*
X00251554Y00771990D01*
X00248240Y00770984D01*
X00245186Y00769352D01*
X00242509Y00767155D01*
X00240312Y00764478D01*
X00238680Y00761424D01*
X00237675Y00758110D01*
X00237335Y00754664D01*
Y00744704D01*
X00252460D01*
Y00772079D01*
D02*
G37*
G36*
X00101776Y00758032D02*
X00098224D01*
X00094740Y00757339D01*
X00091459Y00755980D01*
X00088505Y00754006D01*
X00085993Y00751495D01*
X00084020Y00748541D01*
X00082661Y00745260D01*
X00081968Y00741776D01*
Y00738224D01*
X00082661Y00734740D01*
X00084020Y00731459D01*
X00085993Y00728505D01*
X00088505Y00725994D01*
X00091459Y00724020D01*
X00094740Y00722661D01*
X00098224Y00721968D01*
X00101776D01*
X00105260Y00722661D01*
X00108541Y00724020D01*
X00111495Y00725994D01*
X00114006Y00728505D01*
X00115980Y00731459D01*
X00117339Y00734740D01*
X00118032Y00738224D01*
Y00741776D01*
X00117339Y00745260D01*
X00115980Y00748541D01*
X00114006Y00751495D01*
X00111495Y00754006D01*
X00108541Y00755980D01*
X00105260Y00757339D01*
X00101776Y00758032D01*
D02*
G37*
G36*
X00199532Y00769196D02*
X00170468D01*
Y00715132D01*
X00199532D01*
Y00769196D01*
D02*
G37*
G36*
X00220000Y00769321D02*
X00216206Y00768822D01*
X00212671Y00767358D01*
X00209636Y00765028D01*
X00207306Y00761993D01*
X00205842Y00758458D01*
X00205343Y00754664D01*
Y00729664D01*
X00205842Y00725870D01*
X00207306Y00722335D01*
X00209636Y00719300D01*
X00212671Y00716970D01*
X00216206Y00715506D01*
X00220000Y00715007D01*
X00223794Y00715506D01*
X00227329Y00716970D01*
X00230364Y00719300D01*
X00232694Y00722335D01*
X00234158Y00725870D01*
X00234657Y00729664D01*
Y00754664D01*
X00234158Y00758458D01*
X00232694Y00761993D01*
X00230364Y00765028D01*
X00227329Y00767358D01*
X00223794Y00768822D01*
X00220000Y00769321D01*
D02*
G37*
G36*
X00896971Y00510539D02*
X00896410Y00510428D01*
X00896169D01*
X00896028Y00510369D01*
X00877621D01*
X00876036Y00510054D01*
X00874691Y00509156D01*
X00872311Y00506775D01*
X00871412Y00505431D01*
X00871097Y00503845D01*
Y00500922D01*
X00868129D01*
Y00479078D01*
X00882353D01*
Y00500922D01*
X00882353D01*
X00882618Y00502082D01*
X00896801D01*
X00898387Y00502397D01*
X00899254Y00502977D01*
X00899255Y00502977D01*
X00899255Y00502978D01*
X00899731Y00503296D01*
X00899901Y00503466D01*
X00900219Y00503941D01*
X00900389Y00504112D01*
X00900481Y00504334D01*
X00900799Y00504810D01*
X00900911Y00505371D01*
X00901003Y00505594D01*
Y00505834D01*
X00901114Y00506396D01*
X00901003Y00506957D01*
Y00507198D01*
X00900911Y00507420D01*
X00900799Y00507981D01*
X00900481Y00508457D01*
X00900389Y00508680D01*
X00900219Y00508850D01*
X00899901Y00509326D01*
X00899425Y00509644D01*
X00899255Y00509814D01*
X00899032Y00509906D01*
X00898557Y00510224D01*
X00897995Y00510336D01*
X00897773Y00510428D01*
X00897532D01*
X00896971Y00510539D01*
D02*
G37*
G36*
X00800831Y00554819D02*
X00800270Y00554708D01*
X00800029D01*
X00799806Y00554616D01*
X00799245Y00554504D01*
X00798769Y00554186D01*
X00798547Y00554094D01*
X00798377Y00553924D01*
X00797901Y00553606D01*
X00797583Y00553130D01*
X00797413Y00552960D01*
X00797320Y00552737D01*
X00797003Y00552261D01*
X00796891Y00551700D01*
X00796799Y00551478D01*
Y00551237D01*
X00796687Y00550676D01*
Y00501146D01*
X00797003Y00499560D01*
X00797901Y00498216D01*
X00806791Y00489326D01*
X00807267Y00489008D01*
X00807437Y00488838D01*
X00807659Y00488745D01*
X00808135Y00488428D01*
X00808696Y00488316D01*
X00808919Y00488224D01*
X00809160D01*
X00809721Y00488112D01*
X00810282Y00488224D01*
X00810523D01*
X00810745Y00488316D01*
X00811307Y00488428D01*
X00811782Y00488745D01*
X00812005Y00488838D01*
X00812175Y00489008D01*
X00812651Y00489326D01*
X00812969Y00489802D01*
X00813139Y00489972D01*
X00813231Y00490194D01*
X00813549Y00490670D01*
X00813661Y00491231D01*
X00813753Y00491454D01*
Y00491694D01*
X00813864Y00492256D01*
X00813753Y00492817D01*
Y00493058D01*
X00813661Y00493280D01*
X00813549Y00493841D01*
X00813231Y00494317D01*
X00813139Y00494540D01*
X00812969Y00494710D01*
X00812651Y00495186D01*
X00804974Y00502862D01*
Y00550676D01*
X00804863Y00551237D01*
Y00551478D01*
X00804771Y00551700D01*
X00804659Y00552261D01*
X00804341Y00552737D01*
X00804249Y00552960D01*
X00804079Y00553130D01*
X00803761Y00553606D01*
X00803285Y00553924D01*
X00803115Y00554094D01*
X00802892Y00554186D01*
X00802417Y00554504D01*
X00801855Y00554616D01*
X00801633Y00554708D01*
X00801392D01*
X00800831Y00554819D01*
D02*
G37*
G36*
X00897541Y00452079D02*
Y00424704D01*
X00912666D01*
Y00434664D01*
X00912326Y00438110D01*
X00911321Y00441424D01*
X00909689Y00444478D01*
X00907492Y00447155D01*
X00904815Y00449352D01*
X00901761Y00450984D01*
X00898447Y00451990D01*
X00897541Y00452079D01*
D02*
G37*
G36*
X00892461D02*
X00891554Y00451990D01*
X00888241Y00450984D01*
X00885186Y00449352D01*
X00882510Y00447155D01*
X00880313Y00444478D01*
X00878680Y00441424D01*
X00877675Y00438110D01*
X00877336Y00434664D01*
Y00424704D01*
X00892461D01*
Y00452079D01*
D02*
G37*
G36*
X00741777Y00438032D02*
X00738224D01*
X00734741Y00437339D01*
X00731459Y00435980D01*
X00728506Y00434006D01*
X00725994Y00431495D01*
X00724021Y00428541D01*
X00722661Y00425260D01*
X00721969Y00421776D01*
Y00418224D01*
X00722661Y00414740D01*
X00724021Y00411459D01*
X00725994Y00408505D01*
X00728506Y00405993D01*
X00731459Y00404020D01*
X00734741Y00402661D01*
X00738224Y00401968D01*
X00741777D01*
X00745260Y00402661D01*
X00748542Y00404020D01*
X00751495Y00405993D01*
X00754007Y00408505D01*
X00755980Y00411459D01*
X00757339Y00414740D01*
X00758033Y00418224D01*
Y00421776D01*
X00757339Y00425260D01*
X00755980Y00428541D01*
X00754007Y00431495D01*
X00751495Y00434006D01*
X00748542Y00435980D01*
X00745260Y00437339D01*
X00741777Y00438032D01*
D02*
G37*
G36*
X00839533Y00449196D02*
X00810469D01*
Y00395132D01*
X00839533D01*
Y00449196D01*
D02*
G37*
G36*
X00860001Y00449321D02*
X00856207Y00448822D01*
X00852672Y00447358D01*
X00849636Y00445028D01*
X00847307Y00441993D01*
X00845843Y00438457D01*
X00845343Y00434664D01*
Y00409664D01*
X00845843Y00405870D01*
X00847307Y00402335D01*
X00849636Y00399300D01*
X00852672Y00396970D01*
X00856207Y00395506D01*
X00860001Y00395006D01*
X00863794Y00395506D01*
X00867329Y00396970D01*
X00870365Y00399300D01*
X00872694Y00402335D01*
X00874159Y00405870D01*
X00874658Y00409664D01*
Y00434664D01*
X00874159Y00438457D01*
X00872694Y00441993D01*
X00870365Y00445028D01*
X00867329Y00447358D01*
X00863794Y00448822D01*
X00860001Y00449321D01*
D02*
G37*
G36*
X00576970Y00510539D02*
X00576409Y00510428D01*
X00576169D01*
X00576028Y00510369D01*
X00557621D01*
X00556035Y00510054D01*
X00554691Y00509156D01*
X00552310Y00506775D01*
X00551412Y00505431D01*
X00551097Y00503845D01*
Y00500922D01*
X00548128D01*
Y00479078D01*
X00562352D01*
Y00500922D01*
X00562352D01*
X00562618Y00502082D01*
X00576801D01*
X00578386Y00502397D01*
X00579254Y00502977D01*
X00579254Y00502977D01*
X00579255Y00502978D01*
X00579731Y00503296D01*
X00579901Y00503466D01*
X00580218Y00503941D01*
X00580389Y00504112D01*
X00580481Y00504334D01*
X00580799Y00504810D01*
X00580910Y00505371D01*
X00581003Y00505594D01*
Y00505834D01*
X00581114Y00506396D01*
X00581003Y00506957D01*
Y00507198D01*
X00580910Y00507420D01*
X00580799Y00507981D01*
X00580481Y00508457D01*
X00580389Y00508680D01*
X00580218Y00508850D01*
X00579901Y00509326D01*
X00579425Y00509644D01*
X00579254Y00509814D01*
X00579032Y00509906D01*
X00578556Y00510224D01*
X00577995Y00510336D01*
X00577772Y00510428D01*
X00577532D01*
X00576970Y00510539D01*
D02*
G37*
G36*
X00480830Y00554819D02*
X00480269Y00554708D01*
X00480028D01*
X00479806Y00554616D01*
X00479245Y00554504D01*
X00478769Y00554186D01*
X00478546Y00554094D01*
X00478376Y00553924D01*
X00477901Y00553606D01*
X00477583Y00553130D01*
X00477412Y00552960D01*
X00477320Y00552737D01*
X00477002Y00552261D01*
X00476891Y00551700D01*
X00476799Y00551478D01*
Y00551237D01*
X00476687Y00550676D01*
Y00501146D01*
X00477002Y00499560D01*
X00477901Y00498216D01*
X00486791Y00489326D01*
X00487266Y00489008D01*
X00487436Y00488838D01*
X00487659Y00488745D01*
X00488135Y00488428D01*
X00488696Y00488316D01*
X00488918Y00488224D01*
X00489159D01*
X00489720Y00488112D01*
X00490282Y00488224D01*
X00490522D01*
X00490745Y00488316D01*
X00491306Y00488428D01*
X00491782Y00488745D01*
X00492004Y00488838D01*
X00492175Y00489008D01*
X00492650Y00489326D01*
X00492968Y00489802D01*
X00493139Y00489972D01*
X00493231Y00490194D01*
X00493549Y00490670D01*
X00493660Y00491231D01*
X00493753Y00491454D01*
Y00491694D01*
X00493864Y00492256D01*
X00493753Y00492817D01*
Y00493058D01*
X00493660Y00493280D01*
X00493549Y00493841D01*
X00493231Y00494317D01*
X00493139Y00494540D01*
X00492968Y00494710D01*
X00492650Y00495186D01*
X00484974Y00502862D01*
Y00550676D01*
X00484863Y00551237D01*
Y00551478D01*
X00484770Y00551700D01*
X00484659Y00552261D01*
X00484341Y00552737D01*
X00484249Y00552960D01*
X00484078Y00553130D01*
X00483760Y00553606D01*
X00483285Y00553924D01*
X00483114Y00554094D01*
X00482892Y00554186D01*
X00482416Y00554504D01*
X00481855Y00554616D01*
X00481632Y00554708D01*
X00481392D01*
X00480830Y00554819D01*
D02*
G37*
G36*
X00577540Y00452079D02*
Y00424704D01*
X00592665D01*
Y00434664D01*
X00592326Y00438110D01*
X00591321Y00441424D01*
X00589688Y00444478D01*
X00587491Y00447155D01*
X00584815Y00449352D01*
X00581761Y00450984D01*
X00578447Y00451990D01*
X00577540Y00452079D01*
D02*
G37*
G36*
X00572460D02*
X00571554Y00451990D01*
X00568240Y00450984D01*
X00565186Y00449352D01*
X00562509Y00447155D01*
X00560312Y00444478D01*
X00558680Y00441424D01*
X00557675Y00438110D01*
X00557335Y00434664D01*
Y00424704D01*
X00572460D01*
Y00452079D01*
D02*
G37*
G36*
X00421776Y00438032D02*
X00418224D01*
X00414740Y00437339D01*
X00411459Y00435980D01*
X00408506Y00434006D01*
X00405994Y00431495D01*
X00404020Y00428541D01*
X00402661Y00425260D01*
X00401968Y00421776D01*
Y00418224D01*
X00402661Y00414740D01*
X00404020Y00411459D01*
X00405994Y00408505D01*
X00408506Y00405993D01*
X00411459Y00404020D01*
X00414740Y00402661D01*
X00418224Y00401968D01*
X00421776D01*
X00425260Y00402661D01*
X00428541Y00404020D01*
X00431495Y00405993D01*
X00434007Y00408505D01*
X00435980Y00411459D01*
X00437339Y00414740D01*
X00438032Y00418224D01*
Y00421776D01*
X00437339Y00425260D01*
X00435980Y00428541D01*
X00434007Y00431495D01*
X00431495Y00434006D01*
X00428541Y00435980D01*
X00425260Y00437339D01*
X00421776Y00438032D01*
D02*
G37*
G36*
X00519532Y00449196D02*
X00490468D01*
Y00395132D01*
X00519532D01*
Y00449196D01*
D02*
G37*
G36*
X00540000Y00449321D02*
X00536207Y00448822D01*
X00532672Y00447358D01*
X00529636Y00445028D01*
X00527307Y00441993D01*
X00525843Y00438457D01*
X00525343Y00434664D01*
Y00409664D01*
X00525843Y00405870D01*
X00527307Y00402335D01*
X00529636Y00399300D01*
X00532672Y00396970D01*
X00536207Y00395506D01*
X00540000Y00395006D01*
X00543794Y00395506D01*
X00547329Y00396970D01*
X00550365Y00399300D01*
X00552694Y00402335D01*
X00554158Y00405870D01*
X00554658Y00409664D01*
Y00434664D01*
X00554158Y00438457D01*
X00552694Y00441993D01*
X00550365Y00445028D01*
X00547329Y00447358D01*
X00543794Y00448822D01*
X00540000Y00449321D01*
D02*
G37*
G36*
X00256970Y00510539D02*
X00256409Y00510428D01*
X00256168D01*
X00256028Y00510369D01*
X00237621D01*
X00236035Y00510054D01*
X00234691Y00509156D01*
X00232310Y00506775D01*
X00231412Y00505431D01*
X00231096Y00503845D01*
Y00500922D01*
X00228128D01*
Y00479078D01*
X00242352D01*
Y00500922D01*
X00242352D01*
X00242618Y00502082D01*
X00256800D01*
X00258386Y00502397D01*
X00259254Y00502977D01*
X00259254Y00502977D01*
X00259254Y00502978D01*
X00259730Y00503296D01*
X00259900Y00503466D01*
X00260218Y00503941D01*
X00260388Y00504112D01*
X00260480Y00504334D01*
X00260798Y00504810D01*
X00260910Y00505371D01*
X00261002Y00505594D01*
Y00505834D01*
X00261114Y00506396D01*
X00261002Y00506957D01*
Y00507198D01*
X00260910Y00507420D01*
X00260798Y00507981D01*
X00260480Y00508457D01*
X00260388Y00508680D01*
X00260218Y00508850D01*
X00259900Y00509326D01*
X00259424Y00509644D01*
X00259254Y00509814D01*
X00259032Y00509906D01*
X00258556Y00510224D01*
X00257995Y00510336D01*
X00257772Y00510428D01*
X00257531D01*
X00256970Y00510539D01*
D02*
G37*
G36*
X00160830Y00554819D02*
X00160269Y00554708D01*
X00160028D01*
X00159806Y00554616D01*
X00159244Y00554504D01*
X00158769Y00554186D01*
X00158546Y00554094D01*
X00158376Y00553924D01*
X00157900Y00553606D01*
X00157582Y00553130D01*
X00157412Y00552960D01*
X00157320Y00552737D01*
X00157002Y00552261D01*
X00156890Y00551700D01*
X00156798Y00551478D01*
Y00551237D01*
X00156687Y00550676D01*
Y00501146D01*
X00157002Y00499560D01*
X00157900Y00498216D01*
X00166790Y00489326D01*
X00167266Y00489008D01*
X00167436Y00488838D01*
X00167659Y00488745D01*
X00168134Y00488428D01*
X00168696Y00488316D01*
X00168918Y00488224D01*
X00169159D01*
X00169720Y00488112D01*
X00170281Y00488224D01*
X00170522D01*
X00170745Y00488316D01*
X00171306Y00488428D01*
X00171782Y00488745D01*
X00172004Y00488838D01*
X00172174Y00489008D01*
X00172650Y00489326D01*
X00172968Y00489802D01*
X00173138Y00489972D01*
X00173230Y00490194D01*
X00173548Y00490670D01*
X00173660Y00491231D01*
X00173752Y00491454D01*
Y00491694D01*
X00173864Y00492256D01*
X00173752Y00492817D01*
Y00493058D01*
X00173660Y00493280D01*
X00173548Y00493841D01*
X00173230Y00494317D01*
X00173138Y00494540D01*
X00172968Y00494710D01*
X00172650Y00495186D01*
X00164974Y00502862D01*
Y00550676D01*
X00164862Y00551237D01*
Y00551478D01*
X00164770Y00551700D01*
X00164658Y00552261D01*
X00164340Y00552737D01*
X00164248Y00552960D01*
X00164078Y00553130D01*
X00163760Y00553606D01*
X00163284Y00553924D01*
X00163114Y00554094D01*
X00162892Y00554186D01*
X00162416Y00554504D01*
X00161855Y00554616D01*
X00161632Y00554708D01*
X00161391D01*
X00160830Y00554819D01*
D02*
G37*
G36*
X00257540Y00452079D02*
Y00424704D01*
X00272665D01*
Y00434664D01*
X00272326Y00438110D01*
X00271320Y00441424D01*
X00269688Y00444478D01*
X00267491Y00447155D01*
X00264814Y00449352D01*
X00261760Y00450984D01*
X00258446Y00451990D01*
X00257540Y00452079D01*
D02*
G37*
G36*
X00252460D02*
X00251554Y00451990D01*
X00248240Y00450984D01*
X00245186Y00449352D01*
X00242509Y00447155D01*
X00240312Y00444478D01*
X00238680Y00441424D01*
X00237675Y00438110D01*
X00237335Y00434664D01*
Y00424704D01*
X00252460D01*
Y00452079D01*
D02*
G37*
G36*
X00101776Y00438032D02*
X00098224D01*
X00094740Y00437339D01*
X00091459Y00435980D01*
X00088505Y00434006D01*
X00085993Y00431495D01*
X00084020Y00428541D01*
X00082661Y00425260D01*
X00081968Y00421776D01*
Y00418224D01*
X00082661Y00414740D01*
X00084020Y00411459D01*
X00085993Y00408505D01*
X00088505Y00405993D01*
X00091459Y00404020D01*
X00094740Y00402661D01*
X00098224Y00401968D01*
X00101776D01*
X00105260Y00402661D01*
X00108541Y00404020D01*
X00111495Y00405993D01*
X00114006Y00408505D01*
X00115980Y00411459D01*
X00117339Y00414740D01*
X00118032Y00418224D01*
Y00421776D01*
X00117339Y00425260D01*
X00115980Y00428541D01*
X00114006Y00431495D01*
X00111495Y00434006D01*
X00108541Y00435980D01*
X00105260Y00437339D01*
X00101776Y00438032D01*
D02*
G37*
G36*
X00199532Y00449196D02*
X00170468D01*
Y00395132D01*
X00199532D01*
Y00449196D01*
D02*
G37*
G36*
X00220000Y00449321D02*
X00216206Y00448822D01*
X00212671Y00447358D01*
X00209636Y00445028D01*
X00207306Y00441993D01*
X00205842Y00438457D01*
X00205343Y00434664D01*
Y00409664D01*
X00205842Y00405870D01*
X00207306Y00402335D01*
X00209636Y00399300D01*
X00212671Y00396970D01*
X00216206Y00395506D01*
X00220000Y00395006D01*
X00223794Y00395506D01*
X00227329Y00396970D01*
X00230364Y00399300D01*
X00232694Y00402335D01*
X00234158Y00405870D01*
X00234657Y00409664D01*
Y00434664D01*
X00234158Y00438457D01*
X00232694Y00441993D01*
X00230364Y00445028D01*
X00227329Y00447358D01*
X00223794Y00448822D01*
X00220000Y00449321D01*
D02*
G37*
G36*
X00896971Y00190539D02*
X00896410Y00190427D01*
X00896169D01*
X00896028Y00190369D01*
X00877621D01*
X00876036Y00190054D01*
X00874691Y00189156D01*
X00872311Y00186775D01*
X00871412Y00185431D01*
X00871097Y00183845D01*
Y00180922D01*
X00868129D01*
Y00159078D01*
X00882353D01*
Y00180922D01*
X00882353D01*
X00882618Y00182082D01*
X00896801D01*
X00898387Y00182397D01*
X00899254Y00182977D01*
X00899255Y00182977D01*
X00899255Y00182978D01*
X00899731Y00183296D01*
X00899901Y00183465D01*
X00900219Y00183941D01*
X00900389Y00184111D01*
X00900481Y00184334D01*
X00900799Y00184810D01*
X00900911Y00185371D01*
X00901003Y00185593D01*
Y00185834D01*
X00901114Y00186395D01*
X00901003Y00186957D01*
Y00187197D01*
X00900911Y00187420D01*
X00900799Y00187981D01*
X00900481Y00188457D01*
X00900389Y00188679D01*
X00900219Y00188850D01*
X00899901Y00189326D01*
X00899425Y00189643D01*
X00899255Y00189814D01*
X00899032Y00189906D01*
X00898557Y00190224D01*
X00897995Y00190335D01*
X00897773Y00190427D01*
X00897532D01*
X00896971Y00190539D01*
D02*
G37*
G36*
X00800831Y00234819D02*
X00800270Y00234708D01*
X00800029D01*
X00799806Y00234615D01*
X00799245Y00234504D01*
X00798769Y00234186D01*
X00798547Y00234094D01*
X00798377Y00233923D01*
X00797901Y00233606D01*
X00797583Y00233130D01*
X00797413Y00232959D01*
X00797320Y00232737D01*
X00797003Y00232261D01*
X00796891Y00231700D01*
X00796799Y00231478D01*
Y00231237D01*
X00796687Y00230676D01*
Y00181146D01*
X00797003Y00179560D01*
X00797901Y00178216D01*
X00806791Y00169326D01*
X00807267Y00169008D01*
X00807437Y00168837D01*
X00807659Y00168745D01*
X00808135Y00168427D01*
X00808696Y00168316D01*
X00808919Y00168224D01*
X00809160D01*
X00809721Y00168112D01*
X00810282Y00168224D01*
X00810523D01*
X00810745Y00168316D01*
X00811307Y00168427D01*
X00811782Y00168745D01*
X00812005Y00168837D01*
X00812175Y00169008D01*
X00812651Y00169326D01*
X00812969Y00169801D01*
X00813139Y00169972D01*
X00813231Y00170194D01*
X00813549Y00170670D01*
X00813661Y00171231D01*
X00813753Y00171454D01*
Y00171694D01*
X00813864Y00172256D01*
X00813753Y00172817D01*
Y00173058D01*
X00813661Y00173280D01*
X00813549Y00173841D01*
X00813231Y00174317D01*
X00813139Y00174540D01*
X00812969Y00174710D01*
X00812651Y00175186D01*
X00804974Y00182862D01*
Y00230676D01*
X00804863Y00231237D01*
Y00231478D01*
X00804771Y00231700D01*
X00804659Y00232261D01*
X00804341Y00232737D01*
X00804249Y00232959D01*
X00804079Y00233130D01*
X00803761Y00233606D01*
X00803285Y00233923D01*
X00803115Y00234094D01*
X00802892Y00234186D01*
X00802417Y00234504D01*
X00801855Y00234615D01*
X00801633Y00234708D01*
X00801392D01*
X00800831Y00234819D01*
D02*
G37*
G36*
X00897541Y00132079D02*
Y00104704D01*
X00912666D01*
Y00114664D01*
X00912326Y00118110D01*
X00911321Y00121424D01*
X00909689Y00124478D01*
X00907492Y00127155D01*
X00904815Y00129352D01*
X00901761Y00130984D01*
X00898447Y00131989D01*
X00897541Y00132079D01*
D02*
G37*
G36*
X00892461D02*
X00891554Y00131989D01*
X00888241Y00130984D01*
X00885186Y00129352D01*
X00882510Y00127155D01*
X00880313Y00124478D01*
X00878680Y00121424D01*
X00877675Y00118110D01*
X00877336Y00114664D01*
Y00104704D01*
X00892461D01*
Y00132079D01*
D02*
G37*
G36*
X00741777Y00118032D02*
X00738224D01*
X00734741Y00117339D01*
X00731459Y00115979D01*
X00728506Y00114006D01*
X00725994Y00111494D01*
X00724021Y00108541D01*
X00722661Y00105259D01*
X00721969Y00101776D01*
Y00098224D01*
X00722661Y00094740D01*
X00724021Y00091458D01*
X00725994Y00088505D01*
X00728506Y00085993D01*
X00731459Y00084020D01*
X00734741Y00082661D01*
X00738224Y00081968D01*
X00741777D01*
X00745260Y00082661D01*
X00748542Y00084020D01*
X00751495Y00085993D01*
X00754007Y00088505D01*
X00755980Y00091458D01*
X00757339Y00094740D01*
X00758033Y00098224D01*
Y00101776D01*
X00757339Y00105259D01*
X00755980Y00108541D01*
X00754007Y00111494D01*
X00751495Y00114006D01*
X00748542Y00115979D01*
X00745260Y00117339D01*
X00741777Y00118032D01*
D02*
G37*
G36*
X00839533Y00129196D02*
X00810469D01*
Y00075132D01*
X00839533D01*
Y00129196D01*
D02*
G37*
G36*
X00860001Y00129321D02*
X00856207Y00128822D01*
X00852672Y00127357D01*
X00849636Y00125028D01*
X00847307Y00121992D01*
X00845843Y00118457D01*
X00845343Y00114664D01*
Y00089664D01*
X00845843Y00085870D01*
X00847307Y00082335D01*
X00849636Y00079299D01*
X00852672Y00076970D01*
X00856207Y00075506D01*
X00860001Y00075006D01*
X00863794Y00075506D01*
X00867329Y00076970D01*
X00870365Y00079299D01*
X00872694Y00082335D01*
X00874159Y00085870D01*
X00874658Y00089664D01*
Y00114664D01*
X00874159Y00118457D01*
X00872694Y00121992D01*
X00870365Y00125028D01*
X00867329Y00127357D01*
X00863794Y00128822D01*
X00860001Y00129321D01*
D02*
G37*
G36*
X00576970Y00190539D02*
X00576409Y00190427D01*
X00576169D01*
X00576028Y00190369D01*
X00557621D01*
X00556035Y00190054D01*
X00554691Y00189156D01*
X00552310Y00186775D01*
X00551412Y00185431D01*
X00551097Y00183845D01*
Y00180922D01*
X00548128D01*
Y00159078D01*
X00562352D01*
Y00180922D01*
X00562352D01*
X00562618Y00182082D01*
X00576801D01*
X00578386Y00182397D01*
X00579254Y00182977D01*
X00579254Y00182977D01*
X00579255Y00182978D01*
X00579731Y00183296D01*
X00579901Y00183465D01*
X00580218Y00183941D01*
X00580389Y00184111D01*
X00580481Y00184334D01*
X00580799Y00184810D01*
X00580910Y00185371D01*
X00581003Y00185593D01*
Y00185834D01*
X00581114Y00186395D01*
X00581003Y00186957D01*
Y00187197D01*
X00580910Y00187420D01*
X00580799Y00187981D01*
X00580481Y00188457D01*
X00580389Y00188679D01*
X00580218Y00188850D01*
X00579901Y00189326D01*
X00579425Y00189643D01*
X00579254Y00189814D01*
X00579032Y00189906D01*
X00578556Y00190224D01*
X00577995Y00190335D01*
X00577772Y00190427D01*
X00577532D01*
X00576970Y00190539D01*
D02*
G37*
G36*
X00480830Y00234819D02*
X00480269Y00234708D01*
X00480028D01*
X00479806Y00234615D01*
X00479245Y00234504D01*
X00478769Y00234186D01*
X00478546Y00234094D01*
X00478376Y00233923D01*
X00477901Y00233606D01*
X00477583Y00233130D01*
X00477412Y00232959D01*
X00477320Y00232737D01*
X00477002Y00232261D01*
X00476891Y00231700D01*
X00476799Y00231478D01*
Y00231237D01*
X00476687Y00230676D01*
Y00181146D01*
X00477002Y00179560D01*
X00477901Y00178216D01*
X00486791Y00169326D01*
X00487266Y00169008D01*
X00487436Y00168837D01*
X00487659Y00168745D01*
X00488135Y00168427D01*
X00488696Y00168316D01*
X00488918Y00168224D01*
X00489159D01*
X00489720Y00168112D01*
X00490282Y00168224D01*
X00490522D01*
X00490745Y00168316D01*
X00491306Y00168427D01*
X00491782Y00168745D01*
X00492004Y00168837D01*
X00492175Y00169008D01*
X00492650Y00169326D01*
X00492968Y00169801D01*
X00493139Y00169972D01*
X00493231Y00170194D01*
X00493549Y00170670D01*
X00493660Y00171231D01*
X00493753Y00171454D01*
Y00171694D01*
X00493864Y00172256D01*
X00493753Y00172817D01*
Y00173058D01*
X00493660Y00173280D01*
X00493549Y00173841D01*
X00493231Y00174317D01*
X00493139Y00174540D01*
X00492968Y00174710D01*
X00492650Y00175186D01*
X00484974Y00182862D01*
Y00230676D01*
X00484863Y00231237D01*
Y00231478D01*
X00484770Y00231700D01*
X00484659Y00232261D01*
X00484341Y00232737D01*
X00484249Y00232959D01*
X00484078Y00233130D01*
X00483760Y00233606D01*
X00483285Y00233923D01*
X00483114Y00234094D01*
X00482892Y00234186D01*
X00482416Y00234504D01*
X00481855Y00234615D01*
X00481632Y00234708D01*
X00481392D01*
X00480830Y00234819D01*
D02*
G37*
G36*
X00577540Y00132079D02*
Y00104704D01*
X00592665D01*
Y00114664D01*
X00592326Y00118110D01*
X00591321Y00121424D01*
X00589688Y00124478D01*
X00587491Y00127155D01*
X00584815Y00129352D01*
X00581761Y00130984D01*
X00578447Y00131989D01*
X00577540Y00132079D01*
D02*
G37*
G36*
X00572460D02*
X00571554Y00131989D01*
X00568240Y00130984D01*
X00565186Y00129352D01*
X00562509Y00127155D01*
X00560312Y00124478D01*
X00558680Y00121424D01*
X00557675Y00118110D01*
X00557335Y00114664D01*
Y00104704D01*
X00572460D01*
Y00132079D01*
D02*
G37*
G36*
X00421776Y00118032D02*
X00418224D01*
X00414740Y00117339D01*
X00411459Y00115979D01*
X00408506Y00114006D01*
X00405994Y00111494D01*
X00404020Y00108541D01*
X00402661Y00105259D01*
X00401968Y00101776D01*
Y00098224D01*
X00402661Y00094740D01*
X00404020Y00091458D01*
X00405994Y00088505D01*
X00408506Y00085993D01*
X00411459Y00084020D01*
X00414740Y00082661D01*
X00418224Y00081968D01*
X00421776D01*
X00425260Y00082661D01*
X00428541Y00084020D01*
X00431495Y00085993D01*
X00434007Y00088505D01*
X00435980Y00091458D01*
X00437339Y00094740D01*
X00438032Y00098224D01*
Y00101776D01*
X00437339Y00105259D01*
X00435980Y00108541D01*
X00434007Y00111494D01*
X00431495Y00114006D01*
X00428541Y00115979D01*
X00425260Y00117339D01*
X00421776Y00118032D01*
D02*
G37*
G36*
X00519532Y00129196D02*
X00490468D01*
Y00075132D01*
X00519532D01*
Y00129196D01*
D02*
G37*
G36*
X00540000Y00129321D02*
X00536207Y00128822D01*
X00532672Y00127357D01*
X00529636Y00125028D01*
X00527307Y00121992D01*
X00525843Y00118457D01*
X00525343Y00114664D01*
Y00089664D01*
X00525843Y00085870D01*
X00527307Y00082335D01*
X00529636Y00079299D01*
X00532672Y00076970D01*
X00536207Y00075506D01*
X00540000Y00075006D01*
X00543794Y00075506D01*
X00547329Y00076970D01*
X00550365Y00079299D01*
X00552694Y00082335D01*
X00554158Y00085870D01*
X00554658Y00089664D01*
Y00114664D01*
X00554158Y00118457D01*
X00552694Y00121992D01*
X00550365Y00125028D01*
X00547329Y00127357D01*
X00543794Y00128822D01*
X00540000Y00129321D01*
D02*
G37*
G36*
X00256970Y00190539D02*
X00256409Y00190427D01*
X00256168D01*
X00256028Y00190369D01*
X00237621D01*
X00236035Y00190054D01*
X00234691Y00189156D01*
X00232310Y00186775D01*
X00231412Y00185431D01*
X00231096Y00183845D01*
Y00180922D01*
X00228128D01*
Y00159078D01*
X00242352D01*
Y00180922D01*
X00242352D01*
X00242618Y00182082D01*
X00256800D01*
X00258386Y00182397D01*
X00259254Y00182977D01*
X00259254Y00182977D01*
X00259254Y00182978D01*
X00259730Y00183296D01*
X00259900Y00183465D01*
X00260218Y00183941D01*
X00260388Y00184111D01*
X00260480Y00184334D01*
X00260798Y00184810D01*
X00260910Y00185371D01*
X00261002Y00185593D01*
Y00185834D01*
X00261114Y00186395D01*
X00261002Y00186957D01*
Y00187197D01*
X00260910Y00187420D01*
X00260798Y00187981D01*
X00260480Y00188457D01*
X00260388Y00188679D01*
X00260218Y00188850D01*
X00259900Y00189326D01*
X00259424Y00189643D01*
X00259254Y00189814D01*
X00259032Y00189906D01*
X00258556Y00190224D01*
X00257995Y00190335D01*
X00257772Y00190427D01*
X00257531D01*
X00256970Y00190539D01*
D02*
G37*
G36*
X00160830Y00234819D02*
X00160269Y00234708D01*
X00160028D01*
X00159806Y00234615D01*
X00159244Y00234504D01*
X00158769Y00234186D01*
X00158546Y00234094D01*
X00158376Y00233923D01*
X00157900Y00233606D01*
X00157582Y00233130D01*
X00157412Y00232959D01*
X00157320Y00232737D01*
X00157002Y00232261D01*
X00156890Y00231700D01*
X00156798Y00231478D01*
Y00231237D01*
X00156687Y00230676D01*
Y00181146D01*
X00157002Y00179560D01*
X00157900Y00178216D01*
X00166790Y00169326D01*
X00167266Y00169008D01*
X00167436Y00168837D01*
X00167659Y00168745D01*
X00168134Y00168427D01*
X00168696Y00168316D01*
X00168918Y00168224D01*
X00169159D01*
X00169720Y00168112D01*
X00170281Y00168224D01*
X00170522D01*
X00170745Y00168316D01*
X00171306Y00168427D01*
X00171782Y00168745D01*
X00172004Y00168837D01*
X00172174Y00169008D01*
X00172650Y00169326D01*
X00172968Y00169801D01*
X00173138Y00169972D01*
X00173230Y00170194D01*
X00173548Y00170670D01*
X00173660Y00171231D01*
X00173752Y00171454D01*
Y00171694D01*
X00173864Y00172256D01*
X00173752Y00172817D01*
Y00173058D01*
X00173660Y00173280D01*
X00173548Y00173841D01*
X00173230Y00174317D01*
X00173138Y00174540D01*
X00172968Y00174710D01*
X00172650Y00175186D01*
X00164974Y00182862D01*
Y00230676D01*
X00164862Y00231237D01*
Y00231478D01*
X00164770Y00231700D01*
X00164658Y00232261D01*
X00164340Y00232737D01*
X00164248Y00232959D01*
X00164078Y00233130D01*
X00163760Y00233606D01*
X00163284Y00233923D01*
X00163114Y00234094D01*
X00162892Y00234186D01*
X00162416Y00234504D01*
X00161855Y00234615D01*
X00161632Y00234708D01*
X00161391D01*
X00160830Y00234819D01*
D02*
G37*
G36*
X00257540Y00132079D02*
Y00104704D01*
X00272665D01*
Y00114664D01*
X00272326Y00118110D01*
X00271320Y00121424D01*
X00269688Y00124478D01*
X00267491Y00127155D01*
X00264814Y00129352D01*
X00261760Y00130984D01*
X00258446Y00131989D01*
X00257540Y00132079D01*
D02*
G37*
G36*
X00252460D02*
X00251554Y00131989D01*
X00248240Y00130984D01*
X00245186Y00129352D01*
X00242509Y00127155D01*
X00240312Y00124478D01*
X00238680Y00121424D01*
X00237675Y00118110D01*
X00237335Y00114664D01*
Y00104704D01*
X00252460D01*
Y00132079D01*
D02*
G37*
G36*
X00101776Y00118032D02*
X00098224D01*
X00094740Y00117339D01*
X00091459Y00115979D01*
X00088505Y00114006D01*
X00085993Y00111494D01*
X00084020Y00108541D01*
X00082661Y00105259D01*
X00081968Y00101776D01*
Y00098224D01*
X00082661Y00094740D01*
X00084020Y00091458D01*
X00085993Y00088505D01*
X00088505Y00085993D01*
X00091459Y00084020D01*
X00094740Y00082661D01*
X00098224Y00081968D01*
X00101776D01*
X00105260Y00082661D01*
X00108541Y00084020D01*
X00111495Y00085993D01*
X00114006Y00088505D01*
X00115980Y00091458D01*
X00117339Y00094740D01*
X00118032Y00098224D01*
Y00101776D01*
X00117339Y00105259D01*
X00115980Y00108541D01*
X00114006Y00111494D01*
X00111495Y00114006D01*
X00108541Y00115979D01*
X00105260Y00117339D01*
X00101776Y00118032D01*
D02*
G37*
G36*
X00199532Y00129196D02*
X00170468D01*
Y00075132D01*
X00199532D01*
Y00129196D01*
D02*
G37*
G36*
X00220000Y00129321D02*
X00216206Y00128822D01*
X00212671Y00127357D01*
X00209636Y00125028D01*
X00207306Y00121992D01*
X00205842Y00118457D01*
X00205343Y00114664D01*
Y00089664D01*
X00205842Y00085870D01*
X00207306Y00082335D01*
X00209636Y00079299D01*
X00212671Y00076970D01*
X00216206Y00075506D01*
X00220000Y00075006D01*
X00223794Y00075506D01*
X00227329Y00076970D01*
X00230364Y00079299D01*
X00232694Y00082335D01*
X00234158Y00085870D01*
X00234657Y00089664D01*
Y00114664D01*
X00234158Y00118457D01*
X00232694Y00121992D01*
X00230364Y00125028D01*
X00227329Y00127357D01*
X00223794Y00128822D01*
X00220000Y00129321D01*
D02*
G37*
%LPD*%
D10*
X00020000Y00020000D02*
D03*
D11*
X00020000Y01060000D02*
D03*
D12*
X00237750Y00270000D02*
D03*
X00557750D02*
D03*
X00877751D02*
D03*
X00237750Y00590000D02*
D03*
X00557750D02*
D03*
X00877751D02*
D03*
X00237750Y00910001D02*
D03*
X00557750D02*
D03*
X00877751D02*
D03*
D13*
X00202250Y00264500D02*
D03*
Y00275500D02*
D03*
X00522250Y00264500D02*
D03*
Y00275500D02*
D03*
X00842251Y00264500D02*
D03*
Y00275500D02*
D03*
X00202250Y00584500D02*
D03*
Y00595500D02*
D03*
X00522250Y00584500D02*
D03*
Y00595500D02*
D03*
X00842251Y00584500D02*
D03*
Y00595500D02*
D03*
X00202250Y00904501D02*
D03*
Y00915500D02*
D03*
X00522250Y00904501D02*
D03*
Y00915500D02*
D03*
X00842251Y00904501D02*
D03*
Y00915500D02*
D03*
D14*
X00235240Y00170000D02*
D03*
X00204760D02*
D03*
X00555240D02*
D03*
X00524760D02*
D03*
X00875241D02*
D03*
X00844761D02*
D03*
X00235240Y00490000D02*
D03*
X00204760D02*
D03*
X00555240D02*
D03*
X00524760D02*
D03*
X00875241D02*
D03*
X00844761D02*
D03*
X00235240Y00810000D02*
D03*
X00204760D02*
D03*
X00555240D02*
D03*
X00524760D02*
D03*
X00875241D02*
D03*
X00844761D02*
D03*
D15*
X00228000Y00212000D02*
D03*
X00220000D02*
D03*
X00212000D02*
D03*
X00204000D02*
D03*
Y00228000D02*
D03*
X00212000D02*
D03*
X00220000D02*
D03*
X00228000D02*
D03*
X00236000D02*
D03*
X00204000Y00220000D02*
D03*
X00236000D02*
D03*
X00548000Y00212000D02*
D03*
X00540000D02*
D03*
X00532000D02*
D03*
X00524000D02*
D03*
Y00228000D02*
D03*
X00532000D02*
D03*
X00540000D02*
D03*
X00548000D02*
D03*
X00556000D02*
D03*
X00524000Y00220000D02*
D03*
X00556000D02*
D03*
X00868001Y00212000D02*
D03*
X00860001D02*
D03*
X00852001D02*
D03*
X00844001D02*
D03*
Y00228000D02*
D03*
X00852001D02*
D03*
X00860001D02*
D03*
X00868001D02*
D03*
X00876001D02*
D03*
X00844001Y00220000D02*
D03*
X00876001D02*
D03*
X00228000Y00532000D02*
D03*
X00220000D02*
D03*
X00212000D02*
D03*
X00204000D02*
D03*
Y00548000D02*
D03*
X00212000D02*
D03*
X00220000D02*
D03*
X00228000D02*
D03*
X00236000D02*
D03*
X00204000Y00540000D02*
D03*
X00236000D02*
D03*
X00548000Y00532000D02*
D03*
X00540000D02*
D03*
X00532000D02*
D03*
X00524000D02*
D03*
Y00548000D02*
D03*
X00532000D02*
D03*
X00540000D02*
D03*
X00548000D02*
D03*
X00556000D02*
D03*
X00524000Y00540000D02*
D03*
X00556000D02*
D03*
X00868001Y00532000D02*
D03*
X00860001D02*
D03*
X00852001D02*
D03*
X00844001D02*
D03*
Y00548000D02*
D03*
X00852001D02*
D03*
X00860001D02*
D03*
X00868001D02*
D03*
X00876001D02*
D03*
X00844001Y00540000D02*
D03*
X00876001D02*
D03*
X00228000Y00852001D02*
D03*
X00220000D02*
D03*
X00212000D02*
D03*
X00204000D02*
D03*
Y00868000D02*
D03*
X00212000D02*
D03*
X00220000D02*
D03*
X00228000D02*
D03*
X00236000D02*
D03*
X00204000Y00860001D02*
D03*
X00236000D02*
D03*
X00548000Y00852001D02*
D03*
X00540000D02*
D03*
X00532000D02*
D03*
X00524000D02*
D03*
Y00868000D02*
D03*
X00532000D02*
D03*
X00540000D02*
D03*
X00548000D02*
D03*
X00556000D02*
D03*
X00524000Y00860001D02*
D03*
X00556000D02*
D03*
X00868001Y00852001D02*
D03*
X00860001D02*
D03*
X00852001D02*
D03*
X00844001D02*
D03*
Y00868000D02*
D03*
X00852001D02*
D03*
X00860001D02*
D03*
X00868001D02*
D03*
X00876001D02*
D03*
X00844001Y00860001D02*
D03*
X00876001D02*
D03*
D16*
X00236000Y00212000D02*
D03*
X00556000D02*
D03*
X00876001D02*
D03*
X00236000Y00532000D02*
D03*
X00556000D02*
D03*
X00876001D02*
D03*
X00236000Y00852001D02*
D03*
X00556000D02*
D03*
X00876001D02*
D03*
D17*
X00237808Y00259087D02*
X00294330D01*
X00237744Y00259151D02*
X00237808Y00259087D01*
X00225586Y00300512D02*
X00294194D01*
X00209090Y00284016D02*
X00225586Y00300512D01*
X00225479Y00290366D02*
X00247190D01*
X00220654Y00285541D02*
X00225479Y00290366D01*
X00215445Y00275500D02*
X00220654Y00280709D01*
Y00285541D01*
X00202250Y00275500D02*
X00215445D01*
X00160830Y00181146D02*
X00169720Y00172256D01*
X00160830Y00181146D02*
Y00230676D01*
X00294194Y00300512D02*
X00305180Y00289526D01*
X00237621Y00186226D02*
X00256800D01*
X00256970Y00186395D01*
X00237744Y00259151D02*
X00237750Y00259157D01*
Y00270000D01*
X00235240Y00183845D02*
X00237621Y00186226D01*
X00235240Y00170000D02*
Y00183845D01*
X00557808Y00259087D02*
X00614330D01*
X00557744Y00259151D02*
X00557808Y00259087D01*
X00545587Y00300512D02*
X00614194D01*
X00529090Y00284016D02*
X00545587Y00300512D01*
X00545479Y00290366D02*
X00567191D01*
X00540654Y00285541D02*
X00545479Y00290366D01*
X00535445Y00275500D02*
X00540654Y00280709D01*
Y00285541D01*
X00522250Y00275500D02*
X00535445D01*
X00480830Y00181146D02*
X00489720Y00172256D01*
X00480830Y00181146D02*
Y00230676D01*
X00614194Y00300512D02*
X00625181Y00289526D01*
X00557621Y00186226D02*
X00576801D01*
X00576970Y00186395D01*
X00557744Y00259151D02*
X00557750Y00259157D01*
Y00270000D01*
X00555240Y00183845D02*
X00557621Y00186226D01*
X00555240Y00170000D02*
Y00183845D01*
X00877808Y00259087D02*
X00934331D01*
X00877744Y00259151D02*
X00877808Y00259087D01*
X00865587Y00300512D02*
X00934195D01*
X00849091Y00284016D02*
X00865587Y00300512D01*
X00865480Y00290366D02*
X00887191D01*
X00860655Y00285541D02*
X00865480Y00290366D01*
X00855445Y00275500D02*
X00860655Y00280709D01*
Y00285541D01*
X00842251Y00275500D02*
X00855445D01*
X00800831Y00181146D02*
X00809721Y00172256D01*
X00800831Y00181146D02*
Y00230676D01*
X00934195Y00300512D02*
X00945181Y00289526D01*
X00877621Y00186226D02*
X00896801D01*
X00896971Y00186395D01*
X00877744Y00259151D02*
X00877751Y00259157D01*
Y00270000D01*
X00875241Y00183845D02*
X00877621Y00186226D01*
X00875241Y00170000D02*
Y00183845D01*
X00237808Y00579087D02*
X00294330D01*
X00237744Y00579151D02*
X00237808Y00579087D01*
X00225586Y00620512D02*
X00294194D01*
X00209090Y00604016D02*
X00225586Y00620512D01*
X00225479Y00610366D02*
X00247190D01*
X00220654Y00605541D02*
X00225479Y00610366D01*
X00215445Y00595500D02*
X00220654Y00600710D01*
Y00605541D01*
X00202250Y00595500D02*
X00215445D01*
X00160830Y00501146D02*
X00169720Y00492256D01*
X00160830Y00501146D02*
Y00550676D01*
X00294194Y00620512D02*
X00305180Y00609526D01*
X00237621Y00506226D02*
X00256800D01*
X00256970Y00506396D01*
X00237744Y00579151D02*
X00237750Y00579157D01*
Y00590000D01*
X00235240Y00503845D02*
X00237621Y00506226D01*
X00235240Y00490000D02*
Y00503845D01*
X00557808Y00579087D02*
X00614330D01*
X00557744Y00579151D02*
X00557808Y00579087D01*
X00545587Y00620512D02*
X00614194D01*
X00529090Y00604016D02*
X00545587Y00620512D01*
X00545479Y00610366D02*
X00567191D01*
X00540654Y00605541D02*
X00545479Y00610366D01*
X00535445Y00595500D02*
X00540654Y00600710D01*
Y00605541D01*
X00522250Y00595500D02*
X00535445D01*
X00480830Y00501146D02*
X00489720Y00492256D01*
X00480830Y00501146D02*
Y00550676D01*
X00614194Y00620512D02*
X00625181Y00609526D01*
X00557621Y00506226D02*
X00576801D01*
X00576970Y00506396D01*
X00557744Y00579151D02*
X00557750Y00579157D01*
Y00590000D01*
X00555240Y00503845D02*
X00557621Y00506226D01*
X00555240Y00490000D02*
Y00503845D01*
X00877808Y00579087D02*
X00934331D01*
X00877744Y00579151D02*
X00877808Y00579087D01*
X00865587Y00620512D02*
X00934195D01*
X00849091Y00604016D02*
X00865587Y00620512D01*
X00865480Y00610366D02*
X00887191D01*
X00860655Y00605541D02*
X00865480Y00610366D01*
X00855445Y00595500D02*
X00860655Y00600710D01*
Y00605541D01*
X00842251Y00595500D02*
X00855445D01*
X00800831Y00501146D02*
X00809721Y00492256D01*
X00800831Y00501146D02*
Y00550676D01*
X00934195Y00620512D02*
X00945181Y00609526D01*
X00877621Y00506226D02*
X00896801D01*
X00896971Y00506396D01*
X00877744Y00579151D02*
X00877751Y00579157D01*
Y00590000D01*
X00875241Y00503845D02*
X00877621Y00506226D01*
X00875241Y00490000D02*
Y00503845D01*
X00237808Y00899087D02*
X00294330D01*
X00237744Y00899151D02*
X00237808Y00899087D01*
X00225586Y00940512D02*
X00294194D01*
X00209090Y00924016D02*
X00225586Y00940512D01*
X00225479Y00930366D02*
X00247190D01*
X00220654Y00925541D02*
X00225479Y00930366D01*
X00215445Y00915500D02*
X00220654Y00920710D01*
Y00925541D01*
X00202250Y00915500D02*
X00215445D01*
X00160830Y00821146D02*
X00169720Y00812256D01*
X00160830Y00821146D02*
Y00870676D01*
X00294194Y00940512D02*
X00305180Y00929526D01*
X00237621Y00826226D02*
X00256800D01*
X00256970Y00826396D01*
X00237744Y00899151D02*
X00237750Y00899157D01*
Y00910001D01*
X00235240Y00823845D02*
X00237621Y00826226D01*
X00235240Y00810000D02*
Y00823845D01*
X00557808Y00899087D02*
X00614330D01*
X00557744Y00899151D02*
X00557808Y00899087D01*
X00545587Y00940512D02*
X00614194D01*
X00529090Y00924016D02*
X00545587Y00940512D01*
X00545479Y00930366D02*
X00567191D01*
X00540654Y00925541D02*
X00545479Y00930366D01*
X00535445Y00915500D02*
X00540654Y00920710D01*
Y00925541D01*
X00522250Y00915500D02*
X00535445D01*
X00480830Y00821146D02*
X00489720Y00812256D01*
X00480830Y00821146D02*
Y00870676D01*
X00614194Y00940512D02*
X00625181Y00929526D01*
X00557621Y00826226D02*
X00576801D01*
X00576970Y00826396D01*
X00557744Y00899151D02*
X00557750Y00899157D01*
Y00910001D01*
X00555240Y00823845D02*
X00557621Y00826226D01*
X00555240Y00810000D02*
Y00823845D01*
X00877808Y00899087D02*
X00934331D01*
X00877744Y00899151D02*
X00877808Y00899087D01*
X00865587Y00940512D02*
X00934195D01*
X00849091Y00924016D02*
X00865587Y00940512D01*
X00865480Y00930366D02*
X00887191D01*
X00860655Y00925541D02*
X00865480Y00930366D01*
X00855445Y00915500D02*
X00860655Y00920710D01*
Y00925541D01*
X00842251Y00915500D02*
X00855445D01*
X00800831Y00821146D02*
X00809721Y00812256D01*
X00800831Y00821146D02*
Y00870676D01*
X00934195Y00940512D02*
X00945181Y00929526D01*
X00877621Y00826226D02*
X00896801D01*
X00896971Y00826396D01*
X00877744Y00899151D02*
X00877751Y00899157D01*
Y00910001D01*
X00875241Y00823845D02*
X00877621Y00826226D01*
X00875241Y00810000D02*
Y00823845D01*
D18*
X00212650Y00257096D02*
X00228140Y00272586D01*
X00118100Y00256526D02*
X00118380Y00256805D01*
X00119412D01*
X00119703Y00257096D01*
X00212650D01*
X00220000Y00228000D02*
X00220067Y00228067D01*
Y00240364D02*
X00220134Y00240431D01*
X00220067Y00228067D02*
Y00240364D01*
X00184628Y00217405D02*
X00189919Y00212115D01*
X00184628Y00217405D02*
Y00234818D01*
X00189919Y00212115D02*
X00203886D01*
X00173530Y00245916D02*
X00184628Y00234818D01*
X00173570Y00215396D02*
X00204760Y00184206D01*
X00173570Y00215396D02*
Y00234526D01*
X00228140Y00272586D02*
Y00282746D01*
X00204760Y00170000D02*
Y00184206D01*
X00228070Y00245846D02*
X00228140Y00245916D01*
X00204000Y00240383D02*
X00221215Y00257598D01*
X00204000Y00228000D02*
Y00240383D01*
X00228070Y00228070D02*
Y00245846D01*
X00228000Y00200336D02*
Y00212000D01*
X00220000Y00200336D02*
Y00212000D01*
X00212000Y00200336D02*
Y00212000D01*
X00199907Y00220000D02*
X00204000D01*
X00197660Y00222247D02*
Y00239566D01*
Y00222247D02*
X00199907Y00220000D01*
X00236000Y00212000D02*
X00247665D01*
X00236000Y00220000D02*
X00247665D01*
X00236000Y00228000D02*
X00247665D01*
X00228000D02*
X00228070Y00228070D01*
X00203886Y00212115D02*
X00204000Y00212000D01*
X00532651Y00257096D02*
X00548140Y00272586D01*
X00438101Y00256526D02*
X00438380Y00256805D01*
X00439412D01*
X00439703Y00257096D01*
X00532651D01*
X00540000Y00228000D02*
X00540067Y00228067D01*
Y00240364D02*
X00540134Y00240431D01*
X00540067Y00228067D02*
Y00240364D01*
X00504628Y00217405D02*
X00509919Y00212115D01*
X00504628Y00217405D02*
Y00234818D01*
X00509919Y00212115D02*
X00523886D01*
X00493531Y00245916D02*
X00504628Y00234818D01*
X00493571Y00215396D02*
X00524760Y00184206D01*
X00493571Y00215396D02*
Y00234526D01*
X00548140Y00272586D02*
Y00282746D01*
X00524760Y00170000D02*
Y00184206D01*
X00548070Y00245846D02*
X00548140Y00245916D01*
X00524000Y00240383D02*
X00541216Y00257598D01*
X00524000Y00228000D02*
Y00240383D01*
X00548070Y00228070D02*
Y00245846D01*
X00548000Y00200336D02*
Y00212000D01*
X00540000Y00200336D02*
Y00212000D01*
X00532000Y00200336D02*
Y00212000D01*
X00519907Y00220000D02*
X00524000D01*
X00517660Y00222247D02*
Y00239566D01*
Y00222247D02*
X00519907Y00220000D01*
X00556000Y00212000D02*
X00567665D01*
X00556000Y00220000D02*
X00567665D01*
X00556000Y00228000D02*
X00567665D01*
X00548000D02*
X00548070Y00228070D01*
X00523886Y00212115D02*
X00524000Y00212000D01*
X00852651Y00257096D02*
X00868141Y00272586D01*
X00758101Y00256526D02*
X00758380Y00256805D01*
X00759413D01*
X00759703Y00257096D01*
X00852651D01*
X00860001Y00228000D02*
X00860068Y00228067D01*
Y00240364D02*
X00860135Y00240431D01*
X00860068Y00228067D02*
Y00240364D01*
X00824629Y00217405D02*
X00829919Y00212115D01*
X00824629Y00217405D02*
Y00234818D01*
X00829919Y00212115D02*
X00843886D01*
X00813531Y00245916D02*
X00824629Y00234818D01*
X00813571Y00215396D02*
X00844761Y00184206D01*
X00813571Y00215396D02*
Y00234526D01*
X00868141Y00272586D02*
Y00282746D01*
X00844761Y00170000D02*
Y00184206D01*
X00868071Y00245846D02*
X00868141Y00245916D01*
X00844001Y00240383D02*
X00861216Y00257598D01*
X00844001Y00228000D02*
Y00240383D01*
X00868071Y00228070D02*
Y00245846D01*
X00868001Y00200336D02*
Y00212000D01*
X00860001Y00200336D02*
Y00212000D01*
X00852001Y00200336D02*
Y00212000D01*
X00839907Y00220000D02*
X00844001D01*
X00837661Y00222247D02*
Y00239566D01*
Y00222247D02*
X00839907Y00220000D01*
X00876001Y00212000D02*
X00887665D01*
X00876001Y00220000D02*
X00887665D01*
X00876001Y00228000D02*
X00887665D01*
X00868001D02*
X00868071Y00228070D01*
X00843886Y00212115D02*
X00844001Y00212000D01*
X00212650Y00577096D02*
X00228140Y00592586D01*
X00118100Y00576526D02*
X00118380Y00576805D01*
X00119412D01*
X00119703Y00577096D01*
X00212650D01*
X00220000Y00548000D02*
X00220067Y00548067D01*
Y00560364D02*
X00220134Y00560431D01*
X00220067Y00548067D02*
Y00560364D01*
X00184628Y00537406D02*
X00189919Y00532115D01*
X00184628Y00537406D02*
Y00554818D01*
X00189919Y00532115D02*
X00203886D01*
X00173530Y00565916D02*
X00184628Y00554818D01*
X00173570Y00535396D02*
X00204760Y00504206D01*
X00173570Y00535396D02*
Y00554526D01*
X00228140Y00592586D02*
Y00602746D01*
X00204760Y00490000D02*
Y00504206D01*
X00228070Y00565846D02*
X00228140Y00565916D01*
X00204000Y00560383D02*
X00221215Y00577598D01*
X00204000Y00548000D02*
Y00560383D01*
X00228070Y00548070D02*
Y00565846D01*
X00228000Y00520336D02*
Y00532000D01*
X00220000Y00520336D02*
Y00532000D01*
X00212000Y00520336D02*
Y00532000D01*
X00199907Y00540000D02*
X00204000D01*
X00197660Y00542247D02*
Y00559566D01*
Y00542247D02*
X00199907Y00540000D01*
X00236000Y00532000D02*
X00247665D01*
X00236000Y00540000D02*
X00247665D01*
X00236000Y00548000D02*
X00247665D01*
X00228000D02*
X00228070Y00548070D01*
X00203886Y00532115D02*
X00204000Y00532000D01*
X00532651Y00577096D02*
X00548140Y00592586D01*
X00438101Y00576526D02*
X00438380Y00576805D01*
X00439412D01*
X00439703Y00577096D01*
X00532651D01*
X00540000Y00548000D02*
X00540067Y00548067D01*
Y00560364D02*
X00540134Y00560431D01*
X00540067Y00548067D02*
Y00560364D01*
X00504628Y00537406D02*
X00509919Y00532115D01*
X00504628Y00537406D02*
Y00554818D01*
X00509919Y00532115D02*
X00523886D01*
X00493531Y00565916D02*
X00504628Y00554818D01*
X00493571Y00535396D02*
X00524760Y00504206D01*
X00493571Y00535396D02*
Y00554526D01*
X00548140Y00592586D02*
Y00602746D01*
X00524760Y00490000D02*
Y00504206D01*
X00548070Y00565846D02*
X00548140Y00565916D01*
X00524000Y00560383D02*
X00541216Y00577598D01*
X00524000Y00548000D02*
Y00560383D01*
X00548070Y00548070D02*
Y00565846D01*
X00548000Y00520336D02*
Y00532000D01*
X00540000Y00520336D02*
Y00532000D01*
X00532000Y00520336D02*
Y00532000D01*
X00519907Y00540000D02*
X00524000D01*
X00517660Y00542247D02*
Y00559566D01*
Y00542247D02*
X00519907Y00540000D01*
X00556000Y00532000D02*
X00567665D01*
X00556000Y00540000D02*
X00567665D01*
X00556000Y00548000D02*
X00567665D01*
X00548000D02*
X00548070Y00548070D01*
X00523886Y00532115D02*
X00524000Y00532000D01*
X00852651Y00577096D02*
X00868141Y00592586D01*
X00758101Y00576526D02*
X00758380Y00576805D01*
X00759413D01*
X00759703Y00577096D01*
X00852651D01*
X00860001Y00548000D02*
X00860068Y00548067D01*
Y00560364D02*
X00860135Y00560431D01*
X00860068Y00548067D02*
Y00560364D01*
X00824629Y00537406D02*
X00829919Y00532115D01*
X00824629Y00537406D02*
Y00554818D01*
X00829919Y00532115D02*
X00843886D01*
X00813531Y00565916D02*
X00824629Y00554818D01*
X00813571Y00535396D02*
X00844761Y00504206D01*
X00813571Y00535396D02*
Y00554526D01*
X00868141Y00592586D02*
Y00602746D01*
X00844761Y00490000D02*
Y00504206D01*
X00868071Y00565846D02*
X00868141Y00565916D01*
X00844001Y00560383D02*
X00861216Y00577598D01*
X00844001Y00548000D02*
Y00560383D01*
X00868071Y00548070D02*
Y00565846D01*
X00868001Y00520336D02*
Y00532000D01*
X00860001Y00520336D02*
Y00532000D01*
X00852001Y00520336D02*
Y00532000D01*
X00839907Y00540000D02*
X00844001D01*
X00837661Y00542247D02*
Y00559566D01*
Y00542247D02*
X00839907Y00540000D01*
X00876001Y00532000D02*
X00887665D01*
X00876001Y00540000D02*
X00887665D01*
X00876001Y00548000D02*
X00887665D01*
X00868001D02*
X00868071Y00548070D01*
X00843886Y00532115D02*
X00844001Y00532000D01*
X00212650Y00897096D02*
X00228140Y00912586D01*
X00118100Y00896526D02*
X00118380Y00896805D01*
X00119412D01*
X00119703Y00897096D01*
X00212650D01*
X00220000Y00868000D02*
X00220067Y00868067D01*
Y00880364D02*
X00220134Y00880431D01*
X00220067Y00868067D02*
Y00880364D01*
X00184628Y00857406D02*
X00189919Y00852115D01*
X00184628Y00857406D02*
Y00874818D01*
X00189919Y00852115D02*
X00203886D01*
X00173530Y00885916D02*
X00184628Y00874818D01*
X00173570Y00855396D02*
X00204760Y00824206D01*
X00173570Y00855396D02*
Y00874526D01*
X00228140Y00912586D02*
Y00922746D01*
X00204760Y00810000D02*
Y00824206D01*
X00228070Y00885846D02*
X00228140Y00885916D01*
X00204000Y00880383D02*
X00221215Y00897598D01*
X00204000Y00868000D02*
Y00880383D01*
X00228070Y00868071D02*
Y00885846D01*
X00228000Y00840336D02*
Y00852001D01*
X00220000Y00840336D02*
Y00852001D01*
X00212000Y00840336D02*
Y00852001D01*
X00199907Y00860001D02*
X00204000D01*
X00197660Y00862247D02*
Y00879566D01*
Y00862247D02*
X00199907Y00860001D01*
X00236000Y00852001D02*
X00247665D01*
X00236000Y00860001D02*
X00247665D01*
X00236000Y00868000D02*
X00247665D01*
X00228000D02*
X00228070Y00868071D01*
X00203886Y00852115D02*
X00204000Y00852001D01*
X00532651Y00897096D02*
X00548140Y00912586D01*
X00438101Y00896526D02*
X00438380Y00896805D01*
X00439412D01*
X00439703Y00897096D01*
X00532651D01*
X00540000Y00868000D02*
X00540067Y00868067D01*
Y00880364D02*
X00540134Y00880431D01*
X00540067Y00868067D02*
Y00880364D01*
X00504628Y00857406D02*
X00509919Y00852115D01*
X00504628Y00857406D02*
Y00874818D01*
X00509919Y00852115D02*
X00523886D01*
X00493531Y00885916D02*
X00504628Y00874818D01*
X00493571Y00855396D02*
X00524760Y00824206D01*
X00493571Y00855396D02*
Y00874526D01*
X00548140Y00912586D02*
Y00922746D01*
X00524760Y00810000D02*
Y00824206D01*
X00548070Y00885846D02*
X00548140Y00885916D01*
X00524000Y00880383D02*
X00541216Y00897598D01*
X00524000Y00868000D02*
Y00880383D01*
X00548070Y00868071D02*
Y00885846D01*
X00548000Y00840336D02*
Y00852001D01*
X00540000Y00840336D02*
Y00852001D01*
X00532000Y00840336D02*
Y00852001D01*
X00519907Y00860001D02*
X00524000D01*
X00517660Y00862247D02*
Y00879566D01*
Y00862247D02*
X00519907Y00860001D01*
X00556000Y00852001D02*
X00567665D01*
X00556000Y00860001D02*
X00567665D01*
X00556000Y00868000D02*
X00567665D01*
X00548000D02*
X00548070Y00868071D01*
X00523886Y00852115D02*
X00524000Y00852001D01*
X00852651Y00897096D02*
X00868141Y00912586D01*
X00758101Y00896526D02*
X00758380Y00896805D01*
X00759413D01*
X00759703Y00897096D01*
X00852651D01*
X00860001Y00868000D02*
X00860068Y00868067D01*
Y00880364D02*
X00860135Y00880431D01*
X00860068Y00868067D02*
Y00880364D01*
X00824629Y00857406D02*
X00829919Y00852115D01*
X00824629Y00857406D02*
Y00874818D01*
X00829919Y00852115D02*
X00843886D01*
X00813531Y00885916D02*
X00824629Y00874818D01*
X00813571Y00855396D02*
X00844761Y00824206D01*
X00813571Y00855396D02*
Y00874526D01*
X00868141Y00912586D02*
Y00922746D01*
X00844761Y00810000D02*
Y00824206D01*
X00868071Y00885846D02*
X00868141Y00885916D01*
X00844001Y00880383D02*
X00861216Y00897598D01*
X00844001Y00868000D02*
Y00880383D01*
X00868071Y00868071D02*
Y00885846D01*
X00868001Y00840336D02*
Y00852001D01*
X00860001Y00840336D02*
Y00852001D01*
X00852001Y00840336D02*
Y00852001D01*
X00839907Y00860001D02*
X00844001D01*
X00837661Y00862247D02*
Y00879566D01*
Y00862247D02*
X00839907Y00860001D01*
X00876001Y00852001D02*
X00887665D01*
X00876001Y00860001D02*
X00887665D01*
X00876001Y00868000D02*
X00887665D01*
X00868001D02*
X00868071Y00868071D01*
X00843886Y00852115D02*
X00844001Y00852001D01*
D19*
X00244000Y00370998D02*
D03*
X00241000D02*
D03*
X00238000Y00370998D02*
D03*
X00235000Y00370998D02*
D03*
X00232000D02*
D03*
X00229000Y00370998D02*
D03*
X00226000Y00370998D02*
D03*
X00223000D02*
D03*
X00220000D02*
D03*
X00217000D02*
D03*
X00214000Y00370998D02*
D03*
X00211000Y00370998D02*
D03*
X00202000D02*
D03*
X00205000Y00370998D02*
D03*
X00208000Y00370998D02*
D03*
X00199000Y00370998D02*
D03*
X00196000Y00370998D02*
D03*
X00196000Y00069002D02*
D03*
X00199000D02*
D03*
X00202000Y00069002D02*
D03*
X00205000Y00069002D02*
D03*
X00208000D02*
D03*
X00211000Y00069002D02*
D03*
X00214000Y00069002D02*
D03*
X00217000D02*
D03*
X00220000D02*
D03*
X00223000D02*
D03*
X00226000Y00069002D02*
D03*
X00229000Y00069002D02*
D03*
X00238000D02*
D03*
X00235000Y00069002D02*
D03*
X00232000Y00069002D02*
D03*
X00241000Y00069002D02*
D03*
X00244000Y00069002D02*
D03*
X00370998Y00196000D02*
D03*
Y00199000D02*
D03*
Y00202000D02*
D03*
Y00205000D02*
D03*
Y00208000D02*
D03*
Y00211000D02*
D03*
Y00214000D02*
D03*
Y00217000D02*
D03*
Y00220000D02*
D03*
Y00223000D02*
D03*
Y00226000D02*
D03*
Y00229000D02*
D03*
Y00238000D02*
D03*
Y00235000D02*
D03*
Y00232000D02*
D03*
Y00241000D02*
D03*
Y00244000D02*
D03*
X00069002Y00196000D02*
D03*
Y00199000D02*
D03*
Y00208000D02*
D03*
Y00205000D02*
D03*
Y00202000D02*
D03*
Y00211000D02*
D03*
Y00214000D02*
D03*
Y00217000D02*
D03*
Y00220000D02*
D03*
Y00223000D02*
D03*
Y00226000D02*
D03*
Y00229000D02*
D03*
Y00232000D02*
D03*
Y00235000D02*
D03*
Y00238000D02*
D03*
Y00241000D02*
D03*
Y00244000D02*
D03*
X00564000Y00370998D02*
D03*
X00561000D02*
D03*
X00558000Y00370998D02*
D03*
X00555000Y00370998D02*
D03*
X00552000D02*
D03*
X00549000Y00370998D02*
D03*
X00546000Y00370998D02*
D03*
X00543000D02*
D03*
X00540000D02*
D03*
X00537000D02*
D03*
X00534000Y00370998D02*
D03*
X00531000Y00370998D02*
D03*
X00522000D02*
D03*
X00525000Y00370998D02*
D03*
X00528000Y00370998D02*
D03*
X00519000Y00370998D02*
D03*
X00516000Y00370998D02*
D03*
X00516000Y00069002D02*
D03*
X00519000D02*
D03*
X00522000Y00069002D02*
D03*
X00525000Y00069002D02*
D03*
X00528000D02*
D03*
X00531000Y00069002D02*
D03*
X00534000Y00069002D02*
D03*
X00537000D02*
D03*
X00540000D02*
D03*
X00543000D02*
D03*
X00546000Y00069002D02*
D03*
X00549000Y00069002D02*
D03*
X00558000D02*
D03*
X00555000Y00069002D02*
D03*
X00552000Y00069002D02*
D03*
X00561000Y00069002D02*
D03*
X00564000Y00069002D02*
D03*
X00690998Y00196000D02*
D03*
Y00199000D02*
D03*
Y00202000D02*
D03*
Y00205000D02*
D03*
Y00208000D02*
D03*
Y00211000D02*
D03*
Y00214000D02*
D03*
Y00217000D02*
D03*
Y00220000D02*
D03*
Y00223000D02*
D03*
Y00226000D02*
D03*
Y00229000D02*
D03*
Y00238000D02*
D03*
Y00235000D02*
D03*
Y00232000D02*
D03*
Y00241000D02*
D03*
Y00244000D02*
D03*
X00389003Y00196000D02*
D03*
Y00199000D02*
D03*
Y00208000D02*
D03*
Y00205000D02*
D03*
Y00202000D02*
D03*
Y00211000D02*
D03*
Y00214000D02*
D03*
Y00217000D02*
D03*
Y00220000D02*
D03*
Y00223000D02*
D03*
Y00226000D02*
D03*
Y00229000D02*
D03*
Y00232000D02*
D03*
Y00235000D02*
D03*
Y00238000D02*
D03*
Y00241000D02*
D03*
Y00244000D02*
D03*
X00884001Y00370998D02*
D03*
X00881001D02*
D03*
X00878001Y00370998D02*
D03*
X00875001Y00370998D02*
D03*
X00872001D02*
D03*
X00869001Y00370998D02*
D03*
X00866001Y00370998D02*
D03*
X00863001D02*
D03*
X00860001D02*
D03*
X00857001D02*
D03*
X00854001Y00370998D02*
D03*
X00851001Y00370998D02*
D03*
X00842001D02*
D03*
X00845001Y00370998D02*
D03*
X00848001Y00370998D02*
D03*
X00839001Y00370998D02*
D03*
X00836001Y00370998D02*
D03*
X00836001Y00069002D02*
D03*
X00839001D02*
D03*
X00842001Y00069002D02*
D03*
X00845001Y00069002D02*
D03*
X00848001D02*
D03*
X00851001Y00069002D02*
D03*
X00854001Y00069002D02*
D03*
X00857001D02*
D03*
X00860001D02*
D03*
X00863001D02*
D03*
X00866001Y00069002D02*
D03*
X00869001Y00069002D02*
D03*
X00878001D02*
D03*
X00875001Y00069002D02*
D03*
X00872001Y00069002D02*
D03*
X00881001Y00069002D02*
D03*
X00884001Y00069002D02*
D03*
X01010998Y00196000D02*
D03*
Y00199000D02*
D03*
Y00202000D02*
D03*
Y00205000D02*
D03*
Y00208000D02*
D03*
Y00211000D02*
D03*
Y00214000D02*
D03*
Y00217000D02*
D03*
Y00220000D02*
D03*
Y00223000D02*
D03*
Y00226000D02*
D03*
Y00229000D02*
D03*
Y00238000D02*
D03*
Y00235000D02*
D03*
Y00232000D02*
D03*
Y00241000D02*
D03*
Y00244000D02*
D03*
X00709003Y00196000D02*
D03*
Y00199000D02*
D03*
Y00208000D02*
D03*
Y00205000D02*
D03*
Y00202000D02*
D03*
Y00211000D02*
D03*
Y00214000D02*
D03*
Y00217000D02*
D03*
Y00220000D02*
D03*
Y00223000D02*
D03*
Y00226000D02*
D03*
Y00229000D02*
D03*
Y00232000D02*
D03*
Y00235000D02*
D03*
Y00238000D02*
D03*
Y00241000D02*
D03*
Y00244000D02*
D03*
X00244000Y00690998D02*
D03*
X00241000D02*
D03*
X00238000Y00690998D02*
D03*
X00235000Y00690998D02*
D03*
X00232000D02*
D03*
X00229000Y00690998D02*
D03*
X00226000Y00690998D02*
D03*
X00223000D02*
D03*
X00220000D02*
D03*
X00217000D02*
D03*
X00214000Y00690998D02*
D03*
X00211000Y00690998D02*
D03*
X00202000D02*
D03*
X00205000Y00690998D02*
D03*
X00208000Y00690998D02*
D03*
X00199000Y00690998D02*
D03*
X00196000Y00690998D02*
D03*
X00196000Y00389002D02*
D03*
X00199000D02*
D03*
X00202000Y00389002D02*
D03*
X00205000Y00389002D02*
D03*
X00208000D02*
D03*
X00211000Y00389002D02*
D03*
X00214000Y00389002D02*
D03*
X00217000D02*
D03*
X00220000D02*
D03*
X00223000D02*
D03*
X00226000Y00389002D02*
D03*
X00229000Y00389002D02*
D03*
X00238000D02*
D03*
X00235000Y00389002D02*
D03*
X00232000Y00389002D02*
D03*
X00241000Y00389002D02*
D03*
X00244000Y00389002D02*
D03*
X00370998Y00516000D02*
D03*
Y00519000D02*
D03*
Y00522000D02*
D03*
Y00525000D02*
D03*
Y00528000D02*
D03*
Y00531000D02*
D03*
Y00534000D02*
D03*
Y00537000D02*
D03*
Y00540000D02*
D03*
Y00543000D02*
D03*
Y00546000D02*
D03*
Y00549000D02*
D03*
Y00558000D02*
D03*
Y00555000D02*
D03*
Y00552000D02*
D03*
Y00561000D02*
D03*
Y00564000D02*
D03*
X00069002Y00516000D02*
D03*
Y00519000D02*
D03*
Y00528000D02*
D03*
Y00525000D02*
D03*
Y00522000D02*
D03*
Y00531000D02*
D03*
Y00534000D02*
D03*
Y00537000D02*
D03*
Y00540000D02*
D03*
Y00543000D02*
D03*
Y00546000D02*
D03*
Y00549000D02*
D03*
Y00552000D02*
D03*
Y00555000D02*
D03*
Y00558000D02*
D03*
Y00561000D02*
D03*
Y00564000D02*
D03*
X00564000Y00690998D02*
D03*
X00561000D02*
D03*
X00558000Y00690998D02*
D03*
X00555000Y00690998D02*
D03*
X00552000D02*
D03*
X00549000Y00690998D02*
D03*
X00546000Y00690998D02*
D03*
X00543000D02*
D03*
X00540000D02*
D03*
X00537000D02*
D03*
X00534000Y00690998D02*
D03*
X00531000Y00690998D02*
D03*
X00522000D02*
D03*
X00525000Y00690998D02*
D03*
X00528000Y00690998D02*
D03*
X00519000Y00690998D02*
D03*
X00516000Y00690998D02*
D03*
X00516000Y00389002D02*
D03*
X00519000D02*
D03*
X00522000Y00389002D02*
D03*
X00525000Y00389002D02*
D03*
X00528000D02*
D03*
X00531000Y00389002D02*
D03*
X00534000Y00389002D02*
D03*
X00537000D02*
D03*
X00540000D02*
D03*
X00543000D02*
D03*
X00546000Y00389002D02*
D03*
X00549000Y00389002D02*
D03*
X00558000D02*
D03*
X00555000Y00389002D02*
D03*
X00552000Y00389002D02*
D03*
X00561000Y00389002D02*
D03*
X00564000Y00389002D02*
D03*
X00690998Y00516000D02*
D03*
Y00519000D02*
D03*
Y00522000D02*
D03*
Y00525000D02*
D03*
Y00528000D02*
D03*
Y00531000D02*
D03*
Y00534000D02*
D03*
Y00537000D02*
D03*
Y00540000D02*
D03*
Y00543000D02*
D03*
Y00546000D02*
D03*
Y00549000D02*
D03*
Y00558000D02*
D03*
Y00555000D02*
D03*
Y00552000D02*
D03*
Y00561000D02*
D03*
Y00564000D02*
D03*
X00389003Y00516000D02*
D03*
Y00519000D02*
D03*
Y00528000D02*
D03*
Y00525000D02*
D03*
Y00522000D02*
D03*
Y00531000D02*
D03*
Y00534000D02*
D03*
Y00537000D02*
D03*
Y00540000D02*
D03*
Y00543000D02*
D03*
Y00546000D02*
D03*
Y00549000D02*
D03*
Y00552000D02*
D03*
Y00555000D02*
D03*
Y00558000D02*
D03*
Y00561000D02*
D03*
Y00564000D02*
D03*
X00884001Y00690998D02*
D03*
X00881001D02*
D03*
X00878001Y00690998D02*
D03*
X00875001Y00690998D02*
D03*
X00872001D02*
D03*
X00869001Y00690998D02*
D03*
X00866001Y00690998D02*
D03*
X00863001D02*
D03*
X00860001D02*
D03*
X00857001D02*
D03*
X00854001Y00690998D02*
D03*
X00851001Y00690998D02*
D03*
X00842001D02*
D03*
X00845001Y00690998D02*
D03*
X00848001Y00690998D02*
D03*
X00839001Y00690998D02*
D03*
X00836001Y00690998D02*
D03*
X00836001Y00389002D02*
D03*
X00839001D02*
D03*
X00842001Y00389002D02*
D03*
X00845001Y00389002D02*
D03*
X00848001D02*
D03*
X00851001Y00389002D02*
D03*
X00854001Y00389002D02*
D03*
X00857001D02*
D03*
X00860001D02*
D03*
X00863001D02*
D03*
X00866001Y00389002D02*
D03*
X00869001Y00389002D02*
D03*
X00878001D02*
D03*
X00875001Y00389002D02*
D03*
X00872001Y00389002D02*
D03*
X00881001Y00389002D02*
D03*
X00884001Y00389002D02*
D03*
X01010998Y00516000D02*
D03*
Y00519000D02*
D03*
Y00522000D02*
D03*
Y00525000D02*
D03*
Y00528000D02*
D03*
Y00531000D02*
D03*
Y00534000D02*
D03*
Y00537000D02*
D03*
Y00540000D02*
D03*
Y00543000D02*
D03*
Y00546000D02*
D03*
Y00549000D02*
D03*
Y00558000D02*
D03*
Y00555000D02*
D03*
Y00552000D02*
D03*
Y00561000D02*
D03*
Y00564000D02*
D03*
X00709003Y00516000D02*
D03*
Y00519000D02*
D03*
Y00528000D02*
D03*
Y00525000D02*
D03*
Y00522000D02*
D03*
Y00531000D02*
D03*
Y00534000D02*
D03*
Y00537000D02*
D03*
Y00540000D02*
D03*
Y00543000D02*
D03*
Y00546000D02*
D03*
Y00549000D02*
D03*
Y00552000D02*
D03*
Y00555000D02*
D03*
Y00558000D02*
D03*
Y00561000D02*
D03*
Y00564000D02*
D03*
X00244000Y01010998D02*
D03*
X00241000D02*
D03*
X00238000Y01010998D02*
D03*
X00235000Y01010998D02*
D03*
X00232000D02*
D03*
X00229000Y01010998D02*
D03*
X00226000Y01010998D02*
D03*
X00223000D02*
D03*
X00220000D02*
D03*
X00217000D02*
D03*
X00214000Y01010998D02*
D03*
X00211000Y01010998D02*
D03*
X00202000D02*
D03*
X00205000Y01010998D02*
D03*
X00208000Y01010998D02*
D03*
X00199000Y01010998D02*
D03*
X00196000Y01010998D02*
D03*
X00196000Y00709003D02*
D03*
X00199000D02*
D03*
X00202000Y00709003D02*
D03*
X00205000Y00709003D02*
D03*
X00208000D02*
D03*
X00211000Y00709003D02*
D03*
X00214000Y00709003D02*
D03*
X00217000D02*
D03*
X00220000D02*
D03*
X00223000D02*
D03*
X00226000Y00709003D02*
D03*
X00229000Y00709003D02*
D03*
X00238000D02*
D03*
X00235000Y00709003D02*
D03*
X00232000Y00709003D02*
D03*
X00241000Y00709003D02*
D03*
X00244000Y00709003D02*
D03*
X00370998Y00836001D02*
D03*
Y00839000D02*
D03*
Y00842001D02*
D03*
Y00845001D02*
D03*
Y00848000D02*
D03*
Y00851001D02*
D03*
Y00854000D02*
D03*
Y00857000D02*
D03*
Y00860000D02*
D03*
Y00863000D02*
D03*
Y00866000D02*
D03*
Y00869000D02*
D03*
Y00878000D02*
D03*
Y00875000D02*
D03*
Y00872000D02*
D03*
Y00881000D02*
D03*
Y00884000D02*
D03*
X00069002Y00836001D02*
D03*
Y00839000D02*
D03*
Y00848000D02*
D03*
Y00845001D02*
D03*
Y00842001D02*
D03*
Y00851001D02*
D03*
Y00854000D02*
D03*
Y00857000D02*
D03*
Y00860000D02*
D03*
Y00863000D02*
D03*
Y00866000D02*
D03*
Y00869000D02*
D03*
Y00872000D02*
D03*
Y00875000D02*
D03*
Y00878000D02*
D03*
Y00881000D02*
D03*
Y00884000D02*
D03*
X00564000Y01010998D02*
D03*
X00561000D02*
D03*
X00558000Y01010998D02*
D03*
X00555000Y01010998D02*
D03*
X00552000D02*
D03*
X00549000Y01010998D02*
D03*
X00546000Y01010998D02*
D03*
X00543000D02*
D03*
X00540000D02*
D03*
X00537000D02*
D03*
X00534000Y01010998D02*
D03*
X00531000Y01010998D02*
D03*
X00522000D02*
D03*
X00525000Y01010998D02*
D03*
X00528000Y01010998D02*
D03*
X00519000Y01010998D02*
D03*
X00516000Y01010998D02*
D03*
X00516000Y00709003D02*
D03*
X00519000D02*
D03*
X00522000Y00709003D02*
D03*
X00525000Y00709003D02*
D03*
X00528000D02*
D03*
X00531000Y00709003D02*
D03*
X00534000Y00709003D02*
D03*
X00537000D02*
D03*
X00540000D02*
D03*
X00543000D02*
D03*
X00546000Y00709003D02*
D03*
X00549000Y00709003D02*
D03*
X00558000D02*
D03*
X00555000Y00709003D02*
D03*
X00552000Y00709003D02*
D03*
X00561000Y00709003D02*
D03*
X00564000Y00709003D02*
D03*
X00690998Y00836001D02*
D03*
Y00839000D02*
D03*
Y00842001D02*
D03*
Y00845001D02*
D03*
Y00848000D02*
D03*
Y00851001D02*
D03*
Y00854000D02*
D03*
Y00857000D02*
D03*
Y00860000D02*
D03*
Y00863000D02*
D03*
Y00866000D02*
D03*
Y00869000D02*
D03*
Y00878000D02*
D03*
Y00875000D02*
D03*
Y00872000D02*
D03*
Y00881000D02*
D03*
Y00884000D02*
D03*
X00389003Y00836001D02*
D03*
Y00839000D02*
D03*
Y00848000D02*
D03*
Y00845001D02*
D03*
Y00842001D02*
D03*
Y00851001D02*
D03*
Y00854000D02*
D03*
Y00857000D02*
D03*
Y00860000D02*
D03*
Y00863000D02*
D03*
Y00866000D02*
D03*
Y00869000D02*
D03*
Y00872000D02*
D03*
Y00875000D02*
D03*
Y00878000D02*
D03*
Y00881000D02*
D03*
Y00884000D02*
D03*
X00884001Y01010998D02*
D03*
X00881001D02*
D03*
X00878001Y01010998D02*
D03*
X00875001Y01010998D02*
D03*
X00872001D02*
D03*
X00869001Y01010998D02*
D03*
X00866001Y01010998D02*
D03*
X00863001D02*
D03*
X00860001D02*
D03*
X00857001D02*
D03*
X00854001Y01010998D02*
D03*
X00851001Y01010998D02*
D03*
X00842001D02*
D03*
X00845001Y01010998D02*
D03*
X00848001Y01010998D02*
D03*
X00839001Y01010998D02*
D03*
X00836001Y01010998D02*
D03*
X00836001Y00709003D02*
D03*
X00839001D02*
D03*
X00842001Y00709003D02*
D03*
X00845001Y00709003D02*
D03*
X00848001D02*
D03*
X00851001Y00709003D02*
D03*
X00854001Y00709003D02*
D03*
X00857001D02*
D03*
X00860001D02*
D03*
X00863001D02*
D03*
X00866001Y00709003D02*
D03*
X00869001Y00709003D02*
D03*
X00878001D02*
D03*
X00875001Y00709003D02*
D03*
X00872001Y00709003D02*
D03*
X00881001Y00709003D02*
D03*
X00884001Y00709003D02*
D03*
X01010998Y00836001D02*
D03*
Y00839000D02*
D03*
Y00842001D02*
D03*
Y00845001D02*
D03*
Y00848000D02*
D03*
Y00851001D02*
D03*
Y00854000D02*
D03*
Y00857000D02*
D03*
Y00860000D02*
D03*
Y00863000D02*
D03*
Y00866000D02*
D03*
Y00869000D02*
D03*
Y00878000D02*
D03*
Y00875000D02*
D03*
Y00872000D02*
D03*
Y00881000D02*
D03*
Y00884000D02*
D03*
X00709003Y00836001D02*
D03*
Y00839000D02*
D03*
Y00848000D02*
D03*
Y00845001D02*
D03*
Y00842001D02*
D03*
Y00851001D02*
D03*
Y00854000D02*
D03*
Y00857000D02*
D03*
Y00860000D02*
D03*
Y00863000D02*
D03*
Y00866000D02*
D03*
Y00869000D02*
D03*
Y00872000D02*
D03*
Y00875000D02*
D03*
Y00878000D02*
D03*
Y00881000D02*
D03*
Y00884000D02*
D03*
D20*
X00100000Y00100000D02*
D03*
X00340000Y00340000D02*
D03*
X00420000Y00100000D02*
D03*
X00660001Y00340000D02*
D03*
X00740001Y00100000D02*
D03*
X00980001Y00340000D02*
D03*
X00100000Y00420000D02*
D03*
X00340000Y00660001D02*
D03*
X00420000Y00420000D02*
D03*
X00660001Y00660001D02*
D03*
X00740001Y00420000D02*
D03*
X00980001Y00660001D02*
D03*
X00100000Y00740000D02*
D03*
X00340000Y00980001D02*
D03*
X00420000Y00740000D02*
D03*
X00660001Y00980001D02*
D03*
X00740001Y00740000D02*
D03*
X00980001Y00980001D02*
D03*
D21*
X00255000Y00102164D02*
D03*
X00220000D02*
D03*
X00575000D02*
D03*
X00540000D02*
D03*
X00895001D02*
D03*
X00860001D02*
D03*
X00255000Y00422164D02*
D03*
X00220000D02*
D03*
X00575000D02*
D03*
X00540000D02*
D03*
X00895001D02*
D03*
X00860001D02*
D03*
X00255000Y00742164D02*
D03*
X00220000D02*
D03*
X00575000D02*
D03*
X00540000D02*
D03*
X00895001D02*
D03*
X00860001D02*
D03*
D22*
X00185000Y00102164D02*
D03*
X00505000D02*
D03*
X00825001D02*
D03*
X00185000Y00422164D02*
D03*
X00505000D02*
D03*
X00825001D02*
D03*
X00185000Y00742164D02*
D03*
X00505000D02*
D03*
X00825001D02*
D03*
D23*
X00294330Y00259087D02*
D03*
X00203691Y00294339D02*
D03*
X00209714Y00294390D02*
D03*
X00285290Y00270046D02*
D03*
Y00280206D02*
D03*
X00284020Y00250996D02*
D03*
X00285290Y00234486D02*
D03*
X00285343Y00220000D02*
D03*
X00285290Y00204006D02*
D03*
X00111300Y00162096D02*
D03*
Y00149396D02*
D03*
X00075549Y00211903D02*
D03*
X00084979Y00224326D02*
D03*
X00091638Y00224326D02*
D03*
X00078888D02*
D03*
X00085900Y00200196D02*
D03*
X00098600D02*
D03*
X00111300D02*
D03*
Y00174796D02*
D03*
Y00187496D02*
D03*
X00130350Y00184956D02*
D03*
X00220134Y00240431D02*
D03*
X00209090Y00284016D02*
D03*
X00169720Y00172256D02*
D03*
X00173570Y00234526D02*
D03*
X00228140Y00282746D02*
D03*
X00305180Y00289526D02*
D03*
X00228140Y00245916D02*
D03*
X00221215Y00257598D02*
D03*
X00118100Y00256526D02*
D03*
X00173530Y00245916D02*
D03*
X00256970Y00186395D02*
D03*
X00263559Y00174235D02*
D03*
X00228070Y00200266D02*
D03*
X00286040Y00226866D02*
D03*
X00237744Y00259151D02*
D03*
X00220070Y00200266D02*
D03*
X00212070D02*
D03*
X00285290Y00290366D02*
D03*
X00286040Y00211626D02*
D03*
X00285290Y00195116D02*
D03*
X00197660Y00239566D02*
D03*
X00247190Y00290366D02*
D03*
X00160830Y00230676D02*
D03*
X00247735Y00212070D02*
D03*
Y00220070D02*
D03*
Y00228070D02*
D03*
X00263559Y00161235D02*
D03*
Y00167736D02*
D03*
X00614330Y00259087D02*
D03*
X00523692Y00294339D02*
D03*
X00529715Y00294390D02*
D03*
X00605290Y00270046D02*
D03*
Y00280206D02*
D03*
X00604021Y00250996D02*
D03*
X00605290Y00234486D02*
D03*
X00605343Y00220000D02*
D03*
X00605290Y00204006D02*
D03*
X00431301Y00162096D02*
D03*
Y00149396D02*
D03*
X00395550Y00211903D02*
D03*
X00404979Y00224326D02*
D03*
X00411638Y00224326D02*
D03*
X00398888D02*
D03*
X00405900Y00200196D02*
D03*
X00418601D02*
D03*
X00431301D02*
D03*
Y00174796D02*
D03*
Y00187496D02*
D03*
X00450350Y00184956D02*
D03*
X00540134Y00240431D02*
D03*
X00529090Y00284016D02*
D03*
X00489720Y00172256D02*
D03*
X00493571Y00234526D02*
D03*
X00548140Y00282746D02*
D03*
X00625181Y00289526D02*
D03*
X00548140Y00245916D02*
D03*
X00541216Y00257598D02*
D03*
X00438101Y00256526D02*
D03*
X00493531Y00245916D02*
D03*
X00576970Y00186395D02*
D03*
X00583559Y00174235D02*
D03*
X00548070Y00200266D02*
D03*
X00606040Y00226866D02*
D03*
X00557744Y00259151D02*
D03*
X00540070Y00200266D02*
D03*
X00532070D02*
D03*
X00605290Y00290366D02*
D03*
X00606040Y00211626D02*
D03*
X00605290Y00195116D02*
D03*
X00517660Y00239566D02*
D03*
X00567191Y00290366D02*
D03*
X00480830Y00230676D02*
D03*
X00567735Y00212070D02*
D03*
Y00220070D02*
D03*
Y00228070D02*
D03*
X00583559Y00161235D02*
D03*
Y00167736D02*
D03*
X00934331Y00259087D02*
D03*
X00843692Y00294339D02*
D03*
X00849715Y00294390D02*
D03*
X00925291Y00270046D02*
D03*
Y00280206D02*
D03*
X00924021Y00250996D02*
D03*
X00925291Y00234486D02*
D03*
X00925343Y00220000D02*
D03*
X00925291Y00204006D02*
D03*
X00751301Y00162096D02*
D03*
Y00149396D02*
D03*
X00715550Y00211903D02*
D03*
X00724979Y00224326D02*
D03*
X00731638Y00224326D02*
D03*
X00718888D02*
D03*
X00725901Y00200196D02*
D03*
X00738601D02*
D03*
X00751301D02*
D03*
Y00174796D02*
D03*
Y00187496D02*
D03*
X00770351Y00184956D02*
D03*
X00860135Y00240431D02*
D03*
X00849091Y00284016D02*
D03*
X00809721Y00172256D02*
D03*
X00813571Y00234526D02*
D03*
X00868141Y00282746D02*
D03*
X00945181Y00289526D02*
D03*
X00868141Y00245916D02*
D03*
X00861216Y00257598D02*
D03*
X00758101Y00256526D02*
D03*
X00813531Y00245916D02*
D03*
X00896971Y00186395D02*
D03*
X00903559Y00174235D02*
D03*
X00868071Y00200266D02*
D03*
X00926041Y00226866D02*
D03*
X00877744Y00259151D02*
D03*
X00860071Y00200266D02*
D03*
X00852071D02*
D03*
X00925291Y00290366D02*
D03*
X00926041Y00211626D02*
D03*
X00925291Y00195116D02*
D03*
X00837661Y00239566D02*
D03*
X00887191Y00290366D02*
D03*
X00800831Y00230676D02*
D03*
X00887735Y00212070D02*
D03*
Y00220070D02*
D03*
Y00228070D02*
D03*
X00903559Y00161235D02*
D03*
Y00167736D02*
D03*
X00294330Y00579087D02*
D03*
X00203691Y00614339D02*
D03*
X00209714Y00614390D02*
D03*
X00285290Y00590046D02*
D03*
Y00600206D02*
D03*
X00284020Y00570996D02*
D03*
X00285290Y00554486D02*
D03*
X00285343Y00540000D02*
D03*
X00285290Y00524006D02*
D03*
X00111300Y00482096D02*
D03*
Y00469396D02*
D03*
X00075549Y00531903D02*
D03*
X00084979Y00544326D02*
D03*
X00091638Y00544326D02*
D03*
X00078888D02*
D03*
X00085900Y00520196D02*
D03*
X00098600D02*
D03*
X00111300D02*
D03*
Y00494796D02*
D03*
Y00507496D02*
D03*
X00130350Y00504956D02*
D03*
X00220134Y00560431D02*
D03*
X00209090Y00604016D02*
D03*
X00169720Y00492256D02*
D03*
X00173570Y00554526D02*
D03*
X00228140Y00602746D02*
D03*
X00305180Y00609526D02*
D03*
X00228140Y00565916D02*
D03*
X00221215Y00577598D02*
D03*
X00118100Y00576526D02*
D03*
X00173530Y00565916D02*
D03*
X00256970Y00506396D02*
D03*
X00263559Y00494236D02*
D03*
X00228070Y00520266D02*
D03*
X00286040Y00546866D02*
D03*
X00237744Y00579151D02*
D03*
X00220070Y00520266D02*
D03*
X00212070D02*
D03*
X00285290Y00610366D02*
D03*
X00286040Y00531626D02*
D03*
X00285290Y00515116D02*
D03*
X00197660Y00559566D02*
D03*
X00247190Y00610366D02*
D03*
X00160830Y00550676D02*
D03*
X00247735Y00532070D02*
D03*
Y00540070D02*
D03*
Y00548070D02*
D03*
X00263559Y00481236D02*
D03*
Y00487736D02*
D03*
X00614330Y00579087D02*
D03*
X00523692Y00614339D02*
D03*
X00529715Y00614390D02*
D03*
X00605290Y00590046D02*
D03*
Y00600206D02*
D03*
X00604021Y00570996D02*
D03*
X00605290Y00554486D02*
D03*
X00605343Y00540000D02*
D03*
X00605290Y00524006D02*
D03*
X00431301Y00482096D02*
D03*
Y00469396D02*
D03*
X00395550Y00531903D02*
D03*
X00404979Y00544326D02*
D03*
X00411638Y00544326D02*
D03*
X00398888D02*
D03*
X00405900Y00520196D02*
D03*
X00418601D02*
D03*
X00431301D02*
D03*
Y00494796D02*
D03*
Y00507496D02*
D03*
X00450350Y00504956D02*
D03*
X00540134Y00560431D02*
D03*
X00529090Y00604016D02*
D03*
X00489720Y00492256D02*
D03*
X00493571Y00554526D02*
D03*
X00548140Y00602746D02*
D03*
X00625181Y00609526D02*
D03*
X00548140Y00565916D02*
D03*
X00541216Y00577598D02*
D03*
X00438101Y00576526D02*
D03*
X00493531Y00565916D02*
D03*
X00576970Y00506396D02*
D03*
X00583559Y00494236D02*
D03*
X00548070Y00520266D02*
D03*
X00606040Y00546866D02*
D03*
X00557744Y00579151D02*
D03*
X00540070Y00520266D02*
D03*
X00532070D02*
D03*
X00605290Y00610366D02*
D03*
X00606040Y00531626D02*
D03*
X00605290Y00515116D02*
D03*
X00517660Y00559566D02*
D03*
X00567191Y00610366D02*
D03*
X00480830Y00550676D02*
D03*
X00567735Y00532070D02*
D03*
Y00540070D02*
D03*
Y00548070D02*
D03*
X00583559Y00481236D02*
D03*
Y00487736D02*
D03*
X00934331Y00579087D02*
D03*
X00843692Y00614339D02*
D03*
X00849715Y00614390D02*
D03*
X00925291Y00590046D02*
D03*
Y00600206D02*
D03*
X00924021Y00570996D02*
D03*
X00925291Y00554486D02*
D03*
X00925343Y00540000D02*
D03*
X00925291Y00524006D02*
D03*
X00751301Y00482096D02*
D03*
Y00469396D02*
D03*
X00715550Y00531903D02*
D03*
X00724979Y00544326D02*
D03*
X00731638Y00544326D02*
D03*
X00718888D02*
D03*
X00725901Y00520196D02*
D03*
X00738601D02*
D03*
X00751301D02*
D03*
Y00494796D02*
D03*
Y00507496D02*
D03*
X00770351Y00504956D02*
D03*
X00860135Y00560431D02*
D03*
X00849091Y00604016D02*
D03*
X00809721Y00492256D02*
D03*
X00813571Y00554526D02*
D03*
X00868141Y00602746D02*
D03*
X00945181Y00609526D02*
D03*
X00868141Y00565916D02*
D03*
X00861216Y00577598D02*
D03*
X00758101Y00576526D02*
D03*
X00813531Y00565916D02*
D03*
X00896971Y00506396D02*
D03*
X00903559Y00494236D02*
D03*
X00868071Y00520266D02*
D03*
X00926041Y00546866D02*
D03*
X00877744Y00579151D02*
D03*
X00860071Y00520266D02*
D03*
X00852071D02*
D03*
X00925291Y00610366D02*
D03*
X00926041Y00531626D02*
D03*
X00925291Y00515116D02*
D03*
X00837661Y00559566D02*
D03*
X00887191Y00610366D02*
D03*
X00800831Y00550676D02*
D03*
X00887735Y00532070D02*
D03*
Y00540070D02*
D03*
Y00548070D02*
D03*
X00903559Y00481236D02*
D03*
Y00487736D02*
D03*
X00294330Y00899087D02*
D03*
X00203691Y00934339D02*
D03*
X00209714Y00934390D02*
D03*
X00285290Y00910046D02*
D03*
Y00920206D02*
D03*
X00284020Y00890996D02*
D03*
X00285290Y00874486D02*
D03*
X00285343Y00860001D02*
D03*
X00285290Y00844006D02*
D03*
X00111300Y00802096D02*
D03*
Y00789396D02*
D03*
X00075549Y00851903D02*
D03*
X00084979Y00864326D02*
D03*
X00091638Y00864326D02*
D03*
X00078888D02*
D03*
X00085900Y00840196D02*
D03*
X00098600D02*
D03*
X00111300D02*
D03*
Y00814796D02*
D03*
Y00827496D02*
D03*
X00130350Y00824956D02*
D03*
X00220134Y00880431D02*
D03*
X00209090Y00924016D02*
D03*
X00169720Y00812256D02*
D03*
X00173570Y00874526D02*
D03*
X00228140Y00922746D02*
D03*
X00305180Y00929526D02*
D03*
X00228140Y00885916D02*
D03*
X00221215Y00897598D02*
D03*
X00118100Y00896526D02*
D03*
X00173530Y00885916D02*
D03*
X00256970Y00826396D02*
D03*
X00263559Y00814236D02*
D03*
X00228070Y00840266D02*
D03*
X00286040Y00866866D02*
D03*
X00237744Y00899151D02*
D03*
X00220070Y00840266D02*
D03*
X00212070D02*
D03*
X00285290Y00930366D02*
D03*
X00286040Y00851626D02*
D03*
X00285290Y00835116D02*
D03*
X00197660Y00879566D02*
D03*
X00247190Y00930366D02*
D03*
X00160830Y00870676D02*
D03*
X00247735Y00852071D02*
D03*
Y00860071D02*
D03*
Y00868071D02*
D03*
X00263559Y00801236D02*
D03*
Y00807736D02*
D03*
X00614330Y00899087D02*
D03*
X00523692Y00934339D02*
D03*
X00529715Y00934390D02*
D03*
X00605290Y00910046D02*
D03*
Y00920206D02*
D03*
X00604021Y00890996D02*
D03*
X00605290Y00874486D02*
D03*
X00605343Y00860001D02*
D03*
X00605290Y00844006D02*
D03*
X00431301Y00802096D02*
D03*
Y00789396D02*
D03*
X00395550Y00851903D02*
D03*
X00404979Y00864326D02*
D03*
X00411638Y00864326D02*
D03*
X00398888D02*
D03*
X00405900Y00840196D02*
D03*
X00418601D02*
D03*
X00431301D02*
D03*
Y00814796D02*
D03*
Y00827496D02*
D03*
X00450350Y00824956D02*
D03*
X00540134Y00880431D02*
D03*
X00529090Y00924016D02*
D03*
X00489720Y00812256D02*
D03*
X00493571Y00874526D02*
D03*
X00548140Y00922746D02*
D03*
X00625181Y00929526D02*
D03*
X00548140Y00885916D02*
D03*
X00541216Y00897598D02*
D03*
X00438101Y00896526D02*
D03*
X00493531Y00885916D02*
D03*
X00576970Y00826396D02*
D03*
X00583559Y00814236D02*
D03*
X00548070Y00840266D02*
D03*
X00606040Y00866866D02*
D03*
X00557744Y00899151D02*
D03*
X00540070Y00840266D02*
D03*
X00532070D02*
D03*
X00605290Y00930366D02*
D03*
X00606040Y00851626D02*
D03*
X00605290Y00835116D02*
D03*
X00517660Y00879566D02*
D03*
X00567191Y00930366D02*
D03*
X00480830Y00870676D02*
D03*
X00567735Y00852071D02*
D03*
Y00860071D02*
D03*
Y00868071D02*
D03*
X00583559Y00801236D02*
D03*
Y00807736D02*
D03*
X00934331Y00899087D02*
D03*
X00843692Y00934339D02*
D03*
X00849715Y00934390D02*
D03*
X00925291Y00910046D02*
D03*
Y00920206D02*
D03*
X00924021Y00890996D02*
D03*
X00925291Y00874486D02*
D03*
X00925343Y00860001D02*
D03*
X00925291Y00844006D02*
D03*
X00751301Y00802096D02*
D03*
Y00789396D02*
D03*
X00715550Y00851903D02*
D03*
X00724979Y00864326D02*
D03*
X00731638Y00864326D02*
D03*
X00718888D02*
D03*
X00725901Y00840196D02*
D03*
X00738601D02*
D03*
X00751301D02*
D03*
Y00814796D02*
D03*
Y00827496D02*
D03*
X00770351Y00824956D02*
D03*
X00860135Y00880431D02*
D03*
X00849091Y00924016D02*
D03*
X00809721Y00812256D02*
D03*
X00813571Y00874526D02*
D03*
X00868141Y00922746D02*
D03*
X00945181Y00929526D02*
D03*
X00868141Y00885916D02*
D03*
X00861216Y00897598D02*
D03*
X00758101Y00896526D02*
D03*
X00813531Y00885916D02*
D03*
X00896971Y00826396D02*
D03*
X00903559Y00814236D02*
D03*
X00868071Y00840266D02*
D03*
X00926041Y00866866D02*
D03*
X00877744Y00899151D02*
D03*
X00860071Y00840266D02*
D03*
X00852071D02*
D03*
X00925291Y00930366D02*
D03*
X00926041Y00851626D02*
D03*
X00925291Y00835116D02*
D03*
X00837661Y00879566D02*
D03*
X00887191Y00930366D02*
D03*
X00800831Y00870676D02*
D03*
X00887735Y00852071D02*
D03*
Y00860071D02*
D03*
Y00868071D02*
D03*
X00903559Y00801236D02*
D03*
Y00807736D02*
D03*
M02*
