G04*
G04 #@! TF.GenerationSoftware,Altium Limited,Altium Designer,23.5.1 (21)*
G04*
G04 Layer_Color=65535*
%FSAX44Y44*%
%MOMM*%
G71*
G04*
G04 #@! TF.SameCoordinates,899CF12F-B0FD-4176-B9D3-CD2A61966E73*
G04*
G04*
G04 #@! TF.FilePolarity,Positive*
G04*
G01*
G75*
%ADD37C,0.2500*%
%ADD38C,0.2000*%
%ADD39C,0.1000*%
D37*
X00192500Y00275500D02*
G03*
X00192500Y00275500I-00001250J00000000D01*
G01*
X00238000Y00200500D02*
G03*
X00238000Y00200500I-00001250J00000000D01*
G01*
X00512500Y00275500D02*
G03*
X00512500Y00275500I-00001250J00000000D01*
G01*
X00558000Y00200500D02*
G03*
X00558000Y00200500I-00001250J00000000D01*
G01*
X00832501Y00275500D02*
G03*
X00832501Y00275500I-00001250J00000000D01*
G01*
X00878001Y00200500D02*
G03*
X00878001Y00200500I-00001250J00000000D01*
G01*
X00192500Y00595500D02*
G03*
X00192500Y00595500I-00001250J00000000D01*
G01*
X00238000Y00520500D02*
G03*
X00238000Y00520500I-00001250J00000000D01*
G01*
X00512500Y00595500D02*
G03*
X00512500Y00595500I-00001250J00000000D01*
G01*
X00558000Y00520500D02*
G03*
X00558000Y00520500I-00001250J00000000D01*
G01*
X00832501Y00595500D02*
G03*
X00832501Y00595500I-00001250J00000000D01*
G01*
X00878001Y00520500D02*
G03*
X00878001Y00520500I-00001250J00000000D01*
G01*
X00192500Y00915500D02*
G03*
X00192500Y00915500I-00001250J00000000D01*
G01*
X00238000Y00840500D02*
G03*
X00238000Y00840500I-00001250J00000000D01*
G01*
X00512500Y00915500D02*
G03*
X00512500Y00915500I-00001250J00000000D01*
G01*
X00558000Y00840500D02*
G03*
X00558000Y00840500I-00001250J00000000D01*
G01*
X00832501Y00915500D02*
G03*
X00832501Y00915500I-00001250J00000000D01*
G01*
X00878001Y00840500D02*
G03*
X00878001Y00840500I-00001250J00000000D01*
G01*
D38*
X00240000Y00279000D02*
Y00280000D01*
Y00260000D02*
Y00261000D01*
X00211720Y00280000D02*
X00240000D01*
X00211720Y00260000D02*
X00240000D01*
X00242225Y00161110D02*
Y00178890D01*
X00196000Y00234500D02*
X00244000D01*
Y00205500D02*
Y00234500D01*
X00196000Y00205500D02*
X00244000D01*
X00196000D02*
Y00234500D01*
X00560000Y00279000D02*
Y00280000D01*
Y00260000D02*
Y00261000D01*
X00531720Y00280000D02*
X00560000D01*
X00531720Y00260000D02*
X00560000D01*
X00562225Y00161110D02*
Y00178890D01*
X00516000Y00234500D02*
X00564000D01*
Y00205500D02*
Y00234500D01*
X00516000Y00205500D02*
X00564000D01*
X00516000D02*
Y00234500D01*
X00880001Y00279000D02*
Y00280000D01*
Y00260000D02*
Y00261000D01*
X00851721Y00280000D02*
X00880001D01*
X00851721Y00260000D02*
X00880001D01*
X00882226Y00161110D02*
Y00178890D01*
X00836001Y00234500D02*
X00884001D01*
Y00205500D02*
Y00234500D01*
X00836001Y00205500D02*
X00884001D01*
X00836001D02*
Y00234500D01*
X00240000Y00599000D02*
Y00600000D01*
Y00580000D02*
Y00581000D01*
X00211720Y00600000D02*
X00240000D01*
X00211720Y00580000D02*
X00240000D01*
X00242225Y00481110D02*
Y00498890D01*
X00196000Y00554500D02*
X00244000D01*
Y00525500D02*
Y00554500D01*
X00196000Y00525500D02*
X00244000D01*
X00196000D02*
Y00554500D01*
X00560000Y00599000D02*
Y00600000D01*
Y00580000D02*
Y00581000D01*
X00531720Y00600000D02*
X00560000D01*
X00531720Y00580000D02*
X00560000D01*
X00562225Y00481110D02*
Y00498890D01*
X00516000Y00554500D02*
X00564000D01*
Y00525500D02*
Y00554500D01*
X00516000Y00525500D02*
X00564000D01*
X00516000D02*
Y00554500D01*
X00880001Y00599000D02*
Y00600000D01*
Y00580000D02*
Y00581000D01*
X00851721Y00600000D02*
X00880001D01*
X00851721Y00580000D02*
X00880001D01*
X00882226Y00481110D02*
Y00498890D01*
X00836001Y00554500D02*
X00884001D01*
Y00525500D02*
Y00554500D01*
X00836001Y00525500D02*
X00884001D01*
X00836001D02*
Y00554500D01*
X00240000Y00919000D02*
Y00920001D01*
Y00900001D02*
Y00901001D01*
X00211720Y00920001D02*
X00240000D01*
X00211720Y00900001D02*
X00240000D01*
X00242225Y00801110D02*
Y00818890D01*
X00196000Y00874501D02*
X00244000D01*
Y00845500D02*
Y00874501D01*
X00196000Y00845500D02*
X00244000D01*
X00196000D02*
Y00874501D01*
X00560000Y00919000D02*
Y00920001D01*
Y00900001D02*
Y00901001D01*
X00531720Y00920001D02*
X00560000D01*
X00531720Y00900001D02*
X00560000D01*
X00562225Y00801110D02*
Y00818890D01*
X00516000Y00874501D02*
X00564000D01*
Y00845500D02*
Y00874501D01*
X00516000Y00845500D02*
X00564000D01*
X00516000D02*
Y00874501D01*
X00880001Y00919000D02*
Y00920001D01*
Y00900001D02*
Y00901001D01*
X00851721Y00920001D02*
X00880001D01*
X00851721Y00900001D02*
X00880001D01*
X00882226Y00801110D02*
Y00818890D01*
X00836001Y00874501D02*
X00884001D01*
Y00845500D02*
Y00874501D01*
X00836001Y00845500D02*
X00884001D01*
X00836001D02*
Y00874501D01*
D39*
X00228255Y00161110D02*
Y00178890D01*
X00211745Y00161110D02*
Y00178890D01*
X00228255D01*
X00211745Y00161110D02*
X00228255D01*
X00548255D02*
Y00178890D01*
X00531745Y00161110D02*
Y00178890D01*
X00548255D01*
X00531745Y00161110D02*
X00548255D01*
X00868256D02*
Y00178890D01*
X00851746Y00161110D02*
Y00178890D01*
X00868256D01*
X00851746Y00161110D02*
X00868256D01*
X00228255Y00481110D02*
Y00498890D01*
X00211745Y00481110D02*
Y00498890D01*
X00228255D01*
X00211745Y00481110D02*
X00228255D01*
X00548255D02*
Y00498890D01*
X00531745Y00481110D02*
Y00498890D01*
X00548255D01*
X00531745Y00481110D02*
X00548255D01*
X00868256D02*
Y00498890D01*
X00851746Y00481110D02*
Y00498890D01*
X00868256D01*
X00851746Y00481110D02*
X00868256D01*
X00228255Y00801110D02*
Y00818890D01*
X00211745Y00801110D02*
Y00818890D01*
X00228255D01*
X00211745Y00801110D02*
X00228255D01*
X00548255D02*
Y00818890D01*
X00531745Y00801110D02*
Y00818890D01*
X00548255D01*
X00531745Y00801110D02*
X00548255D01*
X00868256D02*
Y00818890D01*
X00851746Y00801110D02*
Y00818890D01*
X00868256D01*
X00851746Y00801110D02*
X00868256D01*
M02*
