G04*
G04 #@! TF.GenerationSoftware,Altium Limited,Altium Designer,23.5.1 (21)*
G04*
G04 Layer_Color=16711935*
%FSAX44Y44*%
%MOMM*%
G71*
G04*
G04 #@! TF.SameCoordinates,899CF12F-B0FD-4176-B9D3-CD2A61966E73*
G04*
G04*
G04 #@! TF.FilePolarity,Positive*
G04*
G01*
G75*
%ADD39C,0.1000*%
D39*
X00000000Y00000000D02*
X01080000D01*
X01080000Y01080000D02*
X01080000Y00000000D01*
X-00000000Y01080000D02*
X00000000Y00000000D01*
X00000000Y01080000D02*
X01080000D01*
X00355516Y00070000D02*
G03*
X00370000Y00084485I00000000J00014485D01*
G01*
X00070000D02*
G03*
X00084485Y00070000I00014485J00000000D01*
G01*
X00084485Y00370000D02*
G03*
X00070000Y00355516I00000000J-00014485D01*
G01*
X00370000D02*
G03*
X00355516Y00370000I-00014485J00000000D01*
G01*
X00370000Y00084485D02*
Y00355515D01*
X00084485Y00070000D02*
X00355515D01*
X00070000Y00084485D02*
Y00355516D01*
X00084485Y00370000D02*
X00355516D01*
X00675516Y00070000D02*
G03*
X00690001Y00084485I00000000J00014485D01*
G01*
X00390000D02*
G03*
X00404485Y00070000I00014485J00000000D01*
G01*
X00404485Y00370000D02*
G03*
X00390000Y00355516I00000000J-00014485D01*
G01*
X00690001D02*
G03*
X00675516Y00370000I-00014485J00000000D01*
G01*
X00690001Y00084485D02*
Y00355515D01*
X00404485Y00070000D02*
X00675516D01*
X00390000Y00084485D02*
Y00355516D01*
X00404485Y00370000D02*
X00675516D01*
X00995516Y00070000D02*
G03*
X01010001Y00084485I00000000J00014485D01*
G01*
X00710001D02*
G03*
X00724485Y00070000I00014485J00000000D01*
G01*
X00724485Y00370000D02*
G03*
X00710001Y00355516I00000000J-00014485D01*
G01*
X01010001D02*
G03*
X00995516Y00370000I-00014485J00000000D01*
G01*
X01010001Y00084485D02*
Y00355515D01*
X00724485Y00070000D02*
X00995516D01*
X00710001Y00084485D02*
Y00355516D01*
X00724485Y00370000D02*
X00995516D01*
X00355516Y00390000D02*
G03*
X00370000Y00404485I00000000J00014485D01*
G01*
X00070000D02*
G03*
X00084485Y00390000I00014485J00000000D01*
G01*
X00084485Y00690000D02*
G03*
X00070000Y00675516I00000000J-00014485D01*
G01*
X00370000D02*
G03*
X00355516Y00690000I-00014485J00000000D01*
G01*
X00370000Y00404485D02*
Y00675516D01*
X00084485Y00390000D02*
X00355515D01*
X00070000Y00404485D02*
Y00675516D01*
X00084485Y00690000D02*
X00355516D01*
X00675516Y00390000D02*
G03*
X00690001Y00404485I00000000J00014485D01*
G01*
X00390000D02*
G03*
X00404485Y00390000I00014485J00000000D01*
G01*
X00404485Y00690000D02*
G03*
X00390000Y00675516I00000000J-00014485D01*
G01*
X00690001D02*
G03*
X00675516Y00690000I-00014485J00000000D01*
G01*
X00690001Y00404485D02*
Y00675516D01*
X00404485Y00390000D02*
X00675516D01*
X00390000Y00404485D02*
Y00675516D01*
X00404485Y00690000D02*
X00675516D01*
X00995516Y00390000D02*
G03*
X01010001Y00404485I00000000J00014485D01*
G01*
X00710001D02*
G03*
X00724485Y00390000I00014485J00000000D01*
G01*
X00724485Y00690000D02*
G03*
X00710001Y00675516I00000000J-00014485D01*
G01*
X01010001D02*
G03*
X00995516Y00690000I-00014485J00000000D01*
G01*
X01010001Y00404485D02*
Y00675516D01*
X00724485Y00390000D02*
X00995516D01*
X00710001Y00404485D02*
Y00675516D01*
X00724485Y00690000D02*
X00995516D01*
X00355516Y00710000D02*
G03*
X00370000Y00724485I00000000J00014485D01*
G01*
X00070000D02*
G03*
X00084485Y00710000I00014485J00000000D01*
G01*
X00084485Y01010001D02*
G03*
X00070000Y00995516I00000000J-00014485D01*
G01*
X00370000D02*
G03*
X00355516Y01010001I-00014485J00000000D01*
G01*
X00370000Y00724485D02*
Y00995516D01*
X00084485Y00710000D02*
X00355515D01*
X00070000Y00724485D02*
Y00995516D01*
X00084485Y01010001D02*
X00355516D01*
X00675516Y00710000D02*
G03*
X00690001Y00724485I00000000J00014485D01*
G01*
X00390000D02*
G03*
X00404485Y00710000I00014485J00000000D01*
G01*
X00404485Y01010001D02*
G03*
X00390000Y00995516I00000000J-00014485D01*
G01*
X00690001D02*
G03*
X00675516Y01010001I-00014485J00000000D01*
G01*
X00690001Y00724485D02*
Y00995516D01*
X00404485Y00710000D02*
X00675516D01*
X00390000Y00724485D02*
Y00995516D01*
X00404485Y01010001D02*
X00675516D01*
X00995516Y00710000D02*
G03*
X01010001Y00724485I00000000J00014485D01*
G01*
X00710001D02*
G03*
X00724485Y00710000I00014485J00000000D01*
G01*
X00724485Y01010001D02*
G03*
X00710001Y00995516I00000000J-00014485D01*
G01*
X01010001D02*
G03*
X00995516Y01010001I-00014485J00000000D01*
G01*
X01010001Y00724485D02*
Y00995516D01*
X00724485Y00710000D02*
X00995516D01*
X00710001Y00724485D02*
Y00995516D01*
X00724485Y01010001D02*
X00995516D01*
M02*
