G04*
G04 #@! TF.GenerationSoftware,Altium Limited,Altium Designer,23.5.1 (21)*
G04*
G04 Layer_Color=128*
%FSAX44Y44*%
%MOMM*%
G71*
G04*
G04 #@! TF.SameCoordinates,899CF12F-B0FD-4176-B9D3-CD2A61966E73*
G04*
G04*
G04 #@! TF.FilePolarity,Positive*
G04*
G01*
G75*
%ADD10P,2.8284X4X270.0*%
%ADD11C,2.0000*%
%ADD13R,1.1000X0.8000*%
G04:AMPARAMS|DCode=24|XSize=0.5561mm|YSize=0.2925mm|CornerRadius=0.1462mm|HoleSize=0mm|Usage=FLASHONLY|Rotation=180.000|XOffset=0mm|YOffset=0mm|HoleType=Round|Shape=RoundedRectangle|*
%AMROUNDEDRECTD24*
21,1,0.5561,0.0000,0,0,180.0*
21,1,0.2636,0.2925,0,0,180.0*
1,1,0.2925,-0.1318,0.0000*
1,1,0.2925,0.1318,0.0000*
1,1,0.2925,0.1318,0.0000*
1,1,0.2925,-0.1318,0.0000*
%
%ADD24ROUNDEDRECTD24*%
%ADD25R,0.5561X0.2925*%
%ADD27R,0.6500X1.1000*%
%ADD28R,0.8000X0.9650*%
%ADD29R,1.1430X1.2700*%
%ADD30R,0.8000X1.1000*%
%ADD31R,0.8000X1.0000*%
%ADD32R,1.5000X0.7000*%
%ADD33R,3.0000X1.5000*%
%ADD34O,3.0000X1.5000*%
%ADD57R,0.6154X1.2154*%
D10*
X01060000Y01060000D02*
D03*
D11*
X01060001Y00020000D02*
D03*
D13*
X00220000Y00155698D02*
D03*
Y00171698D02*
D03*
X00540000Y00155698D02*
D03*
Y00171698D02*
D03*
X00860001Y00155698D02*
D03*
Y00171698D02*
D03*
X00220000Y00475698D02*
D03*
Y00491698D02*
D03*
X00540000Y00475698D02*
D03*
Y00491698D02*
D03*
X00860001Y00475698D02*
D03*
Y00491698D02*
D03*
X00220000Y00795698D02*
D03*
Y00811698D02*
D03*
X00540000Y00795698D02*
D03*
Y00811698D02*
D03*
X00860001Y00795698D02*
D03*
Y00811698D02*
D03*
D24*
X00235718Y00174235D02*
D03*
Y00167736D02*
D03*
Y00161235D02*
D03*
X00255278D02*
D03*
Y00167736D02*
D03*
X00555718Y00174235D02*
D03*
Y00167736D02*
D03*
Y00161235D02*
D03*
X00575279D02*
D03*
Y00167736D02*
D03*
X00875718Y00174235D02*
D03*
Y00167736D02*
D03*
Y00161235D02*
D03*
X00895279D02*
D03*
Y00167736D02*
D03*
X00235718Y00494236D02*
D03*
Y00487736D02*
D03*
Y00481236D02*
D03*
X00255278D02*
D03*
Y00487736D02*
D03*
X00555718Y00494236D02*
D03*
Y00487736D02*
D03*
Y00481236D02*
D03*
X00575279D02*
D03*
Y00487736D02*
D03*
X00875718Y00494236D02*
D03*
Y00487736D02*
D03*
Y00481236D02*
D03*
X00895279D02*
D03*
Y00487736D02*
D03*
X00235718Y00814236D02*
D03*
Y00807736D02*
D03*
Y00801236D02*
D03*
X00255278D02*
D03*
Y00807736D02*
D03*
X00555718Y00814236D02*
D03*
Y00807736D02*
D03*
Y00801236D02*
D03*
X00575279D02*
D03*
Y00807736D02*
D03*
X00875718Y00814236D02*
D03*
Y00807736D02*
D03*
Y00801236D02*
D03*
X00895279D02*
D03*
Y00807736D02*
D03*
D25*
X00255278Y00174235D02*
D03*
X00575279D02*
D03*
X00895279D02*
D03*
X00255278Y00494236D02*
D03*
X00575279D02*
D03*
X00895279D02*
D03*
X00255278Y00814236D02*
D03*
X00575279D02*
D03*
X00895279D02*
D03*
D27*
X00146810Y00172676D02*
D03*
X00137310Y00172675D02*
D03*
X00127810Y00172676D02*
D03*
Y00196675D02*
D03*
X00146810Y00196676D02*
D03*
X00466810Y00172676D02*
D03*
X00457310Y00172675D02*
D03*
X00447811Y00172676D02*
D03*
Y00196675D02*
D03*
X00466810Y00196676D02*
D03*
X00786811Y00172676D02*
D03*
X00777311Y00172675D02*
D03*
X00767811Y00172676D02*
D03*
Y00196675D02*
D03*
X00786811Y00196676D02*
D03*
X00146810Y00492676D02*
D03*
X00137310Y00492676D02*
D03*
X00127810Y00492676D02*
D03*
Y00516676D02*
D03*
X00146810Y00516676D02*
D03*
X00466810Y00492676D02*
D03*
X00457310Y00492676D02*
D03*
X00447811Y00492676D02*
D03*
Y00516676D02*
D03*
X00466810Y00516676D02*
D03*
X00786811Y00492676D02*
D03*
X00777311Y00492676D02*
D03*
X00767811Y00492676D02*
D03*
Y00516676D02*
D03*
X00786811Y00516676D02*
D03*
X00146810Y00812676D02*
D03*
X00137310Y00812676D02*
D03*
X00127810Y00812676D02*
D03*
Y00836676D02*
D03*
X00146810Y00836676D02*
D03*
X00466810Y00812676D02*
D03*
X00457310Y00812676D02*
D03*
X00447811Y00812676D02*
D03*
Y00836676D02*
D03*
X00466810Y00836676D02*
D03*
X00786811Y00812676D02*
D03*
X00777311Y00812676D02*
D03*
X00767811Y00812676D02*
D03*
Y00836676D02*
D03*
X00786811Y00836676D02*
D03*
D28*
X00146060Y00210776D02*
D03*
X00128560Y00210776D02*
D03*
X00238154Y00290366D02*
D03*
X00220654D02*
D03*
X00256220Y00211626D02*
D03*
X00273720D02*
D03*
X00082888Y00211625D02*
D03*
X00100388D02*
D03*
X00273720Y00226866D02*
D03*
X00256220D02*
D03*
X00466060Y00210776D02*
D03*
X00448560Y00210776D02*
D03*
X00558154Y00290366D02*
D03*
X00540654D02*
D03*
X00576221Y00211626D02*
D03*
X00593721D02*
D03*
X00402888Y00211625D02*
D03*
X00420388D02*
D03*
X00593721Y00226866D02*
D03*
X00576221D02*
D03*
X00786061Y00210776D02*
D03*
X00768561Y00210776D02*
D03*
X00878155Y00290366D02*
D03*
X00860655D02*
D03*
X00896221Y00211626D02*
D03*
X00913721D02*
D03*
X00722888Y00211625D02*
D03*
X00740388D02*
D03*
X00913721Y00226866D02*
D03*
X00896221D02*
D03*
X00146060Y00530776D02*
D03*
X00128560Y00530776D02*
D03*
X00238154Y00610366D02*
D03*
X00220654D02*
D03*
X00256220Y00531626D02*
D03*
X00273720D02*
D03*
X00082888Y00531626D02*
D03*
X00100388D02*
D03*
X00273720Y00546866D02*
D03*
X00256220D02*
D03*
X00466060Y00530776D02*
D03*
X00448560Y00530776D02*
D03*
X00558154Y00610366D02*
D03*
X00540654D02*
D03*
X00576221Y00531626D02*
D03*
X00593721D02*
D03*
X00402888Y00531626D02*
D03*
X00420388D02*
D03*
X00593721Y00546866D02*
D03*
X00576221D02*
D03*
X00786061Y00530776D02*
D03*
X00768561Y00530776D02*
D03*
X00878155Y00610366D02*
D03*
X00860655D02*
D03*
X00896221Y00531626D02*
D03*
X00913721D02*
D03*
X00722888Y00531626D02*
D03*
X00740388D02*
D03*
X00913721Y00546866D02*
D03*
X00896221D02*
D03*
X00146060Y00850776D02*
D03*
X00128560Y00850776D02*
D03*
X00238154Y00930366D02*
D03*
X00220654D02*
D03*
X00256220Y00851626D02*
D03*
X00273720D02*
D03*
X00082888Y00851626D02*
D03*
X00100388D02*
D03*
X00273720Y00866866D02*
D03*
X00256220D02*
D03*
X00466060Y00850776D02*
D03*
X00448560Y00850776D02*
D03*
X00558154Y00930366D02*
D03*
X00540654D02*
D03*
X00576221Y00851626D02*
D03*
X00593721D02*
D03*
X00402888Y00851626D02*
D03*
X00420388D02*
D03*
X00593721Y00866866D02*
D03*
X00576221D02*
D03*
X00786061Y00850776D02*
D03*
X00768561Y00850776D02*
D03*
X00878155Y00930366D02*
D03*
X00860655D02*
D03*
X00896221Y00851626D02*
D03*
X00913721D02*
D03*
X00722888Y00851626D02*
D03*
X00740388D02*
D03*
X00913721Y00866866D02*
D03*
X00896221D02*
D03*
D29*
X00146231Y00156080D02*
D03*
X00126231D02*
D03*
X00466232D02*
D03*
X00446232D02*
D03*
X00786232D02*
D03*
X00766232D02*
D03*
X00146231Y00476080D02*
D03*
X00126231D02*
D03*
X00466232D02*
D03*
X00446232D02*
D03*
X00786232D02*
D03*
X00766232D02*
D03*
X00146231Y00796080D02*
D03*
X00126231D02*
D03*
X00466232D02*
D03*
X00446232D02*
D03*
X00786232D02*
D03*
X00766232D02*
D03*
D30*
X00272970Y00290366D02*
D03*
X00256970D02*
D03*
X00221410Y00273856D02*
D03*
X00237410D02*
D03*
X00272970D02*
D03*
X00256970D02*
D03*
X00272970Y00242106D02*
D03*
X00256970D02*
D03*
X00272970Y00258616D02*
D03*
X00256970D02*
D03*
X00272970Y00195116D02*
D03*
X00256970D02*
D03*
X00592971Y00290366D02*
D03*
X00576970D02*
D03*
X00541410Y00273856D02*
D03*
X00557411D02*
D03*
X00592971D02*
D03*
X00576970D02*
D03*
X00592971Y00242106D02*
D03*
X00576970D02*
D03*
X00592971Y00258616D02*
D03*
X00576970D02*
D03*
X00592971Y00195116D02*
D03*
X00576970D02*
D03*
X00912971Y00290366D02*
D03*
X00896971D02*
D03*
X00861411Y00273856D02*
D03*
X00877411D02*
D03*
X00912971D02*
D03*
X00896971D02*
D03*
X00912971Y00242106D02*
D03*
X00896971D02*
D03*
X00912971Y00258616D02*
D03*
X00896971D02*
D03*
X00912971Y00195116D02*
D03*
X00896971D02*
D03*
X00272970Y00610366D02*
D03*
X00256970D02*
D03*
X00221410Y00593856D02*
D03*
X00237410D02*
D03*
X00272970D02*
D03*
X00256970D02*
D03*
X00272970Y00562106D02*
D03*
X00256970D02*
D03*
X00272970Y00578616D02*
D03*
X00256970D02*
D03*
X00272970Y00515116D02*
D03*
X00256970D02*
D03*
X00592971Y00610366D02*
D03*
X00576970D02*
D03*
X00541410Y00593856D02*
D03*
X00557411D02*
D03*
X00592971D02*
D03*
X00576970D02*
D03*
X00592971Y00562106D02*
D03*
X00576970D02*
D03*
X00592971Y00578616D02*
D03*
X00576970D02*
D03*
X00592971Y00515116D02*
D03*
X00576970D02*
D03*
X00912971Y00610366D02*
D03*
X00896971D02*
D03*
X00861411Y00593856D02*
D03*
X00877411D02*
D03*
X00912971D02*
D03*
X00896971D02*
D03*
X00912971Y00562106D02*
D03*
X00896971D02*
D03*
X00912971Y00578616D02*
D03*
X00896971D02*
D03*
X00912971Y00515116D02*
D03*
X00896971D02*
D03*
X00272970Y00930366D02*
D03*
X00256970D02*
D03*
X00221410Y00913856D02*
D03*
X00237410D02*
D03*
X00272970D02*
D03*
X00256970D02*
D03*
X00272970Y00882106D02*
D03*
X00256970D02*
D03*
X00272970Y00898616D02*
D03*
X00256970D02*
D03*
X00272970Y00835116D02*
D03*
X00256970D02*
D03*
X00592971Y00930366D02*
D03*
X00576970D02*
D03*
X00541410Y00913856D02*
D03*
X00557411D02*
D03*
X00592971D02*
D03*
X00576970D02*
D03*
X00592971Y00882106D02*
D03*
X00576970D02*
D03*
X00592971Y00898616D02*
D03*
X00576970D02*
D03*
X00592971Y00835116D02*
D03*
X00576970D02*
D03*
X00912971Y00930366D02*
D03*
X00896971D02*
D03*
X00861411Y00913856D02*
D03*
X00877411D02*
D03*
X00912971D02*
D03*
X00896971D02*
D03*
X00912971Y00882106D02*
D03*
X00896971D02*
D03*
X00912971Y00898616D02*
D03*
X00896971D02*
D03*
X00912971Y00835116D02*
D03*
X00896971D02*
D03*
D31*
X00145590Y00103456D02*
D03*
Y00139456D02*
D03*
X00465591Y00103456D02*
D03*
Y00139456D02*
D03*
X00785591Y00103456D02*
D03*
Y00139456D02*
D03*
X00145590Y00423456D02*
D03*
Y00459456D02*
D03*
X00465591Y00423456D02*
D03*
Y00459456D02*
D03*
X00785591Y00423456D02*
D03*
Y00459456D02*
D03*
X00145590Y00743456D02*
D03*
Y00779456D02*
D03*
X00465591Y00743456D02*
D03*
Y00779456D02*
D03*
X00785591Y00743456D02*
D03*
Y00779456D02*
D03*
D32*
X00186230Y00300526D02*
D03*
Y00289526D02*
D03*
Y00278526D02*
D03*
Y00267526D02*
D03*
Y00256526D02*
D03*
Y00245526D02*
D03*
Y00234526D02*
D03*
X00084230D02*
D03*
Y00245526D02*
D03*
Y00256526D02*
D03*
Y00267526D02*
D03*
Y00278526D02*
D03*
Y00289526D02*
D03*
Y00300526D02*
D03*
X00506230D02*
D03*
Y00289526D02*
D03*
Y00278526D02*
D03*
Y00267526D02*
D03*
Y00256526D02*
D03*
Y00245526D02*
D03*
Y00234526D02*
D03*
X00404230D02*
D03*
Y00245526D02*
D03*
Y00256526D02*
D03*
Y00267526D02*
D03*
Y00278526D02*
D03*
Y00289526D02*
D03*
Y00300526D02*
D03*
X00826231D02*
D03*
Y00289526D02*
D03*
Y00278526D02*
D03*
Y00267526D02*
D03*
Y00256526D02*
D03*
Y00245526D02*
D03*
Y00234526D02*
D03*
X00724231D02*
D03*
Y00245526D02*
D03*
Y00256526D02*
D03*
Y00267526D02*
D03*
Y00278526D02*
D03*
Y00289526D02*
D03*
Y00300526D02*
D03*
X00186230Y00620526D02*
D03*
Y00609526D02*
D03*
Y00598526D02*
D03*
Y00587526D02*
D03*
Y00576526D02*
D03*
Y00565526D02*
D03*
Y00554526D02*
D03*
X00084230D02*
D03*
Y00565526D02*
D03*
Y00576526D02*
D03*
Y00587526D02*
D03*
Y00598526D02*
D03*
Y00609526D02*
D03*
Y00620526D02*
D03*
X00506230D02*
D03*
Y00609526D02*
D03*
Y00598526D02*
D03*
Y00587526D02*
D03*
Y00576526D02*
D03*
Y00565526D02*
D03*
Y00554526D02*
D03*
X00404230D02*
D03*
Y00565526D02*
D03*
Y00576526D02*
D03*
Y00587526D02*
D03*
Y00598526D02*
D03*
Y00609526D02*
D03*
Y00620526D02*
D03*
X00826231D02*
D03*
Y00609526D02*
D03*
Y00598526D02*
D03*
Y00587526D02*
D03*
Y00576526D02*
D03*
Y00565526D02*
D03*
Y00554526D02*
D03*
X00724231D02*
D03*
Y00565526D02*
D03*
Y00576526D02*
D03*
Y00587526D02*
D03*
Y00598526D02*
D03*
Y00609526D02*
D03*
Y00620526D02*
D03*
X00186230Y00940526D02*
D03*
Y00929526D02*
D03*
Y00918526D02*
D03*
Y00907526D02*
D03*
Y00896526D02*
D03*
Y00885526D02*
D03*
Y00874526D02*
D03*
X00084230D02*
D03*
Y00885526D02*
D03*
Y00896526D02*
D03*
Y00907526D02*
D03*
Y00918526D02*
D03*
Y00929526D02*
D03*
Y00940526D02*
D03*
X00506230D02*
D03*
Y00929526D02*
D03*
Y00918526D02*
D03*
Y00907526D02*
D03*
Y00896526D02*
D03*
Y00885526D02*
D03*
Y00874526D02*
D03*
X00404230D02*
D03*
Y00885526D02*
D03*
Y00896526D02*
D03*
Y00907526D02*
D03*
Y00918526D02*
D03*
Y00929526D02*
D03*
Y00940526D02*
D03*
X00826231D02*
D03*
Y00929526D02*
D03*
Y00918526D02*
D03*
Y00907526D02*
D03*
Y00896526D02*
D03*
Y00885526D02*
D03*
Y00874526D02*
D03*
X00724231D02*
D03*
Y00885526D02*
D03*
Y00896526D02*
D03*
Y00907526D02*
D03*
Y00918526D02*
D03*
Y00929526D02*
D03*
Y00940526D02*
D03*
D33*
X00311960Y00090976D02*
D03*
X00631960D02*
D03*
X00951961D02*
D03*
X00311960Y00410976D02*
D03*
X00631960D02*
D03*
X00951961D02*
D03*
X00311960Y00730976D02*
D03*
X00631960D02*
D03*
X00951961D02*
D03*
D34*
X00311960Y00116376D02*
D03*
Y00141776D02*
D03*
Y00167176D02*
D03*
X00631960Y00116376D02*
D03*
Y00141776D02*
D03*
Y00167176D02*
D03*
X00951961Y00116376D02*
D03*
Y00141776D02*
D03*
Y00167176D02*
D03*
X00311960Y00436376D02*
D03*
Y00461776D02*
D03*
Y00487176D02*
D03*
X00631960Y00436376D02*
D03*
Y00461776D02*
D03*
Y00487176D02*
D03*
X00951961Y00436376D02*
D03*
Y00461776D02*
D03*
Y00487176D02*
D03*
X00311960Y00756376D02*
D03*
Y00781776D02*
D03*
Y00807176D02*
D03*
X00631960Y00756376D02*
D03*
Y00781776D02*
D03*
Y00807176D02*
D03*
X00951961Y00756376D02*
D03*
Y00781776D02*
D03*
Y00807176D02*
D03*
D57*
X00245498Y00167736D02*
D03*
X00565499D02*
D03*
X00885499D02*
D03*
X00245498Y00487736D02*
D03*
X00565499D02*
D03*
X00885499D02*
D03*
X00245498Y00807736D02*
D03*
X00565499D02*
D03*
X00885499D02*
D03*
M02*
