G04*
G04 #@! TF.GenerationSoftware,Altium Limited,Altium Designer,23.5.1 (21)*
G04*
G04 Layer_Color=8388736*
%FSAX44Y44*%
%MOMM*%
G71*
G04*
G04 #@! TF.SameCoordinates,899CF12F-B0FD-4176-B9D3-CD2A61966E73*
G04*
G04*
G04 #@! TF.FilePolarity,Negative*
G04*
G01*
G75*
%ADD15R,0.5000X0.5000*%
%ADD16C,0.4500*%
%ADD40P,3.1158X4X270.0*%
%ADD41C,2.2032*%
%ADD42R,1.3032X1.2032*%
%ADD43R,1.3032X1.0032*%
%ADD44R,1.2192X1.9812*%
%ADD45C,0.4032*%
%ADD46C,1.7272*%
%ADD47O,2.7032X5.2032*%
%ADD48R,2.7032X5.2032*%
G36*
X00879301Y00852001D02*
X00878501D01*
Y00849501D01*
X00873501D01*
Y00854501D01*
X00879301D01*
Y00852001D01*
D02*
G37*
G36*
X00559300D02*
X00558500D01*
Y00849501D01*
X00553500D01*
Y00854501D01*
X00559300D01*
Y00852001D01*
D02*
G37*
G36*
X00239300D02*
X00238500D01*
Y00849501D01*
X00233500D01*
Y00854501D01*
X00239300D01*
Y00852001D01*
D02*
G37*
G36*
X00879301Y00532000D02*
X00878501D01*
Y00529500D01*
X00873501D01*
Y00534500D01*
X00879301D01*
Y00532000D01*
D02*
G37*
G36*
X00559300D02*
X00558500D01*
Y00529500D01*
X00553500D01*
Y00534500D01*
X00559300D01*
Y00532000D01*
D02*
G37*
G36*
X00239300D02*
X00238500D01*
Y00529500D01*
X00233500D01*
Y00534500D01*
X00239300D01*
Y00532000D01*
D02*
G37*
G36*
X00879301Y00212000D02*
X00878501D01*
Y00209500D01*
X00873501D01*
Y00214500D01*
X00879301D01*
Y00212000D01*
D02*
G37*
G36*
X00559300D02*
X00558500D01*
Y00209500D01*
X00553500D01*
Y00214500D01*
X00559300D01*
Y00212000D01*
D02*
G37*
G36*
X00239300D02*
X00238500D01*
Y00209500D01*
X00233500D01*
Y00214500D01*
X00239300D01*
Y00212000D01*
D02*
G37*
D15*
X00228000D02*
D03*
X00220000D02*
D03*
X00212000D02*
D03*
X00204000D02*
D03*
Y00228000D02*
D03*
X00212000D02*
D03*
X00220000D02*
D03*
X00228000D02*
D03*
X00236000D02*
D03*
X00204000Y00220000D02*
D03*
X00236000D02*
D03*
X00548000Y00212000D02*
D03*
X00540000D02*
D03*
X00532000D02*
D03*
X00524000D02*
D03*
Y00228000D02*
D03*
X00532000D02*
D03*
X00540000D02*
D03*
X00548000D02*
D03*
X00556000D02*
D03*
X00524000Y00220000D02*
D03*
X00556000D02*
D03*
X00868001Y00212000D02*
D03*
X00860001D02*
D03*
X00852001D02*
D03*
X00844001D02*
D03*
Y00228000D02*
D03*
X00852001D02*
D03*
X00860001D02*
D03*
X00868001D02*
D03*
X00876001D02*
D03*
X00844001Y00220000D02*
D03*
X00876001D02*
D03*
X00228000Y00532000D02*
D03*
X00220000D02*
D03*
X00212000D02*
D03*
X00204000D02*
D03*
Y00548000D02*
D03*
X00212000D02*
D03*
X00220000D02*
D03*
X00228000D02*
D03*
X00236000D02*
D03*
X00204000Y00540000D02*
D03*
X00236000D02*
D03*
X00548000Y00532000D02*
D03*
X00540000D02*
D03*
X00532000D02*
D03*
X00524000D02*
D03*
Y00548000D02*
D03*
X00532000D02*
D03*
X00540000D02*
D03*
X00548000D02*
D03*
X00556000D02*
D03*
X00524000Y00540000D02*
D03*
X00556000D02*
D03*
X00868001Y00532000D02*
D03*
X00860001D02*
D03*
X00852001D02*
D03*
X00844001D02*
D03*
Y00548000D02*
D03*
X00852001D02*
D03*
X00860001D02*
D03*
X00868001D02*
D03*
X00876001D02*
D03*
X00844001Y00540000D02*
D03*
X00876001D02*
D03*
X00228000Y00852001D02*
D03*
X00220000D02*
D03*
X00212000D02*
D03*
X00204000D02*
D03*
Y00868000D02*
D03*
X00212000D02*
D03*
X00220000D02*
D03*
X00228000D02*
D03*
X00236000D02*
D03*
X00204000Y00860001D02*
D03*
X00236000D02*
D03*
X00548000Y00852001D02*
D03*
X00540000D02*
D03*
X00532000D02*
D03*
X00524000D02*
D03*
Y00868000D02*
D03*
X00532000D02*
D03*
X00540000D02*
D03*
X00548000D02*
D03*
X00556000D02*
D03*
X00524000Y00860001D02*
D03*
X00556000D02*
D03*
X00868001Y00852001D02*
D03*
X00860001D02*
D03*
X00852001D02*
D03*
X00844001D02*
D03*
Y00868000D02*
D03*
X00852001D02*
D03*
X00860001D02*
D03*
X00868001D02*
D03*
X00876001D02*
D03*
X00844001Y00860001D02*
D03*
X00876001D02*
D03*
D16*
X00236000Y00212000D02*
D03*
X00556000D02*
D03*
X00876001D02*
D03*
X00236000Y00532000D02*
D03*
X00556000D02*
D03*
X00876001D02*
D03*
X00236000Y00852001D02*
D03*
X00556000D02*
D03*
X00876001D02*
D03*
D40*
X00020000Y00020000D02*
D03*
D41*
X00020000Y01060000D02*
D03*
D42*
X00237750Y00270000D02*
D03*
X00557750D02*
D03*
X00877751D02*
D03*
X00237750Y00590000D02*
D03*
X00557750D02*
D03*
X00877751D02*
D03*
X00237750Y00910001D02*
D03*
X00557750D02*
D03*
X00877751D02*
D03*
D43*
X00202250Y00264500D02*
D03*
Y00275500D02*
D03*
X00522250Y00264500D02*
D03*
Y00275500D02*
D03*
X00842251Y00264500D02*
D03*
Y00275500D02*
D03*
X00202250Y00584500D02*
D03*
Y00595500D02*
D03*
X00522250Y00584500D02*
D03*
Y00595500D02*
D03*
X00842251Y00584500D02*
D03*
Y00595500D02*
D03*
X00202250Y00904501D02*
D03*
Y00915500D02*
D03*
X00522250Y00904501D02*
D03*
Y00915500D02*
D03*
X00842251Y00904501D02*
D03*
Y00915500D02*
D03*
D44*
X00235240Y00170000D02*
D03*
X00204760D02*
D03*
X00555240D02*
D03*
X00524760D02*
D03*
X00875241D02*
D03*
X00844761D02*
D03*
X00235240Y00490000D02*
D03*
X00204760D02*
D03*
X00555240D02*
D03*
X00524760D02*
D03*
X00875241D02*
D03*
X00844761D02*
D03*
X00235240Y00810000D02*
D03*
X00204760D02*
D03*
X00555240D02*
D03*
X00524760D02*
D03*
X00875241D02*
D03*
X00844761D02*
D03*
D45*
X00244000Y00370998D02*
D03*
X00241000D02*
D03*
X00238000Y00370998D02*
D03*
X00235000Y00370998D02*
D03*
X00232000D02*
D03*
X00229000Y00370998D02*
D03*
X00226000Y00370998D02*
D03*
X00223000D02*
D03*
X00220000D02*
D03*
X00217000D02*
D03*
X00214000Y00370998D02*
D03*
X00211000Y00370998D02*
D03*
X00202000D02*
D03*
X00205000Y00370998D02*
D03*
X00208000Y00370998D02*
D03*
X00199000Y00370998D02*
D03*
X00196000Y00370998D02*
D03*
X00196000Y00069002D02*
D03*
X00199000D02*
D03*
X00202000Y00069002D02*
D03*
X00205000Y00069002D02*
D03*
X00208000D02*
D03*
X00211000Y00069002D02*
D03*
X00214000Y00069002D02*
D03*
X00217000D02*
D03*
X00220000D02*
D03*
X00223000D02*
D03*
X00226000Y00069002D02*
D03*
X00229000Y00069002D02*
D03*
X00238000D02*
D03*
X00235000Y00069002D02*
D03*
X00232000Y00069002D02*
D03*
X00241000Y00069002D02*
D03*
X00244000Y00069002D02*
D03*
X00370998Y00196000D02*
D03*
Y00199000D02*
D03*
Y00202000D02*
D03*
Y00205000D02*
D03*
Y00208000D02*
D03*
Y00211000D02*
D03*
Y00214000D02*
D03*
Y00217000D02*
D03*
Y00220000D02*
D03*
Y00223000D02*
D03*
Y00226000D02*
D03*
Y00229000D02*
D03*
Y00238000D02*
D03*
Y00235000D02*
D03*
Y00232000D02*
D03*
Y00241000D02*
D03*
Y00244000D02*
D03*
X00069002Y00196000D02*
D03*
Y00199000D02*
D03*
Y00208000D02*
D03*
Y00205000D02*
D03*
Y00202000D02*
D03*
Y00211000D02*
D03*
Y00214000D02*
D03*
Y00217000D02*
D03*
Y00220000D02*
D03*
Y00223000D02*
D03*
Y00226000D02*
D03*
Y00229000D02*
D03*
Y00232000D02*
D03*
Y00235000D02*
D03*
Y00238000D02*
D03*
Y00241000D02*
D03*
Y00244000D02*
D03*
X00564000Y00370998D02*
D03*
X00561000D02*
D03*
X00558000Y00370998D02*
D03*
X00555000Y00370998D02*
D03*
X00552000D02*
D03*
X00549000Y00370998D02*
D03*
X00546000Y00370998D02*
D03*
X00543000D02*
D03*
X00540000D02*
D03*
X00537000D02*
D03*
X00534000Y00370998D02*
D03*
X00531000Y00370998D02*
D03*
X00522000D02*
D03*
X00525000Y00370998D02*
D03*
X00528000Y00370998D02*
D03*
X00519000Y00370998D02*
D03*
X00516000Y00370998D02*
D03*
X00516000Y00069002D02*
D03*
X00519000D02*
D03*
X00522000Y00069002D02*
D03*
X00525000Y00069002D02*
D03*
X00528000D02*
D03*
X00531000Y00069002D02*
D03*
X00534000Y00069002D02*
D03*
X00537000D02*
D03*
X00540000D02*
D03*
X00543000D02*
D03*
X00546000Y00069002D02*
D03*
X00549000Y00069002D02*
D03*
X00558000D02*
D03*
X00555000Y00069002D02*
D03*
X00552000Y00069002D02*
D03*
X00561000Y00069002D02*
D03*
X00564000Y00069002D02*
D03*
X00690998Y00196000D02*
D03*
Y00199000D02*
D03*
Y00202000D02*
D03*
Y00205000D02*
D03*
Y00208000D02*
D03*
Y00211000D02*
D03*
Y00214000D02*
D03*
Y00217000D02*
D03*
Y00220000D02*
D03*
Y00223000D02*
D03*
Y00226000D02*
D03*
Y00229000D02*
D03*
Y00238000D02*
D03*
Y00235000D02*
D03*
Y00232000D02*
D03*
Y00241000D02*
D03*
Y00244000D02*
D03*
X00389003Y00196000D02*
D03*
Y00199000D02*
D03*
Y00208000D02*
D03*
Y00205000D02*
D03*
Y00202000D02*
D03*
Y00211000D02*
D03*
Y00214000D02*
D03*
Y00217000D02*
D03*
Y00220000D02*
D03*
Y00223000D02*
D03*
Y00226000D02*
D03*
Y00229000D02*
D03*
Y00232000D02*
D03*
Y00235000D02*
D03*
Y00238000D02*
D03*
Y00241000D02*
D03*
Y00244000D02*
D03*
X00884001Y00370998D02*
D03*
X00881001D02*
D03*
X00878001Y00370998D02*
D03*
X00875001Y00370998D02*
D03*
X00872001D02*
D03*
X00869001Y00370998D02*
D03*
X00866001Y00370998D02*
D03*
X00863001D02*
D03*
X00860001D02*
D03*
X00857001D02*
D03*
X00854001Y00370998D02*
D03*
X00851001Y00370998D02*
D03*
X00842001D02*
D03*
X00845001Y00370998D02*
D03*
X00848001Y00370998D02*
D03*
X00839001Y00370998D02*
D03*
X00836001Y00370998D02*
D03*
X00836001Y00069002D02*
D03*
X00839001D02*
D03*
X00842001Y00069002D02*
D03*
X00845001Y00069002D02*
D03*
X00848001D02*
D03*
X00851001Y00069002D02*
D03*
X00854001Y00069002D02*
D03*
X00857001D02*
D03*
X00860001D02*
D03*
X00863001D02*
D03*
X00866001Y00069002D02*
D03*
X00869001Y00069002D02*
D03*
X00878001D02*
D03*
X00875001Y00069002D02*
D03*
X00872001Y00069002D02*
D03*
X00881001Y00069002D02*
D03*
X00884001Y00069002D02*
D03*
X01010998Y00196000D02*
D03*
Y00199000D02*
D03*
Y00202000D02*
D03*
Y00205000D02*
D03*
Y00208000D02*
D03*
Y00211000D02*
D03*
Y00214000D02*
D03*
Y00217000D02*
D03*
Y00220000D02*
D03*
Y00223000D02*
D03*
Y00226000D02*
D03*
Y00229000D02*
D03*
Y00238000D02*
D03*
Y00235000D02*
D03*
Y00232000D02*
D03*
Y00241000D02*
D03*
Y00244000D02*
D03*
X00709003Y00196000D02*
D03*
Y00199000D02*
D03*
Y00208000D02*
D03*
Y00205000D02*
D03*
Y00202000D02*
D03*
Y00211000D02*
D03*
Y00214000D02*
D03*
Y00217000D02*
D03*
Y00220000D02*
D03*
Y00223000D02*
D03*
Y00226000D02*
D03*
Y00229000D02*
D03*
Y00232000D02*
D03*
Y00235000D02*
D03*
Y00238000D02*
D03*
Y00241000D02*
D03*
Y00244000D02*
D03*
X00244000Y00690998D02*
D03*
X00241000D02*
D03*
X00238000Y00690998D02*
D03*
X00235000Y00690998D02*
D03*
X00232000D02*
D03*
X00229000Y00690998D02*
D03*
X00226000Y00690998D02*
D03*
X00223000D02*
D03*
X00220000D02*
D03*
X00217000D02*
D03*
X00214000Y00690998D02*
D03*
X00211000Y00690998D02*
D03*
X00202000D02*
D03*
X00205000Y00690998D02*
D03*
X00208000Y00690998D02*
D03*
X00199000Y00690998D02*
D03*
X00196000Y00690998D02*
D03*
X00196000Y00389002D02*
D03*
X00199000D02*
D03*
X00202000Y00389002D02*
D03*
X00205000Y00389002D02*
D03*
X00208000D02*
D03*
X00211000Y00389002D02*
D03*
X00214000Y00389002D02*
D03*
X00217000D02*
D03*
X00220000D02*
D03*
X00223000D02*
D03*
X00226000Y00389002D02*
D03*
X00229000Y00389002D02*
D03*
X00238000D02*
D03*
X00235000Y00389002D02*
D03*
X00232000Y00389002D02*
D03*
X00241000Y00389002D02*
D03*
X00244000Y00389002D02*
D03*
X00370998Y00516000D02*
D03*
Y00519000D02*
D03*
Y00522000D02*
D03*
Y00525000D02*
D03*
Y00528000D02*
D03*
Y00531000D02*
D03*
Y00534000D02*
D03*
Y00537000D02*
D03*
Y00540000D02*
D03*
Y00543000D02*
D03*
Y00546000D02*
D03*
Y00549000D02*
D03*
Y00558000D02*
D03*
Y00555000D02*
D03*
Y00552000D02*
D03*
Y00561000D02*
D03*
Y00564000D02*
D03*
X00069002Y00516000D02*
D03*
Y00519000D02*
D03*
Y00528000D02*
D03*
Y00525000D02*
D03*
Y00522000D02*
D03*
Y00531000D02*
D03*
Y00534000D02*
D03*
Y00537000D02*
D03*
Y00540000D02*
D03*
Y00543000D02*
D03*
Y00546000D02*
D03*
Y00549000D02*
D03*
Y00552000D02*
D03*
Y00555000D02*
D03*
Y00558000D02*
D03*
Y00561000D02*
D03*
Y00564000D02*
D03*
X00564000Y00690998D02*
D03*
X00561000D02*
D03*
X00558000Y00690998D02*
D03*
X00555000Y00690998D02*
D03*
X00552000D02*
D03*
X00549000Y00690998D02*
D03*
X00546000Y00690998D02*
D03*
X00543000D02*
D03*
X00540000D02*
D03*
X00537000D02*
D03*
X00534000Y00690998D02*
D03*
X00531000Y00690998D02*
D03*
X00522000D02*
D03*
X00525000Y00690998D02*
D03*
X00528000Y00690998D02*
D03*
X00519000Y00690998D02*
D03*
X00516000Y00690998D02*
D03*
X00516000Y00389002D02*
D03*
X00519000D02*
D03*
X00522000Y00389002D02*
D03*
X00525000Y00389002D02*
D03*
X00528000D02*
D03*
X00531000Y00389002D02*
D03*
X00534000Y00389002D02*
D03*
X00537000D02*
D03*
X00540000D02*
D03*
X00543000D02*
D03*
X00546000Y00389002D02*
D03*
X00549000Y00389002D02*
D03*
X00558000D02*
D03*
X00555000Y00389002D02*
D03*
X00552000Y00389002D02*
D03*
X00561000Y00389002D02*
D03*
X00564000Y00389002D02*
D03*
X00690998Y00516000D02*
D03*
Y00519000D02*
D03*
Y00522000D02*
D03*
Y00525000D02*
D03*
Y00528000D02*
D03*
Y00531000D02*
D03*
Y00534000D02*
D03*
Y00537000D02*
D03*
Y00540000D02*
D03*
Y00543000D02*
D03*
Y00546000D02*
D03*
Y00549000D02*
D03*
Y00558000D02*
D03*
Y00555000D02*
D03*
Y00552000D02*
D03*
Y00561000D02*
D03*
Y00564000D02*
D03*
X00389003Y00516000D02*
D03*
Y00519000D02*
D03*
Y00528000D02*
D03*
Y00525000D02*
D03*
Y00522000D02*
D03*
Y00531000D02*
D03*
Y00534000D02*
D03*
Y00537000D02*
D03*
Y00540000D02*
D03*
Y00543000D02*
D03*
Y00546000D02*
D03*
Y00549000D02*
D03*
Y00552000D02*
D03*
Y00555000D02*
D03*
Y00558000D02*
D03*
Y00561000D02*
D03*
Y00564000D02*
D03*
X00884001Y00690998D02*
D03*
X00881001D02*
D03*
X00878001Y00690998D02*
D03*
X00875001Y00690998D02*
D03*
X00872001D02*
D03*
X00869001Y00690998D02*
D03*
X00866001Y00690998D02*
D03*
X00863001D02*
D03*
X00860001D02*
D03*
X00857001D02*
D03*
X00854001Y00690998D02*
D03*
X00851001Y00690998D02*
D03*
X00842001D02*
D03*
X00845001Y00690998D02*
D03*
X00848001Y00690998D02*
D03*
X00839001Y00690998D02*
D03*
X00836001Y00690998D02*
D03*
X00836001Y00389002D02*
D03*
X00839001D02*
D03*
X00842001Y00389002D02*
D03*
X00845001Y00389002D02*
D03*
X00848001D02*
D03*
X00851001Y00389002D02*
D03*
X00854001Y00389002D02*
D03*
X00857001D02*
D03*
X00860001D02*
D03*
X00863001D02*
D03*
X00866001Y00389002D02*
D03*
X00869001Y00389002D02*
D03*
X00878001D02*
D03*
X00875001Y00389002D02*
D03*
X00872001Y00389002D02*
D03*
X00881001Y00389002D02*
D03*
X00884001Y00389002D02*
D03*
X01010998Y00516000D02*
D03*
Y00519000D02*
D03*
Y00522000D02*
D03*
Y00525000D02*
D03*
Y00528000D02*
D03*
Y00531000D02*
D03*
Y00534000D02*
D03*
Y00537000D02*
D03*
Y00540000D02*
D03*
Y00543000D02*
D03*
Y00546000D02*
D03*
Y00549000D02*
D03*
Y00558000D02*
D03*
Y00555000D02*
D03*
Y00552000D02*
D03*
Y00561000D02*
D03*
Y00564000D02*
D03*
X00709003Y00516000D02*
D03*
Y00519000D02*
D03*
Y00528000D02*
D03*
Y00525000D02*
D03*
Y00522000D02*
D03*
Y00531000D02*
D03*
Y00534000D02*
D03*
Y00537000D02*
D03*
Y00540000D02*
D03*
Y00543000D02*
D03*
Y00546000D02*
D03*
Y00549000D02*
D03*
Y00552000D02*
D03*
Y00555000D02*
D03*
Y00558000D02*
D03*
Y00561000D02*
D03*
Y00564000D02*
D03*
X00244000Y01010998D02*
D03*
X00241000D02*
D03*
X00238000Y01010998D02*
D03*
X00235000Y01010998D02*
D03*
X00232000D02*
D03*
X00229000Y01010998D02*
D03*
X00226000Y01010998D02*
D03*
X00223000D02*
D03*
X00220000D02*
D03*
X00217000D02*
D03*
X00214000Y01010998D02*
D03*
X00211000Y01010998D02*
D03*
X00202000D02*
D03*
X00205000Y01010998D02*
D03*
X00208000Y01010998D02*
D03*
X00199000Y01010998D02*
D03*
X00196000Y01010998D02*
D03*
X00196000Y00709003D02*
D03*
X00199000D02*
D03*
X00202000Y00709003D02*
D03*
X00205000Y00709003D02*
D03*
X00208000D02*
D03*
X00211000Y00709003D02*
D03*
X00214000Y00709003D02*
D03*
X00217000D02*
D03*
X00220000D02*
D03*
X00223000D02*
D03*
X00226000Y00709003D02*
D03*
X00229000Y00709003D02*
D03*
X00238000D02*
D03*
X00235000Y00709003D02*
D03*
X00232000Y00709003D02*
D03*
X00241000Y00709003D02*
D03*
X00244000Y00709003D02*
D03*
X00370998Y00836001D02*
D03*
Y00839000D02*
D03*
Y00842001D02*
D03*
Y00845001D02*
D03*
Y00848000D02*
D03*
Y00851001D02*
D03*
Y00854000D02*
D03*
Y00857000D02*
D03*
Y00860000D02*
D03*
Y00863000D02*
D03*
Y00866000D02*
D03*
Y00869000D02*
D03*
Y00878000D02*
D03*
Y00875000D02*
D03*
Y00872000D02*
D03*
Y00881000D02*
D03*
Y00884000D02*
D03*
X00069002Y00836001D02*
D03*
Y00839000D02*
D03*
Y00848000D02*
D03*
Y00845001D02*
D03*
Y00842001D02*
D03*
Y00851001D02*
D03*
Y00854000D02*
D03*
Y00857000D02*
D03*
Y00860000D02*
D03*
Y00863000D02*
D03*
Y00866000D02*
D03*
Y00869000D02*
D03*
Y00872000D02*
D03*
Y00875000D02*
D03*
Y00878000D02*
D03*
Y00881000D02*
D03*
Y00884000D02*
D03*
X00564000Y01010998D02*
D03*
X00561000D02*
D03*
X00558000Y01010998D02*
D03*
X00555000Y01010998D02*
D03*
X00552000D02*
D03*
X00549000Y01010998D02*
D03*
X00546000Y01010998D02*
D03*
X00543000D02*
D03*
X00540000D02*
D03*
X00537000D02*
D03*
X00534000Y01010998D02*
D03*
X00531000Y01010998D02*
D03*
X00522000D02*
D03*
X00525000Y01010998D02*
D03*
X00528000Y01010998D02*
D03*
X00519000Y01010998D02*
D03*
X00516000Y01010998D02*
D03*
X00516000Y00709003D02*
D03*
X00519000D02*
D03*
X00522000Y00709003D02*
D03*
X00525000Y00709003D02*
D03*
X00528000D02*
D03*
X00531000Y00709003D02*
D03*
X00534000Y00709003D02*
D03*
X00537000D02*
D03*
X00540000D02*
D03*
X00543000D02*
D03*
X00546000Y00709003D02*
D03*
X00549000Y00709003D02*
D03*
X00558000D02*
D03*
X00555000Y00709003D02*
D03*
X00552000Y00709003D02*
D03*
X00561000Y00709003D02*
D03*
X00564000Y00709003D02*
D03*
X00690998Y00836001D02*
D03*
Y00839000D02*
D03*
Y00842001D02*
D03*
Y00845001D02*
D03*
Y00848000D02*
D03*
Y00851001D02*
D03*
Y00854000D02*
D03*
Y00857000D02*
D03*
Y00860000D02*
D03*
Y00863000D02*
D03*
Y00866000D02*
D03*
Y00869000D02*
D03*
Y00878000D02*
D03*
Y00875000D02*
D03*
Y00872000D02*
D03*
Y00881000D02*
D03*
Y00884000D02*
D03*
X00389003Y00836001D02*
D03*
Y00839000D02*
D03*
Y00848000D02*
D03*
Y00845001D02*
D03*
Y00842001D02*
D03*
Y00851001D02*
D03*
Y00854000D02*
D03*
Y00857000D02*
D03*
Y00860000D02*
D03*
Y00863000D02*
D03*
Y00866000D02*
D03*
Y00869000D02*
D03*
Y00872000D02*
D03*
Y00875000D02*
D03*
Y00878000D02*
D03*
Y00881000D02*
D03*
Y00884000D02*
D03*
X00884001Y01010998D02*
D03*
X00881001D02*
D03*
X00878001Y01010998D02*
D03*
X00875001Y01010998D02*
D03*
X00872001D02*
D03*
X00869001Y01010998D02*
D03*
X00866001Y01010998D02*
D03*
X00863001D02*
D03*
X00860001D02*
D03*
X00857001D02*
D03*
X00854001Y01010998D02*
D03*
X00851001Y01010998D02*
D03*
X00842001D02*
D03*
X00845001Y01010998D02*
D03*
X00848001Y01010998D02*
D03*
X00839001Y01010998D02*
D03*
X00836001Y01010998D02*
D03*
X00836001Y00709003D02*
D03*
X00839001D02*
D03*
X00842001Y00709003D02*
D03*
X00845001Y00709003D02*
D03*
X00848001D02*
D03*
X00851001Y00709003D02*
D03*
X00854001Y00709003D02*
D03*
X00857001D02*
D03*
X00860001D02*
D03*
X00863001D02*
D03*
X00866001Y00709003D02*
D03*
X00869001Y00709003D02*
D03*
X00878001D02*
D03*
X00875001Y00709003D02*
D03*
X00872001Y00709003D02*
D03*
X00881001Y00709003D02*
D03*
X00884001Y00709003D02*
D03*
X01010998Y00836001D02*
D03*
Y00839000D02*
D03*
Y00842001D02*
D03*
Y00845001D02*
D03*
Y00848000D02*
D03*
Y00851001D02*
D03*
Y00854000D02*
D03*
Y00857000D02*
D03*
Y00860000D02*
D03*
Y00863000D02*
D03*
Y00866000D02*
D03*
Y00869000D02*
D03*
Y00878000D02*
D03*
Y00875000D02*
D03*
Y00872000D02*
D03*
Y00881000D02*
D03*
Y00884000D02*
D03*
X00709003Y00836001D02*
D03*
Y00839000D02*
D03*
Y00848000D02*
D03*
Y00845001D02*
D03*
Y00842001D02*
D03*
Y00851001D02*
D03*
Y00854000D02*
D03*
Y00857000D02*
D03*
Y00860000D02*
D03*
Y00863000D02*
D03*
Y00866000D02*
D03*
Y00869000D02*
D03*
Y00872000D02*
D03*
Y00875000D02*
D03*
Y00878000D02*
D03*
Y00881000D02*
D03*
Y00884000D02*
D03*
D46*
X00100000Y00100000D02*
D03*
X00340000Y00340000D02*
D03*
X00420000Y00100000D02*
D03*
X00660001Y00340000D02*
D03*
X00740001Y00100000D02*
D03*
X00980001Y00340000D02*
D03*
X00100000Y00420000D02*
D03*
X00340000Y00660001D02*
D03*
X00420000Y00420000D02*
D03*
X00660001Y00660001D02*
D03*
X00740001Y00420000D02*
D03*
X00980001Y00660001D02*
D03*
X00100000Y00740000D02*
D03*
X00340000Y00980001D02*
D03*
X00420000Y00740000D02*
D03*
X00660001Y00980001D02*
D03*
X00740001Y00740000D02*
D03*
X00980001Y00980001D02*
D03*
D47*
X00255000Y00102164D02*
D03*
X00220000D02*
D03*
X00575000D02*
D03*
X00540000D02*
D03*
X00895001D02*
D03*
X00860001D02*
D03*
X00255000Y00422164D02*
D03*
X00220000D02*
D03*
X00575000D02*
D03*
X00540000D02*
D03*
X00895001D02*
D03*
X00860001D02*
D03*
X00255000Y00742164D02*
D03*
X00220000D02*
D03*
X00575000D02*
D03*
X00540000D02*
D03*
X00895001D02*
D03*
X00860001D02*
D03*
D48*
X00185000Y00102164D02*
D03*
X00505000D02*
D03*
X00825001D02*
D03*
X00185000Y00422164D02*
D03*
X00505000D02*
D03*
X00825001D02*
D03*
X00185000Y00742164D02*
D03*
X00505000D02*
D03*
X00825001D02*
D03*
M02*
