G04*
G04 #@! TF.GenerationSoftware,Altium Limited,Altium Designer,23.2.1 (34)*
G04*
G04 Layer_Color=16711935*
%FSAX44Y44*%
%MOMM*%
G71*
G04*
G04 #@! TF.SameCoordinates,82B26229-18A1-4F51-8350-021A8CAF8BEE*
G04*
G04*
G04 #@! TF.FilePolarity,Negative*
G04*
G01*
G75*
%ADD70O,2.5032X2.0032*%
%ADD71O,2.0032X2.5032*%
%ADD72O,1.1032X1.8032*%
%ADD73O,2.0032X3.2032*%
%ADD74R,2.0032X3.2032*%
%ADD75C,0.2032*%
%ADD76O,1.8032X2.2032*%
%ADD77R,1.8032X2.2032*%
%ADD78C,1.9032*%
%ADD79R,1.7032X1.7032*%
%ADD80C,1.7032*%
%ADD81O,6.2032X2.7032*%
%ADD82O,6.2032X2.4532*%
%ADD83O,2.4532X6.2032*%
D70*
X00912240Y00059410D02*
D03*
Y00024410D02*
D03*
X00059000Y00023140D02*
D03*
Y00058140D02*
D03*
Y00140690D02*
D03*
Y00105690D02*
D03*
Y00188240D02*
D03*
Y00223240D02*
D03*
Y00305790D02*
D03*
Y00270790D02*
D03*
Y00353340D02*
D03*
Y00388340D02*
D03*
Y00470890D02*
D03*
Y00435890D02*
D03*
Y00518440D02*
D03*
Y00553440D02*
D03*
Y00635990D02*
D03*
Y00600990D02*
D03*
Y00683540D02*
D03*
Y00718540D02*
D03*
Y00801090D02*
D03*
Y00766090D02*
D03*
Y00848640D02*
D03*
Y00883640D02*
D03*
Y00966190D02*
D03*
Y00931190D02*
D03*
X00911240Y00967660D02*
D03*
Y00932660D02*
D03*
X00911240Y00848620D02*
D03*
Y00883620D02*
D03*
Y00802351D02*
D03*
Y00767351D02*
D03*
Y00684810D02*
D03*
Y00719810D02*
D03*
Y00637260D02*
D03*
Y00602260D02*
D03*
X00911240Y00519710D02*
D03*
Y00554710D02*
D03*
Y00472160D02*
D03*
Y00437160D02*
D03*
X00911240Y00354610D02*
D03*
Y00389610D02*
D03*
X00911240Y00307060D02*
D03*
Y00272060D02*
D03*
X00912510Y00189510D02*
D03*
Y00224510D02*
D03*
X00912240Y00141960D02*
D03*
Y00106960D02*
D03*
D71*
X00346182Y00930910D02*
D03*
X00381182D02*
D03*
X00290504Y00053200D02*
D03*
X00255504D02*
D03*
X00220504D02*
D03*
X00587958D02*
D03*
X00622958D02*
D03*
X00657958D02*
D03*
X00536424D02*
D03*
X00501424D02*
D03*
X00466424D02*
D03*
X00344104D02*
D03*
X00379104D02*
D03*
X00414104D02*
D03*
D72*
X00694860Y00007540D02*
D03*
X00760860D02*
D03*
D73*
X00508000Y00434000D02*
D03*
X00482600D02*
D03*
X00457200D02*
D03*
D74*
X00431800D02*
D03*
D75*
X00564957Y00430000D02*
D03*
X00374957Y00430000D02*
D03*
X00564957Y00192000D02*
D03*
X00374957Y00192000D02*
D03*
D76*
X00557559Y00790987D02*
D03*
X00608359D02*
D03*
D77*
X00582959D02*
D03*
D78*
X00355092Y00895350D02*
D03*
X00431292Y00877570D02*
D03*
D79*
X00424180Y00937260D02*
D03*
D80*
X00449580D02*
D03*
X00474980D02*
D03*
D81*
X00265430Y00878530D02*
D03*
D82*
Y00938530D02*
D03*
D83*
X00218430Y00908530D02*
D03*
M02*
