G04*
G04 #@! TF.GenerationSoftware,Altium Limited,Altium Designer,23.2.1 (34)*
G04*
G04 Layer_Color=8421504*
%FSAX44Y44*%
%MOMM*%
G71*
G04*
G04 #@! TF.SameCoordinates,82B26229-18A1-4F51-8350-021A8CAF8BEE*
G04*
G04*
G04 #@! TF.FilePolarity,Positive*
G04*
G01*
G75*
%ADD19R,0.6154X1.2154*%
%ADD20R,0.8000X0.8000*%
%ADD21R,0.8000X1.1000*%
%ADD22R,0.5561X0.2925*%
G04:AMPARAMS|DCode=23|XSize=0.5561mm|YSize=0.2925mm|CornerRadius=0.1462mm|HoleSize=0mm|Usage=FLASHONLY|Rotation=0.000|XOffset=0mm|YOffset=0mm|HoleType=Round|Shape=RoundedRectangle|*
%AMROUNDEDRECTD23*
21,1,0.5561,0.0000,0,0,0.0*
21,1,0.2636,0.2925,0,0,0.0*
1,1,0.2925,0.1318,0.0000*
1,1,0.2925,-0.1318,0.0000*
1,1,0.2925,-0.1318,0.0000*
1,1,0.2925,0.1318,0.0000*
%
%ADD23ROUNDEDRECTD23*%
G04:AMPARAMS|DCode=24|XSize=1.1mm|YSize=0.6mm|CornerRadius=0.051mm|HoleSize=0mm|Usage=FLASHONLY|Rotation=270.000|XOffset=0mm|YOffset=0mm|HoleType=Round|Shape=RoundedRectangle|*
%AMROUNDEDRECTD24*
21,1,1.1000,0.4980,0,0,270.0*
21,1,0.9980,0.6000,0,0,270.0*
1,1,0.1020,-0.2490,-0.4990*
1,1,0.1020,-0.2490,0.4990*
1,1,0.1020,0.2490,0.4990*
1,1,0.1020,0.2490,-0.4990*
%
%ADD24ROUNDEDRECTD24*%
%ADD25R,0.9000X0.8500*%
%ADD26R,1.1000X0.8000*%
%ADD27R,0.8500X0.9000*%
%ADD28R,1.3500X1.1000*%
%ADD29R,2.6000X2.4000*%
%ADD30R,0.4000X1.3500*%
%ADD31R,1.6000X1.4000*%
%ADD32R,1.9000X1.9000*%
%ADD33R,1.0000X0.8500*%
%ADD34R,1.0000X0.8500*%
%ADD35R,2.4000X1.9000*%
%ADD36R,0.5000X0.3500*%
%ADD37R,0.3500X0.5000*%
%ADD38O,1.5000X0.4500*%
%ADD39R,3.3000X2.4000*%
%ADD40R,2.5000X1.0000*%
G04:AMPARAMS|DCode=41|XSize=2.5mm|YSize=1mm|CornerRadius=0.125mm|HoleSize=0mm|Usage=FLASHONLY|Rotation=180.000|XOffset=0mm|YOffset=0mm|HoleType=Round|Shape=RoundedRectangle|*
%AMROUNDEDRECTD41*
21,1,2.5000,0.7500,0,0,180.0*
21,1,2.2500,1.0000,0,0,180.0*
1,1,0.2500,-1.1250,0.3750*
1,1,0.2500,1.1250,0.3750*
1,1,0.2500,1.1250,-0.3750*
1,1,0.2500,-1.1250,-0.3750*
%
%ADD41ROUNDEDRECTD41*%
G04:AMPARAMS|DCode=42|XSize=1.5mm|YSize=1.5mm|CornerRadius=0.225mm|HoleSize=0mm|Usage=FLASHONLY|Rotation=180.000|XOffset=0mm|YOffset=0mm|HoleType=Round|Shape=RoundedRectangle|*
%AMROUNDEDRECTD42*
21,1,1.5000,1.0500,0,0,180.0*
21,1,1.0500,1.5000,0,0,180.0*
1,1,0.4500,-0.5250,0.5250*
1,1,0.4500,0.5250,0.5250*
1,1,0.4500,0.5250,-0.5250*
1,1,0.4500,-0.5250,-0.5250*
%
%ADD42ROUNDEDRECTD42*%
%ADD43R,1.6000X1.4000*%
%ADD44R,2.5000X8.1000*%
%ADD45R,1.1000X1.3500*%
G36*
X00525380Y00500600D02*
X00526433D01*
X00528468Y00500055D01*
X00530292Y00499002D01*
X00531782Y00497512D01*
X00532835Y00495688D01*
X00533380Y00493653D01*
Y00491547D01*
X00532835Y00489512D01*
X00531782Y00487688D01*
X00530292Y00486198D01*
X00528468Y00485145D01*
X00526433Y00484600D01*
X00525380D01*
Y00484600D01*
X00501380D01*
X00501380Y00500600D01*
X00525380D01*
X00525380Y00500600D01*
D02*
G37*
G36*
Y00526000D02*
X00526433D01*
X00528468Y00525455D01*
X00530292Y00524402D01*
X00531782Y00522912D01*
X00532835Y00521088D01*
X00533380Y00519053D01*
Y00516947D01*
X00532835Y00514912D01*
X00531782Y00513088D01*
X00530292Y00511598D01*
X00528468Y00510545D01*
X00526433Y00510000D01*
X00525380D01*
X00525380Y00510000D01*
X00501380Y00510000D01*
X00501380Y00526000D01*
X00525380Y00526000D01*
D02*
G37*
G36*
X00528468Y00550855D02*
X00530292Y00549802D01*
X00531782Y00548312D01*
X00532835Y00546488D01*
X00533380Y00544453D01*
Y00542347D01*
X00532835Y00540312D01*
X00531782Y00538488D01*
X00530292Y00536998D01*
X00528468Y00535945D01*
X00526433Y00535400D01*
X00525380D01*
Y00535400D01*
X00501380Y00535400D01*
X00501380Y00551400D01*
X00526433D01*
X00528468Y00550855D01*
D02*
G37*
G36*
X00525380Y00576800D02*
X00526433D01*
X00528468Y00576255D01*
X00530292Y00575202D01*
X00531782Y00573712D01*
X00532835Y00571888D01*
X00533380Y00569853D01*
Y00567747D01*
X00532835Y00565712D01*
X00531782Y00563888D01*
X00530292Y00562398D01*
X00528468Y00561345D01*
X00526433Y00560800D01*
X00525380D01*
X00501380Y00560800D01*
Y00576800D01*
X00525380Y00576800D01*
Y00576800D01*
D02*
G37*
G36*
Y00602200D02*
X00526433D01*
X00528468Y00601655D01*
X00530292Y00600602D01*
X00531782Y00599112D01*
X00532835Y00597288D01*
X00533380Y00595253D01*
Y00593147D01*
X00532835Y00591112D01*
X00531782Y00589288D01*
X00530292Y00587798D01*
X00528468Y00586745D01*
X00526433Y00586200D01*
X00525380Y00586200D01*
X00501380Y00586200D01*
Y00602200D01*
X00525380Y00602200D01*
X00525380Y00602200D01*
D02*
G37*
G36*
X00727220Y00484600D02*
X00703220D01*
Y00484600D01*
X00702167D01*
X00700132Y00485145D01*
X00698308Y00486198D01*
X00696818Y00487688D01*
X00695765Y00489512D01*
X00695220Y00491547D01*
Y00493653D01*
X00695765Y00495688D01*
X00696818Y00497512D01*
X00698308Y00499002D01*
X00700132Y00500055D01*
X00702167Y00500600D01*
X00703220D01*
X00703220Y00500600D01*
X00727220D01*
X00727220Y00484600D01*
D02*
G37*
G36*
X00727220Y00510000D02*
X00703220D01*
X00702167Y00510000D01*
X00700132Y00510545D01*
X00698308Y00511598D01*
X00696818Y00513088D01*
X00695765Y00514912D01*
X00695220Y00516947D01*
Y00519053D01*
X00695765Y00521088D01*
X00696818Y00522912D01*
X00698308Y00524402D01*
X00700132Y00525455D01*
X00702167Y00526000D01*
X00727220D01*
X00727220Y00510000D01*
D02*
G37*
G36*
Y00535400D02*
X00703220Y00535400D01*
Y00535400D01*
X00702167D01*
X00700132Y00535945D01*
X00698308Y00536998D01*
X00696818Y00538488D01*
X00695765Y00540312D01*
X00695220Y00542347D01*
Y00544453D01*
X00695765Y00546488D01*
X00696818Y00548312D01*
X00698308Y00549802D01*
X00700132Y00550855D01*
X00702167Y00551400D01*
X00727220D01*
X00727220Y00535400D01*
D02*
G37*
G36*
X00727220Y00560800D02*
X00703220Y00560800D01*
X00702167D01*
X00700132Y00561345D01*
X00698308Y00562398D01*
X00696818Y00563888D01*
X00695765Y00565712D01*
X00695220Y00567747D01*
Y00569853D01*
X00695765Y00571888D01*
X00696818Y00573712D01*
X00698308Y00575202D01*
X00700132Y00576255D01*
X00702167Y00576800D01*
X00727220D01*
X00727220Y00560800D01*
D02*
G37*
G36*
Y00586200D02*
X00703220D01*
X00702167Y00586200D01*
X00700132Y00586745D01*
X00698308Y00587798D01*
X00696818Y00589288D01*
X00695765Y00591112D01*
X00695220Y00593147D01*
Y00595253D01*
X00695765Y00597288D01*
X00696818Y00599112D01*
X00698308Y00600602D01*
X00700132Y00601655D01*
X00702167Y00602200D01*
X00727220D01*
X00727220Y00586200D01*
D02*
G37*
G36*
X00525380Y00627600D02*
Y00627600D01*
X00526433D01*
X00528468Y00627055D01*
X00530292Y00626002D01*
X00531782Y00624512D01*
X00532835Y00622688D01*
X00533380Y00620653D01*
Y00618547D01*
X00532835Y00616512D01*
X00531782Y00614688D01*
X00530292Y00613198D01*
X00528468Y00612145D01*
X00526433Y00611600D01*
X00525380Y00611600D01*
X00501380D01*
Y00627600D01*
X00525380Y00627600D01*
D02*
G37*
G36*
X00528468Y00652455D02*
X00530292Y00651402D01*
X00531782Y00649912D01*
X00532835Y00648088D01*
X00533380Y00646053D01*
Y00643947D01*
X00532835Y00641912D01*
X00531782Y00640088D01*
X00530292Y00638598D01*
X00528468Y00637545D01*
X00526433Y00637000D01*
X00525380Y00637000D01*
X00501380D01*
Y00653000D01*
X00525380Y00653000D01*
X00526433D01*
X00528468Y00652455D01*
D02*
G37*
G36*
Y00677855D02*
X00530292Y00676802D01*
X00531782Y00675312D01*
X00532835Y00673488D01*
X00533380Y00671453D01*
Y00669347D01*
X00532835Y00667312D01*
X00531782Y00665488D01*
X00530292Y00663998D01*
X00528468Y00662945D01*
X00526433Y00662400D01*
X00525380Y00662400D01*
X00501380D01*
X00501380Y00678400D01*
X00525380D01*
Y00678400D01*
X00526433D01*
X00528468Y00677855D01*
D02*
G37*
G36*
X00525380Y00703800D02*
X00526433D01*
X00528468Y00703255D01*
X00530292Y00702202D01*
X00531782Y00700712D01*
X00532835Y00698888D01*
X00533380Y00696853D01*
Y00694747D01*
X00532835Y00692712D01*
X00531782Y00690888D01*
X00530292Y00689398D01*
X00528468Y00688345D01*
X00526433Y00687800D01*
X00525380D01*
Y00687800D01*
X00501380Y00687800D01*
X00501380Y00703800D01*
X00525380Y00703800D01*
D02*
G37*
G36*
Y00729200D02*
X00526433D01*
X00528468Y00728655D01*
X00530292Y00727602D01*
X00531782Y00726112D01*
X00532835Y00724288D01*
X00533380Y00722253D01*
Y00720147D01*
X00532835Y00718112D01*
X00531782Y00716288D01*
X00530292Y00714798D01*
X00528468Y00713745D01*
X00526433Y00713200D01*
X00525380D01*
Y00713200D01*
X00501380D01*
X00501380Y00729200D01*
X00525380D01*
X00525380Y00729200D01*
D02*
G37*
G36*
X00727220Y00611600D02*
X00703220D01*
X00702167Y00611600D01*
X00700132Y00612145D01*
X00698308Y00613198D01*
X00696818Y00614688D01*
X00695765Y00616512D01*
X00695220Y00618547D01*
Y00620653D01*
X00695765Y00622688D01*
X00696818Y00624512D01*
X00698308Y00626002D01*
X00700132Y00627055D01*
X00702167Y00627600D01*
X00703220D01*
Y00627600D01*
X00727220Y00627600D01*
Y00611600D01*
D02*
G37*
G36*
X00727220Y00653000D02*
Y00637000D01*
X00703220D01*
X00702167Y00637000D01*
X00700132Y00637545D01*
X00698308Y00638598D01*
X00696818Y00640088D01*
X00695765Y00641912D01*
X00695220Y00643947D01*
Y00646053D01*
X00695765Y00648088D01*
X00696818Y00649912D01*
X00698308Y00651402D01*
X00700132Y00652455D01*
X00702167Y00653000D01*
X00703220D01*
X00727220Y00653000D01*
D02*
G37*
G36*
X00703220Y00678400D02*
X00727220D01*
X00727220Y00662400D01*
X00702167D01*
X00700132Y00662945D01*
X00698308Y00663998D01*
X00696818Y00665488D01*
X00695765Y00667312D01*
X00695220Y00669347D01*
Y00671453D01*
X00695765Y00673488D01*
X00696818Y00675312D01*
X00698308Y00676802D01*
X00700132Y00677855D01*
X00702167Y00678400D01*
X00703220D01*
X00703220Y00678400D01*
D02*
G37*
G36*
X00727220Y00687800D02*
X00703220D01*
Y00687800D01*
X00702167D01*
X00700132Y00688345D01*
X00698308Y00689398D01*
X00696818Y00690888D01*
X00695765Y00692712D01*
X00695220Y00694747D01*
Y00696853D01*
X00695765Y00698888D01*
X00696818Y00700712D01*
X00698308Y00702202D01*
X00700132Y00703255D01*
X00702167Y00703800D01*
X00703220D01*
X00703220Y00703800D01*
X00727220D01*
X00727220Y00687800D01*
D02*
G37*
G36*
Y00713200D02*
X00703220D01*
Y00713200D01*
X00702167D01*
X00700132Y00713745D01*
X00698308Y00714798D01*
X00696818Y00716288D01*
X00695765Y00718112D01*
X00695220Y00720147D01*
Y00722253D01*
X00695765Y00724288D01*
X00696818Y00726112D01*
X00698308Y00727602D01*
X00700132Y00728655D01*
X00702167Y00729200D01*
X00703220D01*
X00703220Y00729200D01*
X00727220D01*
X00727220Y00713200D01*
D02*
G37*
G36*
X00525380Y00754600D02*
X00526433D01*
X00528468Y00754055D01*
X00530292Y00753002D01*
X00531782Y00751512D01*
X00532835Y00749688D01*
X00533380Y00747653D01*
Y00745547D01*
X00532835Y00743512D01*
X00531782Y00741688D01*
X00530292Y00740198D01*
X00528468Y00739145D01*
X00526433Y00738600D01*
X00525380D01*
Y00738600D01*
X00501380Y00738600D01*
X00501380Y00754600D01*
X00525380Y00754600D01*
D02*
G37*
G36*
X00528468Y00779455D02*
X00530292Y00778402D01*
X00531782Y00776912D01*
X00532835Y00775088D01*
X00533380Y00773053D01*
Y00770947D01*
X00532835Y00768912D01*
X00531782Y00767088D01*
X00530292Y00765598D01*
X00528468Y00764545D01*
X00526433Y00764000D01*
X00525380D01*
X00501380Y00764000D01*
X00501380Y00780000D01*
X00526433D01*
X00528468Y00779455D01*
D02*
G37*
G36*
X00528468Y00804855D02*
X00530292Y00803802D01*
X00531782Y00802312D01*
X00532835Y00800488D01*
X00533380Y00798453D01*
Y00796347D01*
X00532835Y00794312D01*
X00531782Y00792488D01*
X00530292Y00790998D01*
X00528468Y00789945D01*
X00526433Y00789400D01*
X00525380Y00789400D01*
X00501380Y00789400D01*
Y00805400D01*
X00525380Y00805400D01*
X00526433D01*
X00528468Y00804855D01*
D02*
G37*
G36*
X00525380Y00830800D02*
X00526433D01*
X00528468Y00830255D01*
X00530292Y00829202D01*
X00531782Y00827712D01*
X00532835Y00825888D01*
X00533380Y00823853D01*
Y00821747D01*
X00532835Y00819712D01*
X00531782Y00817888D01*
X00530292Y00816398D01*
X00528468Y00815345D01*
X00526433Y00814800D01*
X00525380Y00814800D01*
X00501380D01*
X00501380Y00830800D01*
X00525380Y00830800D01*
X00525380Y00830800D01*
D02*
G37*
G36*
X00525380Y00856200D02*
Y00856200D01*
X00526433D01*
X00528468Y00855655D01*
X00530292Y00854602D01*
X00531782Y00853112D01*
X00532835Y00851288D01*
X00533380Y00849253D01*
Y00847147D01*
X00532835Y00845112D01*
X00531782Y00843288D01*
X00530292Y00841798D01*
X00528468Y00840745D01*
X00526433Y00840200D01*
X00525380Y00840200D01*
X00501380D01*
X00501380Y00856200D01*
X00525380Y00856200D01*
D02*
G37*
G36*
X00727220Y00738600D02*
X00703220Y00738600D01*
X00703220Y00738600D01*
X00702167D01*
X00700132Y00739145D01*
X00698308Y00740198D01*
X00696818Y00741688D01*
X00695765Y00743512D01*
X00695220Y00745547D01*
Y00747653D01*
X00695765Y00749688D01*
X00696818Y00751512D01*
X00698308Y00753002D01*
X00700132Y00754055D01*
X00702167Y00754600D01*
X00727220D01*
X00727220Y00738600D01*
D02*
G37*
G36*
Y00764000D02*
X00703220Y00764000D01*
X00702167D01*
X00700132Y00764545D01*
X00698308Y00765598D01*
X00696818Y00767088D01*
X00695765Y00768912D01*
X00695220Y00770947D01*
Y00773053D01*
X00695765Y00775088D01*
X00696818Y00776912D01*
X00698308Y00778402D01*
X00700132Y00779455D01*
X00702167Y00780000D01*
X00727220D01*
X00727220Y00764000D01*
D02*
G37*
G36*
Y00789400D02*
X00703220Y00789400D01*
X00702167D01*
X00700132Y00789945D01*
X00698308Y00790998D01*
X00696818Y00792488D01*
X00695765Y00794312D01*
X00695220Y00796347D01*
Y00798453D01*
X00695765Y00800488D01*
X00696818Y00802312D01*
X00698308Y00803802D01*
X00700132Y00804855D01*
X00702167Y00805400D01*
X00727220D01*
Y00789400D01*
D02*
G37*
G36*
Y00830800D02*
X00727220Y00814800D01*
X00703220Y00814800D01*
X00702167Y00814800D01*
X00700132Y00815345D01*
X00698308Y00816398D01*
X00696818Y00817888D01*
X00695765Y00819712D01*
X00695220Y00821747D01*
Y00823853D01*
X00695765Y00825888D01*
X00696818Y00827712D01*
X00698308Y00829202D01*
X00700132Y00830255D01*
X00702167Y00830800D01*
X00703220D01*
X00703220Y00830800D01*
X00727220Y00830800D01*
D02*
G37*
G36*
X00727220Y00840200D02*
X00703220D01*
X00702167Y00840200D01*
X00700132Y00840745D01*
X00698308Y00841798D01*
X00696818Y00843288D01*
X00695765Y00845112D01*
X00695220Y00847147D01*
Y00849253D01*
X00695765Y00851288D01*
X00696818Y00853112D01*
X00698308Y00854602D01*
X00700132Y00855655D01*
X00702167Y00856200D01*
X00703220D01*
Y00856200D01*
X00727220Y00856200D01*
Y00840200D01*
D02*
G37*
G36*
X00528468Y00881055D02*
X00530292Y00880002D01*
X00531782Y00878512D01*
X00532835Y00876688D01*
X00533380Y00874653D01*
Y00872547D01*
X00532835Y00870512D01*
X00531782Y00868688D01*
X00530292Y00867198D01*
X00528468Y00866145D01*
X00526433Y00865600D01*
X00525380Y00865600D01*
X00501380D01*
Y00881600D01*
X00525380Y00881600D01*
X00526433D01*
X00528468Y00881055D01*
D02*
G37*
G36*
Y00906455D02*
X00530292Y00905402D01*
X00531782Y00903912D01*
X00532835Y00902088D01*
X00533380Y00900053D01*
Y00897947D01*
X00532835Y00895912D01*
X00531782Y00894088D01*
X00530292Y00892598D01*
X00528468Y00891545D01*
X00526433Y00891000D01*
X00525380Y00891000D01*
X00501380D01*
X00501380Y00907000D01*
X00525380D01*
Y00907000D01*
X00526433D01*
X00528468Y00906455D01*
D02*
G37*
G36*
X00525380Y00932400D02*
X00526433D01*
X00528468Y00931855D01*
X00530292Y00930802D01*
X00531782Y00929312D01*
X00532835Y00927488D01*
X00533380Y00925453D01*
Y00923347D01*
X00532835Y00921312D01*
X00531782Y00919488D01*
X00530292Y00917998D01*
X00528468Y00916945D01*
X00526433Y00916400D01*
X00525380D01*
Y00916400D01*
X00501380Y00916400D01*
X00501380Y00932400D01*
X00525380D01*
X00525380Y00932400D01*
D02*
G37*
G36*
X00528468Y00957255D02*
X00530292Y00956202D01*
X00531782Y00954712D01*
X00532835Y00952888D01*
X00533380Y00950853D01*
Y00948747D01*
X00532835Y00946712D01*
X00531782Y00944888D01*
X00530292Y00943398D01*
X00528468Y00942345D01*
X00526433Y00941800D01*
X00525380Y00941800D01*
X00501380Y00941800D01*
Y00957800D01*
X00526433D01*
X00528468Y00957255D01*
D02*
G37*
G36*
X00525380Y00983200D02*
X00526433D01*
X00528468Y00982655D01*
X00530292Y00981602D01*
X00531782Y00980112D01*
X00532835Y00978288D01*
X00533380Y00976253D01*
Y00974147D01*
X00532835Y00972112D01*
X00531782Y00970288D01*
X00530292Y00968798D01*
X00528468Y00967745D01*
X00526433Y00967200D01*
X00525380D01*
Y00967200D01*
X00501380Y00967200D01*
X00501380Y00983200D01*
X00525380Y00983200D01*
D02*
G37*
G36*
X00727220Y00865600D02*
X00703220D01*
X00702167Y00865600D01*
X00700132Y00866145D01*
X00698308Y00867198D01*
X00696818Y00868688D01*
X00695765Y00870512D01*
X00695220Y00872547D01*
Y00874653D01*
X00695765Y00876688D01*
X00696818Y00878512D01*
X00698308Y00880002D01*
X00700132Y00881055D01*
X00702167Y00881600D01*
X00727220D01*
X00727220Y00865600D01*
D02*
G37*
G36*
X00703220Y00907000D02*
X00727220D01*
X00727220Y00891000D01*
X00703220D01*
X00702167Y00891000D01*
X00700132Y00891545D01*
X00698308Y00892598D01*
X00696818Y00894088D01*
X00695765Y00895912D01*
X00695220Y00897947D01*
Y00900053D01*
X00695765Y00902088D01*
X00696818Y00903912D01*
X00698308Y00905402D01*
X00700132Y00906455D01*
X00702167Y00907000D01*
X00703220D01*
Y00907000D01*
D02*
G37*
G36*
X00727220Y00916400D02*
X00703220Y00916400D01*
Y00916400D01*
X00702167D01*
X00700132Y00916945D01*
X00698308Y00917998D01*
X00696818Y00919488D01*
X00695765Y00921312D01*
X00695220Y00923347D01*
Y00925453D01*
X00695765Y00927488D01*
X00696818Y00929312D01*
X00698308Y00930802D01*
X00700132Y00931855D01*
X00702167Y00932400D01*
X00703220D01*
X00703220Y00932400D01*
X00727220D01*
X00727220Y00916400D01*
D02*
G37*
G36*
Y00941800D02*
X00703220D01*
X00702167Y00941800D01*
X00700132Y00942345D01*
X00698308Y00943398D01*
X00696818Y00944888D01*
X00695765Y00946712D01*
X00695220Y00948747D01*
Y00950853D01*
X00695765Y00952888D01*
X00696818Y00954712D01*
X00698308Y00956202D01*
X00700132Y00957255D01*
X00702167Y00957800D01*
X00727220D01*
X00727220Y00941800D01*
D02*
G37*
G36*
X00727220Y00967200D02*
X00703220Y00967200D01*
Y00967200D01*
X00702167D01*
X00700132Y00967745D01*
X00698308Y00968798D01*
X00696818Y00970288D01*
X00695765Y00972112D01*
X00695220Y00974147D01*
Y00976253D01*
X00695765Y00978288D01*
X00696818Y00980112D01*
X00698308Y00981602D01*
X00700132Y00982655D01*
X00702167Y00983200D01*
X00727220D01*
X00727220Y00967200D01*
D02*
G37*
D19*
X00347027Y00118238D02*
D03*
X00223427Y00118268D02*
D03*
X00590881Y00118238D02*
D03*
X00469347D02*
D03*
D20*
X00749420Y00980440D02*
D03*
X00764420D02*
D03*
X00079700Y00092646D02*
D03*
X00094700D02*
D03*
X00079700Y00422846D02*
D03*
X00094700D02*
D03*
X00079700Y00670496D02*
D03*
X00094700D02*
D03*
X00079700Y00505396D02*
D03*
X00094700D02*
D03*
X00079700Y00753046D02*
D03*
X00094700D02*
D03*
X00891540Y00072454D02*
D03*
X00876540D02*
D03*
X00875540Y00320104D02*
D03*
X00890540D02*
D03*
X00079700Y00175196D02*
D03*
X00094700D02*
D03*
X00526796Y00139117D02*
D03*
X00541796D02*
D03*
X00280876D02*
D03*
X00295876D02*
D03*
X00079700Y00257746D02*
D03*
X00094700D02*
D03*
X00648330Y00139117D02*
D03*
X00663330D02*
D03*
X00875540Y00567754D02*
D03*
X00890540D02*
D03*
X00079700Y00340296D02*
D03*
X00094700D02*
D03*
X00079700Y00587946D02*
D03*
X00094700D02*
D03*
X00876810Y00237554D02*
D03*
X00891810Y00237554D02*
D03*
X00875540Y00815395D02*
D03*
X00890540D02*
D03*
X00404476Y00139117D02*
D03*
X00419476D02*
D03*
X00875540Y00485204D02*
D03*
X00890540D02*
D03*
X00875540Y00650304D02*
D03*
X00890540D02*
D03*
X00094700Y00835596D02*
D03*
X00079700Y00835596D02*
D03*
Y00918146D02*
D03*
X00094700D02*
D03*
X00876540Y00155004D02*
D03*
X00891540D02*
D03*
X00875540Y00402654D02*
D03*
X00890540D02*
D03*
X00875540Y00732854D02*
D03*
X00890540D02*
D03*
X00094700Y00010160D02*
D03*
X00079700D02*
D03*
X00890540Y00980704D02*
D03*
X00875540Y00980704D02*
D03*
X00890540Y00896664D02*
D03*
X00875540D02*
D03*
D21*
X00748920Y00951230D02*
D03*
X00764920D02*
D03*
X00830960Y00040640D02*
D03*
X00814960D02*
D03*
X00863980Y00154940D02*
D03*
X00847980D02*
D03*
X00815230Y00205740D02*
D03*
X00831230D02*
D03*
X00813960Y00288290D02*
D03*
X00829960D02*
D03*
X00864250Y00237490D02*
D03*
X00848250D02*
D03*
X00156280Y00057150D02*
D03*
X00140280D02*
D03*
X00829960Y00588010D02*
D03*
X00813960D02*
D03*
X00813960Y00685800D02*
D03*
X00829960D02*
D03*
X00813960Y00768341D02*
D03*
X00829960D02*
D03*
X00156280Y00320040D02*
D03*
X00140280D02*
D03*
Y00454660D02*
D03*
X00156280D02*
D03*
Y00402590D02*
D03*
X00140280D02*
D03*
Y00372110D02*
D03*
X00156280D02*
D03*
X00123260Y00422910D02*
D03*
X00107260D02*
D03*
X00123260Y00505460D02*
D03*
X00107260D02*
D03*
X00156280Y00567690D02*
D03*
X00140280D02*
D03*
X00156280Y00650240D02*
D03*
X00140280D02*
D03*
Y00619760D02*
D03*
X00156280D02*
D03*
X00123260Y00670560D02*
D03*
X00107260D02*
D03*
X00140280Y00702310D02*
D03*
X00156280D02*
D03*
X00123260Y00753110D02*
D03*
X00107260D02*
D03*
X00140280Y00965200D02*
D03*
X00156280D02*
D03*
X00814960Y00010160D02*
D03*
X00830960D02*
D03*
X00280376Y00155279D02*
D03*
X00296376Y00155279D02*
D03*
X00830960Y00092710D02*
D03*
X00814960D02*
D03*
Y00107950D02*
D03*
X00830960D02*
D03*
X00815230Y00190500D02*
D03*
X00831230D02*
D03*
X00526296Y00155279D02*
D03*
X00542296D02*
D03*
X00862980Y00485140D02*
D03*
X00846980D02*
D03*
X00862980Y00402590D02*
D03*
X00846980D02*
D03*
X00107260Y00010160D02*
D03*
X00123260D02*
D03*
X00829960Y00753101D02*
D03*
X00813960D02*
D03*
X00140280Y00072390D02*
D03*
X00156280D02*
D03*
X00829960Y00834370D02*
D03*
X00813960D02*
D03*
X00862980Y00650240D02*
D03*
X00846980D02*
D03*
X00813960Y00453390D02*
D03*
X00829960D02*
D03*
X00140280Y00154940D02*
D03*
X00156280D02*
D03*
X00140280Y00207010D02*
D03*
X00156280D02*
D03*
X00349527Y00155279D02*
D03*
X00333527D02*
D03*
X00123260Y00175260D02*
D03*
X00107260D02*
D03*
X00156280Y00124460D02*
D03*
X00140280D02*
D03*
X00862980Y00732790D02*
D03*
X00846980D02*
D03*
X00813960Y00701040D02*
D03*
X00829960D02*
D03*
X00813960Y00535940D02*
D03*
X00829960D02*
D03*
X00123260Y00257810D02*
D03*
X00107260D02*
D03*
X00813960Y00783581D02*
D03*
X00829960D02*
D03*
X00140280Y00552450D02*
D03*
X00156280D02*
D03*
X00140280Y00717550D02*
D03*
X00156280D02*
D03*
X00829960Y00257810D02*
D03*
X00813960Y00257810D02*
D03*
X00829960Y00340360D02*
D03*
X00813960D02*
D03*
Y00355600D02*
D03*
X00829960D02*
D03*
X00862980Y00896600D02*
D03*
X00846980D02*
D03*
X00471847Y00155279D02*
D03*
X00455847D02*
D03*
X00813960Y00438150D02*
D03*
X00829960D02*
D03*
X00813960Y00603250D02*
D03*
X00829960D02*
D03*
X00156280Y00139700D02*
D03*
X00140280D02*
D03*
X00862980Y00980640D02*
D03*
X00846980D02*
D03*
X00829960Y00505460D02*
D03*
X00813960Y00505460D02*
D03*
X00140280Y00304800D02*
D03*
X00156280D02*
D03*
X00140280Y00387350D02*
D03*
X00156280D02*
D03*
X00386890Y00656630D02*
D03*
X00402890D02*
D03*
X00140280Y00784860D02*
D03*
X00156280D02*
D03*
Y00732790D02*
D03*
X00140280D02*
D03*
Y00897890D02*
D03*
X00156280D02*
D03*
X00140280Y00949960D02*
D03*
X00156280D02*
D03*
X00814960Y00123190D02*
D03*
X00830960D02*
D03*
X00847980Y00072390D02*
D03*
X00863980D02*
D03*
X00862980Y00320040D02*
D03*
X00846980D02*
D03*
X00813960Y00370840D02*
D03*
X00829960Y00370840D02*
D03*
X00813960Y00849610D02*
D03*
X00829960D02*
D03*
X00813960Y00933650D02*
D03*
X00829960D02*
D03*
X00225927Y00155279D02*
D03*
X00209927D02*
D03*
X00140280Y00289560D02*
D03*
X00156280D02*
D03*
Y00237490D02*
D03*
X00140280D02*
D03*
X00123260Y00340360D02*
D03*
X00107260D02*
D03*
X00156280Y00485140D02*
D03*
X00140280D02*
D03*
Y00537210D02*
D03*
X00156280D02*
D03*
X00123260Y00588010D02*
D03*
X00107260D02*
D03*
X00140280Y00800100D02*
D03*
X00156280D02*
D03*
X00140280Y00882650D02*
D03*
X00156280D02*
D03*
X00830960Y00025400D02*
D03*
X00814960D02*
D03*
X00831230Y00175260D02*
D03*
X00815230D02*
D03*
X00403976Y00155279D02*
D03*
X00419976D02*
D03*
X00647830D02*
D03*
X00663830D02*
D03*
X00813960Y00273050D02*
D03*
X00829960D02*
D03*
X00813960Y00864850D02*
D03*
X00829960D02*
D03*
X00593381Y00155279D02*
D03*
X00577381D02*
D03*
X00156280Y00041910D02*
D03*
X00140280D02*
D03*
X00813960Y00948890D02*
D03*
X00829960D02*
D03*
X00862980Y00815331D02*
D03*
X00846980D02*
D03*
X00813960Y00618490D02*
D03*
X00829960Y00618490D02*
D03*
X00107260Y00092710D02*
D03*
X00123260D02*
D03*
X00862980Y00567690D02*
D03*
X00846980D02*
D03*
X00140280Y00469900D02*
D03*
X00156280D02*
D03*
X00416180Y00656630D02*
D03*
X00432180D02*
D03*
X00140280Y00635000D02*
D03*
X00156280D02*
D03*
X00357704Y00656630D02*
D03*
X00373704D02*
D03*
X00156280Y00980440D02*
D03*
X00140280D02*
D03*
X00829960Y00422910D02*
D03*
X00813960D02*
D03*
X00140280Y00222250D02*
D03*
X00156280D02*
D03*
X00813960Y00520700D02*
D03*
X00829960D02*
D03*
X00829960Y00670560D02*
D03*
X00813960Y00670560D02*
D03*
X00107260Y00835660D02*
D03*
X00123260D02*
D03*
Y00918210D02*
D03*
X00107260D02*
D03*
X00829960Y00918410D02*
D03*
X00813960D02*
D03*
X00156280Y00867410D02*
D03*
X00140280D02*
D03*
X00156280Y00815340D02*
D03*
X00140280D02*
D03*
D22*
X00337247Y00124738D02*
D03*
X00213647Y00124768D02*
D03*
X00581101Y00124738D02*
D03*
X00459566D02*
D03*
D23*
X00337247Y00118238D02*
D03*
Y00111738D02*
D03*
X00356807D02*
D03*
Y00118238D02*
D03*
Y00124738D02*
D03*
X00213647Y00118268D02*
D03*
Y00111768D02*
D03*
X00233207D02*
D03*
Y00118268D02*
D03*
Y00124768D02*
D03*
X00600661Y00124738D02*
D03*
Y00118238D02*
D03*
Y00111738D02*
D03*
X00581101D02*
D03*
Y00118238D02*
D03*
X00479127Y00124738D02*
D03*
Y00118238D02*
D03*
Y00111738D02*
D03*
X00459566D02*
D03*
Y00118238D02*
D03*
D24*
X00405890Y00677380D02*
D03*
X00396390D02*
D03*
X00386890D02*
D03*
Y00704379D02*
D03*
X00396390D02*
D03*
X00405890D02*
D03*
D25*
X00548668Y00110617D02*
D03*
Y00123617D02*
D03*
X00426348Y00110617D02*
D03*
Y00123617D02*
D03*
X00302748Y00110617D02*
D03*
Y00123617D02*
D03*
X00670202Y00110617D02*
D03*
Y00123617D02*
D03*
X00709930Y00288140D02*
D03*
Y00301140D02*
D03*
Y00344320D02*
D03*
Y00331320D02*
D03*
X00291924Y00286728D02*
D03*
Y00299728D02*
D03*
X00290830Y00343050D02*
D03*
Y00330050D02*
D03*
X00426720Y00691030D02*
D03*
Y00678030D02*
D03*
X00381000Y00491770D02*
D03*
Y00478770D02*
D03*
X00431800Y00491520D02*
D03*
Y00478520D02*
D03*
D26*
X00521596Y00125481D02*
D03*
Y00109481D02*
D03*
X00275676Y00125481D02*
D03*
Y00109481D02*
D03*
X00643130D02*
D03*
Y00125481D02*
D03*
X00616840Y00109481D02*
D03*
Y00125481D02*
D03*
X00682742Y00345820D02*
D03*
Y00329820D02*
D03*
X00264702Y00302228D02*
D03*
Y00286228D02*
D03*
X00448729Y00547560D02*
D03*
Y00531560D02*
D03*
X00249386Y00109481D02*
D03*
Y00125481D02*
D03*
X00237480Y00345570D02*
D03*
Y00329570D02*
D03*
X00682742Y00302340D02*
D03*
Y00286340D02*
D03*
X00655520Y00345820D02*
D03*
Y00329820D02*
D03*
X00495306Y00109481D02*
D03*
Y00125481D02*
D03*
X00372986Y00109481D02*
D03*
Y00125481D02*
D03*
X00399276Y00109481D02*
D03*
Y00125481D02*
D03*
X00237480Y00302228D02*
D03*
Y00286228D02*
D03*
X00396240Y00477020D02*
D03*
Y00493020D02*
D03*
X00466200Y00477020D02*
D03*
Y00493020D02*
D03*
X00448730Y00477270D02*
D03*
Y00493270D02*
D03*
X00466393Y00547560D02*
D03*
Y00531560D02*
D03*
X00264702Y00345570D02*
D03*
Y00329570D02*
D03*
X00412100Y00477270D02*
D03*
Y00493270D02*
D03*
X00655520Y00302340D02*
D03*
Y00286340D02*
D03*
D27*
X00282803Y00538367D02*
D03*
X00295803D02*
D03*
X00401390Y00637754D02*
D03*
X00388390D02*
D03*
X00401390Y00749610D02*
D03*
X00388390D02*
D03*
D28*
X00426720Y00742610D02*
D03*
Y00756610D02*
D03*
X00448310D02*
D03*
Y00742610D02*
D03*
D29*
X00307340Y00828180D02*
D03*
Y00782180D02*
D03*
X00349250Y00486270D02*
D03*
Y00532270D02*
D03*
D30*
X00714860Y00034290D02*
D03*
X00721360D02*
D03*
X00727860D02*
D03*
X00734360D02*
D03*
X00740860D02*
D03*
D31*
X00695860Y00032040D02*
D03*
X00759860D02*
D03*
D32*
X00715860Y00007540D02*
D03*
X00739860D02*
D03*
D33*
X00834960Y00064770D02*
D03*
X00810960Y00074270D02*
D03*
X00811230Y00239370D02*
D03*
X00835230Y00229870D02*
D03*
X00809960Y00321920D02*
D03*
X00833960Y00312420D02*
D03*
X00509846Y00147029D02*
D03*
X00485846Y00156529D02*
D03*
X00136280Y00430530D02*
D03*
X00160280Y00421030D02*
D03*
X00136280Y00347980D02*
D03*
X00160280Y00338480D02*
D03*
X00136280Y00595630D02*
D03*
X00160280Y00586130D02*
D03*
X00136280Y00678180D02*
D03*
X00160280Y00668680D02*
D03*
X00631380Y00147029D02*
D03*
X00607380Y00156529D02*
D03*
X00809960Y00487020D02*
D03*
X00833960Y00477520D02*
D03*
X00809960Y00569570D02*
D03*
X00833960Y00560070D02*
D03*
X00809960Y00734670D02*
D03*
X00833960Y00725170D02*
D03*
X00263926Y00147029D02*
D03*
X00239926Y00156529D02*
D03*
X00136280Y00182880D02*
D03*
X00160280Y00173380D02*
D03*
Y00090830D02*
D03*
X00136280Y00100330D02*
D03*
X00809960Y00817211D02*
D03*
X00833960Y00807711D02*
D03*
X00136280Y00760730D02*
D03*
X00160280Y00751230D02*
D03*
X00136280Y00925830D02*
D03*
X00160280Y00916330D02*
D03*
X00810960Y00156820D02*
D03*
X00834960Y00147320D02*
D03*
X00809960Y00404470D02*
D03*
X00833960Y00394970D02*
D03*
X00387526Y00147029D02*
D03*
X00363526Y00156529D02*
D03*
X00136280Y00265430D02*
D03*
X00160280Y00255930D02*
D03*
X00136280Y00513080D02*
D03*
X00160280Y00503580D02*
D03*
X00809960Y00898480D02*
D03*
X00833960Y00888980D02*
D03*
X00160280Y00008280D02*
D03*
X00136280Y00017780D02*
D03*
X00809960Y00982520D02*
D03*
X00833960Y00973020D02*
D03*
X00809960Y00652120D02*
D03*
X00833960Y00642620D02*
D03*
X00160280Y00833780D02*
D03*
X00136280Y00843280D02*
D03*
D34*
X00810960Y00055270D02*
D03*
X00811230Y00220370D02*
D03*
X00809960Y00302920D02*
D03*
X00485846Y00137529D02*
D03*
X00160280Y00440030D02*
D03*
Y00357480D02*
D03*
Y00605130D02*
D03*
Y00687680D02*
D03*
X00607380Y00137529D02*
D03*
X00809960Y00468020D02*
D03*
Y00550570D02*
D03*
Y00715670D02*
D03*
X00239926Y00137529D02*
D03*
X00160280Y00192380D02*
D03*
Y00109830D02*
D03*
X00809960Y00798211D02*
D03*
X00160280Y00770230D02*
D03*
Y00935330D02*
D03*
X00810960Y00137820D02*
D03*
X00809960Y00385470D02*
D03*
X00363526Y00137529D02*
D03*
X00160280Y00274930D02*
D03*
Y00522580D02*
D03*
X00809960Y00879480D02*
D03*
X00160280Y00027280D02*
D03*
X00809960Y00963520D02*
D03*
Y00633120D02*
D03*
X00160280Y00852780D02*
D03*
D35*
X00100020Y00058420D02*
D03*
X00871490Y00189230D02*
D03*
X00870220Y00436880D02*
D03*
Y00354330D02*
D03*
Y00601980D02*
D03*
X00100020Y00306070D02*
D03*
Y00223520D02*
D03*
Y00471170D02*
D03*
X00871220Y00024130D02*
D03*
X00870220Y00848340D02*
D03*
X00870220Y00932380D02*
D03*
Y00684530D02*
D03*
X00871220Y00106680D02*
D03*
X00870220Y00271780D02*
D03*
X00100020Y00388620D02*
D03*
Y00636270D02*
D03*
Y00553720D02*
D03*
Y00801370D02*
D03*
Y00140970D02*
D03*
X00870220Y00767071D02*
D03*
X00870220Y00519430D02*
D03*
X00100020Y00718820D02*
D03*
X00100020Y00883920D02*
D03*
X00100020Y00966470D02*
D03*
D36*
X00086020Y00054420D02*
D03*
X00114020Y00054420D02*
D03*
X00885490Y00193230D02*
D03*
X00857490Y00193230D02*
D03*
X00884220Y00440880D02*
D03*
X00856220Y00440880D02*
D03*
X00884220Y00358330D02*
D03*
X00856220Y00358330D02*
D03*
X00884220Y00605980D02*
D03*
X00856220Y00605980D02*
D03*
X00114020Y00302070D02*
D03*
X00086020Y00302070D02*
D03*
X00114020Y00219520D02*
D03*
X00086020Y00219520D02*
D03*
X00114020Y00467170D02*
D03*
X00086020Y00467170D02*
D03*
X00857220Y00028130D02*
D03*
X00885220Y00028130D02*
D03*
X00884220Y00852340D02*
D03*
X00856220Y00852340D02*
D03*
X00884220Y00936380D02*
D03*
X00856220Y00936380D02*
D03*
X00884220Y00688530D02*
D03*
X00856220Y00688530D02*
D03*
X00885220Y00110680D02*
D03*
X00857220Y00110680D02*
D03*
X00884220Y00275780D02*
D03*
X00856220Y00275780D02*
D03*
X00114020Y00384620D02*
D03*
X00086020Y00384620D02*
D03*
X00114020Y00632270D02*
D03*
X00086020Y00632270D02*
D03*
X00114020Y00549720D02*
D03*
X00086020Y00549720D02*
D03*
X00114020Y00797370D02*
D03*
X00086020Y00797370D02*
D03*
Y00136970D02*
D03*
X00114020Y00136970D02*
D03*
X00884220Y00771071D02*
D03*
X00856220Y00771071D02*
D03*
X00884220Y00523430D02*
D03*
X00856220Y00523430D02*
D03*
X00114020Y00714820D02*
D03*
X00086020Y00714820D02*
D03*
Y00879920D02*
D03*
X00114020Y00879920D02*
D03*
X00114020Y00962470D02*
D03*
X00086020Y00962470D02*
D03*
D37*
X00109770Y00068420D02*
D03*
X00103270D02*
D03*
X00096770D02*
D03*
X00090270D02*
D03*
X00109770Y00040420D02*
D03*
X00103270D02*
D03*
X00096770D02*
D03*
X00090270D02*
D03*
X00861740Y00179230D02*
D03*
X00868240D02*
D03*
X00874740D02*
D03*
X00881240D02*
D03*
X00861740Y00207230D02*
D03*
X00868240D02*
D03*
X00874740D02*
D03*
X00881240D02*
D03*
X00860470Y00426880D02*
D03*
X00866970D02*
D03*
X00873470D02*
D03*
X00879970D02*
D03*
X00860470Y00454880D02*
D03*
X00866970D02*
D03*
X00873470D02*
D03*
X00879970D02*
D03*
X00860470Y00344330D02*
D03*
X00866970D02*
D03*
X00873470D02*
D03*
X00879970D02*
D03*
X00860470Y00372330D02*
D03*
X00866970Y00372330D02*
D03*
X00873470Y00372330D02*
D03*
X00879970Y00372330D02*
D03*
X00860470Y00591980D02*
D03*
X00866970D02*
D03*
X00873470D02*
D03*
X00879970D02*
D03*
X00860470Y00619980D02*
D03*
X00866970Y00619980D02*
D03*
X00873470Y00619980D02*
D03*
X00879970Y00619980D02*
D03*
X00090270Y00288070D02*
D03*
X00096770D02*
D03*
X00103270D02*
D03*
X00109770D02*
D03*
X00090270Y00316070D02*
D03*
X00096770D02*
D03*
X00103270D02*
D03*
X00109770D02*
D03*
X00090270Y00205520D02*
D03*
X00096770D02*
D03*
X00103270D02*
D03*
X00109770D02*
D03*
X00090270Y00233520D02*
D03*
X00096770D02*
D03*
X00103270D02*
D03*
X00109770D02*
D03*
X00090270Y00453170D02*
D03*
X00096770D02*
D03*
X00103270D02*
D03*
X00109770D02*
D03*
X00090270Y00481170D02*
D03*
X00096770D02*
D03*
X00103270D02*
D03*
X00109770D02*
D03*
X00880970Y00042130D02*
D03*
X00874470D02*
D03*
X00867970D02*
D03*
X00861470D02*
D03*
X00880970Y00014130D02*
D03*
X00874470D02*
D03*
X00867970D02*
D03*
X00861470D02*
D03*
X00860470Y00838340D02*
D03*
X00866970D02*
D03*
X00873470D02*
D03*
X00879970D02*
D03*
X00860470Y00866340D02*
D03*
X00866970Y00866340D02*
D03*
X00873470Y00866340D02*
D03*
X00879970Y00866340D02*
D03*
X00860470Y00922380D02*
D03*
X00866970D02*
D03*
X00873470D02*
D03*
X00879970D02*
D03*
X00860470Y00950380D02*
D03*
X00866970D02*
D03*
X00873470D02*
D03*
X00879970D02*
D03*
X00860470Y00674530D02*
D03*
X00866970D02*
D03*
X00873470D02*
D03*
X00879970D02*
D03*
X00860470Y00702530D02*
D03*
X00866970Y00702530D02*
D03*
X00873470Y00702530D02*
D03*
X00879970Y00702530D02*
D03*
X00861470Y00096680D02*
D03*
X00867970D02*
D03*
X00874470D02*
D03*
X00880970D02*
D03*
X00861470Y00124680D02*
D03*
X00867970D02*
D03*
X00874470D02*
D03*
X00880970D02*
D03*
X00860470Y00261780D02*
D03*
X00866970D02*
D03*
X00873470D02*
D03*
X00879970D02*
D03*
X00860470Y00289780D02*
D03*
X00866970D02*
D03*
X00873470D02*
D03*
X00879970D02*
D03*
X00090270Y00370620D02*
D03*
X00096770D02*
D03*
X00103270D02*
D03*
X00109770D02*
D03*
X00090270Y00398620D02*
D03*
X00096770D02*
D03*
X00103270D02*
D03*
X00109770D02*
D03*
X00090270Y00618270D02*
D03*
X00096770D02*
D03*
X00103270D02*
D03*
X00109770D02*
D03*
X00090270Y00646270D02*
D03*
X00096770D02*
D03*
X00103270D02*
D03*
X00109770D02*
D03*
X00090270Y00535720D02*
D03*
X00096770D02*
D03*
X00103270D02*
D03*
X00109770D02*
D03*
X00090270Y00563720D02*
D03*
X00096770D02*
D03*
X00103270D02*
D03*
X00109770D02*
D03*
X00090270Y00783370D02*
D03*
X00096770D02*
D03*
X00103270D02*
D03*
X00109770D02*
D03*
X00090270Y00811370D02*
D03*
X00096770D02*
D03*
X00103270D02*
D03*
X00109770D02*
D03*
Y00150970D02*
D03*
X00103270D02*
D03*
X00096770D02*
D03*
X00090270D02*
D03*
X00109770Y00122970D02*
D03*
X00103270D02*
D03*
X00096770D02*
D03*
X00090270D02*
D03*
X00860470Y00757071D02*
D03*
X00866970D02*
D03*
X00873470D02*
D03*
X00879970D02*
D03*
X00860470Y00785071D02*
D03*
X00866970Y00785071D02*
D03*
X00873470Y00785071D02*
D03*
X00879970Y00785071D02*
D03*
X00860470Y00509430D02*
D03*
X00866970D02*
D03*
X00873470D02*
D03*
X00879970D02*
D03*
X00860470Y00537430D02*
D03*
X00866970D02*
D03*
X00873470D02*
D03*
X00879970D02*
D03*
X00090270Y00700820D02*
D03*
X00096770D02*
D03*
X00103270D02*
D03*
X00109770D02*
D03*
X00090270Y00728820D02*
D03*
X00096770D02*
D03*
X00103270D02*
D03*
X00109770D02*
D03*
Y00893920D02*
D03*
X00103270D02*
D03*
X00096770D02*
D03*
X00090270D02*
D03*
X00109770Y00865920D02*
D03*
X00103270Y00865920D02*
D03*
X00096770Y00865920D02*
D03*
X00090270Y00865920D02*
D03*
Y00948470D02*
D03*
X00096770D02*
D03*
X00103270D02*
D03*
X00109770D02*
D03*
X00090270Y00976470D02*
D03*
X00096770D02*
D03*
X00103270D02*
D03*
X00109770D02*
D03*
D38*
X00237700Y00521860D02*
D03*
Y00515360D02*
D03*
Y00508860D02*
D03*
Y00502360D02*
D03*
Y00495860D02*
D03*
Y00489360D02*
D03*
Y00482860D02*
D03*
Y00476360D02*
D03*
X00295700Y00521860D02*
D03*
Y00515360D02*
D03*
Y00508860D02*
D03*
Y00502360D02*
D03*
Y00495860D02*
D03*
Y00489360D02*
D03*
Y00482860D02*
D03*
Y00476360D02*
D03*
D39*
X00240030Y00829310D02*
D03*
Y00763310D02*
D03*
D40*
X00713700Y00975360D02*
D03*
Y00949960D02*
D03*
Y00924560D02*
D03*
Y00899160D02*
D03*
Y00873760D02*
D03*
Y00848360D02*
D03*
Y00822960D02*
D03*
Y00797560D02*
D03*
Y00772160D02*
D03*
Y00746760D02*
D03*
Y00721360D02*
D03*
Y00695960D02*
D03*
Y00670560D02*
D03*
Y00645160D02*
D03*
Y00619760D02*
D03*
Y00594360D02*
D03*
Y00568960D02*
D03*
Y00518160D02*
D03*
Y00492760D02*
D03*
X00514900D02*
D03*
X00514900Y00518160D02*
D03*
Y00543560D02*
D03*
X00514900Y00568960D02*
D03*
Y00594360D02*
D03*
X00514900Y00619760D02*
D03*
Y00645160D02*
D03*
Y00670560D02*
D03*
X00514900Y00695960D02*
D03*
Y00721360D02*
D03*
X00514900Y00746760D02*
D03*
Y00772160D02*
D03*
X00514900Y00797560D02*
D03*
X00514900Y00822960D02*
D03*
Y00848360D02*
D03*
Y00873760D02*
D03*
Y00899160D02*
D03*
X00514900Y00924560D02*
D03*
Y00949960D02*
D03*
X00514900Y00975360D02*
D03*
D41*
X00711200Y00543560D02*
D03*
D42*
X00624201Y00490988D02*
D03*
X00604201Y00490988D02*
D03*
X00614201Y00523988D02*
D03*
X00639201Y00573987D02*
D03*
Y00598987D02*
D03*
Y00623987D02*
D03*
D43*
X00655520Y00443760D02*
D03*
X00702520Y00365760D02*
D03*
Y00443760D02*
D03*
X00655520Y00365760D02*
D03*
X00237480Y00188288D02*
D03*
X00284480Y00266288D02*
D03*
Y00188288D02*
D03*
X00237480Y00266288D02*
D03*
X00655520Y00188400D02*
D03*
X00702520Y00266400D02*
D03*
Y00188400D02*
D03*
X00655520Y00266400D02*
D03*
X00237480Y00443760D02*
D03*
X00284480Y00365760D02*
D03*
Y00443760D02*
D03*
X00237480Y00365760D02*
D03*
D44*
X00363890Y00814070D02*
D03*
X00428890D02*
D03*
D45*
X00387970Y00732790D02*
D03*
X00401970D02*
D03*
M02*
