G04*
G04 #@! TF.GenerationSoftware,Altium Limited,Altium Designer,23.2.1 (34)*
G04*
G04 Layer_Color=8388736*
%FSAX44Y44*%
%MOMM*%
G71*
G04*
G04 #@! TF.SameCoordinates,82B26229-18A1-4F51-8350-021A8CAF8BEE*
G04*
G04*
G04 #@! TF.FilePolarity,Negative*
G04*
G01*
G75*
%ADD22R,0.5561X0.2925*%
G04:AMPARAMS|DCode=23|XSize=0.5561mm|YSize=0.2925mm|CornerRadius=0.1462mm|HoleSize=0mm|Usage=FLASHONLY|Rotation=0.000|XOffset=0mm|YOffset=0mm|HoleType=Round|Shape=RoundedRectangle|*
%AMROUNDEDRECTD23*
21,1,0.5561,0.0000,0,0,0.0*
21,1,0.2636,0.2925,0,0,0.0*
1,1,0.2925,0.1318,0.0000*
1,1,0.2925,-0.1318,0.0000*
1,1,0.2925,-0.1318,0.0000*
1,1,0.2925,0.1318,0.0000*
%
%ADD23ROUNDEDRECTD23*%
G04:AMPARAMS|DCode=24|XSize=1.1mm|YSize=0.6mm|CornerRadius=0.051mm|HoleSize=0mm|Usage=FLASHONLY|Rotation=270.000|XOffset=0mm|YOffset=0mm|HoleType=Round|Shape=RoundedRectangle|*
%AMROUNDEDRECTD24*
21,1,1.1000,0.4980,0,0,270.0*
21,1,0.9980,0.6000,0,0,270.0*
1,1,0.1020,-0.2490,-0.4990*
1,1,0.1020,-0.2490,0.4990*
1,1,0.1020,0.2490,0.4990*
1,1,0.1020,0.2490,-0.4990*
%
%ADD24ROUNDEDRECTD24*%
%ADD46R,1.0032X1.0032*%
%ADD47R,1.0032X1.3032*%
%ADD48R,1.1000X1.7000*%
%ADD49R,1.1032X1.0532*%
%ADD50R,1.3032X1.0032*%
%ADD51R,1.0532X1.1032*%
%ADD52R,1.5532X1.3032*%
%ADD53R,2.8032X2.6032*%
%ADD54R,0.6032X1.5532*%
%ADD55R,1.8032X1.6032*%
%ADD56R,2.1032X2.1032*%
%ADD57R,1.2032X1.0532*%
%ADD58R,1.2032X1.0532*%
%ADD59R,2.6032X2.1032*%
%ADD60R,0.7032X0.5532*%
%ADD61R,0.5532X0.7032*%
%ADD62O,1.7032X0.6532*%
%ADD63R,3.5032X2.6032*%
%ADD64R,2.7032X1.2032*%
G04:AMPARAMS|DCode=65|XSize=2.7032mm|YSize=1.2032mm|CornerRadius=0.2266mm|HoleSize=0mm|Usage=FLASHONLY|Rotation=180.000|XOffset=0mm|YOffset=0mm|HoleType=Round|Shape=RoundedRectangle|*
%AMROUNDEDRECTD65*
21,1,2.7032,0.7500,0,0,180.0*
21,1,2.2500,1.2032,0,0,180.0*
1,1,0.4532,-1.1250,0.3750*
1,1,0.4532,1.1250,0.3750*
1,1,0.4532,1.1250,-0.3750*
1,1,0.4532,-1.1250,-0.3750*
%
%ADD65ROUNDEDRECTD65*%
G04:AMPARAMS|DCode=66|XSize=1.7032mm|YSize=1.7032mm|CornerRadius=0.3266mm|HoleSize=0mm|Usage=FLASHONLY|Rotation=180.000|XOffset=0mm|YOffset=0mm|HoleType=Round|Shape=RoundedRectangle|*
%AMROUNDEDRECTD66*
21,1,1.7032,1.0500,0,0,180.0*
21,1,1.0500,1.7032,0,0,180.0*
1,1,0.6532,-0.5250,0.5250*
1,1,0.6532,0.5250,0.5250*
1,1,0.6532,0.5250,-0.5250*
1,1,0.6532,-0.5250,-0.5250*
%
%ADD66ROUNDEDRECTD66*%
%ADD67R,1.8032X1.6032*%
%ADD68R,2.7032X8.3032*%
%ADD69R,1.3032X1.5532*%
%ADD70O,2.5032X2.0032*%
%ADD71O,2.0032X2.5032*%
%ADD72O,1.1032X1.8032*%
%ADD73O,2.0032X3.2032*%
%ADD74R,2.0032X3.2032*%
%ADD75C,0.2032*%
%ADD76O,1.8032X2.2032*%
%ADD77R,1.8032X2.2032*%
%ADD78C,1.9032*%
%ADD79R,1.7032X1.7032*%
%ADD80C,1.7032*%
%ADD81O,6.2032X2.7032*%
%ADD82O,6.2032X2.4532*%
%ADD83O,2.4532X6.2032*%
G36*
X00525380Y00501618D02*
X00526433D01*
X00526566Y00501609D01*
X00526697Y00501584D01*
X00528731Y00501038D01*
X00528857Y00500995D01*
X00528977Y00500937D01*
X00530801Y00499883D01*
X00530912Y00499809D01*
X00531012Y00499721D01*
X00532501Y00498232D01*
X00532589Y00498132D01*
X00532663Y00498021D01*
X00533717Y00496197D01*
X00533775Y00496077D01*
X00533818Y00495951D01*
X00534364Y00493917D01*
X00534389Y00493786D01*
X00534398Y00493653D01*
Y00491547D01*
X00534389Y00491414D01*
X00534364Y00491283D01*
X00533818Y00489249D01*
X00533775Y00489122D01*
X00533717Y00489003D01*
X00532663Y00487179D01*
X00532589Y00487068D01*
X00532501Y00486968D01*
X00531012Y00485478D01*
X00530912Y00485391D01*
X00530801Y00485317D01*
X00528977Y00484263D01*
X00528917Y00484234D01*
X00528857Y00484204D01*
X00528731Y00484162D01*
X00526697Y00483616D01*
X00526566Y00483591D01*
X00526433Y00483582D01*
X00525380D01*
X00525379Y00483582D01*
X00501380D01*
X00501247Y00483591D01*
X00501116Y00483616D01*
X00500990Y00483659D01*
X00500871Y00483718D01*
X00500760Y00483792D01*
X00500660Y00483880D01*
X00500572Y00483980D01*
X00500498Y00484091D01*
X00500439Y00484210D01*
X00500396Y00484337D01*
X00500370Y00484467D01*
X00500362Y00484600D01*
X00500362Y00500600D01*
X00500370Y00500733D01*
X00500396Y00500863D01*
X00500439Y00500990D01*
X00500498Y00501109D01*
X00500572Y00501220D01*
X00500660Y00501320D01*
X00500760Y00501408D01*
X00500871Y00501482D01*
X00500990Y00501541D01*
X00501116Y00501584D01*
X00501247Y00501609D01*
X00501380Y00501618D01*
X00525380D01*
X00525380Y00501618D01*
D02*
G37*
G36*
X00525380Y00527018D02*
X00526433D01*
X00526566Y00527010D01*
X00526697Y00526983D01*
X00528731Y00526438D01*
X00528857Y00526395D01*
X00528977Y00526337D01*
X00530801Y00525283D01*
X00530912Y00525209D01*
X00531012Y00525122D01*
X00532501Y00523632D01*
X00532589Y00523532D01*
X00532663Y00523421D01*
X00533717Y00521597D01*
X00533775Y00521478D01*
X00533818Y00521351D01*
X00534364Y00519317D01*
X00534389Y00519186D01*
X00534398Y00519053D01*
Y00516947D01*
X00534389Y00516814D01*
X00534364Y00516683D01*
X00533818Y00514649D01*
X00533775Y00514522D01*
X00533717Y00514403D01*
X00532663Y00512579D01*
X00532589Y00512468D01*
X00532501Y00512368D01*
X00531012Y00510878D01*
X00530912Y00510791D01*
X00530801Y00510717D01*
X00528977Y00509663D01*
X00528917Y00509634D01*
X00528857Y00509604D01*
X00528731Y00509562D01*
X00526697Y00509016D01*
X00526566Y00508991D01*
X00526433Y00508982D01*
X00525380D01*
X00525379Y00508982D01*
X00501380Y00508982D01*
X00501247Y00508991D01*
X00501116Y00509016D01*
X00500990Y00509059D01*
X00500871Y00509118D01*
X00500760Y00509192D01*
X00500660Y00509280D01*
X00500572Y00509380D01*
X00500498Y00509491D01*
X00500439Y00509610D01*
X00500396Y00509737D01*
X00500370Y00509867D01*
X00500362Y00510000D01*
X00500362Y00526000D01*
X00500370Y00526133D01*
X00500396Y00526264D01*
X00500439Y00526390D01*
X00500498Y00526509D01*
X00500572Y00526620D01*
X00500660Y00526720D01*
X00500760Y00526808D01*
X00500871Y00526882D01*
X00500990Y00526941D01*
X00501116Y00526983D01*
X00501247Y00527010D01*
X00501380Y00527018D01*
X00525380Y00527018D01*
D02*
G37*
G36*
X00526566Y00552410D02*
X00526697Y00552383D01*
X00528731Y00551838D01*
X00528857Y00551796D01*
X00528977Y00551737D01*
X00530801Y00550683D01*
X00530912Y00550609D01*
X00531012Y00550522D01*
X00532501Y00549032D01*
X00532589Y00548932D01*
X00532663Y00548821D01*
X00533717Y00546997D01*
X00533775Y00546878D01*
X00533818Y00546751D01*
X00534364Y00544717D01*
X00534389Y00544586D01*
X00534398Y00544453D01*
Y00542347D01*
X00534389Y00542214D01*
X00534364Y00542083D01*
X00533818Y00540049D01*
X00533775Y00539922D01*
X00533717Y00539803D01*
X00532663Y00537979D01*
X00532589Y00537868D01*
X00532501Y00537768D01*
X00531012Y00536278D01*
X00530912Y00536191D01*
X00530801Y00536117D01*
X00528977Y00535063D01*
X00528917Y00535034D01*
X00528857Y00535005D01*
X00528731Y00534962D01*
X00526697Y00534417D01*
X00526566Y00534390D01*
X00526433Y00534382D01*
X00525380D01*
X00525379Y00534382D01*
X00501380Y00534382D01*
X00501247Y00534390D01*
X00501116Y00534417D01*
X00500990Y00534459D01*
X00500871Y00534518D01*
X00500760Y00534592D01*
X00500660Y00534680D01*
X00500572Y00534780D01*
X00500498Y00534891D01*
X00500439Y00535010D01*
X00500396Y00535136D01*
X00500370Y00535267D01*
X00500362Y00535400D01*
X00500362Y00551400D01*
X00500370Y00551533D01*
X00500396Y00551664D01*
X00500439Y00551790D01*
X00500498Y00551909D01*
X00500572Y00552020D01*
X00500660Y00552120D01*
X00500760Y00552208D01*
X00500871Y00552282D01*
X00500990Y00552341D01*
X00501116Y00552383D01*
X00501247Y00552410D01*
X00501380Y00552418D01*
X00526433D01*
X00526566Y00552410D01*
D02*
G37*
G36*
X00525380Y00577818D02*
X00526433D01*
X00526566Y00577809D01*
X00526697Y00577784D01*
X00528731Y00577238D01*
X00528857Y00577196D01*
X00528977Y00577137D01*
X00530801Y00576083D01*
X00530912Y00576009D01*
X00531012Y00575922D01*
X00532502Y00574432D01*
X00532589Y00574332D01*
X00532663Y00574221D01*
X00533717Y00572397D01*
X00533775Y00572277D01*
X00533818Y00572151D01*
X00534364Y00570117D01*
X00534389Y00569986D01*
X00534398Y00569853D01*
Y00567747D01*
X00534389Y00567614D01*
X00534364Y00567483D01*
X00533818Y00565449D01*
X00533775Y00565322D01*
X00533717Y00565203D01*
X00532663Y00563379D01*
X00532589Y00563268D01*
X00532502Y00563168D01*
X00531012Y00561678D01*
X00530912Y00561591D01*
X00530801Y00561517D01*
X00528977Y00560463D01*
X00528917Y00560434D01*
X00528857Y00560405D01*
X00528731Y00560362D01*
X00526697Y00559817D01*
X00526566Y00559790D01*
X00526433Y00559782D01*
X00525380D01*
X00501380Y00559782D01*
X00501247Y00559791D01*
X00501116Y00559817D01*
X00500990Y00559859D01*
X00500871Y00559918D01*
X00500760Y00559992D01*
X00500660Y00560080D01*
X00500572Y00560180D01*
X00500498Y00560291D01*
X00500439Y00560410D01*
X00500396Y00560536D01*
X00500370Y00560667D01*
X00500362Y00560800D01*
Y00576800D01*
X00500370Y00576933D01*
X00500396Y00577063D01*
X00500439Y00577190D01*
X00500498Y00577309D01*
X00500572Y00577420D01*
X00500660Y00577520D01*
X00500760Y00577608D01*
X00500871Y00577682D01*
X00500990Y00577741D01*
X00501116Y00577784D01*
X00501247Y00577809D01*
X00501380Y00577818D01*
X00525380Y00577818D01*
X00525380Y00577818D01*
D02*
G37*
G36*
X00525380Y00603218D02*
X00526433D01*
X00526566Y00603209D01*
X00526697Y00603184D01*
X00528731Y00602638D01*
X00528857Y00602595D01*
X00528977Y00602537D01*
X00530801Y00601483D01*
X00530912Y00601409D01*
X00531012Y00601322D01*
X00532502Y00599832D01*
X00532589Y00599732D01*
X00532663Y00599621D01*
X00533717Y00597797D01*
X00533775Y00597677D01*
X00533818Y00597551D01*
X00534364Y00595517D01*
X00534389Y00595386D01*
X00534398Y00595253D01*
Y00593147D01*
X00534389Y00593014D01*
X00534364Y00592883D01*
X00533818Y00590849D01*
X00533775Y00590722D01*
X00533717Y00590603D01*
X00532663Y00588779D01*
X00532589Y00588668D01*
X00532502Y00588568D01*
X00531012Y00587078D01*
X00530912Y00586991D01*
X00530801Y00586917D01*
X00528977Y00585863D01*
X00528917Y00585834D01*
X00528857Y00585804D01*
X00528731Y00585762D01*
X00526697Y00585216D01*
X00526566Y00585191D01*
X00526433Y00585182D01*
D01*
X00526433D01*
X00525380Y00585182D01*
X00501380Y00585182D01*
X00501247Y00585191D01*
X00501116Y00585216D01*
X00500990Y00585259D01*
X00500871Y00585318D01*
X00500760Y00585392D01*
X00500660Y00585480D01*
X00500572Y00585580D01*
X00500498Y00585691D01*
X00500439Y00585810D01*
X00500396Y00585937D01*
X00500370Y00586067D01*
X00500362Y00586200D01*
Y00602200D01*
X00500370Y00602333D01*
X00500396Y00602463D01*
X00500439Y00602590D01*
X00500498Y00602709D01*
X00500572Y00602820D01*
X00500660Y00602920D01*
X00500760Y00603008D01*
X00500871Y00603082D01*
X00500990Y00603141D01*
X00501116Y00603184D01*
X00501247Y00603209D01*
X00501380Y00603218D01*
X00525380Y00603218D01*
X00525380Y00603218D01*
D02*
G37*
G36*
X00727353Y00501609D02*
X00727484Y00501584D01*
X00727610Y00501541D01*
X00727729Y00501482D01*
X00727840Y00501408D01*
X00727940Y00501320D01*
X00728028Y00501220D01*
X00728102Y00501109D01*
X00728161Y00500990D01*
X00728204Y00500863D01*
X00728230Y00500733D01*
X00728238Y00500600D01*
X00728238Y00484600D01*
X00728230Y00484467D01*
X00728204Y00484337D01*
X00728161Y00484210D01*
X00728102Y00484091D01*
X00728028Y00483980D01*
X00727940Y00483880D01*
X00727840Y00483792D01*
X00727729Y00483718D01*
X00727610Y00483659D01*
X00727484Y00483616D01*
X00727353Y00483591D01*
X00727220Y00483582D01*
X00703221D01*
X00703220Y00483582D01*
X00702167D01*
X00702034Y00483591D01*
X00701903Y00483616D01*
X00699869Y00484162D01*
X00699743Y00484204D01*
X00699683Y00484234D01*
X00699623Y00484263D01*
X00697799Y00485317D01*
X00697688Y00485391D01*
X00697588Y00485478D01*
X00696098Y00486968D01*
X00696011Y00487068D01*
X00695937Y00487179D01*
X00694883Y00489003D01*
X00694825Y00489122D01*
X00694782Y00489249D01*
X00694237Y00491283D01*
X00694211Y00491414D01*
X00694202Y00491547D01*
Y00493653D01*
X00694211Y00493786D01*
X00694237Y00493917D01*
X00694782Y00495951D01*
X00694825Y00496077D01*
X00694854Y00496137D01*
X00694883Y00496197D01*
X00695937Y00498021D01*
X00696011Y00498132D01*
X00696098Y00498232D01*
X00697588Y00499721D01*
X00697688Y00499809D01*
X00697799Y00499883D01*
X00699623Y00500937D01*
X00699742Y00500995D01*
X00699869Y00501038D01*
X00701903Y00501584D01*
X00702034Y00501609D01*
X00702167Y00501618D01*
X00703220D01*
X00703220Y00501618D01*
X00727220D01*
X00727353Y00501609D01*
D02*
G37*
G36*
X00727353Y00527010D02*
X00727484Y00526983D01*
X00727610Y00526941D01*
X00727729Y00526882D01*
X00727840Y00526808D01*
X00727940Y00526720D01*
X00728028Y00526620D01*
X00728102Y00526509D01*
X00728161Y00526390D01*
X00728204Y00526264D01*
X00728230Y00526133D01*
X00728238Y00526000D01*
X00728238Y00510000D01*
X00728230Y00509867D01*
X00728204Y00509737D01*
X00728161Y00509610D01*
X00728102Y00509491D01*
X00728028Y00509380D01*
X00727940Y00509280D01*
X00727840Y00509192D01*
X00727729Y00509118D01*
X00727610Y00509059D01*
X00727484Y00509016D01*
X00727353Y00508991D01*
X00727220Y00508982D01*
X00703220D01*
X00702167Y00508982D01*
X00702167D01*
D01*
X00702034Y00508991D01*
X00701903Y00509016D01*
X00699869Y00509562D01*
X00699743Y00509604D01*
X00699683Y00509634D01*
X00699623Y00509663D01*
X00697799Y00510717D01*
X00697688Y00510791D01*
X00697588Y00510878D01*
X00696098Y00512368D01*
X00696011Y00512468D01*
X00695937Y00512579D01*
X00694883Y00514403D01*
X00694825Y00514523D01*
X00694782Y00514649D01*
X00694237Y00516683D01*
X00694211Y00516814D01*
X00694202Y00516947D01*
Y00519053D01*
X00694211Y00519186D01*
X00694237Y00519317D01*
X00694782Y00521351D01*
X00694825Y00521478D01*
X00694854Y00521537D01*
X00694883Y00521597D01*
X00695937Y00523421D01*
X00696011Y00523532D01*
X00696098Y00523632D01*
X00697588Y00525122D01*
X00697688Y00525209D01*
X00697799Y00525283D01*
X00699623Y00526337D01*
X00699742Y00526395D01*
X00699869Y00526438D01*
X00701903Y00526983D01*
X00702034Y00527010D01*
X00702167Y00527018D01*
X00727220D01*
X00727353Y00527010D01*
D02*
G37*
G36*
Y00552410D02*
X00727484Y00552383D01*
X00727610Y00552341D01*
X00727729Y00552282D01*
X00727840Y00552208D01*
X00727940Y00552120D01*
X00728028Y00552020D01*
X00728102Y00551909D01*
X00728161Y00551790D01*
X00728204Y00551664D01*
X00728230Y00551533D01*
X00728238Y00551400D01*
X00728238Y00535400D01*
X00728230Y00535267D01*
X00728204Y00535136D01*
X00728161Y00535010D01*
X00728102Y00534891D01*
X00728028Y00534780D01*
X00727940Y00534680D01*
X00727840Y00534592D01*
X00727729Y00534518D01*
X00727610Y00534459D01*
X00727484Y00534417D01*
X00727353Y00534390D01*
X00727220Y00534382D01*
X00703221Y00534382D01*
X00703220Y00534382D01*
X00702167D01*
X00702034Y00534390D01*
X00701903Y00534417D01*
X00699869Y00534962D01*
X00699743Y00535005D01*
X00699683Y00535034D01*
X00699623Y00535063D01*
X00697799Y00536117D01*
X00697688Y00536191D01*
X00697588Y00536278D01*
X00696098Y00537768D01*
X00696011Y00537868D01*
X00695937Y00537979D01*
X00694883Y00539803D01*
X00694825Y00539922D01*
X00694782Y00540049D01*
X00694237Y00542083D01*
X00694211Y00542214D01*
X00694202Y00542347D01*
Y00544453D01*
X00694211Y00544586D01*
X00694237Y00544717D01*
X00694782Y00546751D01*
X00694825Y00546878D01*
X00694854Y00546937D01*
X00694883Y00546997D01*
X00695937Y00548821D01*
X00696011Y00548932D01*
X00696098Y00549032D01*
X00697588Y00550522D01*
X00697688Y00550609D01*
X00697799Y00550683D01*
X00699623Y00551737D01*
X00699742Y00551796D01*
X00699869Y00551838D01*
X00701903Y00552383D01*
X00702034Y00552410D01*
X00702167Y00552418D01*
X00727220D01*
X00727353Y00552410D01*
D02*
G37*
G36*
X00727353Y00577809D02*
X00727484Y00577784D01*
X00727610Y00577741D01*
X00727729Y00577682D01*
X00727840Y00577608D01*
X00727940Y00577520D01*
X00728028Y00577420D01*
X00728102Y00577309D01*
X00728161Y00577190D01*
X00728204Y00577063D01*
X00728230Y00576933D01*
X00728238Y00576800D01*
X00728238Y00560800D01*
X00728230Y00560667D01*
X00728204Y00560536D01*
X00728161Y00560410D01*
X00728102Y00560291D01*
X00728028Y00560180D01*
X00727940Y00560080D01*
X00727840Y00559992D01*
X00727729Y00559918D01*
X00727610Y00559859D01*
X00727484Y00559817D01*
X00727353Y00559791D01*
X00727220Y00559782D01*
X00703220Y00559782D01*
X00702167D01*
X00702034Y00559790D01*
X00701903Y00559817D01*
X00699869Y00560362D01*
X00699742Y00560405D01*
X00699683Y00560434D01*
X00699623Y00560463D01*
X00697799Y00561517D01*
X00697688Y00561591D01*
X00697588Y00561678D01*
X00696098Y00563168D01*
X00696011Y00563268D01*
X00695937Y00563379D01*
X00694883Y00565203D01*
X00694825Y00565322D01*
X00694782Y00565449D01*
X00694237Y00567483D01*
X00694211Y00567614D01*
X00694202Y00567747D01*
Y00569853D01*
X00694211Y00569986D01*
X00694237Y00570117D01*
X00694782Y00572151D01*
X00694825Y00572277D01*
X00694854Y00572337D01*
X00694883Y00572397D01*
X00695937Y00574221D01*
X00696011Y00574332D01*
X00696098Y00574432D01*
X00697588Y00575922D01*
X00697688Y00576009D01*
X00697799Y00576083D01*
X00699623Y00577137D01*
X00699742Y00577196D01*
X00699869Y00577238D01*
X00701903Y00577784D01*
X00702034Y00577809D01*
X00702167Y00577818D01*
X00727220D01*
X00727353Y00577809D01*
D02*
G37*
G36*
Y00603209D02*
X00727484Y00603184D01*
X00727610Y00603141D01*
X00727729Y00603082D01*
X00727840Y00603008D01*
X00727940Y00602920D01*
X00728028Y00602820D01*
X00728102Y00602709D01*
X00728161Y00602590D01*
X00728204Y00602463D01*
X00728230Y00602333D01*
X00728238Y00602200D01*
X00728238Y00586200D01*
X00728230Y00586067D01*
X00728204Y00585937D01*
X00728161Y00585810D01*
X00728102Y00585691D01*
X00728028Y00585580D01*
X00727940Y00585480D01*
X00727840Y00585392D01*
X00727729Y00585318D01*
X00727610Y00585259D01*
X00727484Y00585216D01*
X00727353Y00585191D01*
X00727220Y00585182D01*
X00703220D01*
X00702167Y00585182D01*
D01*
X00702167D01*
X00702034Y00585191D01*
X00701903Y00585216D01*
X00699869Y00585762D01*
X00699742Y00585804D01*
X00699683Y00585834D01*
X00699623Y00585863D01*
X00697799Y00586917D01*
X00697688Y00586991D01*
X00697588Y00587078D01*
X00696098Y00588568D01*
X00696011Y00588668D01*
X00695937Y00588779D01*
X00694883Y00590603D01*
X00694825Y00590723D01*
X00694782Y00590849D01*
X00694237Y00592883D01*
X00694211Y00593014D01*
X00694202Y00593147D01*
Y00595253D01*
X00694211Y00595386D01*
X00694237Y00595517D01*
X00694782Y00597551D01*
X00694825Y00597677D01*
X00694854Y00597737D01*
X00694883Y00597797D01*
X00695937Y00599621D01*
X00696011Y00599732D01*
X00696098Y00599832D01*
X00697588Y00601322D01*
X00697688Y00601409D01*
X00697799Y00601483D01*
X00699623Y00602537D01*
X00699742Y00602595D01*
X00699869Y00602638D01*
X00701903Y00603184D01*
X00702034Y00603209D01*
X00702167Y00603218D01*
X00727220D01*
X00727353Y00603209D01*
D02*
G37*
G36*
X00525380Y00628618D02*
X00525380Y00628618D01*
X00526433D01*
X00526566Y00628610D01*
X00526697Y00628583D01*
X00528731Y00628038D01*
X00528857Y00627995D01*
X00528977Y00627937D01*
X00530801Y00626883D01*
X00530912Y00626809D01*
X00531012Y00626722D01*
X00532501Y00625232D01*
X00532589Y00625132D01*
X00532663Y00625021D01*
X00533717Y00623197D01*
X00533775Y00623078D01*
X00533818Y00622951D01*
X00534364Y00620917D01*
X00534389Y00620786D01*
X00534398Y00620653D01*
Y00618547D01*
X00534389Y00618414D01*
X00534364Y00618283D01*
X00533818Y00616249D01*
X00533775Y00616122D01*
X00533717Y00616003D01*
X00532663Y00614179D01*
X00532589Y00614068D01*
X00532501Y00613968D01*
X00531012Y00612478D01*
X00530912Y00612391D01*
X00530801Y00612317D01*
X00528977Y00611263D01*
X00528917Y00611234D01*
X00528857Y00611204D01*
X00528731Y00611162D01*
X00526697Y00610616D01*
X00526566Y00610591D01*
X00526433Y00610582D01*
X00526433D01*
D01*
X00525380Y00610582D01*
X00501380D01*
X00501247Y00610591D01*
X00501116Y00610616D01*
X00500990Y00610659D01*
X00500871Y00610718D01*
X00500760Y00610792D01*
X00500660Y00610880D01*
X00500572Y00610980D01*
X00500498Y00611091D01*
X00500439Y00611210D01*
X00500396Y00611337D01*
X00500370Y00611467D01*
X00500362Y00611600D01*
Y00627600D01*
X00500370Y00627733D01*
X00500396Y00627864D01*
X00500439Y00627990D01*
X00500498Y00628109D01*
X00500572Y00628220D01*
X00500660Y00628320D01*
X00500760Y00628408D01*
X00500871Y00628482D01*
X00500990Y00628541D01*
X00501116Y00628583D01*
X00501247Y00628610D01*
X00501380Y00628618D01*
X00525380Y00628618D01*
D02*
G37*
G36*
X00526566Y00654009D02*
X00526697Y00653984D01*
X00528731Y00653438D01*
X00528857Y00653395D01*
X00528977Y00653337D01*
X00530801Y00652283D01*
X00530912Y00652209D01*
X00531012Y00652122D01*
X00532501Y00650632D01*
X00532589Y00650532D01*
X00532663Y00650421D01*
X00533717Y00648597D01*
X00533775Y00648477D01*
X00533818Y00648351D01*
X00534364Y00646317D01*
X00534389Y00646186D01*
X00534398Y00646053D01*
Y00643947D01*
X00534389Y00643814D01*
X00534364Y00643683D01*
X00533818Y00641649D01*
X00533775Y00641522D01*
X00533717Y00641403D01*
X00532663Y00639579D01*
X00532589Y00639468D01*
X00532501Y00639368D01*
X00531012Y00637878D01*
X00530912Y00637791D01*
X00530801Y00637717D01*
X00528977Y00636663D01*
X00528917Y00636634D01*
X00528857Y00636604D01*
X00528731Y00636562D01*
X00526697Y00636017D01*
X00526566Y00635990D01*
X00526433Y00635982D01*
X00526433D01*
D01*
X00525380Y00635982D01*
X00501380D01*
X00501247Y00635990D01*
X00501116Y00636017D01*
X00500990Y00636059D01*
X00500871Y00636118D01*
X00500760Y00636192D01*
X00500660Y00636280D01*
X00500572Y00636380D01*
X00500498Y00636491D01*
X00500439Y00636610D01*
X00500396Y00636736D01*
X00500370Y00636867D01*
X00500362Y00637000D01*
Y00653000D01*
X00500370Y00653133D01*
X00500396Y00653263D01*
X00500439Y00653390D01*
X00500498Y00653509D01*
X00500572Y00653620D01*
X00500660Y00653720D01*
X00500760Y00653808D01*
X00500871Y00653882D01*
X00500990Y00653941D01*
X00501116Y00653984D01*
X00501247Y00654009D01*
X00501380Y00654018D01*
X00525380Y00654018D01*
X00526433D01*
X00526566Y00654009D01*
D02*
G37*
G36*
Y00679409D02*
X00526697Y00679384D01*
X00528731Y00678838D01*
X00528857Y00678795D01*
X00528977Y00678737D01*
X00530801Y00677683D01*
X00530912Y00677609D01*
X00531012Y00677522D01*
X00532501Y00676032D01*
X00532589Y00675932D01*
X00532663Y00675821D01*
X00533717Y00673997D01*
X00533775Y00673878D01*
X00533818Y00673752D01*
X00534364Y00671717D01*
X00534389Y00671586D01*
X00534398Y00671453D01*
Y00669347D01*
X00534389Y00669214D01*
X00534364Y00669083D01*
X00533818Y00667049D01*
X00533775Y00666923D01*
X00533717Y00666803D01*
X00532663Y00664979D01*
X00532589Y00664868D01*
X00532501Y00664768D01*
X00531012Y00663279D01*
X00530912Y00663191D01*
X00530801Y00663117D01*
X00528977Y00662063D01*
X00528917Y00662034D01*
X00528857Y00662004D01*
X00528731Y00661962D01*
X00526697Y00661417D01*
X00526697Y00661417D01*
X00526566Y00661391D01*
X00526433Y00661382D01*
X00525380Y00661382D01*
D01*
X00525380D01*
X00501380D01*
X00501247Y00661391D01*
X00501116Y00661416D01*
X00500990Y00661459D01*
X00500871Y00661518D01*
X00500760Y00661592D01*
X00500660Y00661680D01*
X00500572Y00661780D01*
X00500498Y00661891D01*
X00500439Y00662010D01*
X00500396Y00662137D01*
X00500370Y00662267D01*
X00500362Y00662400D01*
X00500362Y00678400D01*
X00500370Y00678533D01*
X00500396Y00678663D01*
X00500439Y00678790D01*
X00500498Y00678909D01*
X00500572Y00679020D01*
X00500660Y00679120D01*
X00500760Y00679208D01*
X00500871Y00679282D01*
X00500990Y00679341D01*
X00501116Y00679383D01*
X00501247Y00679409D01*
X00501380Y00679418D01*
X00525379D01*
X00525380Y00679418D01*
X00526433D01*
X00526566Y00679409D01*
D02*
G37*
G36*
X00525380Y00704818D02*
X00526433D01*
X00526566Y00704809D01*
X00526697Y00704783D01*
X00528731Y00704238D01*
X00528857Y00704195D01*
X00528977Y00704137D01*
X00530801Y00703083D01*
X00530912Y00703009D01*
X00531012Y00702922D01*
X00532501Y00701432D01*
X00532589Y00701332D01*
X00532663Y00701221D01*
X00533717Y00699397D01*
X00533775Y00699277D01*
X00533818Y00699151D01*
X00534364Y00697117D01*
X00534389Y00696986D01*
X00534398Y00696853D01*
Y00694747D01*
X00534389Y00694614D01*
X00534364Y00694483D01*
X00533818Y00692449D01*
X00533775Y00692322D01*
X00533717Y00692203D01*
X00532663Y00690379D01*
X00532589Y00690268D01*
X00532501Y00690168D01*
X00531012Y00688678D01*
X00530912Y00688591D01*
X00530801Y00688517D01*
X00528977Y00687463D01*
X00528917Y00687434D01*
X00528857Y00687404D01*
X00528731Y00687362D01*
X00526697Y00686816D01*
X00526566Y00686790D01*
X00526433Y00686782D01*
X00525380D01*
X00525379Y00686782D01*
X00501380Y00686782D01*
X00501247Y00686791D01*
X00501116Y00686817D01*
X00500990Y00686859D01*
X00500871Y00686918D01*
X00500760Y00686992D01*
X00500660Y00687080D01*
X00500572Y00687180D01*
X00500498Y00687291D01*
X00500439Y00687410D01*
X00500396Y00687536D01*
X00500370Y00687667D01*
X00500362Y00687800D01*
X00500362Y00703800D01*
X00500370Y00703933D01*
X00500396Y00704063D01*
X00500439Y00704190D01*
X00500498Y00704309D01*
X00500572Y00704420D01*
X00500660Y00704520D01*
X00500760Y00704608D01*
X00500871Y00704682D01*
X00500990Y00704741D01*
X00501116Y00704783D01*
X00501247Y00704809D01*
X00501380Y00704818D01*
X00525380Y00704818D01*
D02*
G37*
G36*
X00525380Y00730218D02*
X00526433D01*
X00526566Y00730210D01*
X00526697Y00730183D01*
X00528731Y00729638D01*
X00528857Y00729595D01*
X00528977Y00729537D01*
X00530801Y00728483D01*
X00530912Y00728409D01*
X00531012Y00728322D01*
X00532501Y00726832D01*
X00532589Y00726732D01*
X00532663Y00726621D01*
X00533717Y00724797D01*
X00533775Y00724678D01*
X00533818Y00724551D01*
X00534364Y00722517D01*
X00534389Y00722386D01*
X00534398Y00722253D01*
Y00720147D01*
X00534389Y00720014D01*
X00534364Y00719883D01*
X00533818Y00717849D01*
X00533775Y00717722D01*
X00533717Y00717603D01*
X00532663Y00715779D01*
X00532589Y00715668D01*
X00532501Y00715568D01*
X00531012Y00714078D01*
X00530912Y00713991D01*
X00530801Y00713917D01*
X00528977Y00712863D01*
X00528917Y00712834D01*
X00528857Y00712804D01*
X00528731Y00712762D01*
X00526697Y00712216D01*
X00526566Y00712190D01*
X00526433Y00712182D01*
X00525380D01*
X00525379Y00712182D01*
X00501380D01*
X00501247Y00712190D01*
X00501116Y00712216D01*
X00500990Y00712259D01*
X00500871Y00712318D01*
X00500760Y00712392D01*
X00500660Y00712480D01*
X00500572Y00712580D01*
X00500498Y00712691D01*
X00500439Y00712810D01*
X00500396Y00712936D01*
X00500370Y00713067D01*
X00500362Y00713200D01*
X00500362Y00729200D01*
X00500370Y00729333D01*
X00500396Y00729464D01*
X00500439Y00729590D01*
X00500498Y00729709D01*
X00500572Y00729820D01*
X00500660Y00729920D01*
X00500760Y00730008D01*
X00500871Y00730082D01*
X00500990Y00730141D01*
X00501116Y00730183D01*
X00501247Y00730210D01*
X00501380Y00730218D01*
X00525380D01*
X00525380Y00730218D01*
D02*
G37*
G36*
X00727353Y00628610D02*
X00727484Y00628583D01*
X00727610Y00628541D01*
X00727729Y00628482D01*
X00727840Y00628408D01*
X00727940Y00628320D01*
X00728028Y00628220D01*
X00728102Y00628109D01*
X00728161Y00627990D01*
X00728204Y00627864D01*
X00728230Y00627733D01*
X00728238Y00627600D01*
Y00611600D01*
X00728230Y00611467D01*
X00728204Y00611337D01*
X00728161Y00611210D01*
X00728102Y00611091D01*
X00728028Y00610980D01*
X00727940Y00610880D01*
X00727840Y00610792D01*
X00727729Y00610718D01*
X00727610Y00610659D01*
X00727484Y00610616D01*
X00727353Y00610591D01*
X00727220Y00610582D01*
X00703220D01*
X00702167Y00610582D01*
X00702167D01*
D01*
X00702034Y00610591D01*
X00701903Y00610616D01*
X00699869Y00611162D01*
X00699743Y00611204D01*
X00699683Y00611234D01*
X00699623Y00611263D01*
X00697799Y00612317D01*
X00697688Y00612391D01*
X00697588Y00612478D01*
X00696098Y00613968D01*
X00696011Y00614068D01*
X00695937Y00614179D01*
X00694883Y00616003D01*
X00694825Y00616123D01*
X00694782Y00616249D01*
X00694237Y00618283D01*
X00694211Y00618414D01*
X00694202Y00618547D01*
Y00620653D01*
X00694211Y00620786D01*
X00694237Y00620917D01*
X00694782Y00622951D01*
X00694825Y00623078D01*
X00694854Y00623137D01*
X00694883Y00623197D01*
X00695937Y00625021D01*
X00696011Y00625132D01*
X00696098Y00625232D01*
X00697588Y00626722D01*
X00697688Y00626809D01*
X00697799Y00626883D01*
X00699623Y00627937D01*
X00699742Y00627995D01*
X00699869Y00628038D01*
X00701903Y00628583D01*
X00702034Y00628610D01*
X00702167Y00628618D01*
X00703220D01*
X00703220Y00628618D01*
X00727220Y00628618D01*
X00727353Y00628610D01*
D02*
G37*
G36*
X00727220Y00654018D02*
X00727353Y00654009D01*
X00727484Y00653984D01*
X00727610Y00653941D01*
X00727729Y00653882D01*
X00727840Y00653808D01*
X00727940Y00653720D01*
X00728028Y00653620D01*
X00728102Y00653509D01*
X00728161Y00653390D01*
X00728204Y00653263D01*
X00728230Y00653133D01*
X00728238Y00653000D01*
Y00637000D01*
X00728230Y00636867D01*
X00728204Y00636736D01*
X00728161Y00636610D01*
X00728102Y00636491D01*
X00728028Y00636380D01*
X00727940Y00636280D01*
X00727840Y00636192D01*
X00727729Y00636118D01*
X00727610Y00636059D01*
X00727484Y00636017D01*
X00727353Y00635990D01*
X00727220Y00635982D01*
X00703220D01*
X00702167Y00635982D01*
X00702167D01*
D01*
X00702034Y00635990D01*
X00701903Y00636017D01*
X00699869Y00636562D01*
X00699743Y00636604D01*
X00699683Y00636634D01*
X00699623Y00636663D01*
X00697799Y00637717D01*
X00697688Y00637791D01*
X00697588Y00637878D01*
X00696098Y00639368D01*
X00696011Y00639468D01*
X00695937Y00639579D01*
X00694883Y00641403D01*
X00694825Y00641523D01*
X00694782Y00641649D01*
X00694237Y00643683D01*
X00694211Y00643814D01*
X00694202Y00643947D01*
Y00646053D01*
X00694211Y00646186D01*
X00694237Y00646317D01*
X00694782Y00648351D01*
X00694825Y00648477D01*
X00694854Y00648537D01*
X00694883Y00648597D01*
X00695937Y00650421D01*
X00696011Y00650532D01*
X00696098Y00650632D01*
X00697588Y00652122D01*
X00697688Y00652209D01*
X00697799Y00652283D01*
X00699623Y00653337D01*
X00699742Y00653395D01*
X00699869Y00653438D01*
X00701903Y00653984D01*
X00702034Y00654009D01*
X00702167Y00654018D01*
X00703220D01*
X00727220Y00654018D01*
D02*
G37*
G36*
X00703220Y00679418D02*
X00727220D01*
X00727353Y00679409D01*
X00727484Y00679383D01*
X00727610Y00679341D01*
X00727729Y00679282D01*
X00727840Y00679208D01*
X00727940Y00679120D01*
X00728028Y00679020D01*
X00728102Y00678909D01*
X00728161Y00678790D01*
X00728204Y00678663D01*
X00728230Y00678533D01*
X00728238Y00678400D01*
X00728238Y00662400D01*
X00728230Y00662267D01*
X00728204Y00662137D01*
X00728161Y00662010D01*
X00728102Y00661891D01*
X00728028Y00661780D01*
X00727940Y00661680D01*
X00727840Y00661592D01*
X00727729Y00661518D01*
X00727610Y00661459D01*
X00727484Y00661416D01*
X00727353Y00661391D01*
X00727220Y00661382D01*
X00702167D01*
X00702034Y00661391D01*
X00701903Y00661416D01*
X00699869Y00661962D01*
X00699742Y00662004D01*
X00699683Y00662034D01*
X00699623Y00662063D01*
X00697799Y00663117D01*
X00697688Y00663191D01*
X00697588Y00663279D01*
X00696098Y00664768D01*
X00696011Y00664868D01*
X00695937Y00664979D01*
X00694883Y00666803D01*
X00694825Y00666923D01*
X00694782Y00667049D01*
X00694237Y00669083D01*
X00694211Y00669214D01*
X00694202Y00669347D01*
Y00671453D01*
X00694211Y00671586D01*
X00694237Y00671717D01*
X00694782Y00673751D01*
X00694825Y00673877D01*
X00694854Y00673937D01*
X00694883Y00673997D01*
X00695937Y00675821D01*
X00696011Y00675932D01*
X00696098Y00676032D01*
X00697588Y00677522D01*
X00697688Y00677609D01*
X00697799Y00677683D01*
X00699623Y00678737D01*
X00699742Y00678795D01*
X00699869Y00678838D01*
X00701903Y00679383D01*
X00702034Y00679409D01*
X00702167Y00679418D01*
X00703220D01*
X00703220Y00679418D01*
D02*
G37*
G36*
X00727353Y00704809D02*
X00727484Y00704783D01*
X00727610Y00704741D01*
X00727729Y00704682D01*
X00727840Y00704608D01*
X00727940Y00704520D01*
X00728028Y00704420D01*
X00728102Y00704309D01*
X00728161Y00704190D01*
X00728204Y00704063D01*
X00728230Y00703933D01*
X00728238Y00703800D01*
X00728238Y00687800D01*
X00728230Y00687667D01*
X00728204Y00687536D01*
X00728161Y00687410D01*
X00728102Y00687291D01*
X00728028Y00687180D01*
X00727940Y00687080D01*
X00727840Y00686992D01*
X00727729Y00686918D01*
X00727610Y00686859D01*
X00727484Y00686816D01*
X00727353Y00686790D01*
X00727220Y00686782D01*
X00703221D01*
X00703220Y00686782D01*
X00702167D01*
X00702034Y00686790D01*
X00701903Y00686816D01*
X00699869Y00687362D01*
X00699743Y00687404D01*
X00699683Y00687434D01*
X00699623Y00687463D01*
X00697799Y00688517D01*
X00697688Y00688591D01*
X00697588Y00688678D01*
X00696098Y00690168D01*
X00696011Y00690268D01*
X00695937Y00690379D01*
X00694883Y00692203D01*
X00694825Y00692322D01*
X00694782Y00692449D01*
X00694237Y00694483D01*
X00694211Y00694614D01*
X00694202Y00694747D01*
Y00696853D01*
X00694211Y00696986D01*
X00694237Y00697117D01*
X00694782Y00699151D01*
X00694825Y00699277D01*
X00694854Y00699337D01*
X00694883Y00699397D01*
X00695937Y00701221D01*
X00696011Y00701332D01*
X00696098Y00701432D01*
X00697588Y00702922D01*
X00697688Y00703009D01*
X00697799Y00703083D01*
X00699623Y00704137D01*
X00699742Y00704195D01*
X00699869Y00704238D01*
X00701903Y00704783D01*
X00702034Y00704809D01*
X00702167Y00704818D01*
X00703220D01*
X00703220Y00704818D01*
X00727220D01*
X00727353Y00704809D01*
D02*
G37*
G36*
Y00730210D02*
X00727484Y00730183D01*
X00727610Y00730141D01*
X00727729Y00730082D01*
X00727840Y00730008D01*
X00727940Y00729920D01*
X00728028Y00729820D01*
X00728102Y00729709D01*
X00728161Y00729590D01*
X00728204Y00729464D01*
X00728230Y00729333D01*
X00728238Y00729200D01*
X00728238Y00713200D01*
X00728230Y00713067D01*
X00728204Y00712936D01*
X00728161Y00712810D01*
X00728102Y00712691D01*
X00728028Y00712580D01*
X00727940Y00712480D01*
X00727840Y00712392D01*
X00727729Y00712318D01*
X00727610Y00712259D01*
X00727484Y00712216D01*
X00727353Y00712190D01*
X00727220Y00712182D01*
X00703221D01*
X00703220Y00712182D01*
X00702167D01*
X00702034Y00712190D01*
X00701903Y00712216D01*
X00699869Y00712762D01*
X00699743Y00712804D01*
X00699683Y00712834D01*
X00699623Y00712863D01*
X00697799Y00713917D01*
X00697688Y00713991D01*
X00697588Y00714078D01*
X00696098Y00715568D01*
X00696011Y00715668D01*
X00695937Y00715779D01*
X00694883Y00717603D01*
X00694825Y00717722D01*
X00694782Y00717849D01*
X00694237Y00719883D01*
X00694211Y00720014D01*
X00694202Y00720147D01*
Y00722253D01*
X00694211Y00722386D01*
X00694237Y00722517D01*
X00694782Y00724551D01*
X00694825Y00724678D01*
X00694854Y00724737D01*
X00694883Y00724797D01*
X00695937Y00726621D01*
X00696011Y00726732D01*
X00696098Y00726832D01*
X00697588Y00728322D01*
X00697688Y00728409D01*
X00697799Y00728483D01*
X00699623Y00729537D01*
X00699742Y00729595D01*
X00699869Y00729638D01*
X00701903Y00730183D01*
X00702034Y00730210D01*
X00702167Y00730218D01*
X00703220D01*
X00703220Y00730218D01*
X00727220D01*
X00727353Y00730210D01*
D02*
G37*
G36*
X00525380Y00755618D02*
X00526433D01*
X00526566Y00755610D01*
X00526697Y00755583D01*
X00528731Y00755038D01*
X00528857Y00754995D01*
X00528977Y00754937D01*
X00530801Y00753883D01*
X00530912Y00753809D01*
X00531012Y00753722D01*
X00532501Y00752232D01*
X00532589Y00752132D01*
X00532663Y00752021D01*
X00533717Y00750197D01*
X00533775Y00750078D01*
X00533818Y00749951D01*
X00534364Y00747917D01*
X00534389Y00747786D01*
X00534398Y00747653D01*
Y00745547D01*
X00534389Y00745414D01*
X00534364Y00745283D01*
X00533818Y00743249D01*
X00533775Y00743122D01*
X00533717Y00743003D01*
X00532663Y00741179D01*
X00532589Y00741068D01*
X00532501Y00740968D01*
X00531012Y00739478D01*
X00530912Y00739391D01*
X00530801Y00739317D01*
X00528977Y00738263D01*
X00528917Y00738234D01*
X00528857Y00738204D01*
X00528731Y00738162D01*
X00526697Y00737617D01*
X00526566Y00737590D01*
X00526433Y00737582D01*
X00525380D01*
X00525379Y00737582D01*
X00501380Y00737582D01*
X00501247Y00737590D01*
X00501116Y00737617D01*
X00500990Y00737659D01*
X00500871Y00737718D01*
X00500760Y00737792D01*
X00500660Y00737880D01*
X00500572Y00737980D01*
X00500498Y00738091D01*
X00500439Y00738210D01*
X00500396Y00738336D01*
X00500370Y00738467D01*
X00500362Y00738600D01*
X00500362Y00754600D01*
X00500370Y00754733D01*
X00500396Y00754864D01*
X00500439Y00754990D01*
X00500498Y00755109D01*
X00500572Y00755220D01*
X00500660Y00755320D01*
X00500760Y00755408D01*
X00500871Y00755482D01*
X00500990Y00755541D01*
X00501116Y00755583D01*
X00501247Y00755610D01*
X00501380Y00755618D01*
X00525380Y00755618D01*
D02*
G37*
G36*
X00526566Y00781010D02*
X00526697Y00780984D01*
X00528731Y00780438D01*
X00528857Y00780396D01*
X00528977Y00780337D01*
X00530801Y00779283D01*
X00530912Y00779209D01*
X00531012Y00779122D01*
X00532501Y00777632D01*
X00532589Y00777532D01*
X00532663Y00777421D01*
X00533717Y00775597D01*
X00533775Y00775478D01*
X00533818Y00775351D01*
X00534364Y00773317D01*
X00534389Y00773186D01*
X00534398Y00773053D01*
Y00770947D01*
X00534389Y00770814D01*
X00534364Y00770683D01*
X00533818Y00768649D01*
X00533775Y00768522D01*
X00533717Y00768403D01*
X00532663Y00766579D01*
X00532589Y00766468D01*
X00532501Y00766368D01*
X00531012Y00764878D01*
X00530912Y00764791D01*
X00530801Y00764717D01*
X00528977Y00763663D01*
X00528917Y00763634D01*
X00528857Y00763605D01*
X00528731Y00763562D01*
X00526697Y00763017D01*
X00526566Y00762990D01*
X00526433Y00762982D01*
X00525380D01*
X00501380Y00762982D01*
X00501247Y00762990D01*
X00501116Y00763017D01*
X00500990Y00763059D01*
X00500871Y00763118D01*
X00500760Y00763192D01*
X00500660Y00763280D01*
X00500572Y00763380D01*
X00500498Y00763491D01*
X00500439Y00763610D01*
X00500396Y00763736D01*
X00500370Y00763867D01*
X00500362Y00764000D01*
X00500362Y00780000D01*
X00500370Y00780133D01*
X00500396Y00780264D01*
X00500439Y00780390D01*
X00500498Y00780509D01*
X00500572Y00780620D01*
X00500660Y00780720D01*
X00500760Y00780808D01*
X00500871Y00780882D01*
X00500990Y00780941D01*
X00501116Y00780984D01*
X00501247Y00781010D01*
X00501380Y00781018D01*
X00526433D01*
X00526566Y00781010D01*
D02*
G37*
G36*
X00526566Y00806410D02*
X00526697Y00806384D01*
X00528731Y00805838D01*
X00528857Y00805796D01*
X00528977Y00805737D01*
X00530801Y00804683D01*
X00530912Y00804609D01*
X00531012Y00804522D01*
X00532502Y00803032D01*
X00532589Y00802932D01*
X00532663Y00802821D01*
X00533717Y00800997D01*
X00533775Y00800878D01*
X00533818Y00800751D01*
X00534364Y00798717D01*
X00534389Y00798586D01*
X00534398Y00798453D01*
Y00796347D01*
X00534389Y00796214D01*
X00534364Y00796083D01*
X00533818Y00794049D01*
X00533775Y00793923D01*
X00533717Y00793803D01*
X00532663Y00791979D01*
X00532589Y00791868D01*
X00532502Y00791768D01*
X00531012Y00790278D01*
X00530912Y00790191D01*
X00530801Y00790117D01*
X00528977Y00789063D01*
X00528917Y00789034D01*
X00528857Y00789005D01*
X00528731Y00788962D01*
X00526697Y00788417D01*
X00526697Y00788417D01*
X00526566Y00788391D01*
X00526433Y00788382D01*
X00525380Y00788382D01*
X00525380D01*
D01*
X00501380Y00788382D01*
X00501247Y00788391D01*
X00501116Y00788417D01*
X00500990Y00788459D01*
X00500871Y00788518D01*
X00500760Y00788592D01*
X00500660Y00788680D01*
X00500572Y00788780D01*
X00500498Y00788891D01*
X00500439Y00789010D01*
X00500396Y00789137D01*
X00500370Y00789267D01*
X00500362Y00789400D01*
Y00805400D01*
X00500370Y00805533D01*
X00500396Y00805664D01*
X00500439Y00805790D01*
X00500498Y00805909D01*
X00500572Y00806020D01*
X00500660Y00806120D01*
X00500760Y00806208D01*
X00500871Y00806282D01*
X00500990Y00806341D01*
X00501116Y00806384D01*
X00501247Y00806410D01*
X00501380Y00806418D01*
X00525380Y00806418D01*
X00526433D01*
X00526566Y00806410D01*
D02*
G37*
G36*
X00525380Y00831818D02*
X00526433D01*
X00526566Y00831809D01*
X00526697Y00831784D01*
X00528731Y00831238D01*
X00528857Y00831196D01*
X00528977Y00831137D01*
X00530801Y00830083D01*
X00530912Y00830009D01*
X00531012Y00829922D01*
X00532502Y00828432D01*
X00532589Y00828332D01*
X00532663Y00828221D01*
X00533717Y00826397D01*
X00533775Y00826277D01*
X00533818Y00826151D01*
X00534364Y00824117D01*
X00534389Y00823986D01*
X00534398Y00823853D01*
Y00821747D01*
X00534389Y00821614D01*
X00534364Y00821483D01*
X00533818Y00819449D01*
X00533775Y00819322D01*
X00533717Y00819203D01*
X00532663Y00817379D01*
X00532589Y00817268D01*
X00532502Y00817168D01*
X00531012Y00815678D01*
X00530912Y00815591D01*
X00530801Y00815517D01*
X00528977Y00814463D01*
X00528917Y00814434D01*
X00528857Y00814405D01*
X00528731Y00814362D01*
X00526697Y00813817D01*
X00526566Y00813791D01*
X00526433Y00813782D01*
D01*
X00526433D01*
X00525380Y00813782D01*
X00501380D01*
X00501247Y00813791D01*
X00501116Y00813817D01*
X00500990Y00813859D01*
X00500871Y00813918D01*
X00500760Y00813992D01*
X00500660Y00814080D01*
X00500572Y00814180D01*
X00500498Y00814291D01*
X00500439Y00814410D01*
X00500396Y00814537D01*
X00500370Y00814667D01*
X00500362Y00814800D01*
X00500362Y00830800D01*
X00500370Y00830933D01*
X00500396Y00831064D01*
X00500439Y00831190D01*
X00500498Y00831309D01*
X00500572Y00831420D01*
X00500660Y00831520D01*
X00500760Y00831608D01*
X00500871Y00831682D01*
X00500990Y00831741D01*
X00501116Y00831784D01*
X00501247Y00831809D01*
X00501380Y00831818D01*
X00525380Y00831818D01*
X00525380Y00831818D01*
D02*
G37*
G36*
X00525380Y00857218D02*
X00525380Y00857218D01*
X00526433D01*
X00526566Y00857209D01*
X00526697Y00857184D01*
X00528731Y00856638D01*
X00528857Y00856596D01*
X00528977Y00856537D01*
X00530801Y00855483D01*
X00530912Y00855409D01*
X00531012Y00855322D01*
X00532501Y00853832D01*
X00532589Y00853732D01*
X00532663Y00853621D01*
X00533717Y00851797D01*
X00533775Y00851677D01*
X00533818Y00851551D01*
X00534364Y00849517D01*
X00534389Y00849386D01*
X00534398Y00849253D01*
Y00847147D01*
X00534389Y00847014D01*
X00534364Y00846883D01*
X00533818Y00844849D01*
X00533775Y00844722D01*
X00533717Y00844603D01*
X00532663Y00842779D01*
X00532589Y00842668D01*
X00532501Y00842568D01*
X00531012Y00841078D01*
X00530912Y00840991D01*
X00530801Y00840917D01*
X00528977Y00839863D01*
X00528917Y00839834D01*
X00528857Y00839805D01*
X00528731Y00839762D01*
X00526697Y00839217D01*
X00526566Y00839191D01*
X00526433Y00839182D01*
X00526433D01*
D01*
X00525380Y00839182D01*
X00501380D01*
X00501247Y00839191D01*
X00501116Y00839217D01*
X00500990Y00839259D01*
X00500871Y00839318D01*
X00500760Y00839392D01*
X00500660Y00839480D01*
X00500572Y00839580D01*
X00500498Y00839691D01*
X00500439Y00839810D01*
X00500396Y00839937D01*
X00500370Y00840067D01*
X00500362Y00840200D01*
X00500362Y00856200D01*
X00500370Y00856333D01*
X00500396Y00856464D01*
X00500439Y00856590D01*
X00500498Y00856709D01*
X00500572Y00856820D01*
X00500660Y00856920D01*
X00500760Y00857008D01*
X00500871Y00857082D01*
X00500990Y00857141D01*
X00501116Y00857184D01*
X00501247Y00857209D01*
X00501380Y00857218D01*
X00525380Y00857218D01*
D02*
G37*
G36*
X00727353Y00755610D02*
X00727484Y00755583D01*
X00727610Y00755541D01*
X00727729Y00755482D01*
X00727840Y00755408D01*
X00727940Y00755320D01*
X00728028Y00755220D01*
X00728102Y00755109D01*
X00728161Y00754990D01*
X00728204Y00754864D01*
X00728230Y00754733D01*
X00728238Y00754600D01*
X00728238Y00738600D01*
X00728230Y00738467D01*
X00728204Y00738336D01*
X00728161Y00738210D01*
X00728102Y00738091D01*
X00728028Y00737980D01*
X00727940Y00737880D01*
X00727840Y00737792D01*
X00727729Y00737718D01*
X00727610Y00737659D01*
X00727484Y00737617D01*
X00727353Y00737590D01*
X00727220Y00737582D01*
X00703221Y00737582D01*
X00703220Y00737582D01*
X00702167D01*
X00702034Y00737590D01*
X00701903Y00737617D01*
X00699869Y00738162D01*
X00699743Y00738204D01*
X00699683Y00738234D01*
X00699623Y00738263D01*
X00697799Y00739317D01*
X00697688Y00739391D01*
X00697588Y00739478D01*
X00696098Y00740968D01*
X00696011Y00741068D01*
X00695937Y00741179D01*
X00694883Y00743003D01*
X00694825Y00743122D01*
X00694782Y00743249D01*
X00694237Y00745283D01*
X00694211Y00745414D01*
X00694202Y00745547D01*
Y00747653D01*
X00694211Y00747786D01*
X00694237Y00747917D01*
X00694782Y00749951D01*
X00694825Y00750078D01*
X00694854Y00750137D01*
X00694883Y00750197D01*
X00695937Y00752021D01*
X00696011Y00752132D01*
X00696098Y00752232D01*
X00697588Y00753722D01*
X00697688Y00753809D01*
X00697799Y00753883D01*
X00699623Y00754937D01*
X00699742Y00754995D01*
X00699869Y00755038D01*
X00701903Y00755583D01*
X00702034Y00755610D01*
X00702167Y00755618D01*
X00727220D01*
X00727353Y00755610D01*
D02*
G37*
G36*
Y00781010D02*
X00727484Y00780984D01*
X00727610Y00780941D01*
X00727729Y00780882D01*
X00727840Y00780808D01*
X00727940Y00780720D01*
X00728028Y00780620D01*
X00728102Y00780509D01*
X00728161Y00780390D01*
X00728204Y00780264D01*
X00728230Y00780133D01*
X00728238Y00780000D01*
X00728238Y00764000D01*
X00728230Y00763867D01*
X00728204Y00763736D01*
X00728161Y00763610D01*
X00728102Y00763491D01*
X00728028Y00763380D01*
X00727940Y00763280D01*
X00727840Y00763192D01*
X00727729Y00763118D01*
X00727610Y00763059D01*
X00727484Y00763017D01*
X00727353Y00762990D01*
X00727220Y00762982D01*
X00703220Y00762982D01*
X00702167D01*
X00702034Y00762990D01*
X00701903Y00763017D01*
X00699869Y00763562D01*
X00699743Y00763605D01*
X00699683Y00763634D01*
X00699623Y00763663D01*
X00697799Y00764717D01*
X00697688Y00764791D01*
X00697588Y00764878D01*
X00696098Y00766368D01*
X00696011Y00766468D01*
X00695937Y00766579D01*
X00694883Y00768403D01*
X00694825Y00768522D01*
X00694782Y00768649D01*
X00694237Y00770683D01*
X00694211Y00770814D01*
X00694202Y00770947D01*
Y00773053D01*
X00694211Y00773186D01*
X00694237Y00773317D01*
X00694782Y00775351D01*
X00694825Y00775478D01*
X00694854Y00775537D01*
X00694883Y00775597D01*
X00695937Y00777421D01*
X00696011Y00777532D01*
X00696098Y00777632D01*
X00697588Y00779122D01*
X00697688Y00779209D01*
X00697799Y00779283D01*
X00699623Y00780337D01*
X00699742Y00780396D01*
X00699869Y00780438D01*
X00701903Y00780984D01*
X00702034Y00781010D01*
X00702167Y00781018D01*
X00727220D01*
X00727353Y00781010D01*
D02*
G37*
G36*
X00727353Y00806410D02*
X00727484Y00806384D01*
X00727610Y00806341D01*
X00727729Y00806282D01*
X00727840Y00806208D01*
X00727940Y00806120D01*
X00728028Y00806020D01*
X00728102Y00805909D01*
X00728161Y00805790D01*
X00728204Y00805664D01*
X00728230Y00805533D01*
X00728238Y00805400D01*
Y00789400D01*
X00728230Y00789267D01*
X00728204Y00789137D01*
X00728161Y00789010D01*
X00728102Y00788891D01*
X00728028Y00788780D01*
X00727940Y00788680D01*
X00727840Y00788592D01*
X00727729Y00788518D01*
X00727610Y00788459D01*
X00727484Y00788417D01*
X00727353Y00788391D01*
X00727220Y00788382D01*
X00703220Y00788382D01*
X00702167D01*
X00702034Y00788391D01*
X00701903Y00788417D01*
X00699869Y00788962D01*
X00699742Y00789005D01*
X00699683Y00789034D01*
X00699623Y00789063D01*
X00697799Y00790117D01*
X00697688Y00790191D01*
X00697588Y00790278D01*
X00696098Y00791768D01*
X00696011Y00791868D01*
X00695937Y00791979D01*
X00694883Y00793803D01*
X00694825Y00793923D01*
X00694782Y00794049D01*
X00694237Y00796083D01*
X00694211Y00796214D01*
X00694202Y00796347D01*
Y00798453D01*
X00694211Y00798586D01*
X00694237Y00798717D01*
X00694782Y00800751D01*
X00694825Y00800878D01*
X00694854Y00800937D01*
X00694883Y00800997D01*
X00695937Y00802821D01*
X00696011Y00802932D01*
X00696098Y00803032D01*
X00697588Y00804522D01*
X00697688Y00804609D01*
X00697799Y00804683D01*
X00699623Y00805737D01*
X00699742Y00805796D01*
X00699869Y00805838D01*
X00701903Y00806384D01*
X00702034Y00806410D01*
X00702167Y00806418D01*
X00727220D01*
X00727353Y00806410D01*
D02*
G37*
G36*
X00727220Y00831818D02*
X00727353Y00831809D01*
X00727484Y00831784D01*
X00727610Y00831741D01*
X00727729Y00831682D01*
X00727840Y00831608D01*
X00727940Y00831520D01*
X00728028Y00831420D01*
X00728102Y00831309D01*
X00728161Y00831190D01*
X00728204Y00831064D01*
X00728230Y00830933D01*
X00728238Y00830800D01*
X00728238Y00814800D01*
X00728230Y00814667D01*
X00728204Y00814537D01*
X00728161Y00814410D01*
X00728102Y00814291D01*
X00728028Y00814180D01*
X00727940Y00814080D01*
X00727840Y00813992D01*
X00727729Y00813918D01*
X00727610Y00813859D01*
X00727484Y00813817D01*
X00727353Y00813791D01*
X00727220Y00813782D01*
X00703220Y00813782D01*
D01*
X00702167Y00813782D01*
D01*
X00702167D01*
X00702034Y00813791D01*
X00701903Y00813817D01*
X00699869Y00814362D01*
X00699742Y00814405D01*
X00699683Y00814434D01*
X00699623Y00814463D01*
X00697799Y00815517D01*
X00697688Y00815591D01*
X00697588Y00815678D01*
X00696098Y00817168D01*
X00696011Y00817268D01*
X00695937Y00817379D01*
X00694883Y00819203D01*
X00694825Y00819323D01*
X00694782Y00819449D01*
X00694237Y00821483D01*
X00694211Y00821614D01*
X00694202Y00821747D01*
Y00823853D01*
X00694211Y00823986D01*
X00694237Y00824117D01*
X00694782Y00826151D01*
X00694825Y00826277D01*
X00694854Y00826337D01*
X00694883Y00826397D01*
X00695937Y00828221D01*
X00696011Y00828332D01*
X00696098Y00828432D01*
X00697588Y00829922D01*
X00697688Y00830009D01*
X00697799Y00830083D01*
X00699623Y00831137D01*
X00699742Y00831196D01*
X00699869Y00831238D01*
X00701903Y00831784D01*
X00702034Y00831809D01*
X00702167Y00831818D01*
X00703220D01*
X00703220Y00831818D01*
X00727220Y00831818D01*
D02*
G37*
G36*
X00727353Y00857209D02*
X00727484Y00857184D01*
X00727610Y00857141D01*
X00727729Y00857082D01*
X00727840Y00857008D01*
X00727940Y00856920D01*
X00728028Y00856820D01*
X00728102Y00856709D01*
X00728161Y00856590D01*
X00728204Y00856464D01*
X00728230Y00856333D01*
X00728238Y00856200D01*
Y00840200D01*
X00728230Y00840067D01*
X00728204Y00839937D01*
X00728161Y00839810D01*
X00728102Y00839691D01*
X00728028Y00839580D01*
X00727940Y00839480D01*
X00727840Y00839392D01*
X00727729Y00839318D01*
X00727610Y00839259D01*
X00727484Y00839217D01*
X00727353Y00839191D01*
X00727220Y00839182D01*
X00703220D01*
X00702167Y00839182D01*
X00702167D01*
D01*
X00702034Y00839191D01*
X00701903Y00839217D01*
X00699869Y00839762D01*
X00699743Y00839805D01*
X00699683Y00839834D01*
X00699623Y00839863D01*
X00697799Y00840917D01*
X00697688Y00840991D01*
X00697588Y00841078D01*
X00696098Y00842568D01*
X00696011Y00842668D01*
X00695937Y00842779D01*
X00694883Y00844603D01*
X00694825Y00844723D01*
X00694782Y00844849D01*
X00694237Y00846883D01*
X00694211Y00847014D01*
X00694202Y00847147D01*
Y00849253D01*
X00694211Y00849386D01*
X00694237Y00849517D01*
X00694782Y00851551D01*
X00694825Y00851677D01*
X00694854Y00851737D01*
X00694883Y00851797D01*
X00695937Y00853621D01*
X00696011Y00853732D01*
X00696098Y00853832D01*
X00697588Y00855322D01*
X00697688Y00855409D01*
X00697799Y00855483D01*
X00699623Y00856537D01*
X00699742Y00856596D01*
X00699869Y00856638D01*
X00701903Y00857184D01*
X00702034Y00857209D01*
X00702167Y00857218D01*
X00703220D01*
X00703220Y00857218D01*
X00727220Y00857218D01*
X00727353Y00857209D01*
D02*
G37*
G36*
X00526566Y00882609D02*
X00526697Y00882583D01*
X00528731Y00882038D01*
X00528857Y00881995D01*
X00528977Y00881937D01*
X00530801Y00880883D01*
X00530912Y00880809D01*
X00531012Y00880722D01*
X00532501Y00879232D01*
X00532589Y00879132D01*
X00532663Y00879021D01*
X00533717Y00877197D01*
X00533775Y00877077D01*
X00533818Y00876951D01*
X00534364Y00874917D01*
X00534389Y00874786D01*
X00534398Y00874653D01*
Y00872547D01*
X00534389Y00872414D01*
X00534364Y00872283D01*
X00533818Y00870249D01*
X00533775Y00870122D01*
X00533717Y00870003D01*
X00532663Y00868179D01*
X00532589Y00868068D01*
X00532501Y00867968D01*
X00531012Y00866478D01*
X00530912Y00866391D01*
X00530801Y00866317D01*
X00528977Y00865263D01*
X00528917Y00865234D01*
X00528857Y00865204D01*
X00528731Y00865162D01*
X00526697Y00864616D01*
X00526566Y00864591D01*
X00526433Y00864582D01*
X00526433D01*
D01*
X00525380Y00864582D01*
X00501380D01*
X00501247Y00864591D01*
X00501116Y00864616D01*
X00500990Y00864659D01*
X00500871Y00864718D01*
X00500760Y00864792D01*
X00500660Y00864880D01*
X00500572Y00864980D01*
X00500498Y00865091D01*
X00500439Y00865210D01*
X00500396Y00865337D01*
X00500370Y00865467D01*
X00500362Y00865600D01*
Y00881600D01*
X00500370Y00881733D01*
X00500396Y00881863D01*
X00500439Y00881990D01*
X00500498Y00882109D01*
X00500572Y00882220D01*
X00500660Y00882320D01*
X00500760Y00882408D01*
X00500871Y00882482D01*
X00500990Y00882541D01*
X00501116Y00882583D01*
X00501247Y00882609D01*
X00501380Y00882618D01*
X00525380Y00882618D01*
X00526433D01*
X00526566Y00882609D01*
D02*
G37*
G36*
Y00908009D02*
X00526697Y00907984D01*
X00528731Y00907438D01*
X00528857Y00907395D01*
X00528977Y00907337D01*
X00530801Y00906283D01*
X00530912Y00906209D01*
X00531012Y00906122D01*
X00532501Y00904632D01*
X00532589Y00904532D01*
X00532663Y00904421D01*
X00533717Y00902597D01*
X00533775Y00902478D01*
X00533818Y00902352D01*
X00534364Y00900317D01*
X00534389Y00900186D01*
X00534398Y00900053D01*
Y00897947D01*
X00534389Y00897814D01*
X00534364Y00897683D01*
X00533818Y00895649D01*
X00533775Y00895523D01*
X00533717Y00895403D01*
X00532663Y00893579D01*
X00532589Y00893468D01*
X00532501Y00893368D01*
X00531012Y00891879D01*
X00530912Y00891791D01*
X00530801Y00891717D01*
X00528977Y00890663D01*
X00528917Y00890634D01*
X00528857Y00890604D01*
X00528731Y00890562D01*
X00526697Y00890017D01*
X00526697Y00890017D01*
X00526566Y00889991D01*
X00526433Y00889982D01*
X00525380Y00889982D01*
D01*
X00525380D01*
X00501380D01*
X00501247Y00889990D01*
X00501116Y00890016D01*
X00500990Y00890059D01*
X00500871Y00890118D01*
X00500760Y00890192D01*
X00500660Y00890280D01*
X00500572Y00890380D01*
X00500498Y00890491D01*
X00500439Y00890610D01*
X00500396Y00890736D01*
X00500370Y00890867D01*
X00500362Y00891000D01*
X00500362Y00907000D01*
X00500370Y00907133D01*
X00500396Y00907263D01*
X00500439Y00907390D01*
X00500498Y00907509D01*
X00500572Y00907620D01*
X00500660Y00907720D01*
X00500760Y00907808D01*
X00500871Y00907882D01*
X00500990Y00907941D01*
X00501116Y00907983D01*
X00501247Y00908009D01*
X00501380Y00908018D01*
X00525379D01*
X00525380Y00908018D01*
X00526433D01*
X00526566Y00908009D01*
D02*
G37*
G36*
X00525380Y00933418D02*
X00526433D01*
X00526566Y00933410D01*
X00526697Y00933383D01*
X00528731Y00932838D01*
X00528857Y00932795D01*
X00528977Y00932737D01*
X00530801Y00931683D01*
X00530912Y00931609D01*
X00531012Y00931522D01*
X00532501Y00930032D01*
X00532589Y00929932D01*
X00532663Y00929821D01*
X00533717Y00927997D01*
X00533775Y00927878D01*
X00533818Y00927751D01*
X00534364Y00925717D01*
X00534389Y00925586D01*
X00534398Y00925453D01*
Y00923347D01*
X00534389Y00923214D01*
X00534364Y00923083D01*
X00533818Y00921049D01*
X00533775Y00920922D01*
X00533717Y00920803D01*
X00532663Y00918979D01*
X00532589Y00918868D01*
X00532501Y00918768D01*
X00531012Y00917278D01*
X00530912Y00917191D01*
X00530801Y00917117D01*
X00528977Y00916063D01*
X00528917Y00916034D01*
X00528857Y00916004D01*
X00528731Y00915962D01*
X00526697Y00915416D01*
X00526566Y00915390D01*
X00526433Y00915382D01*
X00525380D01*
X00525379Y00915382D01*
X00501380Y00915382D01*
X00501247Y00915391D01*
X00501116Y00915417D01*
X00500990Y00915459D01*
X00500871Y00915518D01*
X00500760Y00915592D01*
X00500660Y00915680D01*
X00500572Y00915780D01*
X00500498Y00915891D01*
X00500439Y00916010D01*
X00500396Y00916136D01*
X00500370Y00916267D01*
X00500362Y00916400D01*
X00500362Y00932400D01*
X00500370Y00932533D01*
X00500396Y00932663D01*
X00500439Y00932790D01*
X00500498Y00932909D01*
X00500572Y00933020D01*
X00500660Y00933120D01*
X00500760Y00933208D01*
X00500871Y00933282D01*
X00500990Y00933341D01*
X00501116Y00933383D01*
X00501247Y00933410D01*
X00501380Y00933418D01*
X00525380D01*
X00525380Y00933418D01*
D02*
G37*
G36*
X00526566Y00958810D02*
X00526697Y00958783D01*
X00528731Y00958238D01*
X00528857Y00958195D01*
X00528977Y00958137D01*
X00530801Y00957083D01*
X00530912Y00957009D01*
X00531012Y00956922D01*
X00532502Y00955432D01*
X00532589Y00955332D01*
X00532663Y00955221D01*
X00533717Y00953397D01*
X00533775Y00953278D01*
X00533818Y00953151D01*
X00534364Y00951117D01*
X00534389Y00950986D01*
X00534398Y00950853D01*
Y00948747D01*
X00534389Y00948614D01*
X00534364Y00948483D01*
X00533818Y00946449D01*
X00533775Y00946322D01*
X00533717Y00946203D01*
X00532663Y00944379D01*
X00532589Y00944268D01*
X00532502Y00944168D01*
X00531012Y00942678D01*
X00530912Y00942591D01*
X00530801Y00942517D01*
X00528977Y00941463D01*
X00528917Y00941434D01*
X00528857Y00941404D01*
X00528731Y00941362D01*
X00526697Y00940816D01*
X00526566Y00940790D01*
X00526433Y00940782D01*
D01*
X00526433D01*
X00525380Y00940782D01*
D01*
X00501380Y00940782D01*
X00501247Y00940791D01*
X00501116Y00940817D01*
X00500990Y00940859D01*
X00500871Y00940918D01*
X00500760Y00940992D01*
X00500660Y00941080D01*
X00500572Y00941180D01*
X00500498Y00941291D01*
X00500439Y00941410D01*
X00500396Y00941536D01*
X00500370Y00941667D01*
X00500362Y00941800D01*
Y00957800D01*
X00500370Y00957933D01*
X00500396Y00958064D01*
X00500439Y00958190D01*
X00500498Y00958309D01*
X00500572Y00958420D01*
X00500660Y00958520D01*
X00500760Y00958608D01*
X00500871Y00958682D01*
X00500990Y00958741D01*
X00501116Y00958783D01*
X00501247Y00958810D01*
X00501380Y00958818D01*
X00526433D01*
X00526566Y00958810D01*
D02*
G37*
G36*
X00525380Y00984218D02*
X00526433D01*
X00526566Y00984210D01*
X00526697Y00984184D01*
X00528731Y00983638D01*
X00528857Y00983596D01*
X00528977Y00983537D01*
X00530801Y00982483D01*
X00530912Y00982409D01*
X00531012Y00982322D01*
X00532501Y00980832D01*
X00532589Y00980732D01*
X00532663Y00980621D01*
X00533717Y00978797D01*
X00533775Y00978678D01*
X00533818Y00978551D01*
X00534364Y00976517D01*
X00534389Y00976386D01*
X00534398Y00976253D01*
Y00974147D01*
X00534389Y00974014D01*
X00534364Y00973883D01*
X00533818Y00971849D01*
X00533775Y00971722D01*
X00533717Y00971603D01*
X00532663Y00969779D01*
X00532589Y00969668D01*
X00532501Y00969568D01*
X00531012Y00968078D01*
X00530912Y00967991D01*
X00530801Y00967917D01*
X00528977Y00966863D01*
X00528917Y00966834D01*
X00528857Y00966805D01*
X00528731Y00966762D01*
X00526697Y00966217D01*
X00526566Y00966190D01*
X00526433Y00966182D01*
X00525380D01*
X00525379Y00966182D01*
X00501380Y00966182D01*
X00501247Y00966190D01*
X00501116Y00966217D01*
X00500990Y00966259D01*
X00500871Y00966318D01*
X00500760Y00966392D01*
X00500660Y00966480D01*
X00500572Y00966580D01*
X00500498Y00966691D01*
X00500439Y00966810D01*
X00500396Y00966936D01*
X00500370Y00967067D01*
X00500362Y00967200D01*
X00500362Y00983200D01*
X00500370Y00983333D01*
X00500396Y00983464D01*
X00500439Y00983590D01*
X00500498Y00983709D01*
X00500572Y00983820D01*
X00500660Y00983920D01*
X00500760Y00984008D01*
X00500871Y00984082D01*
X00500990Y00984141D01*
X00501116Y00984184D01*
X00501247Y00984210D01*
X00501380Y00984218D01*
X00525380Y00984218D01*
D02*
G37*
G36*
X00727353Y00882609D02*
X00727484Y00882583D01*
X00727610Y00882541D01*
X00727729Y00882482D01*
X00727840Y00882408D01*
X00727940Y00882320D01*
X00728028Y00882220D01*
X00728102Y00882109D01*
X00728161Y00881990D01*
X00728204Y00881863D01*
X00728230Y00881733D01*
X00728238Y00881600D01*
X00728238Y00865600D01*
X00728230Y00865467D01*
X00728204Y00865337D01*
X00728161Y00865210D01*
X00728102Y00865091D01*
X00728028Y00864980D01*
X00727940Y00864880D01*
X00727840Y00864792D01*
X00727729Y00864718D01*
X00727610Y00864659D01*
X00727484Y00864616D01*
X00727353Y00864591D01*
X00727220Y00864582D01*
X00703220D01*
X00702167Y00864582D01*
X00702167D01*
D01*
X00702034Y00864591D01*
X00701903Y00864616D01*
X00699869Y00865162D01*
X00699743Y00865204D01*
X00699683Y00865234D01*
X00699623Y00865263D01*
X00697799Y00866317D01*
X00697688Y00866391D01*
X00697588Y00866478D01*
X00696098Y00867968D01*
X00696011Y00868068D01*
X00695937Y00868179D01*
X00694883Y00870003D01*
X00694825Y00870123D01*
X00694782Y00870249D01*
X00694237Y00872283D01*
X00694211Y00872414D01*
X00694202Y00872547D01*
Y00874653D01*
X00694211Y00874786D01*
X00694237Y00874917D01*
X00694782Y00876951D01*
X00694825Y00877077D01*
X00694854Y00877137D01*
X00694883Y00877197D01*
X00695937Y00879021D01*
X00696011Y00879132D01*
X00696098Y00879232D01*
X00697588Y00880722D01*
X00697688Y00880809D01*
X00697799Y00880883D01*
X00699623Y00881937D01*
X00699742Y00881995D01*
X00699869Y00882038D01*
X00701903Y00882583D01*
X00702034Y00882609D01*
X00702167Y00882618D01*
X00727220D01*
X00727353Y00882609D01*
D02*
G37*
G36*
X00703221Y00908018D02*
X00727220D01*
X00727353Y00908009D01*
X00727484Y00907983D01*
X00727610Y00907941D01*
X00727729Y00907882D01*
X00727840Y00907808D01*
X00727940Y00907720D01*
X00728028Y00907620D01*
X00728102Y00907509D01*
X00728161Y00907390D01*
X00728204Y00907263D01*
X00728230Y00907133D01*
X00728238Y00907000D01*
X00728238Y00891000D01*
X00728230Y00890867D01*
X00728204Y00890736D01*
X00728161Y00890610D01*
X00728102Y00890491D01*
X00728028Y00890380D01*
X00727940Y00890280D01*
X00727840Y00890192D01*
X00727729Y00890118D01*
X00727610Y00890059D01*
X00727484Y00890016D01*
X00727353Y00889990D01*
X00727220Y00889982D01*
X00703220D01*
X00703220D01*
D01*
X00702167Y00889982D01*
X00702034Y00889991D01*
X00701903Y00890017D01*
X00701903Y00890017D01*
X00699869Y00890562D01*
X00699743Y00890604D01*
X00699683Y00890634D01*
X00699623Y00890663D01*
X00697799Y00891717D01*
X00697688Y00891791D01*
X00697588Y00891879D01*
X00696098Y00893368D01*
X00696011Y00893468D01*
X00695937Y00893579D01*
X00694883Y00895403D01*
X00694825Y00895523D01*
X00694782Y00895649D01*
X00694237Y00897683D01*
X00694211Y00897814D01*
X00694202Y00897947D01*
Y00900053D01*
X00694211Y00900186D01*
X00694237Y00900317D01*
X00694782Y00902352D01*
X00694825Y00902478D01*
X00694854Y00902537D01*
X00694883Y00902597D01*
X00695937Y00904421D01*
X00696011Y00904532D01*
X00696098Y00904632D01*
X00697588Y00906122D01*
X00697688Y00906209D01*
X00697799Y00906283D01*
X00699623Y00907337D01*
X00699742Y00907395D01*
X00699869Y00907438D01*
X00701903Y00907984D01*
X00702034Y00908009D01*
X00702167Y00908018D01*
X00703220D01*
X00703221Y00908018D01*
D02*
G37*
G36*
X00727353Y00933410D02*
X00727484Y00933383D01*
X00727610Y00933341D01*
X00727729Y00933282D01*
X00727840Y00933208D01*
X00727940Y00933120D01*
X00728028Y00933020D01*
X00728102Y00932909D01*
X00728161Y00932790D01*
X00728204Y00932663D01*
X00728230Y00932533D01*
X00728238Y00932400D01*
X00728238Y00916400D01*
X00728230Y00916267D01*
X00728204Y00916136D01*
X00728161Y00916010D01*
X00728102Y00915891D01*
X00728028Y00915780D01*
X00727940Y00915680D01*
X00727840Y00915592D01*
X00727729Y00915518D01*
X00727610Y00915459D01*
X00727484Y00915417D01*
X00727353Y00915391D01*
X00727220Y00915382D01*
X00703221Y00915382D01*
X00703220Y00915382D01*
X00702167D01*
X00702034Y00915390D01*
X00701903Y00915416D01*
X00699869Y00915962D01*
X00699743Y00916004D01*
X00699683Y00916034D01*
X00699623Y00916063D01*
X00697799Y00917117D01*
X00697688Y00917191D01*
X00697588Y00917278D01*
X00696098Y00918768D01*
X00696011Y00918868D01*
X00695937Y00918979D01*
X00694883Y00920803D01*
X00694825Y00920922D01*
X00694782Y00921049D01*
X00694237Y00923083D01*
X00694211Y00923214D01*
X00694202Y00923347D01*
Y00925453D01*
X00694211Y00925586D01*
X00694237Y00925717D01*
X00694782Y00927751D01*
X00694825Y00927878D01*
X00694854Y00927937D01*
X00694883Y00927997D01*
X00695937Y00929821D01*
X00696011Y00929932D01*
X00696098Y00930032D01*
X00697588Y00931522D01*
X00697688Y00931609D01*
X00697799Y00931683D01*
X00699623Y00932737D01*
X00699742Y00932795D01*
X00699869Y00932838D01*
X00701903Y00933383D01*
X00702034Y00933410D01*
X00702167Y00933418D01*
X00703220D01*
X00703220Y00933418D01*
X00727220D01*
X00727353Y00933410D01*
D02*
G37*
G36*
Y00958810D02*
X00727484Y00958783D01*
X00727610Y00958741D01*
X00727729Y00958682D01*
X00727840Y00958608D01*
X00727940Y00958520D01*
X00728028Y00958420D01*
X00728102Y00958309D01*
X00728161Y00958190D01*
X00728204Y00958064D01*
X00728230Y00957933D01*
X00728238Y00957800D01*
X00728238Y00941800D01*
X00728230Y00941667D01*
X00728204Y00941536D01*
X00728161Y00941410D01*
X00728102Y00941291D01*
X00728028Y00941180D01*
X00727940Y00941080D01*
X00727840Y00940992D01*
X00727729Y00940918D01*
X00727610Y00940859D01*
X00727484Y00940816D01*
X00727353Y00940790D01*
X00727220Y00940782D01*
X00703220D01*
X00702167Y00940782D01*
D01*
X00702167D01*
X00702034Y00940790D01*
X00701903Y00940816D01*
X00699869Y00941362D01*
X00699742Y00941404D01*
X00699683Y00941434D01*
X00699623Y00941463D01*
X00697799Y00942517D01*
X00697688Y00942591D01*
X00697588Y00942678D01*
X00696098Y00944168D01*
X00696011Y00944268D01*
X00695937Y00944379D01*
X00694883Y00946203D01*
X00694825Y00946322D01*
X00694782Y00946449D01*
X00694237Y00948483D01*
X00694211Y00948614D01*
X00694202Y00948747D01*
Y00950853D01*
X00694211Y00950986D01*
X00694237Y00951117D01*
X00694782Y00953151D01*
X00694825Y00953278D01*
X00694854Y00953337D01*
X00694883Y00953397D01*
X00695937Y00955221D01*
X00696011Y00955332D01*
X00696098Y00955432D01*
X00697588Y00956922D01*
X00697688Y00957009D01*
X00697799Y00957083D01*
X00699623Y00958137D01*
X00699742Y00958195D01*
X00699869Y00958238D01*
X00701903Y00958783D01*
X00702034Y00958810D01*
X00702167Y00958818D01*
X00727220D01*
X00727353Y00958810D01*
D02*
G37*
G36*
X00727353Y00984210D02*
X00727484Y00984184D01*
X00727610Y00984141D01*
X00727729Y00984082D01*
X00727840Y00984008D01*
X00727940Y00983920D01*
X00728028Y00983820D01*
X00728102Y00983709D01*
X00728161Y00983590D01*
X00728204Y00983464D01*
X00728230Y00983333D01*
X00728238Y00983200D01*
X00728238Y00967200D01*
X00728230Y00967067D01*
X00728204Y00966936D01*
X00728161Y00966810D01*
X00728102Y00966691D01*
X00728028Y00966580D01*
X00727940Y00966480D01*
X00727840Y00966392D01*
X00727729Y00966318D01*
X00727610Y00966259D01*
X00727484Y00966217D01*
X00727353Y00966190D01*
X00727220Y00966182D01*
X00703221Y00966182D01*
X00703220Y00966182D01*
X00702167D01*
X00702034Y00966190D01*
X00701903Y00966217D01*
X00699869Y00966762D01*
X00699743Y00966805D01*
X00699683Y00966834D01*
X00699623Y00966863D01*
X00697799Y00967917D01*
X00697688Y00967991D01*
X00697588Y00968078D01*
X00696098Y00969568D01*
X00696011Y00969668D01*
X00695937Y00969779D01*
X00694883Y00971603D01*
X00694825Y00971722D01*
X00694782Y00971849D01*
X00694237Y00973883D01*
X00694211Y00974014D01*
X00694202Y00974147D01*
Y00976253D01*
X00694211Y00976386D01*
X00694237Y00976517D01*
X00694782Y00978551D01*
X00694825Y00978678D01*
X00694854Y00978737D01*
X00694883Y00978797D01*
X00695937Y00980621D01*
X00696011Y00980732D01*
X00696098Y00980832D01*
X00697588Y00982322D01*
X00697688Y00982409D01*
X00697799Y00982483D01*
X00699623Y00983537D01*
X00699742Y00983596D01*
X00699869Y00983638D01*
X00701903Y00984184D01*
X00702034Y00984210D01*
X00702167Y00984218D01*
X00727220D01*
X00727353Y00984210D01*
D02*
G37*
D22*
X00337247Y00124738D02*
D03*
X00213647Y00124768D02*
D03*
X00581101Y00124738D02*
D03*
X00459566D02*
D03*
D23*
X00337247Y00118238D02*
D03*
Y00111738D02*
D03*
X00356807D02*
D03*
Y00118238D02*
D03*
Y00124738D02*
D03*
X00213647Y00118268D02*
D03*
Y00111768D02*
D03*
X00233207D02*
D03*
Y00118268D02*
D03*
Y00124768D02*
D03*
X00600661Y00124738D02*
D03*
Y00118238D02*
D03*
Y00111738D02*
D03*
X00581101D02*
D03*
Y00118238D02*
D03*
X00479127Y00124738D02*
D03*
Y00118238D02*
D03*
Y00111738D02*
D03*
X00459566D02*
D03*
Y00118238D02*
D03*
D24*
X00405890Y00677380D02*
D03*
X00396390D02*
D03*
X00386890D02*
D03*
Y00704379D02*
D03*
X00396390D02*
D03*
X00405890D02*
D03*
D46*
X00749420Y00980440D02*
D03*
X00764420D02*
D03*
X00079700Y00092646D02*
D03*
X00094700D02*
D03*
X00079700Y00422846D02*
D03*
X00094700D02*
D03*
X00079700Y00670496D02*
D03*
X00094700D02*
D03*
X00079700Y00505396D02*
D03*
X00094700D02*
D03*
X00079700Y00753046D02*
D03*
X00094700D02*
D03*
X00891540Y00072454D02*
D03*
X00876540D02*
D03*
X00875540Y00320104D02*
D03*
X00890540D02*
D03*
X00079700Y00175196D02*
D03*
X00094700D02*
D03*
X00526796Y00139117D02*
D03*
X00541796D02*
D03*
X00280876D02*
D03*
X00295876D02*
D03*
X00079700Y00257746D02*
D03*
X00094700D02*
D03*
X00648330Y00139117D02*
D03*
X00663330D02*
D03*
X00875540Y00567754D02*
D03*
X00890540D02*
D03*
X00079700Y00340296D02*
D03*
X00094700D02*
D03*
X00079700Y00587946D02*
D03*
X00094700D02*
D03*
X00876810Y00237554D02*
D03*
X00891810Y00237554D02*
D03*
X00875540Y00815395D02*
D03*
X00890540D02*
D03*
X00404476Y00139117D02*
D03*
X00419476D02*
D03*
X00875540Y00485204D02*
D03*
X00890540D02*
D03*
X00875540Y00650304D02*
D03*
X00890540D02*
D03*
X00094700Y00835596D02*
D03*
X00079700Y00835596D02*
D03*
Y00918146D02*
D03*
X00094700D02*
D03*
X00876540Y00155004D02*
D03*
X00891540D02*
D03*
X00875540Y00402654D02*
D03*
X00890540D02*
D03*
X00875540Y00732854D02*
D03*
X00890540D02*
D03*
X00094700Y00010160D02*
D03*
X00079700D02*
D03*
X00890540Y00980704D02*
D03*
X00875540Y00980704D02*
D03*
X00890540Y00896664D02*
D03*
X00875540D02*
D03*
D47*
X00748920Y00951230D02*
D03*
X00764920D02*
D03*
X00830960Y00040640D02*
D03*
X00814960D02*
D03*
X00863980Y00154940D02*
D03*
X00847980D02*
D03*
X00815230Y00205740D02*
D03*
X00831230D02*
D03*
X00813960Y00288290D02*
D03*
X00829960D02*
D03*
X00864250Y00237490D02*
D03*
X00848250D02*
D03*
X00156280Y00057150D02*
D03*
X00140280D02*
D03*
X00829960Y00588010D02*
D03*
X00813960D02*
D03*
X00813960Y00685800D02*
D03*
X00829960D02*
D03*
X00813960Y00768341D02*
D03*
X00829960D02*
D03*
X00156280Y00320040D02*
D03*
X00140280D02*
D03*
Y00454660D02*
D03*
X00156280D02*
D03*
Y00402590D02*
D03*
X00140280D02*
D03*
Y00372110D02*
D03*
X00156280D02*
D03*
X00123260Y00422910D02*
D03*
X00107260D02*
D03*
X00123260Y00505460D02*
D03*
X00107260D02*
D03*
X00156280Y00567690D02*
D03*
X00140280D02*
D03*
X00156280Y00650240D02*
D03*
X00140280D02*
D03*
Y00619760D02*
D03*
X00156280D02*
D03*
X00123260Y00670560D02*
D03*
X00107260D02*
D03*
X00140280Y00702310D02*
D03*
X00156280D02*
D03*
X00123260Y00753110D02*
D03*
X00107260D02*
D03*
X00140280Y00965200D02*
D03*
X00156280D02*
D03*
X00814960Y00010160D02*
D03*
X00830960D02*
D03*
X00280376Y00155279D02*
D03*
X00296376Y00155279D02*
D03*
X00830960Y00092710D02*
D03*
X00814960D02*
D03*
Y00107950D02*
D03*
X00830960D02*
D03*
X00815230Y00190500D02*
D03*
X00831230D02*
D03*
X00526296Y00155279D02*
D03*
X00542296D02*
D03*
X00862980Y00485140D02*
D03*
X00846980D02*
D03*
X00862980Y00402590D02*
D03*
X00846980D02*
D03*
X00107260Y00010160D02*
D03*
X00123260D02*
D03*
X00829960Y00753101D02*
D03*
X00813960D02*
D03*
X00140280Y00072390D02*
D03*
X00156280D02*
D03*
X00829960Y00834370D02*
D03*
X00813960D02*
D03*
X00862980Y00650240D02*
D03*
X00846980D02*
D03*
X00813960Y00453390D02*
D03*
X00829960D02*
D03*
X00140280Y00154940D02*
D03*
X00156280D02*
D03*
X00140280Y00207010D02*
D03*
X00156280D02*
D03*
X00349527Y00155279D02*
D03*
X00333527D02*
D03*
X00123260Y00175260D02*
D03*
X00107260D02*
D03*
X00156280Y00124460D02*
D03*
X00140280D02*
D03*
X00862980Y00732790D02*
D03*
X00846980D02*
D03*
X00813960Y00701040D02*
D03*
X00829960D02*
D03*
X00813960Y00535940D02*
D03*
X00829960D02*
D03*
X00123260Y00257810D02*
D03*
X00107260D02*
D03*
X00813960Y00783581D02*
D03*
X00829960D02*
D03*
X00140280Y00552450D02*
D03*
X00156280D02*
D03*
X00140280Y00717550D02*
D03*
X00156280D02*
D03*
X00829960Y00257810D02*
D03*
X00813960Y00257810D02*
D03*
X00829960Y00340360D02*
D03*
X00813960D02*
D03*
Y00355600D02*
D03*
X00829960D02*
D03*
X00862980Y00896600D02*
D03*
X00846980D02*
D03*
X00471847Y00155279D02*
D03*
X00455847D02*
D03*
X00813960Y00438150D02*
D03*
X00829960D02*
D03*
X00813960Y00603250D02*
D03*
X00829960D02*
D03*
X00156280Y00139700D02*
D03*
X00140280D02*
D03*
X00862980Y00980640D02*
D03*
X00846980D02*
D03*
X00829960Y00505460D02*
D03*
X00813960Y00505460D02*
D03*
X00140280Y00304800D02*
D03*
X00156280D02*
D03*
X00140280Y00387350D02*
D03*
X00156280D02*
D03*
X00386890Y00656630D02*
D03*
X00402890D02*
D03*
X00140280Y00784860D02*
D03*
X00156280D02*
D03*
Y00732790D02*
D03*
X00140280D02*
D03*
Y00897890D02*
D03*
X00156280D02*
D03*
X00140280Y00949960D02*
D03*
X00156280D02*
D03*
X00814960Y00123190D02*
D03*
X00830960D02*
D03*
X00847980Y00072390D02*
D03*
X00863980D02*
D03*
X00862980Y00320040D02*
D03*
X00846980D02*
D03*
X00813960Y00370840D02*
D03*
X00829960Y00370840D02*
D03*
X00813960Y00849610D02*
D03*
X00829960D02*
D03*
X00813960Y00933650D02*
D03*
X00829960D02*
D03*
X00225927Y00155279D02*
D03*
X00209927D02*
D03*
X00140280Y00289560D02*
D03*
X00156280D02*
D03*
Y00237490D02*
D03*
X00140280D02*
D03*
X00123260Y00340360D02*
D03*
X00107260D02*
D03*
X00156280Y00485140D02*
D03*
X00140280D02*
D03*
Y00537210D02*
D03*
X00156280D02*
D03*
X00123260Y00588010D02*
D03*
X00107260D02*
D03*
X00140280Y00800100D02*
D03*
X00156280D02*
D03*
X00140280Y00882650D02*
D03*
X00156280D02*
D03*
X00830960Y00025400D02*
D03*
X00814960D02*
D03*
X00831230Y00175260D02*
D03*
X00815230D02*
D03*
X00403976Y00155279D02*
D03*
X00419976D02*
D03*
X00647830D02*
D03*
X00663830D02*
D03*
X00813960Y00273050D02*
D03*
X00829960D02*
D03*
X00813960Y00864850D02*
D03*
X00829960D02*
D03*
X00593381Y00155279D02*
D03*
X00577381D02*
D03*
X00156280Y00041910D02*
D03*
X00140280D02*
D03*
X00813960Y00948890D02*
D03*
X00829960D02*
D03*
X00862980Y00815331D02*
D03*
X00846980D02*
D03*
X00813960Y00618490D02*
D03*
X00829960Y00618490D02*
D03*
X00107260Y00092710D02*
D03*
X00123260D02*
D03*
X00862980Y00567690D02*
D03*
X00846980D02*
D03*
X00140280Y00469900D02*
D03*
X00156280D02*
D03*
X00416180Y00656630D02*
D03*
X00432180D02*
D03*
X00140280Y00635000D02*
D03*
X00156280D02*
D03*
X00357704Y00656630D02*
D03*
X00373704D02*
D03*
X00156280Y00980440D02*
D03*
X00140280D02*
D03*
X00829960Y00422910D02*
D03*
X00813960D02*
D03*
X00140280Y00222250D02*
D03*
X00156280D02*
D03*
X00813960Y00520700D02*
D03*
X00829960D02*
D03*
X00829960Y00670560D02*
D03*
X00813960Y00670560D02*
D03*
X00107260Y00835660D02*
D03*
X00123260D02*
D03*
Y00918210D02*
D03*
X00107260D02*
D03*
X00829960Y00918410D02*
D03*
X00813960D02*
D03*
X00156280Y00867410D02*
D03*
X00140280D02*
D03*
X00156280Y00815340D02*
D03*
X00140280D02*
D03*
D48*
X00347027Y00118238D02*
D03*
X00223427Y00118268D02*
D03*
X00590881Y00118238D02*
D03*
X00469347D02*
D03*
D49*
X00548668Y00110617D02*
D03*
Y00123617D02*
D03*
X00426348Y00110617D02*
D03*
Y00123617D02*
D03*
X00302748Y00110617D02*
D03*
Y00123617D02*
D03*
X00670202Y00110617D02*
D03*
Y00123617D02*
D03*
X00709930Y00288140D02*
D03*
Y00301140D02*
D03*
Y00344320D02*
D03*
Y00331320D02*
D03*
X00291924Y00286728D02*
D03*
Y00299728D02*
D03*
X00290830Y00343050D02*
D03*
Y00330050D02*
D03*
X00426720Y00691030D02*
D03*
Y00678030D02*
D03*
X00381000Y00491770D02*
D03*
Y00478770D02*
D03*
X00431800Y00491520D02*
D03*
Y00478520D02*
D03*
D50*
X00521596Y00125481D02*
D03*
Y00109481D02*
D03*
X00275676Y00125481D02*
D03*
Y00109481D02*
D03*
X00643130D02*
D03*
Y00125481D02*
D03*
X00616840Y00109481D02*
D03*
Y00125481D02*
D03*
X00682742Y00345820D02*
D03*
Y00329820D02*
D03*
X00264702Y00302228D02*
D03*
Y00286228D02*
D03*
X00448729Y00547560D02*
D03*
Y00531560D02*
D03*
X00249386Y00109481D02*
D03*
Y00125481D02*
D03*
X00237480Y00345570D02*
D03*
Y00329570D02*
D03*
X00682742Y00302340D02*
D03*
Y00286340D02*
D03*
X00655520Y00345820D02*
D03*
Y00329820D02*
D03*
X00495306Y00109481D02*
D03*
Y00125481D02*
D03*
X00372986Y00109481D02*
D03*
Y00125481D02*
D03*
X00399276Y00109481D02*
D03*
Y00125481D02*
D03*
X00237480Y00302228D02*
D03*
Y00286228D02*
D03*
X00396240Y00477020D02*
D03*
Y00493020D02*
D03*
X00466200Y00477020D02*
D03*
Y00493020D02*
D03*
X00448730Y00477270D02*
D03*
Y00493270D02*
D03*
X00466393Y00547560D02*
D03*
Y00531560D02*
D03*
X00264702Y00345570D02*
D03*
Y00329570D02*
D03*
X00412100Y00477270D02*
D03*
Y00493270D02*
D03*
X00655520Y00302340D02*
D03*
Y00286340D02*
D03*
D51*
X00282803Y00538367D02*
D03*
X00295803D02*
D03*
X00401390Y00637754D02*
D03*
X00388390D02*
D03*
X00401390Y00749610D02*
D03*
X00388390D02*
D03*
D52*
X00426720Y00742610D02*
D03*
Y00756610D02*
D03*
X00448310D02*
D03*
Y00742610D02*
D03*
D53*
X00307340Y00828180D02*
D03*
Y00782180D02*
D03*
X00349250Y00486270D02*
D03*
Y00532270D02*
D03*
D54*
X00714860Y00034290D02*
D03*
X00721360D02*
D03*
X00727860D02*
D03*
X00734360D02*
D03*
X00740860D02*
D03*
D55*
X00695860Y00032040D02*
D03*
X00759860D02*
D03*
D56*
X00715860Y00007540D02*
D03*
X00739860D02*
D03*
D57*
X00834960Y00064770D02*
D03*
X00810960Y00074270D02*
D03*
X00811230Y00239370D02*
D03*
X00835230Y00229870D02*
D03*
X00809960Y00321920D02*
D03*
X00833960Y00312420D02*
D03*
X00509846Y00147029D02*
D03*
X00485846Y00156529D02*
D03*
X00136280Y00430530D02*
D03*
X00160280Y00421030D02*
D03*
X00136280Y00347980D02*
D03*
X00160280Y00338480D02*
D03*
X00136280Y00595630D02*
D03*
X00160280Y00586130D02*
D03*
X00136280Y00678180D02*
D03*
X00160280Y00668680D02*
D03*
X00631380Y00147029D02*
D03*
X00607380Y00156529D02*
D03*
X00809960Y00487020D02*
D03*
X00833960Y00477520D02*
D03*
X00809960Y00569570D02*
D03*
X00833960Y00560070D02*
D03*
X00809960Y00734670D02*
D03*
X00833960Y00725170D02*
D03*
X00263926Y00147029D02*
D03*
X00239926Y00156529D02*
D03*
X00136280Y00182880D02*
D03*
X00160280Y00173380D02*
D03*
Y00090830D02*
D03*
X00136280Y00100330D02*
D03*
X00809960Y00817211D02*
D03*
X00833960Y00807711D02*
D03*
X00136280Y00760730D02*
D03*
X00160280Y00751230D02*
D03*
X00136280Y00925830D02*
D03*
X00160280Y00916330D02*
D03*
X00810960Y00156820D02*
D03*
X00834960Y00147320D02*
D03*
X00809960Y00404470D02*
D03*
X00833960Y00394970D02*
D03*
X00387526Y00147029D02*
D03*
X00363526Y00156529D02*
D03*
X00136280Y00265430D02*
D03*
X00160280Y00255930D02*
D03*
X00136280Y00513080D02*
D03*
X00160280Y00503580D02*
D03*
X00809960Y00898480D02*
D03*
X00833960Y00888980D02*
D03*
X00160280Y00008280D02*
D03*
X00136280Y00017780D02*
D03*
X00809960Y00982520D02*
D03*
X00833960Y00973020D02*
D03*
X00809960Y00652120D02*
D03*
X00833960Y00642620D02*
D03*
X00160280Y00833780D02*
D03*
X00136280Y00843280D02*
D03*
D58*
X00810960Y00055270D02*
D03*
X00811230Y00220370D02*
D03*
X00809960Y00302920D02*
D03*
X00485846Y00137529D02*
D03*
X00160280Y00440030D02*
D03*
Y00357480D02*
D03*
Y00605130D02*
D03*
Y00687680D02*
D03*
X00607380Y00137529D02*
D03*
X00809960Y00468020D02*
D03*
Y00550570D02*
D03*
Y00715670D02*
D03*
X00239926Y00137529D02*
D03*
X00160280Y00192380D02*
D03*
Y00109830D02*
D03*
X00809960Y00798211D02*
D03*
X00160280Y00770230D02*
D03*
Y00935330D02*
D03*
X00810960Y00137820D02*
D03*
X00809960Y00385470D02*
D03*
X00363526Y00137529D02*
D03*
X00160280Y00274930D02*
D03*
Y00522580D02*
D03*
X00809960Y00879480D02*
D03*
X00160280Y00027280D02*
D03*
X00809960Y00963520D02*
D03*
Y00633120D02*
D03*
X00160280Y00852780D02*
D03*
D59*
X00100020Y00058420D02*
D03*
X00871490Y00189230D02*
D03*
X00870220Y00436880D02*
D03*
Y00354330D02*
D03*
Y00601980D02*
D03*
X00100020Y00306070D02*
D03*
Y00223520D02*
D03*
Y00471170D02*
D03*
X00871220Y00024130D02*
D03*
X00870220Y00848340D02*
D03*
X00870220Y00932380D02*
D03*
Y00684530D02*
D03*
X00871220Y00106680D02*
D03*
X00870220Y00271780D02*
D03*
X00100020Y00388620D02*
D03*
Y00636270D02*
D03*
Y00553720D02*
D03*
Y00801370D02*
D03*
Y00140970D02*
D03*
X00870220Y00767071D02*
D03*
X00870220Y00519430D02*
D03*
X00100020Y00718820D02*
D03*
X00100020Y00883920D02*
D03*
X00100020Y00966470D02*
D03*
D60*
X00086020Y00054420D02*
D03*
X00114020Y00054420D02*
D03*
X00885490Y00193230D02*
D03*
X00857490Y00193230D02*
D03*
X00884220Y00440880D02*
D03*
X00856220Y00440880D02*
D03*
X00884220Y00358330D02*
D03*
X00856220Y00358330D02*
D03*
X00884220Y00605980D02*
D03*
X00856220Y00605980D02*
D03*
X00114020Y00302070D02*
D03*
X00086020Y00302070D02*
D03*
X00114020Y00219520D02*
D03*
X00086020Y00219520D02*
D03*
X00114020Y00467170D02*
D03*
X00086020Y00467170D02*
D03*
X00857220Y00028130D02*
D03*
X00885220Y00028130D02*
D03*
X00884220Y00852340D02*
D03*
X00856220Y00852340D02*
D03*
X00884220Y00936380D02*
D03*
X00856220Y00936380D02*
D03*
X00884220Y00688530D02*
D03*
X00856220Y00688530D02*
D03*
X00885220Y00110680D02*
D03*
X00857220Y00110680D02*
D03*
X00884220Y00275780D02*
D03*
X00856220Y00275780D02*
D03*
X00114020Y00384620D02*
D03*
X00086020Y00384620D02*
D03*
X00114020Y00632270D02*
D03*
X00086020Y00632270D02*
D03*
X00114020Y00549720D02*
D03*
X00086020Y00549720D02*
D03*
X00114020Y00797370D02*
D03*
X00086020Y00797370D02*
D03*
Y00136970D02*
D03*
X00114020Y00136970D02*
D03*
X00884220Y00771071D02*
D03*
X00856220Y00771071D02*
D03*
X00884220Y00523430D02*
D03*
X00856220Y00523430D02*
D03*
X00114020Y00714820D02*
D03*
X00086020Y00714820D02*
D03*
Y00879920D02*
D03*
X00114020Y00879920D02*
D03*
X00114020Y00962470D02*
D03*
X00086020Y00962470D02*
D03*
D61*
X00109770Y00068420D02*
D03*
X00103270D02*
D03*
X00096770D02*
D03*
X00090270D02*
D03*
X00109770Y00040420D02*
D03*
X00103270D02*
D03*
X00096770D02*
D03*
X00090270D02*
D03*
X00861740Y00179230D02*
D03*
X00868240D02*
D03*
X00874740D02*
D03*
X00881240D02*
D03*
X00861740Y00207230D02*
D03*
X00868240D02*
D03*
X00874740D02*
D03*
X00881240D02*
D03*
X00860470Y00426880D02*
D03*
X00866970D02*
D03*
X00873470D02*
D03*
X00879970D02*
D03*
X00860470Y00454880D02*
D03*
X00866970D02*
D03*
X00873470D02*
D03*
X00879970D02*
D03*
X00860470Y00344330D02*
D03*
X00866970D02*
D03*
X00873470D02*
D03*
X00879970D02*
D03*
X00860470Y00372330D02*
D03*
X00866970Y00372330D02*
D03*
X00873470Y00372330D02*
D03*
X00879970Y00372330D02*
D03*
X00860470Y00591980D02*
D03*
X00866970D02*
D03*
X00873470D02*
D03*
X00879970D02*
D03*
X00860470Y00619980D02*
D03*
X00866970Y00619980D02*
D03*
X00873470Y00619980D02*
D03*
X00879970Y00619980D02*
D03*
X00090270Y00288070D02*
D03*
X00096770D02*
D03*
X00103270D02*
D03*
X00109770D02*
D03*
X00090270Y00316070D02*
D03*
X00096770D02*
D03*
X00103270D02*
D03*
X00109770D02*
D03*
X00090270Y00205520D02*
D03*
X00096770D02*
D03*
X00103270D02*
D03*
X00109770D02*
D03*
X00090270Y00233520D02*
D03*
X00096770D02*
D03*
X00103270D02*
D03*
X00109770D02*
D03*
X00090270Y00453170D02*
D03*
X00096770D02*
D03*
X00103270D02*
D03*
X00109770D02*
D03*
X00090270Y00481170D02*
D03*
X00096770D02*
D03*
X00103270D02*
D03*
X00109770D02*
D03*
X00880970Y00042130D02*
D03*
X00874470D02*
D03*
X00867970D02*
D03*
X00861470D02*
D03*
X00880970Y00014130D02*
D03*
X00874470D02*
D03*
X00867970D02*
D03*
X00861470D02*
D03*
X00860470Y00838340D02*
D03*
X00866970D02*
D03*
X00873470D02*
D03*
X00879970D02*
D03*
X00860470Y00866340D02*
D03*
X00866970Y00866340D02*
D03*
X00873470Y00866340D02*
D03*
X00879970Y00866340D02*
D03*
X00860470Y00922380D02*
D03*
X00866970D02*
D03*
X00873470D02*
D03*
X00879970D02*
D03*
X00860470Y00950380D02*
D03*
X00866970D02*
D03*
X00873470D02*
D03*
X00879970D02*
D03*
X00860470Y00674530D02*
D03*
X00866970D02*
D03*
X00873470D02*
D03*
X00879970D02*
D03*
X00860470Y00702530D02*
D03*
X00866970Y00702530D02*
D03*
X00873470Y00702530D02*
D03*
X00879970Y00702530D02*
D03*
X00861470Y00096680D02*
D03*
X00867970D02*
D03*
X00874470D02*
D03*
X00880970D02*
D03*
X00861470Y00124680D02*
D03*
X00867970D02*
D03*
X00874470D02*
D03*
X00880970D02*
D03*
X00860470Y00261780D02*
D03*
X00866970D02*
D03*
X00873470D02*
D03*
X00879970D02*
D03*
X00860470Y00289780D02*
D03*
X00866970D02*
D03*
X00873470D02*
D03*
X00879970D02*
D03*
X00090270Y00370620D02*
D03*
X00096770D02*
D03*
X00103270D02*
D03*
X00109770D02*
D03*
X00090270Y00398620D02*
D03*
X00096770D02*
D03*
X00103270D02*
D03*
X00109770D02*
D03*
X00090270Y00618270D02*
D03*
X00096770D02*
D03*
X00103270D02*
D03*
X00109770D02*
D03*
X00090270Y00646270D02*
D03*
X00096770D02*
D03*
X00103270D02*
D03*
X00109770D02*
D03*
X00090270Y00535720D02*
D03*
X00096770D02*
D03*
X00103270D02*
D03*
X00109770D02*
D03*
X00090270Y00563720D02*
D03*
X00096770D02*
D03*
X00103270D02*
D03*
X00109770D02*
D03*
X00090270Y00783370D02*
D03*
X00096770D02*
D03*
X00103270D02*
D03*
X00109770D02*
D03*
X00090270Y00811370D02*
D03*
X00096770D02*
D03*
X00103270D02*
D03*
X00109770D02*
D03*
Y00150970D02*
D03*
X00103270D02*
D03*
X00096770D02*
D03*
X00090270D02*
D03*
X00109770Y00122970D02*
D03*
X00103270D02*
D03*
X00096770D02*
D03*
X00090270D02*
D03*
X00860470Y00757071D02*
D03*
X00866970D02*
D03*
X00873470D02*
D03*
X00879970D02*
D03*
X00860470Y00785071D02*
D03*
X00866970Y00785071D02*
D03*
X00873470Y00785071D02*
D03*
X00879970Y00785071D02*
D03*
X00860470Y00509430D02*
D03*
X00866970D02*
D03*
X00873470D02*
D03*
X00879970D02*
D03*
X00860470Y00537430D02*
D03*
X00866970D02*
D03*
X00873470D02*
D03*
X00879970D02*
D03*
X00090270Y00700820D02*
D03*
X00096770D02*
D03*
X00103270D02*
D03*
X00109770D02*
D03*
X00090270Y00728820D02*
D03*
X00096770D02*
D03*
X00103270D02*
D03*
X00109770D02*
D03*
Y00893920D02*
D03*
X00103270D02*
D03*
X00096770D02*
D03*
X00090270D02*
D03*
X00109770Y00865920D02*
D03*
X00103270Y00865920D02*
D03*
X00096770Y00865920D02*
D03*
X00090270Y00865920D02*
D03*
Y00948470D02*
D03*
X00096770D02*
D03*
X00103270D02*
D03*
X00109770D02*
D03*
X00090270Y00976470D02*
D03*
X00096770D02*
D03*
X00103270D02*
D03*
X00109770D02*
D03*
D62*
X00237700Y00521860D02*
D03*
Y00515360D02*
D03*
Y00508860D02*
D03*
Y00502360D02*
D03*
Y00495860D02*
D03*
Y00489360D02*
D03*
Y00482860D02*
D03*
Y00476360D02*
D03*
X00295700Y00521860D02*
D03*
Y00515360D02*
D03*
Y00508860D02*
D03*
Y00502360D02*
D03*
Y00495860D02*
D03*
Y00489360D02*
D03*
Y00482860D02*
D03*
Y00476360D02*
D03*
D63*
X00240030Y00829310D02*
D03*
Y00763310D02*
D03*
D64*
X00713700Y00975360D02*
D03*
Y00949960D02*
D03*
Y00924560D02*
D03*
Y00899160D02*
D03*
Y00873760D02*
D03*
Y00848360D02*
D03*
Y00822960D02*
D03*
Y00797560D02*
D03*
Y00772160D02*
D03*
Y00746760D02*
D03*
Y00721360D02*
D03*
Y00695960D02*
D03*
Y00670560D02*
D03*
Y00645160D02*
D03*
Y00619760D02*
D03*
Y00594360D02*
D03*
Y00568960D02*
D03*
Y00518160D02*
D03*
Y00492760D02*
D03*
X00514900D02*
D03*
X00514900Y00518160D02*
D03*
Y00543560D02*
D03*
X00514900Y00568960D02*
D03*
Y00594360D02*
D03*
X00514900Y00619760D02*
D03*
Y00645160D02*
D03*
Y00670560D02*
D03*
X00514900Y00695960D02*
D03*
Y00721360D02*
D03*
X00514900Y00746760D02*
D03*
Y00772160D02*
D03*
X00514900Y00797560D02*
D03*
X00514900Y00822960D02*
D03*
Y00848360D02*
D03*
Y00873760D02*
D03*
Y00899160D02*
D03*
X00514900Y00924560D02*
D03*
Y00949960D02*
D03*
X00514900Y00975360D02*
D03*
D65*
X00711200Y00543560D02*
D03*
D66*
X00624201Y00490988D02*
D03*
X00604201Y00490988D02*
D03*
X00614201Y00523988D02*
D03*
X00639201Y00573987D02*
D03*
Y00598987D02*
D03*
Y00623987D02*
D03*
D67*
X00655520Y00443760D02*
D03*
X00702520Y00365760D02*
D03*
Y00443760D02*
D03*
X00655520Y00365760D02*
D03*
X00237480Y00188288D02*
D03*
X00284480Y00266288D02*
D03*
Y00188288D02*
D03*
X00237480Y00266288D02*
D03*
X00655520Y00188400D02*
D03*
X00702520Y00266400D02*
D03*
Y00188400D02*
D03*
X00655520Y00266400D02*
D03*
X00237480Y00443760D02*
D03*
X00284480Y00365760D02*
D03*
Y00443760D02*
D03*
X00237480Y00365760D02*
D03*
D68*
X00363890Y00814070D02*
D03*
X00428890D02*
D03*
D69*
X00387970Y00732790D02*
D03*
X00401970D02*
D03*
D70*
X00912240Y00059410D02*
D03*
Y00024410D02*
D03*
X00059000Y00023140D02*
D03*
Y00058140D02*
D03*
Y00140690D02*
D03*
Y00105690D02*
D03*
Y00188240D02*
D03*
Y00223240D02*
D03*
Y00305790D02*
D03*
Y00270790D02*
D03*
Y00353340D02*
D03*
Y00388340D02*
D03*
Y00470890D02*
D03*
Y00435890D02*
D03*
Y00518440D02*
D03*
Y00553440D02*
D03*
Y00635990D02*
D03*
Y00600990D02*
D03*
Y00683540D02*
D03*
Y00718540D02*
D03*
Y00801090D02*
D03*
Y00766090D02*
D03*
Y00848640D02*
D03*
Y00883640D02*
D03*
Y00966190D02*
D03*
Y00931190D02*
D03*
X00911240Y00967660D02*
D03*
Y00932660D02*
D03*
X00911240Y00848620D02*
D03*
Y00883620D02*
D03*
Y00802351D02*
D03*
Y00767351D02*
D03*
Y00684810D02*
D03*
Y00719810D02*
D03*
Y00637260D02*
D03*
Y00602260D02*
D03*
X00911240Y00519710D02*
D03*
Y00554710D02*
D03*
Y00472160D02*
D03*
Y00437160D02*
D03*
X00911240Y00354610D02*
D03*
Y00389610D02*
D03*
X00911240Y00307060D02*
D03*
Y00272060D02*
D03*
X00912510Y00189510D02*
D03*
Y00224510D02*
D03*
X00912240Y00141960D02*
D03*
Y00106960D02*
D03*
D71*
X00346182Y00930910D02*
D03*
X00381182D02*
D03*
X00290504Y00053200D02*
D03*
X00255504D02*
D03*
X00220504D02*
D03*
X00587958D02*
D03*
X00622958D02*
D03*
X00657958D02*
D03*
X00536424D02*
D03*
X00501424D02*
D03*
X00466424D02*
D03*
X00344104D02*
D03*
X00379104D02*
D03*
X00414104D02*
D03*
D72*
X00694860Y00007540D02*
D03*
X00760860D02*
D03*
D73*
X00508000Y00434000D02*
D03*
X00482600D02*
D03*
X00457200D02*
D03*
D74*
X00431800D02*
D03*
D75*
X00564957Y00430000D02*
D03*
X00374957Y00430000D02*
D03*
X00564957Y00192000D02*
D03*
X00374957Y00192000D02*
D03*
D76*
X00557559Y00790987D02*
D03*
X00608359D02*
D03*
D77*
X00582959D02*
D03*
D78*
X00355092Y00895350D02*
D03*
X00431292Y00877570D02*
D03*
D79*
X00424180Y00937260D02*
D03*
D80*
X00449580D02*
D03*
X00474980D02*
D03*
D81*
X00265430Y00878530D02*
D03*
D82*
Y00938530D02*
D03*
D83*
X00218430Y00908530D02*
D03*
M02*
